<svg xmlns="http://www.w3.org/2000/svg" height="95.787" width="569.787"><path d="M141.473 22.673c.286.04.627.087 1.026.138.397.05.805.091 1.224.122.417.03.83.056 1.238.076.408.021.776.03 1.103.03 1.264 0 2.432-.126 3.503-.38 1.072-.257 2-.648 2.785-1.18a5.702 5.702 0 001.836-1.989c.439-.795.657-1.743.657-2.845 0-.959-.137-1.78-.413-2.464-.275-.682-.643-1.255-1.101-1.713a5.01 5.01 0 00-1.576-1.07 6.829 6.829 0 00-1.836-.506c.469-.143.922-.356 1.362-.643.438-.285.82-.637 1.147-1.056.327-.417.587-.887.78-1.407a4.9 4.9 0 00.29-1.73c0-1.957-.64-3.4-1.926-4.328-1.285-.93-3.132-1.393-5.539-1.393a28.448 28.448 0 00-2.479.122c-.429.042-.831.081-1.209.123-.377.041-.668.072-.872.092zm2.112-12.637V2.354c.286-.04.668-.08 1.147-.122.48-.04.984-.061 1.515-.061 1.734 0 3.004.373 3.81 1.117.806.745 1.208 1.668 1.208 2.769 0 1.184-.382 2.143-1.148 2.876-.764.735-1.973 1.103-3.625 1.103zm0 1.988h3.12c.816 0 1.582.082 2.296.245.714.164 1.336.428 1.867.796.53.367.948.841 1.255 1.423.305.58.458 1.3.458 2.157 0 .856-.178 1.57-.536 2.141a4.08 4.08 0 01-1.422 1.378 6.256 6.256 0 01-2.035.735c-.765.142-1.545.214-2.341.214-.531 0-1.035-.016-1.515-.047-.479-.03-.861-.065-1.147-.106zm17.482 10.65c.142.019.305.035.489.044a9.733 9.733 0 001.101 0 5.7 5.7 0 00.52-.045V2.263c.511-.062.95-.102 1.316-.123.368-.02.766-.03 1.194-.03 1.674 0 2.998.397 3.978 1.192.979.797 1.468 1.99 1.468 3.582 0 .775-.152 1.448-.458 2.018a4.976 4.976 0 01-1.208 1.484c-.5.419-1.078.776-1.73 1.073-.653.295-1.326.534-2.02.718l-.673.184v.123l7.712 10.19c.204.04.403.06.596.06h1.209c.204 0 .408-.02.612-.06l-7.008-9.488.246-.09a10.87 10.87 0 001.85-.934 7.214 7.214 0 001.592-1.346c.459-.52.831-1.107 1.116-1.76.287-.652.43-1.378.43-2.172 0-1.285-.23-2.352-.69-3.199-.458-.845-1.065-1.519-1.82-2.019a7.387 7.387 0 00-2.554-1.055 13.71 13.71 0 00-2.892-.307c-.47 0-.878.005-1.224.015-.348.011-.679.031-.995.062l-.98.092c-.336.03-.73.065-1.177.107zm19.69 0c.123.019.28.035.475.044a11.09 11.09 0 001.148 0c.183-.009.345-.025.49-.045V.672a6.142 6.142 0 00-.49-.047 10.895 10.895 0 00-1.103 0c-.204.01-.377.027-.52.047zm22.994-2.051c-.45.163-.983.28-1.607.351-.623.073-1.392.109-2.31.109a9.01 9.01 0 01-3.167-.553 6.91 6.91 0 01-2.586-1.682c-.734-.755-1.316-1.708-1.745-2.862-.428-1.151-.643-2.513-.643-4.085 0-1.53.2-2.896.598-4.1.397-1.202.948-2.223 1.652-3.06a7.027 7.027 0 012.525-1.912c.979-.439 2.05-.658 3.212-.658 1.164 0 2.123.088 2.877.26.755.174 1.358.342 1.806.505.142-.347.249-.652.321-.918.07-.265.127-.582.168-.95-.53-.162-1.224-.33-2.081-.504-.856-.172-1.927-.26-3.212-.26-1.45 0-2.791.26-4.024.781a9.105 9.105 0 00-3.212 2.264c-.908.99-1.619 2.203-2.128 3.641-.511 1.439-.766 3.075-.766 4.911 0 1.837.26 3.448.78 4.836.522 1.387 1.24 2.55 2.158 3.488a8.802 8.802 0 003.274 2.112c1.266.468 2.632.703 4.1.703.552 0 1.112-.02 1.684-.06.571-.042 1.127-.103 1.667-.185.541-.082 1.05-.183 1.53-.306a5.647 5.647 0 001.24-.459V11.32a6.38 6.38 0 00-.49-.046 9.684 9.684 0 00-1.101 0c-.204.011-.378.026-.52.045zm9.276 2.05c.121.02.278.036.473.045a9.733 9.733 0 001.147 0 5.61 5.61 0 00.489-.045V.672a6.023 6.023 0 00-.49-.047 10.843 10.843 0 00-1.1 0c-.203.01-.378.027-.52.047zm13.542 0c.122.02.28.036.475.045a11.052 11.052 0 001.147 0 5.61 5.61 0 00.489-.045V2.57h5.907c.02-.122.034-.28.046-.474.008-.194.014-.363.014-.506 0-.163-.006-.325-.014-.49a5.03 5.03 0 00-.046-.427h-13.924c-.02.123-.036.275-.044.458a7.563 7.563 0 000 .995c.008.174.024.322.044.444h5.906zm18.278 0c.122.02.28.036.473.045a9.78 9.78 0 001.15 0c.183-.009.345-.025.487-.045V2.57h5.907c.02-.122.035-.28.045-.474a7.526 7.526 0 000-.995 4.575 4.575 0 00-.045-.428H238.94a4.23 4.23 0 00-.045.458 8.446 8.446 0 000 .995c.009.174.025.322.045.444h5.907zm13.558 0h12.056c.02-.123.036-.28.048-.474.008-.194.015-.362.015-.504 0-.165-.007-.333-.015-.506a4.946 4.946 0 00-.048-.444h-9.945v-8.783h7.773c.02-.121.035-.28.046-.473a8.26 8.26 0 000-1.011 4.544 4.544 0 00-.046-.442h-7.773V2.6h9.672c.02-.123.033-.282.044-.475a8.204 8.204 0 000-1.01 4.627 4.627 0 00-.044-.443h-11.783v22.001" fill="#2f3031"/><path d="M116.933 8.719c-1.53 0-2.647-.276-3.351-.827-.704-.55-1.056-1.376-1.056-2.478 0-.408.087-.815.26-1.224a3.1 3.1 0 01.78-1.086c.347-.315.796-.576 1.347-.78.55-.203 1.213-.306 1.99-.306.57 0 1.075.041 1.514.122.438.082.872.174 1.3.275.142-.264.25-.509.321-.735.072-.224.128-.52.17-.886a9.496 9.496 0 00-1.853-.397 15.341 15.341 0 00-1.607-.093c-.855 0-1.671.102-2.447.306a6.296 6.296 0 00-2.035.918 4.388 4.388 0 00-1.377 1.576c-.336.643-.504 1.403-.504 2.28 0 1.265.316 2.265.948 3a5.6 5.6 0 002.386 1.62 5.223 5.223 0 00-1.698 1.071c-.5.47-.923.995-1.27 1.576a7.606 7.606 0 00-.796 1.867 7.206 7.206 0 00-.274 1.912c0 1.164.213 2.162.642 3a5.618 5.618 0 001.759 2.05c.745.53 1.612.923 2.601 1.178.99.255 2.046.382 3.169.382 1.283 0 2.457-.153 3.518-.46 1.06-.305 1.973-.764 2.739-1.376a6.299 6.299 0 001.789-2.295c.43-.918.643-1.999.643-3.243v-5.08h3.825a8.91 8.91 0 00.047-.475 7.769 7.769 0 000-.948 6.337 6.337 0 00-.047-.444h-3.825v-4.62h-.122l-1.897 1.836V8.72zm7.589 6.304a11.717 11.717 0 01-.337 2.28 4.67 4.67 0 01-.979 1.912c-.47.55-1.128.99-1.973 1.316-.848.327-1.955.49-3.322.49-1.917 0-3.386-.418-4.405-1.255-1.021-.836-1.53-2.01-1.53-3.519 0-.734.126-1.438.382-2.112a5.638 5.638 0 011.101-1.805 5.341 5.341 0 011.744-1.27c.684-.315 1.464-.474 2.342-.474h6.977v4.437" fill="#9f7519"/><path d="M2.19 22.673c.122.02.29.036.504.045.214.01.423.017.627.017.184 0 .383-.006.597-.017.214-.009.403-.025.566-.045l1.744-5.6h9.058l1.836 5.6c.143.02.317.036.52.045a11.466 11.466 0 001.224 0 4.61 4.61 0 00.52-.045L12.042.672a6.266 6.266 0 00-.566-.047 17.305 17.305 0 00-1.361 0c-.245.01-.44.027-.582.047zm4.65-7.559l3.887-12.24 3.948 12.24zm18.039 7.56h11.506c.02-.124.035-.272.045-.445a7.984 7.984 0 00-.045-1.484H26.99V.672a6.09 6.09 0 00-.49-.047 10.887 10.887 0 00-1.148 0 4.59 4.59 0 00-.474.047zm28.262-.475a7.658 7.658 0 002.83-2.357c.745-1.009 1.306-2.213 1.683-3.61.378-1.397.567-2.923.567-4.575 0-1.652-.19-3.172-.567-4.56-.377-1.386-.938-2.585-1.682-3.595a7.66 7.66 0 00-2.83-2.357c-1.144-.56-2.48-.841-4.01-.841-1.53 0-2.866.281-4.008.84a7.66 7.66 0 00-2.83 2.358c-.745 1.01-1.307 2.209-1.684 3.595-.377 1.388-.566 2.908-.566 4.56 0 1.652.189 3.178.566 4.575.377 1.397.939 2.601 1.683 3.61a7.657 7.657 0 002.831 2.357c1.142.56 2.479.84 4.009.84 1.53 0 2.865-.28 4.008-.84m-7.084-1.775a5.827 5.827 0 01-2.141-1.943c-.562-.836-.98-1.836-1.255-2.998-.276-1.164-.413-2.438-.413-3.826 0-1.386.137-2.662.413-3.825.275-1.163.693-2.158 1.255-2.984a5.884 5.884 0 012.141-1.927c.867-.46 1.892-.689 3.076-.689 1.183 0 2.203.23 3.06.69a6.062 6.062 0 012.141 1.926c.571.826.995 1.82 1.271 2.984.275 1.163.412 2.439.412 3.825 0 1.388-.137 2.662-.412 3.826-.276 1.162-.7 2.162-1.27 2.998a6 6 0 01-2.142 1.943c-.857.459-1.877.69-3.06.69-1.184 0-2.209-.231-3.076-.69m22.595 2.25c.123.019.28.035.475.044a11.092 11.092 0 001.148 0c.182-.009.346-.025.489-.045v-8.17L77.68.671a4.817 4.817 0 00-.522-.047 11.782 11.782 0 00-1.208 0c-.194.01-.371.027-.535.047L69.755 12.3 64 .672a6.482 6.482 0 00-.597-.047 15.503 15.503 0 00-1.3 0c-.225.01-.398.027-.52.047l7.068 13.83zm13.03-1.485a6.99 6.99 0 00-.214.995c.693.223 1.437.423 2.233.596s1.795.26 2.999.26c1.244 0 2.366-.148 3.366-.443 1-.296 1.846-.724 2.54-1.285a5.67 5.67 0 001.606-2.082c.377-.826.567-1.769.567-2.83 0-.938-.154-1.739-.46-2.401a5.45 5.45 0 00-1.254-1.73 8.035 8.035 0 00-1.913-1.285 35.916 35.916 0 00-2.401-1.07 29.38 29.38 0 01-1.776-.752 7.423 7.423 0 01-1.422-.84 3.406 3.406 0 01-.933-1.072c-.226-.408-.338-.888-.338-1.438 0-1.06.367-1.938 1.102-2.631.734-.693 1.948-1.041 3.641-1.041.755 0 1.515.066 2.28.2.765.132 1.392.28 1.882.443.102-.286.188-.586.26-.903.071-.316.128-.627.169-.933a15.764 15.764 0 00-.81-.214 13.542 13.542 0 00-1.102-.215 20.366 20.366 0 00-1.286-.153c-.46-.04-.913-.061-1.362-.061-2.284 0-4.024.51-5.217 1.53-1.194 1.02-1.79 2.356-1.79 4.008 0 .92.143 1.684.428 2.296a4.841 4.841 0 001.163 1.576 7.08 7.08 0 001.699 1.116c.642.307 1.32.593 2.034.858 1 .388 1.83.75 2.495 1.086.662.337 1.183.688 1.56 1.055.377.368.642.77.796 1.21.151.438.23.963.23 1.575 0 .633-.113 1.22-.338 1.76a3.73 3.73 0 01-1.024 1.407c-.46.399-1.041.714-1.746.95-.704.234-1.545.352-2.524.352-.612 0-1.153-.031-1.62-.093-.472-.061-.894-.133-1.272-.214a10.023 10.023 0 01-1.025-.275 20.095 20.095 0 00-.887-.276 8.203 8.203 0 00-.337.964" fill="#2f3031"/><path d="M4.663 40.725c0-2.114.519-3.83 1.555-5.149 1.036-1.316 2.169-2.158 3.4-2.525 1.23-.367 2.752-.55 4.565-.55 1.813 0 3.887.431 6.218 1.295l1.36-3.692c-2.807-1.425-5.872-2.137-9.196-2.137-2.678 0-4.987.54-6.93 1.618-1.901 1.167-3.315 2.591-4.243 4.275C.463 35.544.001 38.028.001 41.308v20.79c0 2.72.485 4.998 1.457 6.832.97 1.835 2.244 3.174 3.82 4.015 1.576.843 3.065 1.328 4.469 1.458 1.402.129 2.45.194 3.142.194 3.324 0 6.82-.713 10.491-2.137l-.906-4.145c-3.412 1.165-6.391 1.749-8.938 1.749-5.916 0-8.873-2.699-8.873-8.096zm44.639 3.466c-2.116-2.267-5.096-3.4-8.937-3.4-3.845 0-6.812 1.09-8.906 3.27-2.094 2.18-3.141 5.322-3.141 9.423v8.55c0 3.583 1.025 6.572 3.076 8.969 2.05 2.396 5.084 3.594 9.1 3.594 4.014 0 7.016-1.187 9.002-3.562 1.986-2.374 2.98-5.375 2.98-9.001v-8.55c0-3.928-1.06-7.027-3.174-9.293m-3.434 24.026c-1.294 1.36-3.086 2.04-5.374 2.04-2.29 0-4.114-.68-5.474-2.04-1.36-1.36-2.04-3.205-2.04-5.537v-9.196c0-5.483 2.504-8.225 7.514-8.225 4.878 0 7.319 2.742 7.319 8.225v9.196c0 2.332-.648 4.177-1.945 5.537m18.06 3.79c1.814 1.813 4.458 2.72 7.934 2.72 3.474 0 6.315-1.047 8.516-3.142 2.202-2.093 3.304-5.105 3.304-9.034v-9.003c0-3.712-1.048-6.735-3.141-9.067-2.095-2.33-5.15-3.497-9.164-3.497-3.197 0-5.743.995-7.643 2.98l.065-2.461h-4.533v46.046l4.663-1.424zm13.083-3.724c-1.339 1.317-3.186 1.974-5.537 1.974-2.355 0-4.2-.635-5.538-1.91-1.338-1.272-2.007-3.14-2.007-5.602v-9.78c.085-2.547.851-4.447 2.298-5.698 1.447-1.252 3.239-1.879 5.376-1.879 2.138 0 3.907.637 5.31 1.91 1.403 1.275 2.105 3.271 2.105 5.991v9.198c0 2.548-.67 4.478-2.007 5.796m18 3.723c1.814 1.814 4.459 2.72 7.935 2.72 3.474 0 6.313-1.046 8.516-3.14 2.201-2.094 3.303-5.106 3.303-9.035v-9.003c0-3.712-1.047-6.735-3.142-9.067-2.094-2.33-5.148-3.497-9.164-3.497-3.196 0-5.743.995-7.641 2.98l.064-2.461h-4.534v46.046l4.663-1.424zm13.083-3.723c-1.339 1.317-3.184 1.974-5.538 1.974-2.353 0-4.2-.635-5.537-1.91-1.339-1.272-2.008-3.14-2.008-5.602v-9.78c.087-2.547.852-4.447 2.3-5.698 1.445-1.252 3.237-1.879 5.375-1.879 2.137 0 3.908.637 5.31 1.91 1.403 1.275 2.106 3.271 2.106 5.991v9.198c0 2.548-.67 4.478-2.008 5.796m16.635-6.639l18.651-.972V51.8c0-3.41-1.004-6.077-3.012-7.999-2.007-1.92-4.803-2.881-8.386-2.881-3.584 0-6.467.97-8.646 2.914-2.18 1.943-3.27 4.663-3.27 8.16v13.277c0 6.304 3.756 9.456 11.268 9.456 3.626 0 7.102-1.015 10.427-3.044l-1.749-3.822c-3.196 1.771-6.13 2.656-8.808 2.656-4.317 0-6.475-1.834-6.475-5.505zm0-4.404v-5.181c0-2.244.657-3.951 1.974-5.116 1.317-1.166 2.926-1.748 4.826-1.748 1.899 0 3.562.485 4.986 1.456 1.425.972 2.137 2.602 2.137 4.89v4.987zm29.352-15.737h-4.404v32.446h4.664V47.201c2.331-1.295 4.566-1.942 6.703-1.942 2.137 0 3.983.53 5.537 1.586 1.555 1.059 2.332 2.861 2.332 5.408V73.95h4.663V51.541c0-4.576-1.836-7.707-5.505-9.39-1.727-.778-3.691-1.167-5.894-1.167-3.368 0-6.045.734-8.03 2.203zm31.687 8.419c0-1.425.636-2.558 1.91-3.4 1.274-.842 2.72-1.263 4.34-1.263 1.62 0 3.183.237 4.695.712l1.166-4.404c-1.771-.344-3.39-.518-4.858-.518-2.978 0-5.44.712-7.382 2.138v-1.684h-4.534v32.446h4.663zm12.367 13.082c0 7.73 4.726 11.593 14.182 11.593 2.678 0 6.26-.217 10.751-.648v-19.3c0-1.64-.064-3.215-.193-4.727-.088-.993-.26-1.78-.519-2.365a49.275 49.275 0 00-.972-2.04 4.891 4.891 0 00-1.619-1.877c-.69-.475-1.489-.95-2.396-1.425-1.684-.82-4.274-1.231-7.772-1.231l-.324 3.433c6.088 0 9.132 2.224 9.132 6.671-1.942-1.425-4.448-2.397-7.512-2.915a23.677 23.677 0 00-2.914-.194c-6.564 0-9.844 3.217-9.844 9.65zm14.765 7.448c-6.735 0-10.103-2.461-10.103-7.383v-5.052c0-2.029.518-3.465 1.555-4.306 1.036-.843 2.244-1.263 3.627-1.263h.906c3.41.388 6.584 1.339 9.52 2.85v14.7c-2.029.303-3.864.454-5.505.454m20.85-5.052V45.906h5.7l1.554-4.403h-7.253V28.615h-4.728V65.4c0 2.635.605 4.728 1.813 6.283 1.21 1.554 3.196 2.59 5.959 3.108l1.36-3.627c-2.936-.777-4.404-2.697-4.404-5.764m17.588-36.785h-4.664v45.334h4.664V47.137c2.157-1.252 4.542-1.878 7.156-1.878 2.612 0 4.544.712 5.796 2.137 1.078 1.21 1.618 2.893 1.618 5.052V73.95h4.664V51.541c0-4.576-1.836-7.707-5.505-9.39-1.77-.82-4.027-1.231-6.768-1.231-2.743 0-5.063.627-6.961 1.877V28.615" fill="#9f7519"/><path d="M286.75 69.14c4.327 3.983 10.491 5.974 18.491 5.974 7.999 0 14.024-1.939 18.075-5.817 4.052-3.878 6.077-9.003 6.077-15.375 0-3.394-.726-6.39-2.181-8.987-1.455-2.597-3.341-4.69-5.661-6.285-2.322-1.593-4.867-3.012-7.636-4.26a113.945 113.945 0 00-8.363-3.375 115.248 115.248 0 01-7.739-3.065c-5.334-2.353-8-5.54-8-9.558 0-3.324 1.386-5.954 4.156-7.894 2.77-1.939 6.423-2.91 10.96-2.91 4.535 0 8.951.936 13.246 2.806 1.522-4.57 2.285-6.925 2.285-7.064-4.364-2.078-9.42-3.116-15.167-3.116-7.55 0-13.333 1.765-17.349 5.297-4.017 3.532-6.025 7.724-6.025 12.571 0 3.67.969 6.82 2.909 9.453 1.937 2.632 4.363 4.607 7.272 5.921a249.968 249.968 0 009.505 4.05c3.428 1.388 6.596 2.67 9.506 3.845 2.908 1.179 5.332 2.894 7.272 5.143 1.937 2.25 2.908 4.97 2.908 8.155 0 4.294-1.576 7.567-4.727 9.817-3.152 2.25-7.133 3.376-11.947 3.376-4.814 0-8.726-1.28-11.738-3.844-3.014-2.562-4.694-5.574-5.039-9.037l-7.79.518c.137 5.127 2.37 9.68 6.7 13.661m58.131-8.883V28.99h9.143l2.493-7.066h-11.636V1.252H337.3v59.005c0 4.226.969 7.585 2.908 10.078 1.938 2.493 5.125 4.156 9.557 4.987l2.181-5.818c-4.709-1.247-7.064-4.328-7.064-9.247m26.616-58.796c-.832-.833-1.818-1.247-2.961-1.247-1.143 0-2.147.433-3.012 1.298-.867.867-1.299 1.854-1.299 2.96 0 1.11.432 2.096 1.299 2.962.865.866 1.87 1.297 3.012 1.297 1.143 0 2.13-.415 2.961-1.246s1.247-1.834 1.247-3.012-.416-2.182-1.247-3.012m.623 20.463h-7.48v52.047h7.48zm19.655 7.066h8.517l2.493-7.066h-11.01V16.94c0-3.948.864-6.597 2.596-7.948 1.73-1.35 3.704-2.025 5.921-2.025.761 0 1.593.07 2.493.208l1.143-6.65a13.953 13.953 0 00-3.739-.518c-3.117 0-6.233.83-9.35 2.493-1.939.97-3.532 2.719-4.779 5.246-1.247 2.529-1.87 5.593-1.87 9.194v57.032h7.585zm26.593 31.267V28.99h9.141l2.494-7.066h-11.635V1.252h-7.584v59.005c0 4.226.97 7.585 2.91 10.078 1.937 2.493 5.123 4.156 9.557 4.987l2.181-5.818c-4.71-1.247-7.064-4.328-7.064-9.247m56.357-38.333h-7.48V56c0 8.035-3.913 12.05-11.738 12.05-8.035 0-12.051-3.98-12.051-11.946V21.924h-7.48v34.179c0 12.673 6.51 19.01 19.53 19.01 5.055 0 9.073-1.662 12.051-4.986v3.844h7.168zm16.111 0h-7.064v52.047h7.48V31.067c3.74-2.077 7.324-3.117 10.752-3.117 3.428 0 6.39.85 8.883 2.545 2.492 1.699 3.738 4.59 3.738 8.674v34.802h7.48V38.027c0-7.34-2.944-12.363-8.829-15.063-2.772-1.246-5.923-1.87-9.455-1.87-5.401 0-9.696 1.179-12.881 3.532zM566.828 90.8c1.973-2.425 2.96-5.817 2.96-10.181V21.924h-6.856l-.312 4.573c-2.355-3.671-6.492-5.507-12.413-5.507-5.922 0-10.667 1.68-14.232 5.038-3.568 3.36-5.351 8.087-5.351 14.18v15.48c0 6.373 1.696 11.219 5.09 14.543 3.393 3.324 8.086 4.987 14.077 4.987 5.989 0 10.162-1.973 12.518-5.921v10.7c0 5.331-2.356 8.655-7.065 9.972l1.87 5.818c4.502-.901 7.74-2.564 9.714-4.987m-7.896-26.23c-2.25 2.39-5.245 3.584-8.985 3.584-3.74 0-6.65-1.055-8.727-3.17-2.077-2.11-3.116-5.141-3.116-9.09V40.729c0-4.224 1.124-7.392 3.376-9.505 2.25-2.112 5.124-3.17 8.623-3.17 3.496 0 6.405.987 8.726 2.962 2.319 1.973 3.48 4.867 3.48 8.675v14.543c0 4.503-1.126 7.947-3.377 10.336" fill="#a19b82"/></svg>