<svg width="2000" height="1123" viewBox="0 0 2000 1123" fill="none" xmlns="http://www.w3.org/2000/svg">
<path d="M859 14.0001V28.1001L874.3 27.8001L889.5 27.5001L889.8 13.7001L890.1 9.72375e-05H874.5H859V14.0001Z" fill="#E76031"/>
<path d="M118.8 2C110.4 3 106.3 4.3 97.9 8.7C87 14.3 80.7 24.2 78.8 38.5C76.9 53.3 81.5 67.9 90.3 75.5C96.4 80.8 108.4 86.5 121.8 90.6C136.5 95 144 98.4 147.5 102C151.2 105.9 152.1 115.7 149.2 120.9C145.9 127 141.4 128.5 126.5 128.5C112.2 128.5 103.6 126.6 93.3 121L88 118.2L80 129.5C75.6 135.7 72 141.3 72 141.9C72 143.8 83.2 148.7 94.5 151.6C104.9 154.3 106.6 154.5 126.5 154.5C146.9 154.5 147.7 154.4 155.4 151.7C159.7 150.2 164.7 147.8 166.5 146.5C170.8 143.2 177.4 133.6 179.3 128C182.8 117.5 182.2 100.8 178.1 91.4C175.2 84.8 167.8 77.6 159.9 73.6C156.1 71.7 153 70.3 153 70.6C153 70.8 152 70.5 150.8 69.8C149.5 69.2 148 68.5 147.4 68.4C146.9 68.3 139.7 65.8 131.6 62.9C122 59.4 115.5 56.4 113.3 54.5C110 51.6 109.8 51.1 109.8 45.4C109.8 33.5 113.3 31.5 133.5 31.5C146 31.6 148.3 31.8 155 34.2C164 37.4 163 38.2 170.6 22.1C175.6 11.5 175.9 10.5 174.3 9.6C173.3 9 172.1 8.5 171.5 8.3C171 8.2 166.7 6.9 162 5.5C149.1 1.6 133.4 0.299998 118.8 2Z" fill="#E76031"/>
<path d="M233.9 8.40017C233.7 8.70017 231.7 9.10017 229.5 9.40017C224.3 10.1002 216.9 11.7002 214.8 12.5002C213.7 12.9002 212.9 14.9002 212.5 18.3002C212.1 21.2002 211.6 24.4002 211.4 25.5002C211.2 26.6002 210.7 29.7002 210.4 32.5002C210 35.2002 209.6 37.8002 209.3 38.2002C209.1 38.7002 204.6 39.0002 199.4 39.0002H190V52.0002V65.0002H199H208L208.2 95.7002C208.4 131.7 208.4 130.2 209.9 136C212.3 144.7 217.1 149.4 226.3 152.1C232.1 153.9 246.3 154.9 255.7 154.3L265 153.7V140.8V128H256C245.5 128 240.5 126.4 239 122.5C238.4 121 238 108.2 238 92.4002V65.0002H251.5H265V52.0002V39.0002H251.5H238V23.5002C238 9.10017 237.9 8.00017 236.2 8.00017C235.2 8.00017 234.1 8.20017 233.9 8.40017Z" fill="#E76031"/>
<path d="M515.7 9.5C512.5 10.2 509.7 10.8 509.5 10.9C509.2 10.9 507.3 11.3 505.1 11.6L501.2 12.2L499.1 23.4C497.9 29.5 496.7 35.5 496.5 36.7C496 38.9 495.5 39 486.5 39H477V52V64.9L485.8 65.2L494.5 65.5L495 99.5C495.5 132.3 495.6 133.7 497.8 138.5C501.1 145.6 505.3 149.7 510.5 151C511.1 151.1 512.5 151.6 513.7 152.1C518.3 153.8 532.8 155 541.7 154.4L550.9 153.7L551.2 140.9L551.5 128.2L541.3 127.8C531.6 127.5 530.9 127.3 528.3 124.7L525.5 122V93.7V65.5L538.3 65.2L551 64.9V52V39.1L538.3 38.8L525.5 38.5L525.2 23.2C524.9 6 525.8 7.3 515.7 9.5Z" fill="#E76031"/>
<path d="M314.8 36.9999C308 38.0999 299.1 40.5999 293.3 43.0999L289 44.8999L290.8 49.1999C291.7 51.5999 294.4 57.1999 296.8 61.6999L301 69.8999L308.2 67.2999C317.9 63.9999 334 62.8999 338.8 65.3999C342.5 67.2999 344.5 70.1999 345.5 74.6999L346.2 77.9999H335.8C316.8 77.9999 302.1 81.7999 293.1 88.8999C285.3 95.0999 280.8 111.6 282.7 126.8C284.5 140.6 289.5 148 299.8 152.2C304.8 154.2 307.2 154.4 319.5 154.4C334.6 154.4 338.7 153.4 346.4 148.3L350.3 145.7L352.2 148.4C354.9 152 362.4 154 373.7 154H383V141C383 128.7 382.9 128 381 128C379.9 128 378.1 127.1 377 126C375.1 124.1 375 122.7 375 97.0999C375 58.3999 373.1 49.5999 363.7 43.0999C356.2 38.0999 350.9 36.7999 335 36.4999C327 36.2999 317.9 36.4999 314.8 36.9999ZM345.8 108.8C345.2 124.9 340.9 129.6 326.9 129.9C314.9 130.2 310.9 126.6 311.1 115.6C311.4 103.6 318.3 99.3999 338.9 99.0999L346.2 98.9999L345.8 108.8Z" fill="#E76031"/>
<path d="M741.8 37C738.1 37.5 733.3 38.4 731.3 39.1C727.2 40.4 720.6 44.3 719.5 46C718.3 48 717.2 46.9 716.1 42.4C715.2 38.9 714.6 38 713.2 38.4C712.3 38.7 706.9 39.2 701.3 39.6L691 40.3V113.1V186H706.5H722V166.5V147.1L725.6 149.5C731.4 153.4 736.5 154.4 750.5 154.5C763.3 154.5 763.7 154.4 770.2 151.2C777.5 147.6 781.7 143.4 785.5 135.5C789.8 126.8 790.9 118.4 790.8 95.5C790.8 65.1 788.9 56.7 779.7 47.2C773.2 40.5 768.9 38.3 760.3 37C752.7 35.9 751.4 35.9 741.8 37ZM750.7 66.9C756.6 69.6 758.9 74.7 760.3 87.7C761.1 95.1 761.1 100.6 760.3 107.4C758.4 123.6 753.9 129 742.2 129C734.5 129 730 127.2 726.7 122.9C722.9 117.8 722 112.9 722 97.4C722 81.2 723.4 74.7 728.1 70.1C733.3 64.9 743.1 63.5 750.7 66.9Z" fill="#E76031"/>
<path d="M964.2 37C955.4 38.2 951.6 39.6 946.4 43.7C943.9 45.6 941.7 47 941.5 46.8C941.4 46.6 940.9 44.7 940.3 42.5C939.8 40.3 939 38.5 938.5 38.5C937.9 38.6 932.4 38.9 926.3 39.4L915 40.2V97.1V154H929.9H944.8L945.2 116.2C945.5 82.1 945.8 78.1 947.4 74.1C949.8 68.6 954.8 66.1 963.5 66C971.3 66 975.2 68.3 976.8 73.7C977.6 76.5 978 89.1 978 115.9V154H993.5H1009V115.5C1009 94.3 1009 76.8 1009 76.5C1008.9 74.1 1012.8 69.5 1016.3 67.9C1021.5 65.6 1030.9 65.4 1035.1 67.6C1040.8 70.5 1041 72 1041 115V154H1056.3H1071.5L1071 106.3C1070.5 64.9 1070.2 57.9 1068.7 54.2C1066 47.2 1062.3 43.3 1055.2 39.8C1048.9 36.7 1048.1 36.5 1037.6 36.6C1021.7 36.7 1011.6 39.5 1006.2 45.3L1003.8 47.8L999.5 43.5C996.9 40.9 993.6 38.7 991.3 38.1C985.6 36.6 971.3 36 964.2 37Z" fill="#E76031"/>
<path d="M453.8 38C446.7 38.9 437 42.7 433.4 46.1C430.9 48.4 430.1 47.7 429.3 42.7C429.1 40.9 428.5 39.2 428.2 38.9C427.8 38.6 422.2 38.8 415.8 39.3L404 40.3V97.1V154H418.9H433.9L434.2 118.7C434.5 80.8 434.8 79.1 440.2 73.3C443.1 70.1 452.1 67 458 67H463V52C463 40.6 462.7 37 461.8 37.1C461.1 37.2 457.5 37.6 453.8 38Z" fill="#E76031"/>
<path d="M572 79.2C572.1 122.7 572.7 128.6 577.2 137.6C581 144.8 586.6 149.5 594.7 152.1C604.1 155.1 626.3 155.9 637.2 153.7C651.6 150.7 656.8 146.9 662.1 135.5C666.1 127 667 115.4 667 73.9V39H651.5H636.1L635.8 79.2C635.5 125.3 635.6 124.5 627.5 127.5C621.8 129.7 611.9 129.1 608.1 126.2C603.4 122.7 603.1 120.3 603.1 78.2L603 39H587.5H572V79.2Z" fill="#E76031"/>
<path d="M859 96.5V154H874.5H890V96.5V39H874.5H859V96.5Z" fill="#E76031"/>
<path d="M1143 138.5V154H1536H1929V138.5V123H1536H1143V138.5Z" fill="#E76031"/>
<path d="M568.7 265.7C568.5 266.2 567.3 269.4 566.2 273C565.1 276.6 561.4 288 558 298.5C554.7 308.9 551.7 318.4 551.5 319.5C551.3 320.6 551.1 321.5 551 321.5C550.9 321.5 550.7 322.3 550.5 323.2C550.1 325.4 549.7 326.8 540.5 355.4C536.2 368.5 532.6 380 532.5 380.9C532.3 381.8 532.1 382.7 531.9 383C531.8 383.3 531.6 383.9 531.5 384.5C531.3 385 531.1 385.8 531 386.2C530.9 386.7 530.6 387.4 530.5 388C530.4 388.5 530.2 389.1 530.1 389.2C529.9 389.4 529.7 390.5 529.4 391.8C529.2 393 525.7 404.2 521.5 416.8C515.1 436.3 512.1 446.3 510.5 453C510.3 453.8 510.1 454.5 510 454.5C509.9 454.5 509.7 455.2 509.5 456.1C509.4 457 508.9 458.7 508.5 459.9L507.9 462L528.7 461.8C546.3 461.5 549.5 461.3 549.6 460C549.7 459.2 549.9 458.3 550 458C550.1 457.7 550.3 456.5 550.6 455.2C551.4 450.9 557.1 432.5 557.8 431.8C558.3 431.3 573 431.1 590.5 431.2L622.4 431.5L626.9 446.7L631.4 462H652.3H673.1L672.4 459.7C672 458.5 671.3 456.1 670.9 454.5C668.5 444.9 666.2 437.2 659.5 416.8C655.3 404.2 651.8 393 651.6 391.8C651.3 390.5 651.1 389.5 651 389.5C650.9 389.5 650.7 388.4 650.4 387C650.2 385.6 649.7 383.8 649.3 383C649 382.2 648.6 381 648.5 380.5C648.3 379.9 644.6 368 640.1 354.1C635.6 340.2 631.8 327.9 631.6 326.7C631.3 325.5 631.1 324.4 630.9 324.2C630.8 324.1 630.6 323.5 630.5 323C630.4 322.4 630.1 321.7 630 321.2C629.9 320.8 629.7 320 629.5 319.5C629.4 318.9 629.2 318.3 629.1 318C628.9 317.7 628.7 316.8 628.5 316C628.4 315.2 625.7 306.6 622.5 297C619.4 287.4 615.8 276.3 614.6 272.5L612.3 265.5L590.7 265.2C578.9 265.1 568.9 265.3 568.7 265.7ZM603 364C606.3 374.5 609.2 384.1 609.4 385.3C609.7 386.5 609.9 387.5 610 387.5C610.2 387.5 610.5 388.9 611.4 392.7L611.9 395H589.9H567.9L568.5 391.7C569.2 388 569.8 385.5 570 385.5C570.1 385.5 570.3 384.8 570.5 384C570.7 382.7 588.1 327.5 589.6 323C589.9 322.2 591.7 326.7 593.5 333.1C595.4 339.5 599.6 353.4 603 364Z" fill="#999999"/>
<path d="M1437.5 279.8C1434.9 287.8 1432.6 295.1 1432.5 296C1432.3 296.8 1432.1 297.7 1431.9 298C1431.8 298.3 1431.6 298.9 1431.5 299.5C1431.3 300 1431.1 300.8 1431 301.2C1430.9 301.7 1430.6 302.4 1430.5 303C1430.4 303.5 1430.2 304.1 1430.1 304.2C1429.9 304.4 1429.7 305.4 1429.5 306.5C1429.3 307.6 1426.1 317.7 1422.4 329C1412.6 359.5 1411.2 364 1411.6 364C1411.9 364 1411.6 364.8 1411.1 365.9C1410.5 366.9 1409.8 369 1409.6 370.6C1409.3 372.2 1407.7 377.5 1406.1 382.5C1394.6 417.9 1392 426.1 1391.5 428.8C1391.2 430.5 1388.8 438.7 1386.1 447L1381.2 462H1401.9H1422.6L1426 450.7C1427.8 444.6 1429.4 438.6 1429.6 437.5C1429.7 436.4 1429.9 435.4 1430 435.2C1430.2 435.1 1430.3 434.7 1430.4 434.2C1431 431.1 1432.3 431 1463.9 431H1495.7L1496.9 435.2C1497.6 437.6 1499.7 444.6 1501.7 450.7L1505.2 462H1526.1C1540 462 1547 461.6 1547 460.9C1547 460.4 1543.8 450.1 1539.9 438.2C1531.8 413.2 1530.9 410.5 1530.5 408.2C1530.3 407.3 1530.1 406.5 1530 406.5C1529.9 406.5 1529.6 405.4 1529.4 404C1529.1 402.6 1525.1 389.7 1520.4 375.3C1515.7 360.8 1511.7 348.1 1511.5 347C1511.3 345.9 1510.9 344.6 1510.6 344.2C1510.3 343.7 1509.8 341.9 1509.5 340.2C1509 337.4 1504.2 322.2 1492.5 286.1C1491.1 282.1 1490.3 278.3 1490.6 277.9C1490.9 277.4 1490.6 277 1490 277C1489.4 277 1489 276.4 1489.1 275.7C1489.6 273.2 1486.9 266.2 1485.3 265.6C1484.4 265.2 1474.4 265 1463 265L1442.2 265.1L1437.5 279.8ZM1467.5 332.5C1470.3 341.6 1471.6 346.4 1472.6 351C1473.1 353.3 1484.6 390.7 1485.7 393.7C1486.1 394.7 1481.3 395 1463.5 395C1442.3 395 1440.8 394.9 1441.5 393.2C1442.9 389.9 1447.8 373.5 1449.5 367C1452.3 355.8 1463.4 322 1464.1 322.8C1464.4 323.2 1466 327.5 1467.5 332.5Z" fill="#999999"/>
<path d="M0 364.5V462H20.5H41V423V384H79H117V365.5V347H79H41V325.5V304H81H121V285.5V267H60.5H0V364.5Z" fill="#999999"/>
<path d="M148 364.5V462H208H268L267.8 443.7L267.5 425.5L227.8 425.2L188 425V403V381H226.5H265V362.2V343.5L228.8 343.8C208.8 343.9 191.5 343.8 190.3 343.5C188 343 188 342.9 188 323.5V304H228H268V285.5V267H208H148V364.5Z" fill="#999999"/>
<path d="M301 364.5V462H319H337V400.2C337 365 337.4 339.1 337.9 340C338.9 341.7 348 368.8 348.5 371.7C348.7 372.7 348.9 373.6 349 373.7C349.2 373.9 349.4 374.4 349.5 375C349.6 375.5 349.9 376.3 350 376.7C350.1 377.2 350.3 377.9 350.5 378.5C350.6 379 350.8 379.7 350.9 380C351.1 380.3 351.3 381.2 351.5 382C351.6 382.8 355.7 395.4 360.5 410C365.3 424.6 370 439.6 371 443.5C372 447.3 373.7 453 374.8 456L376.7 461.5L390.2 461.8L403.6 462.1L406 454.3C408.6 445.9 408.6 445.9 409.5 441.6C409.8 440 410.4 438.2 410.8 437.6C411.1 437 411.6 435.8 411.7 434.9C411.8 434.1 415.4 422.8 419.6 409.9C423.8 397 427.4 385.8 427.5 385C427.7 384.2 427.9 383.4 428 383.2C428.2 383.1 428.4 382.5 428.5 382C428.6 381.4 428.9 380.7 429 380.2C429.2 379.8 429.4 379 429.5 378.5C429.7 377.9 429.9 377.2 430 376.7C430.1 376.3 430.4 375.5 430.5 375C430.6 374.4 430.8 373.9 431 373.7C431.1 373.6 431.3 372.7 431.5 371.7C431.7 370.8 434.2 362.7 437.2 353.7L442.5 337.5L442.8 399.7L443 462H463H483V364.5V267L456.3 267.2C435.7 267.4 429.5 267.8 429.4 268.7C429.3 269.4 429.2 270.1 429 270.2C428.9 270.4 428.7 271.2 428.5 272.1C428.4 272.9 425 283.7 421 296C417 308.3 413.6 319.1 413.5 319.9C413.3 320.8 413.1 321.6 413 321.7C412.8 321.9 412.6 322.4 412.5 323C412.4 323.5 412.1 324.3 412 324.7C411.8 325.2 411.6 325.9 411.5 326.5C411.3 327 411.1 327.8 411 328.2C410.9 328.7 410.6 329.4 410.5 330C410.4 330.5 410.2 331.1 410.1 331.2C409.9 331.4 409.7 332.5 409.5 333.6C409.2 334.8 405.6 346.3 401.5 359.1C397.3 372 393.4 384 392.8 385.8C391.6 389.6 390.4 389 389.5 384.3C389.2 382.5 386.7 373.9 383.9 365.3C377.2 344.7 372 327.9 371.6 326C371.4 325.2 371 323.8 370.7 323C370.2 321.6 369.1 317.4 368.4 314C368.2 313.2 364.7 302.4 360.7 290L353.4 267.5L327.2 267.2L301 267V364.5Z" fill="#999999"/>
<path d="M698.9 361.7C698.9 413.9 698.7 457.7 698.6 459.2L698.4 462H756.7H815V443.5V424.9L778 425C757.7 425.1 740.6 424.9 740.1 424.5C739.4 424.1 739.1 398.4 739.3 345.4L739.5 267H719.3H699L698.9 361.7Z" fill="#999999"/>
<path d="M840.8 364.5L841 462H901H961V443.5V425H921.5C899.7 425.1 881.5 424.8 881 424.5C880.5 424.2 880.1 414.3 880 402.5L879.9 381H918.5H957V362.2V343.5L920.8 343.8C900.8 343.9 883.5 343.8 882.2 343.5L880 343L880.2 323.7L880.5 304.5L920.8 304.2L961 304V285.5V267H900.8H840.5L840.8 364.5Z" fill="#999999"/>
<path d="M1053 364.5V462H1073.5H1094V422V382L1096.3 381.5C1097.5 381.2 1112.2 381.1 1129 381.2L1159.5 381.5V421.8V462H1180.3H1201V364.5V267H1180.3H1159.5V303.8V340.5L1126.8 340.8L1094 341V304V267H1073.5H1053V364.5Z" fill="#999999"/>
<path d="M1237.5 364.5V462H1297.8H1358V443.5V425H1318H1278V403V381H1316H1354V362.2V343.5L1316 343.8L1278 344V324V304H1318H1358V285.5V267H1297.8H1237.5V364.5Z" fill="#999999"/>
<path d="M1572 364.5V462H1631H1690L1689.8 443.7C1689.5 428.4 1689.3 425.5 1688 425.4C1687.2 425.3 1670 425.2 1649.8 425.1L1613 425V346V267H1592.5H1572V364.5Z" fill="#999999"/>
<path d="M1681 285.5V304H1707H1733V383V462H1753.5H1774L1774.2 383.2L1774.5 304.5L1801.3 304.2L1828 304V285.5V267H1754.5H1681V285.5Z" fill="#999999"/>
<path d="M1852 364.5V462H1872.5H1893V422.1C1893 386.7 1893.2 382.1 1894.6 381.6C1895.5 381.3 1910.1 381 1927.1 381H1958V421.5V462H1979H2000V364.5V267H1979H1958V304V341H1925.5H1893V304V267H1872.5H1852V364.5Z" fill="#999999"/>
<path d="M452 552.5C447.3 553.2 440.6 554.5 437 555.4C430.8 557 409 567 406.4 569.3C405.8 570 403.9 571.4 402.4 572.5C399.3 574.6 392.5 581.2 390 584.5C383.4 593.2 373.6 611.4 372.6 617.1C372.3 618.4 372 619.7 371.9 620C371.8 620.3 371.6 620.9 371.5 621.5C371.3 622 371.1 622.7 371 623C370.9 623.3 370.7 624.6 370.4 626C370.2 627.4 369.3 631.9 368.5 636C367.7 640.1 366.6 647.5 366 652.5C365.4 657.4 364.7 663.3 364.4 665.5C363.8 670.7 363.9 714 364.5 720.5C366 735.1 367.4 744.6 369.7 755C371 761.3 372.4 767.6 372.6 769C373.7 774.2 383.1 791.8 389.3 800C394 806.3 398.1 810.3 404.8 815.3C412.9 821.3 424.6 827.8 428.2 828.4C428.9 828.5 430 828.8 430.5 829.2C431.1 829.5 433.1 830.1 435 830.4C436.9 830.7 442.3 831.6 447 832.5C464.3 835.6 492.7 835.3 509 831.9C511.5 831.4 514.6 830.8 516 830.6C517.4 830.3 518.5 830.1 518.5 830C518.5 829.9 519.8 829.6 521.4 829.4C525.7 828.7 543.7 820.5 549.7 816.5L554.9 813L552.8 809.3C551.6 807.2 550.2 805.3 549.8 805.2C549.4 805 549 804.4 549 803.9C549 803.4 545.5 797.7 541.1 791.2C536.8 784.8 532.7 778.4 532 777C529.8 772.6 525.8 767.8 525.1 768.7C523.6 770.7 503.8 779.2 497 780.6C487 782.8 468.4 782.8 460.3 780.7C452.7 778.7 444.5 774.2 439.7 769.4C436.6 766.3 428.2 752 429.5 752C429.8 752 429.5 750.8 428.9 749.2C427.6 746 427.5 745.4 425.3 733.5C424.2 727.1 423.6 717.1 423.4 698.5C423.1 670.7 423.8 661.9 427.2 647.6C428.4 642.6 429.4 638.3 429.5 638C429.5 637.7 429.9 636.9 430.3 636.3C430.8 635.6 431.3 634.1 431.5 633C432.8 626.1 446.1 613.4 454.3 611.4C454.7 611.3 455.1 611.2 455.3 611C455.6 610.8 457.5 610.4 462.5 609.4C467.4 608.5 486.4 608.5 494.5 609.5C500.9 610.3 514.1 614.7 519.6 617.9L522.9 619.9L531.1 606.7C535.6 599.4 541 591.2 543 588.5C545 585.7 547.6 581.9 548.6 580C549.6 578.1 550.8 576.3 551.2 576C551.5 575.7 552.1 574.3 552.5 572.9C553.1 570.4 552.6 570 545.3 566.3C533.8 560.4 525.1 557.1 513.1 554.3C503.9 552.2 499.8 551.8 481.5 551.5C468.3 551.4 457.3 551.7 452 552.5Z" fill="#999999"/>
<path d="M1627.8 551.5C1627.7 551.7 1624.4 552.1 1620.7 552.5C1604 554.1 1582.8 562.7 1569.3 573.5C1549.2 589.5 1536.4 617.3 1532.6 653C1530.9 669.1 1530.4 699.2 1531.5 717C1531.9 722.2 1532.2 727.2 1532.2 728C1532.3 733.4 1535.5 753 1537.5 760.7C1540.4 771.8 1548.2 788.8 1554.3 797.3C1559.5 804.5 1566.6 811.3 1575.1 817C1581.6 821.5 1596 828.6 1600 829.4C1601.4 829.7 1603.6 830.1 1605 830.4C1622.4 833.9 1627.7 834.4 1645.5 834.4C1659.3 834.3 1667.2 833.9 1674.5 832.6C1688.1 830.1 1687.9 830.2 1688.8 829.6C1689.3 829.3 1691.2 828.8 1693.1 828.5C1698.6 827.5 1709.9 821.5 1719 814.7C1727.8 808.2 1733.5 802 1740.8 791.5C1744.9 785.6 1750.5 774 1749.4 774C1749 774 1749.2 773.4 1749.8 772.7C1752.4 769.5 1757.2 744.8 1759 725.9C1761.2 700.5 1759.7 654.1 1755.9 635.7C1753.7 625 1748.6 609.2 1745 602C1740 592.1 1723.3 572 1720.1 572C1719.5 572 1719 571.5 1719 571C1719 570.4 1718.5 570 1717.9 570C1717.3 570 1714.8 568.6 1712.2 566.8C1703 560.5 1682.9 553.5 1670 552.1C1666.7 551.7 1628.2 551.2 1627.8 551.5ZM1663.5 609.3C1677.8 613.3 1686 620 1692 632.6C1699.3 648.1 1701.5 665.9 1700.7 703.5C1700.1 730.2 1699.3 737.2 1695.4 748.9C1690.9 762.2 1688.3 766.6 1682.2 771.4C1669.7 781 1660.8 783.5 1642.3 782.8C1628.6 782.3 1621.8 780.4 1614 775.1C1603 767.8 1595.6 754.7 1592.4 737.4C1590.5 726.7 1589.7 681.6 1591.2 664.1C1592.3 650.8 1595.8 637.6 1600.3 630.2C1607.3 618.5 1618.2 610.3 1628.4 609.3C1631.2 609 1633.7 608.5 1634 608.3C1634.7 607.7 1660.9 608.6 1663.5 609.3Z" fill="#999999"/>
<path d="M1156 554.4C1155 557.2 1153 564.6 1152.3 567.9C1152.1 569.3 1151.7 570.7 1151.4 571.2C1151.1 571.6 1150.7 572.8 1150.5 573.8C1150.3 574.9 1146.1 588.4 1141.1 603.8C1136.1 619.3 1132 632.9 1132 634C1132 635.1 1131.5 636 1130.9 636C1130.4 636 1130.1 636.4 1130.4 636.9C1130.7 637.4 1129.4 642.6 1127.4 648.6C1117.3 679.8 1111.8 697.4 1111.4 699.7C1110.8 702.8 1106.8 715.6 1098.5 741C1094.9 751.7 1091.8 761.6 1091.6 763C1091.3 764.4 1091.1 765.5 1091 765.5C1090.9 765.5 1090.7 766.4 1090.5 767.5C1090.3 768.6 1087.1 778.7 1083.5 790C1072.8 822.9 1072.2 825 1072.7 825C1073 825 1072.8 825.6 1072.3 826.2C1071.7 826.9 1071.3 828.3 1071.3 829.2C1071.3 830.9 1073.4 831 1100.5 831C1123.1 831 1129.7 830.7 1129.8 829.7C1129.9 827.4 1130.9 823.6 1136.2 806.3L1141.4 789L1187.4 789.2L1233.3 789.5L1235.8 797.5C1237.1 801.9 1240 811.2 1242.1 818.2L1246.1 831H1276.1C1292.5 831 1306 830.9 1306 830.7C1306 830.6 1304.2 824.9 1301.9 818C1295.5 798.2 1289.1 777.4 1288.6 774.8C1288.4 773.5 1285.6 764.5 1282.5 754.9C1279.4 745.3 1275.5 733.3 1273.8 728.2C1272.2 723.1 1270.7 718.2 1270.5 717.2C1270.3 716.3 1270.1 715.5 1270 715.5C1269.9 715.5 1269.6 714.4 1269.4 713.1C1268.9 710.4 1265.6 699.8 1256.1 670.6C1252.7 660.3 1249.7 650.4 1249.4 648.6C1249.1 646.9 1245.1 633.7 1240.4 619.3C1235.7 604.8 1231.7 591.8 1231.4 590.3C1231.1 588.9 1230.7 587.3 1230.4 586.8C1230.1 586.4 1229.7 585 1229.5 583.8C1229.2 582.5 1226.9 574.9 1224.3 566.7L1219.6 552H1188.3H1157L1156 554.4ZM1189.1 635.7C1189.7 637.3 1190.3 639.6 1190.5 641C1190.8 643.5 1198.4 668.7 1206 692.4C1208.2 699.5 1210.2 706.2 1210.5 707.4C1210.7 708.5 1210.9 709.7 1211 710C1211.1 710.3 1211.3 710.9 1211.5 711.5C1211.6 712 1211.8 712.7 1211.9 713C1212 713.3 1212.3 714.5 1212.5 715.6C1212.9 717.6 1217.6 732.7 1218.7 735.7C1219.1 736.8 1213.3 737 1187 737C1156.7 737 1154.8 736.9 1155.5 735.2C1155.9 734.3 1157.7 728.8 1159.6 723C1161.4 717.2 1164.3 708.2 1166 703C1167.7 697.8 1169.3 692.1 1169.5 690.5C1169.8 688.8 1172.4 679.8 1175.5 670.5C1178.5 661.1 1182.4 648.9 1184.1 643.2C1185.9 637.6 1187.5 633 1187.7 633C1187.9 633 1188.5 634.2 1189.1 635.7Z" fill="#999999"/>
<path d="M0 692.5V831H29H58V692.5V554H29H0V692.5Z" fill="#999999"/>
<path d="M112 692.5V831H140H168L167.8 745.5C167.6 698.5 167.8 660 168.2 660C168.6 660 170.2 662.6 171.8 665.8C173.4 668.9 178 677.2 182.2 684C186.3 690.9 190.6 698.5 191.8 701C193 703.5 195.4 707.8 197.3 710.6C199.1 713.5 202.6 719.5 205 723.9C207.5 728.4 213 738 217.3 745.3C221.6 752.6 227.2 762.3 229.8 767C232.3 771.6 236.3 778.6 238.6 782.5C241 786.3 246.7 796.2 251.3 804.5C256 812.7 261.3 822.1 263.1 825.2L266.5 831H293.8H321V692.5V554H293H265V633.7V713.5L261.1 707.5C259 704.2 255.1 697.2 252.3 692C249.5 686.8 243.9 676.9 239.8 670C235.6 663.1 231.1 655.1 229.6 652.2C228.1 649.3 223.6 641.4 219.6 634.7C215.5 628 211.1 620.2 209.8 617.5C208.4 614.7 204.3 607.3 200.5 601C196.7 594.7 191.7 585.7 189.2 581C186.8 576.3 184.2 571.8 183.5 571C182.8 570.2 180.4 566 178 561.7L173.8 554H142.9H112V692.5Z" fill="#999999"/>
<path d="M591.3 655.2C591.6 710.9 591.9 757.2 592 758C592.1 758.8 592.9 762.9 593.6 767.1C597.9 790.2 609 808.2 626.1 819.6C631.8 823.4 641.8 828.5 644.3 828.9C644.7 828.9 645.1 829 645.3 829.1C645.4 829.1 646.2 829.3 647 829.5C647.8 829.7 649.5 830.1 650.8 830.4C674.8 836.4 709.7 837.1 733.5 832C739 830.9 744.7 829.7 746.3 829.4C755.1 827.8 767.7 820 778.1 809.9C786.5 801.7 790.8 794.1 795.4 779.4C800.8 761.9 801 757.4 801 651.5V554H773H745V644.2C744.9 693.9 744.7 737.2 744.4 740.5C741.6 771.8 729.1 783 697 783C666.9 783 653 772.1 650.3 746.2C650 743.1 649.5 698.5 649.3 647.2L648.9 554H619.9H590.9L591.3 655.2Z" fill="#999999"/>
<path d="M852 692.5V831.1L916.8 830.7C952.4 830.5 983.3 830 985.5 829.5C1009.2 825.1 1030.3 811.3 1039.2 794.5C1045.6 782.2 1047.4 773.1 1047.4 753.5C1047.3 735.9 1046.1 727.5 1042.2 717.3C1037.9 705.9 1027.8 694.9 1017.3 690.1L1010.2 686.8L1017.6 681.8C1034.7 670.3 1042.8 650.5 1041.7 622.5C1041.1 607.4 1039.5 600.7 1033.9 589.1C1030.2 581.5 1025.3 575.5 1018.8 570.5C1015.6 568.1 1002.9 562 996.7 560C981.1 555 978.5 554.8 913.3 554.3L852 553.8V692.5ZM965.5 606.5C975.8 609.2 980.8 614.8 982.8 625.9C985.6 641.4 980.6 656.7 970.8 662.3C964.3 666.1 957.7 666.9 932.5 666.7L909.5 666.5L909.2 637C909.1 620.8 909.2 607 909.5 606.3C910.2 604.3 957.6 604.5 965.5 606.5ZM971.3 719.9C983.3 724.7 987.8 731.5 988.7 746.2C989.4 757.4 987.4 766.7 983.1 772C981.6 774 977.3 777 973.4 779L966.5 782.5H938H909.5L909.2 751C909.1 733.7 909.2 718.9 909.5 718.2C909.9 717.1 915.2 716.9 937.8 717.2C963.9 717.6 965.8 717.7 971.3 719.9Z" fill="#999999"/>
<path d="M1298 581V608H1335H1372V719.5V831H1401.5H1431V719.5V608H1469H1507V581V554H1402.5H1298V581Z" fill="#999999"/>
<path d="M1803 692.5V831H1831.5H1860V785V739H1878.5H1897L1900.1 745.7C1901.8 749.5 1906.2 759.9 1910 769C1917.4 787 1927.4 810 1929.6 814.1C1930.3 815.5 1930.7 817 1930.3 817.4C1930 817.7 1930.2 818 1930.8 818C1931.5 818 1931.9 818.3 1931.9 818.7C1931.8 819.2 1931.9 819.8 1932 820.2C1932.1 820.7 1932.3 821.4 1932.4 821.8C1932.4 822.2 1933.4 824.5 1934.4 826.8L1936.3 831H1967H1997.7L1994.8 825C1993.2 821.6 1991.3 816.9 1990.4 814.3C1989.5 811.8 1985.3 802.2 1980.9 792.9C1976.6 783.6 1972.7 774.8 1972.4 773.5C1972.1 772.1 1971.4 770.7 1970.9 770.4C1970.4 770.1 1970 769.2 1970 768.4C1970 767.6 1966.7 759.8 1962.6 751.1C1958.5 742.3 1954.9 734.2 1954.6 733.2C1954.1 731.7 1955.2 730.5 1960.7 727.4C1969.7 722.2 1983.6 708.3 1987.8 700.2C1989.6 696.8 1990.8 694 1990.4 694C1990.1 694 1990.2 693.4 1990.7 692.7C1992.3 690.7 1996.9 673.3 1998.4 663.5C2000.2 652.3 1999.8 627.5 1997.6 616.8C1992.1 588.7 1980.6 573.3 1957.4 562.9C1939.6 555 1931.3 554.2 1861.8 554.1L1803 553.9V692.5ZM1920.5 607.1C1925.3 608.3 1933.8 614 1936.3 617.7C1944.2 629.6 1945.2 658.9 1938.2 672.7C1935.4 678.2 1929.4 683.6 1924.1 685.7C1920.2 687.1 1914.9 687.5 1889.8 687.8L1860 688.1V647V605.8L1889.8 606.3C1906.1 606.6 1920 607 1920.5 607.1Z" fill="#999999"/>
<path d="M71.7 948.7C71.3 949 71 956 71 964.2V979H1000H1929V963.5V948H1000.7C490.1 948 72 948.3 71.7 948.7Z" fill="#E76031"/>
<path d="M659.1 1044.8C653.8 1047.4 651.8 1050.9 651.3 1058.2C651 1061.7 650.7 1064.6 650.6 1064.7C650.5 1064.8 648.6 1065.1 646.4 1065.2C642.7 1065.5 642.5 1065.7 642.2 1069.3L641.9 1073H646.4H651V1097.5V1122H656H661V1097.5V1073H667.6H674.1L673.8 1069.2L673.5 1065.5L667.3 1065.2L661 1064.9V1060C661 1053.4 663.3 1051 669.5 1051H674V1047V1043H668.3C664.8 1043 661.2 1043.7 659.1 1044.8Z" fill="#999999"/>
<path d="M686 1082.5V1122H690.5H695V1103C695 1087.8 695.3 1083.2 696.6 1080C698.5 1075.2 702.1 1073 708 1073C717.6 1073 718.5 1075.6 718.5 1101.7V1122H723.3H728V1098.7C728 1072.7 727.5 1070.3 721.2 1066.7C716.4 1063.9 704.3 1064.1 699.4 1066.9C697.5 1068.1 695.7 1069 695.4 1069C695.2 1069 695 1063.1 695 1056V1043H690.5H686V1082.5Z" fill="#999999"/>
<path d="M811 1082.5V1122H815.8H820.5V1102.2C820.5 1084.2 820.7 1082.2 822.6 1079C825.1 1074.7 828.2 1073 833.7 1073C836.7 1073 838.7 1073.7 840.7 1075.4L843.5 1077.8L843.8 1099.9L844.1 1122H848.6H853.1L852.7 1098.2C852.5 1085.2 852.1 1073.8 851.8 1073C849.6 1066.5 846.2 1064.7 836.4 1064.7C829.5 1064.7 822 1067 822 1069.2C822 1069.7 821.6 1069.8 821 1069.5C820.4 1069.1 820 1063.5 820 1055.9V1043H815.5H811V1082.5Z" fill="#999999"/>
<path d="M1292 1056C1292 1064 1291.6 1069 1291 1069C1290.5 1069 1290 1068.6 1290 1068.2C1290 1066.8 1285.5 1065.1 1280.3 1064.4C1271.4 1063.3 1263.2 1067.2 1259.2 1074.4C1257.8 1077 1257.5 1080.3 1257.5 1093.5C1257.5 1108.7 1257.6 1109.7 1260 1113.9C1263.6 1120.3 1266.9 1122.3 1274.3 1122.8C1281.6 1123.3 1288.3 1121.7 1291.1 1118.9C1293 1117 1293 1117 1293.7 1120.1C1294.2 1122.6 1294.7 1123.1 1296.4 1122.6C1297.6 1122.3 1299.3 1122 1300.3 1122C1301.9 1122 1302 1119.4 1302 1082.5V1043H1297H1292V1056ZM1288.1 1075.9C1289.7 1077.5 1291 1079.4 1291.1 1080.2C1291.1 1080.9 1291.3 1082.6 1291.6 1084C1292 1086.8 1292.1 1100.5 1291.7 1103.5C1291.3 1106.1 1288.3 1111.7 1286.9 1112.6C1281.8 1115.7 1272.3 1114.6 1269.6 1110.5C1266.2 1105.3 1265.7 1084.2 1268.9 1078.2C1270.8 1074.6 1274.1 1073 1279.8 1073C1284.4 1073 1285.6 1073.4 1288.1 1075.9Z" fill="#999999"/>
<path d="M744 1052.5V1058H748.5H753V1052.5V1047H748.5H744V1052.5Z" fill="#999999"/>
<path d="M880.5 1065C875.1 1065.8 870 1067.6 870 1068.5C870 1068.8 870.7 1070.5 871.6 1072.1C872.8 1074.6 873.6 1075.1 875.3 1074.6C882 1072.6 888.3 1072.1 891.8 1073.3C894.8 1074.3 895.7 1075.2 896.8 1078.4C898.7 1084.4 898.1 1085 890.1 1085C881.5 1085 873.6 1087.5 870.5 1091.1C865.6 1097 865.1 1110.3 869.6 1117.2C871.4 1120 873.1 1121.2 876.2 1122.1C882 1123.6 891.2 1122.7 895.6 1120.1C898.8 1118.2 899.4 1118.1 900.4 1119.5C901.7 1121.2 906.7 1122.8 909.3 1122.2C910.5 1122 911 1120.9 911 1118C911 1115.3 910.4 1113.8 909.3 1113.1C907.7 1112.3 907.4 1109.8 907 1092.2C906.5 1070.3 906.3 1069.8 899.8 1066.4C896.3 1064.6 886.9 1063.9 880.5 1065ZM898 1097.2C898 1103.5 896.5 1109.3 894.4 1111.4C891.7 1114.2 885.4 1115.5 881.2 1114.2C876.7 1112.8 875 1109.9 875 1103.7C875 1095.7 880 1092.1 891.3 1092H898V1097.2Z" fill="#999999"/>
<path d="M941.3 1065.6C938.9 1066.2 936.2 1067.4 935.2 1068.3C933.1 1070.2 932 1069.6 932 1066.7C932 1065.4 931.5 1065 930.4 1065.4C929.5 1065.7 928 1066 926.9 1066C925.1 1066 925 1067.1 925 1094V1122H929.4H933.9L934.2 1101.2C934.5 1078.7 935 1076.7 940.6 1074.2C943.9 1072.7 951.1 1072.7 953.1 1074.3C956.6 1077 957 1079.6 957 1100.9V1122H962.1H967.1L966.8 1097.7C966.5 1071 966.2 1069.7 959.8 1066.4C956.2 1064.6 947 1064.1 941.3 1065.6Z" fill="#999999"/>
<path d="M999.7 1065.5C997.1 1066.1 994.1 1067.5 993 1068.5C991.1 1070.2 991 1070.2 990.1 1067.8C989.3 1065.7 988.7 1065.4 986.1 1065.8L983 1066.2V1094.1V1122H987.5H992V1102.2C992 1080.6 992.8 1076.9 998 1074.3C1002.2 1072.2 1008.5 1072.7 1011.7 1075.4L1014.5 1077.8L1014.8 1099.9L1015.1 1122H1020.1H1025.2L1024.8 1098.2C1024.5 1072.2 1024 1070.2 1018 1066.7C1014.4 1064.5 1005.6 1064 999.7 1065.5Z" fill="#999999"/>
<path d="M1055.5 1065C1047.2 1066.3 1042.3 1070.7 1040.1 1078.5C1038.7 1083.5 1038.7 1103.3 1040 1108.1C1042.8 1118 1049.9 1123 1061.6 1123C1070.9 1123 1076.3 1120.3 1080.5 1113.5C1083.5 1108.7 1083.5 1108.5 1083.5 1094.6C1083.5 1079.5 1082.5 1074.5 1078.7 1070.9C1073.3 1065.8 1064.4 1063.5 1055.5 1065ZM1069.1 1075.1C1072.8 1078.8 1074 1083.4 1074 1094C1074 1108.3 1071.7 1113.1 1064.3 1114.5C1057.4 1115.8 1050.7 1112 1049.2 1106.1C1048.6 1104 1048.6 1083.9 1049.2 1082C1050.6 1077.2 1051.4 1075.8 1053.8 1074.5C1058 1072.3 1066.6 1072.6 1069.1 1075.1Z" fill="#999999"/>
<path d="M1162.5 1064.9C1154.3 1067 1150.5 1070.6 1148.4 1078.1C1146.8 1084.2 1146.5 1102.8 1147.9 1107.8C1148.4 1109.6 1149 1111.4 1149.1 1111.8C1150.9 1119.2 1157.6 1123 1168.8 1123C1175.6 1123 1185.4 1120.8 1186.5 1119C1187.4 1117.6 1183.8 1110.9 1182.6 1111.9C1182 1112.3 1178.7 1113.2 1175.3 1113.9C1164.9 1115.9 1157.6 1112.7 1156 1105.5C1154.1 1097.5 1153 1098 1172 1098H1189L1188.4 1087.7C1187.4 1071 1183.5 1065.8 1171 1064.6C1168 1064.4 1164.2 1064.5 1162.5 1064.9ZM1173.4 1073C1177.4 1074.5 1179.7 1080.8 1179.1 1088.8C1179 1089.8 1176.2 1090 1167.3 1089.8L1155.5 1089.5L1155.8 1085C1156 1082.6 1156.8 1079.3 1157.7 1077.7C1160.1 1073 1167.6 1070.8 1173.4 1073Z" fill="#999999"/>
<path d="M1331.7 1065C1326.9 1065.9 1321.1 1070.5 1318.5 1075.6C1316.9 1078.7 1316.5 1082 1316.2 1091.5C1316 1098.4 1316.3 1105.3 1316.9 1107.6C1319.6 1117.8 1326.8 1123 1338 1123C1344.6 1123 1354.4 1120.8 1355.5 1119C1356.4 1117.5 1352.8 1110.9 1351.6 1112C1350.9 1112.5 1347.5 1113.4 1344 1114C1332.7 1116 1326.7 1112.4 1325.4 1102.7L1324.7 1098H1341.4H1358.1L1357.5 1087.7C1356.7 1074.6 1354.4 1068.9 1349.2 1066.6C1344.9 1064.8 1337.2 1064.1 1331.7 1065ZM1342.9 1073.1C1346.9 1074.5 1349 1078.5 1349 1085V1090H1336.9H1324.7L1325.3 1085.5C1326.8 1074.6 1333.6 1069.9 1342.9 1073.1Z" fill="#999999"/>
<path d="M744 1093.6V1122H748.5H753V1093.7V1065.3L748.5 1065.2H744V1093.6Z" fill="#999999"/>
<path d="M1092.7 1065.7C1092.4 1065.9 1094.6 1073.6 1097.6 1082.8C1100.5 1092 1104.6 1104.8 1106.7 1111.2L1110.4 1123H1115.5H1120.5L1124.8 1109.2C1127.2 1101.7 1129.3 1094.3 1129.6 1092.9C1129.8 1091.4 1131.7 1084.8 1133.9 1078.1C1136 1071.4 1137.5 1065.8 1137.1 1065.6C1136.8 1065.4 1134.7 1065.4 1132.6 1065.5L1128.6 1065.8L1125.4 1076.6C1116.9 1105 1115.6 1108.9 1115 1108.5C1114.4 1108.1 1111.9 1100.3 1110.5 1094.2C1110.2 1093.3 1109.6 1090.7 1109 1088.5C1108.4 1086.3 1107.7 1083.5 1107.5 1082.3C1107.2 1081 1105.9 1076.8 1104.7 1072.8L1102.4 1065.5L1097.8 1065.4C1095.2 1065.3 1092.9 1065.4 1092.7 1065.7Z" fill="#999999"/>
<path d="M1204.8 1065.7L1202 1066.1V1094.1V1122H1206.4H1210.8L1211.2 1102.7C1211.5 1086.9 1211.9 1082.9 1213.3 1080.3C1215.1 1076.8 1218.5 1074.7 1223.8 1073.5C1226.7 1072.9 1227 1072.5 1227 1068.9C1227 1065.3 1226.8 1065 1224.1 1065C1220.6 1065 1215 1066.8 1212.9 1068.6C1210.8 1070.5 1210.2 1070.4 1209.8 1067.8C1209.5 1065.4 1208.8 1065.1 1204.8 1065.7Z" fill="#999999"/>
<path d="M768 1090V1094H782H796V1090V1086H782H768V1090Z" fill="#999999"/>
<path d="M1232 1116V1122H1238H1244V1116V1110H1238H1232V1116Z" fill="#999999"/>
</svg>
