<svg xmlns="http://www.w3.org/2000/svg" viewBox="0 0 700 265" width="700" height="265">
	<style>
		tspan { white-space:pre }
		.shp0 { fill: #fdfdfd } 
		.shp1 { fill: #040404 } 
	</style>
	<g id="Background">
		<path id="Path 0" class="shp0" d="M0 132.5L0 265L700 265L700 0L0 0L0 132.5Z" />
		<path id="Path 1" class="shp1" d="M121 6.05C116.87 6.55 109.22 8.04 104 9.35C98.77 10.67 90.9 13.18 86.5 14.94C82.1 16.69 75.57 19.77 72 21.77C68.42 23.78 62.12 27.97 58 31.09C53.87 34.22 46.88 40.53 42.46 45.13C38.03 49.74 32.13 56.87 29.35 61C26.56 65.12 22.64 71.76 20.64 75.75C18.64 79.74 15.94 85.81 14.64 89.25C13.34 92.69 11.22 99.77 9.93 105C7.88 113.26 7.57 116.98 7.54 133.5C7.51 146.12 7.92 153.76 8.75 156.25C9.44 158.31 11.12 160.67 12.5 161.5C14.39 162.63 15.67 162.75 17.75 162C19.26 161.45 23.05 158.41 26.16 155.25C29.28 152.09 38.68 140.05 47.05 128.5C55.43 116.95 65.08 104.12 68.51 100C71.93 95.87 78.73 88.74 83.62 84.14C89.4 78.71 94.76 74.69 98.99 72.64C104.5 69.97 106.6 69.5 112.99 69.5C119.13 69.5 121.5 69.99 126 72.21C129.02 73.7 135.32 78.14 140 82.08C144.67 86.02 149.74 89.87 151.25 90.63C152.76 91.38 155.91 92 158.25 92C160.74 91.99 163.85 91.17 165.75 90C167.54 88.9 170.29 86.09 171.87 83.75C173.44 81.41 175.87 77.25 177.26 74.5C178.65 71.75 184.11 59.15 189.41 46.5C194.7 33.85 199.04 23.27 199.05 23C199.06 22.72 194.66 20.4 189.28 17.84C183.9 15.28 176.57 12.29 173 11.19C169.42 10.09 162.9 8.51 158.5 7.67C154.1 6.83 145.55 5.91 139.5 5.64C133.45 5.36 125.12 5.55 121 6.05ZM315.97 23.29C314.03 23.96 310.65 25.84 308.47 27.47C306.29 29.11 303.7 31.36 302.73 32.47C301.75 33.59 299.96 36.3 298.74 38.5C296.94 41.74 296.52 44.11 296.51 51C296.5 58.59 296.82 60.08 299.5 64.89C301.15 67.86 304.07 71.58 306 73.15C307.92 74.73 311.3 76.88 313.5 77.92C315.7 78.97 319.75 80.14 322.5 80.52C325.91 81 329.56 80.69 334 79.57C337.57 78.66 342.19 76.81 344.25 75.46L348 73L348 52L342 52L342 71C334.08 74.63 330.51 75.35 326.5 75.36C322.11 75.38 319.19 74.73 315.62 72.94C312.94 71.6 309.61 69.15 308.21 67.5C306.82 65.85 304.8 62.47 303.72 60C302.26 56.67 301.85 53.92 302.12 49.43C302.41 44.84 303.24 42.16 305.55 38.43C307.45 35.35 310.43 32.37 313.48 30.5C317.14 28.25 319.88 27.41 324.43 27.12C327.77 26.91 332.3 27.31 334.5 28.01C336.7 28.71 339.78 30.23 341.34 31.39L344.17 33.5L348.5 29.2C341.52 25.21 337.92 23.59 336 23.02C334.07 22.46 329.57 22.02 326 22.04C322.42 22.07 317.91 22.63 315.97 23.29ZM368 51L368 80L408 80L408 75L374 75L374 53L403 53L403 48L374 48L374 27L407 27L407 22L368 22L368 51ZM425 51L425 80L431 80L431 61L451 61C463 79.2 463.76 79.95 466.75 79.98L470 80C459.92 65.27 457 60.77 457 60.5C457 60.22 458.84 58.99 461.08 57.75C463.33 56.51 465.99 54.15 467 52.5C468.01 50.85 469.15 47.7 469.53 45.5C469.92 43.3 469.96 39.59 469.62 37.25C469.18 34.26 467.89 31.79 465.25 28.93C462.63 26.08 459.99 24.42 456.5 23.42C453.27 22.49 446.81 21.98 438.25 21.99L425 22L425 51ZM489.06 50.94L489 80L494 80C494 40.26 494.33 33.08 495.07 33.25C495.67 33.39 500.84 42.61 506.57 53.75C514.13 68.42 517.48 74 518.75 73.99C520.01 73.99 523.55 68.1 531.5 52.74L542.5 31.5L543 80L549 80L549 22L541.5 21.97C524.45 55.29 519.27 64.96 519 64.97C518.72 64.98 513.52 55.43 507.44 43.74L496.39 22.5L489.13 21.88L489.06 50.94ZM587.2 23.69C586.65 24.69 580.94 37.2 574.51 51.5C568.08 65.8 562.52 78.11 562.16 78.87C561.65 79.91 562.29 80.14 564.85 79.87C567.96 79.53 568.43 78.98 571.35 72.2L574.5 64.89L607.3 65.5C613.34 79.59 613.67 79.98 616.75 79.99L620 80C616.98 73.41 611.15 60.47 605.1 47C594.55 23.49 593.99 22.49 591.15 22.19C589.1 21.98 587.88 22.44 587.2 23.69ZM633.07 50.94L633 80L639 80L639.5 31.96C673.61 78.75 674.66 79.97 677.75 79.98L681 80L681 22L674.94 22L674.5 70.41C641.09 24.71 639.18 22.47 636.3 22.19L633.14 21.87L633.07 50.94Z" />
		<path id="Path 2" class="shp0" d="M431.13 41.38L431 56C449.56 56 454.1 55.53 456.5 54.5C458.42 53.67 460.9 51.54 462 49.75C463.25 47.7 463.99 44.74 464 41.75C464 39.14 463.44 35.83 462.75 34.4C462.06 32.98 459.92 30.85 458 29.69C455.11 27.93 452.49 27.49 442.88 27.16L431.26 26.75L431.13 41.38ZM584.31 42.72C580.91 50.3 577.88 57.29 577.57 58.25C577.05 59.86 578.09 60 590.5 60C598.83 60 604 59.62 604 59C604 58.45 601.26 51.81 597.91 44.25C594.56 36.69 591.51 30.15 591.15 29.72C590.78 29.28 587.7 35.13 584.31 42.72Z" />
		<path id="Path 3" class="shp1" d="M208.56 41.75C208.17 48.21 207.02 60.92 205.99 70C204.96 79.07 203.17 92.12 202.01 99C200.84 105.87 198.75 116 197.36 121.5C195.97 127 193.54 134.87 191.96 139C190.38 143.12 187.72 148.41 186.04 150.75C184.37 153.09 181.54 155.93 179.75 157.06C177.08 158.76 175.43 159.03 170.5 158.61C166.56 158.27 162.27 156.98 158 154.87C153.27 152.52 148.76 148.9 141.42 141.57C135.87 136.03 128 126.93 123.92 121.34C119.84 115.76 113.8 107.49 110.5 102.98C107.2 98.46 103.37 94.18 102 93.46C99.87 92.34 98.91 92.41 95.5 93.93C93.3 94.91 89.02 97.73 86 100.2C82.97 102.67 77.28 108.47 73.35 113.09C69.41 117.72 62.88 126.45 58.82 132.5C54.76 138.55 48.9 148.67 45.8 155C42.7 161.32 39.18 169.42 37.98 173C36.79 176.57 35.19 182.42 34.42 186C33.66 189.57 33.03 196.21 33.02 200.75C33.01 205.29 33.34 209.01 33.75 209.02C34.16 209.02 35.32 205.31 36.32 200.77C37.33 196.22 39.63 188 41.45 182.5C43.27 177 46.66 168.67 49 164C51.33 159.32 54.7 153.36 56.49 150.74C58.32 148.06 61.67 144.89 64.12 143.51C66.53 142.15 69.85 141.02 71.5 140.99C73.15 140.96 75.62 141.77 77 142.8C78.37 143.84 82.42 150.26 86 157.09C89.57 163.91 94.52 172.17 97 175.44C99.47 178.71 103.75 183.15 106.5 185.31C109.25 187.47 114.2 190.59 117.5 192.24C120.8 193.89 126.87 196.11 131 197.18C135.12 198.25 143.45 199.38 149.5 199.7C155.85 200.03 164.94 199.75 171 199.04C176.77 198.37 185.55 196.79 190.5 195.54C195.45 194.28 203.1 191.75 207.5 189.92C211.9 188.09 219.32 184.04 224 180.92C228.67 177.8 236.1 171.47 240.5 166.85C244.9 162.24 250.74 154.87 253.49 150.48C256.23 146.09 259.54 139.8 260.83 136.5C263.09 130.78 263.14 130.03 262.09 120.5C261.48 115 259.84 106.22 258.45 101C257.05 95.77 254.35 87.9 252.44 83.5C250.53 79.1 247.07 72.18 244.74 68.12C242.41 64.06 237.55 57.09 233.94 52.62C230.32 48.15 223.57 41.23 218.94 37.24C214.3 33.25 210.22 29.98 209.88 29.99C209.54 30 208.94 35.29 208.56 41.75ZM547.97 107.24C546.03 107.93 542.77 109.74 540.72 111.25C538.67 112.76 535.9 115.46 534.56 117.25C533.21 119.04 531.4 122.52 530.53 125C529.67 127.47 528.96 131.97 528.97 135C528.97 138.02 529.74 142.75 530.67 145.5C531.79 148.82 534.07 152.2 537.43 155.57C540.8 158.93 544.18 161.21 547.5 162.33C550.25 163.26 555.42 164.01 559 163.99C563.41 163.97 566.95 163.29 570 161.88C572.47 160.74 575.98 158.61 577.8 157.15C579.61 155.69 581.08 154.05 581.06 153.5C581.05 152.95 579.34 150.8 577.27 148.72L573.5 144.95C570.4 148.3 568.04 149.89 566.25 150.64C564.46 151.39 560.86 152.01 558.25 152.03C554.94 152.05 552.47 151.37 550.09 149.78C548.22 148.53 545.74 146.23 544.59 144.68C542.95 142.46 542.5 140.39 542.5 135C542.5 129.61 542.95 127.54 544.59 125.32C545.74 123.77 548.22 121.47 550.09 120.22C552.67 118.5 554.9 117.95 559.25 117.97C564.05 118 565.79 118.53 569.82 121.25L574.64 124.5L582 116C576.57 111.35 573.54 109.24 571.75 108.32C569.67 107.24 565.43 106.52 560 106.3C554.83 106.1 550.12 106.47 547.97 107.24ZM299.23 135.25L299.5 163.5L312 164L312.11 128.5L327.5 159.01L335 159L349.5 129.5L350 164L363 164L363 107L346 107C334.76 130.28 331.27 137.02 331 136.99C330.72 136.96 327.35 130.18 323.5 121.93L316.5 106.94L298.97 107L299.23 135.25ZM380 135.5L380 164L422 164L422 152L393 152L393 141L418 141L418 130L393 130L393 118L421 118L421 107L380 107L380 135.5ZM437.09 135.41L437 164C452.89 163.99 460.31 163.54 463.75 162.99C467.19 162.45 471.69 161.15 473.75 160.12C475.81 159.09 479.19 156.39 481.25 154.12C483.53 151.61 485.59 147.95 486.51 144.75C487.34 141.86 488.02 137.14 488.01 134.25C488 131.36 487.12 126.64 486.03 123.75C484.95 120.86 482.59 117.06 480.78 115.3C478.98 113.54 475.25 111.07 472.5 109.82C468.14 107.82 465.55 107.48 452.34 107.17L437.18 106.82L437.09 135.41ZM502.23 135.25L502.5 163.5L515 164L515 107L501.97 107L502.23 135.25ZM599.76 134.21C593.3 149.22 588.01 162.06 588.01 162.75C588 163.64 589.76 163.93 594.15 163.75C598.35 163.58 600.56 163.03 601.16 162C601.63 161.17 602.92 158.36 604.01 155.75L606 151L629.5 150.95L634.77 163.5C645.02 163.89 648 163.66 648 163.25C647.99 162.84 642.65 150.12 636.12 135L624.25 107.5L611.49 106.92L599.76 134.21ZM658.23 135.25L658.5 163.5L695 164L695 152L671 152L671 107L657.97 107L658.23 135.25Z" />
		<path id="Path 4" class="shp0" d="M449 135L449 152C461.16 152 464.63 151.43 466.98 150.25C468.89 149.29 471.49 146.92 472.76 145C474.52 142.31 475.05 140.11 475.03 135.5C475.02 131.67 474.35 128.23 473.18 126C472.03 123.8 469.71 121.66 466.93 120.24C463.62 118.55 460.8 117.99 455.75 117.99L449 118L449 135ZM614.47 131.25C612.84 135.17 611.39 138.74 611.25 139.19C611.11 139.63 614.15 140 618 140L625 140C619.96 128.55 618.26 124.98 617.97 124.68C617.68 124.38 616.1 127.34 614.47 131.25Z" />
		<path id="Path 5" class="shp1" d="M63.5 182.08C61.85 182.59 59.25 184.25 57.72 185.76C56.2 187.27 54.61 190.01 54.2 191.86C53.79 193.71 53.59 196.86 53.74 198.86C53.9 200.86 55.15 203.96 56.51 205.75C57.95 207.63 60.58 209.47 62.75 210.13C64.81 210.75 68.07 211.05 70 210.8C71.92 210.56 74.85 209.44 76.5 208.33C78.15 207.21 80.32 204.32 81.32 201.9C82.48 199.08 82.93 196.25 82.57 194C82.27 192.07 81.11 189.26 80.01 187.75C78.9 186.24 76.76 184.38 75.25 183.62C73.74 182.86 71.15 182 69.5 181.7C67.85 181.4 65.15 181.57 63.5 182.08ZM645 186.07C643.62 186.65 641.44 188.11 640.15 189.31C638.87 190.51 637.18 192.74 636.4 194.25C635.63 195.76 634.94 199.14 634.87 201.75C634.8 204.57 635.51 208.09 636.62 210.43C637.66 212.59 640.07 215.37 642 216.61C643.92 217.85 647.07 219.16 649 219.52C650.92 219.88 654.3 219.7 656.5 219.13C658.86 218.52 662.04 216.54 664.26 214.3C666.89 211.64 668.28 209.15 668.9 206C669.38 203.49 669.39 199.95 668.92 198C668.45 196.07 667.21 193.37 666.16 192C665.11 190.62 663.04 188.6 661.54 187.5C659.73 186.16 656.96 185.42 653.17 185.26C650.05 185.13 646.37 185.49 645 186.07Z" />
		<path id="Path 6" class="shp0" d="M648.09 188.71C646.76 188.94 644.22 190.57 642.44 192.32C640.66 194.07 638.88 197.07 638.49 199C638.09 200.92 638.04 203.74 638.38 205.25C638.72 206.76 640.54 209.69 642.42 211.75C645.67 215.31 646.16 215.5 652 215.5C657.84 215.5 658.33 215.31 661.58 211.75C663.46 209.69 665.28 206.76 665.62 205.25C665.96 203.74 665.96 201.04 665.62 199.25C665.28 197.46 663.87 194.65 662.5 193C661.11 191.34 658.33 189.56 656.25 189.01C654.19 188.46 652.05 188.07 651.5 188.14C650.95 188.21 649.41 188.47 648.09 188.71Z" />
		<path id="Path 7" class="shp1" d="M316.63 194.18C315.3 197.11 309.63 209.62 304.03 222C298.43 234.37 293.55 245.11 293.18 245.87C292.66 246.91 293.28 247.15 295.82 246.87C298.9 246.53 299.39 245.95 302.44 239L305.74 231.5L338.26 231.5C344.56 245.82 345.13 246.52 347.93 246.75C349.62 246.89 351.01 246.89 351.02 246.75C351.02 246.61 345.28 233.67 338.25 218C325.57 189.74 325.44 189.5 322.26 189.18C319.26 188.89 318.89 189.21 316.63 194.18ZM361.95 217.94L371.5 247.01L377.5 247.02C389.9 208.86 393.72 197.64 394 197.47C394.27 197.3 398.1 208.38 402.5 222.09L410.5 247.02L416.5 246.98C431.07 203.98 435.46 190.94 435.65 190.25C435.87 189.45 434.92 189 433 189L430 189C421.37 216.51 417.94 227.42 416.81 231C415.68 234.57 414.39 237.95 413.95 238.5C413.5 239.06 410.42 230.84 407.02 220C403.64 209.27 400.09 198.02 399.12 195C397.5 189.97 397.07 189.48 394.17 189.25C391.1 189.01 390.94 189.2 389.06 195.25C387.99 198.69 384.57 209.6 381.46 219.5C378.34 229.4 375.44 237.95 375 238.5C374.55 239.05 371.67 231.46 368.54 221.5C365.43 211.6 361.87 200.35 360.62 196.5C358.53 190.08 358.1 189.47 355.37 189.19L352.4 188.88L361.95 217.94ZM462.69 189.71C462.4 190.17 456.69 202.68 449.99 217.52C443.29 232.36 437.52 245.11 437.16 245.87C436.65 246.91 437.28 247.14 439.82 246.87C442.91 246.53 443.38 245.96 446.38 239L449.61 231.5L482.13 231.5C488.45 245.88 488.98 246.52 491.86 246.75C493.59 246.89 495 246.89 495.01 246.75C495.01 246.61 489.24 233.67 482.19 218C469.66 190.17 469.29 189.49 466.29 189.19C464.6 189.03 462.98 189.26 462.69 189.71ZM508 218L508 247L514 247L514 228L534 228C546 246.2 546.76 246.95 549.75 246.98C552.06 246.99 552.8 246.64 552.3 245.75C551.91 245.06 548.99 240.79 545.8 236.25C542.61 231.71 540 227.55 540 227C540 226.45 541.01 225.81 542.25 225.58C543.49 225.35 545.96 223.55 547.75 221.58C549.54 219.61 551.49 216.09 552.09 213.75C552.69 211.41 552.88 207.47 552.5 205C552.13 202.52 551.02 199.15 550.04 197.5C549.03 195.81 545.91 193.3 542.88 191.74C537.72 189.09 536.9 188.98 522.75 188.99L508 189L508 218ZM572.09 217.91L572 247C601.44 246.44 604.09 246.12 608 244.24C610.47 243.05 614.19 240.49 616.25 238.54C618.31 236.59 621.01 233.09 622.24 230.75C624.04 227.32 624.48 224.85 624.49 218C624.5 210.41 624.18 208.93 621.5 204.12C619.85 201.15 617.15 197.61 615.5 196.24C613.85 194.87 610.7 192.8 608.5 191.64C605.01 189.79 602.45 189.48 588.34 189.18L572.18 188.83L572.09 217.91ZM649 192.71C648.17 193.01 646.48 194.21 645.24 195.38C644 196.54 642.72 198.85 642.41 200.5C642.1 202.15 642.44 204.8 643.17 206.39C643.9 207.97 645.74 209.89 647.25 210.64C648.76 211.39 651.24 212.02 652.75 212.04C654.26 212.07 656.54 211.28 657.81 210.29C659.28 209.16 659.92 207.86 659.56 206.75C659.25 205.79 658.55 205 658 205C657.45 205 656.77 205.45 656.5 206C656.22 206.55 654.76 207.01 653.25 207.02C651.74 207.03 649.93 206.46 649.23 205.77C648.54 205.07 647.97 203.37 647.97 202C647.97 200.62 648.51 198.94 649.18 198.25C649.85 197.56 651.55 196.99 652.95 196.98C654.35 196.97 655.95 197.44 656.5 198.02C657.2 198.76 657.96 198.58 659 197.43C660.35 195.94 660.25 195.58 658 193.84C656.62 192.78 654.37 191.97 653 192.04C651.62 192.1 649.82 192.4 649 192.71Z" />
		<path id="Path 8" class="shp0" d="M514 208.5L514 223C529.11 222.99 535.07 222.56 537 222.03C538.92 221.5 541.85 219.67 543.5 217.96C545.87 215.49 546.58 213.76 546.88 209.67C547.13 206.24 546.71 203.41 545.63 201.25C544.59 199.19 542.45 197.28 539.75 196.02C536.36 194.44 533.33 194.04 524.75 194.02L514 194L514 208.5ZM578 218L578 242C593.11 242.02 599.52 241.44 602 240.71C604.47 239.99 608.22 238.07 610.33 236.45C612.43 234.83 615.25 231.25 616.59 228.5C618.26 225.07 619.03 221.77 619.04 218C619.04 214.97 618.41 210.92 617.64 209C616.86 207.07 614.94 203.96 613.36 202.08C611.79 200.2 608.25 197.61 605.5 196.34C601.21 194.35 598.9 194.02 589.25 194.01L578 194L578 218Z" />
		<path id="Path 9" class="shp1" d="M240.42 200.19C237.71 202.39 232.57 205.82 229 207.8C225.42 209.79 219.12 212.52 215 213.89C208.69 215.97 205.6 216.36 195.5 216.35C186.24 216.35 178.7 215.51 162.5 212.71C150.95 210.7 136.89 208.38 131.25 207.53C125.61 206.69 117.29 205.93 112.75 205.85C108.21 205.77 103.6 205.99 102.5 206.33C101.4 206.67 99.71 208.32 98.75 209.98C97.79 211.64 96.58 216.49 96.08 220.75C95.26 227.57 94.78 228.83 92.08 231.25C89.44 233.6 88.13 234 83 234C79.3 234 73.84 233 68.75 231.38C64.21 229.94 56.34 226.79 51.25 224.38C46.16 221.97 42 220.45 42 221C42 221.55 44.81 224.55 48.25 227.66C51.69 230.78 57.65 235.54 61.5 238.26C65.35 240.97 72.44 245.17 77.25 247.59C82.06 250.02 89.94 253.33 94.75 254.95C99.56 256.58 107.77 258.65 113 259.56C120.29 260.83 126.33 261.1 139 260.72C152.27 260.32 157.36 259.74 165 257.73C170.22 256.35 178.1 253.84 182.5 252.13C186.9 250.42 194.18 246.89 198.68 244.26C203.18 241.64 210.81 236.35 215.64 232.5C220.46 228.65 227.31 222.12 230.84 218C234.38 213.87 239.24 207.46 241.64 203.75C244.04 200.04 245.85 196.82 245.67 196.59C245.49 196.36 243.12 197.98 240.42 200.19Z" />
		<path id="Path 10" class="shp0" d="M314.83 210.75L308.36 225.5C319.32 225.96 325.46 225.96 329.08 225.79L335.65 225.5C326.05 202.64 322.82 196 322.28 196C321.75 196 318.39 202.64 314.83 210.75ZM461.19 205.25C458.99 210.34 456.03 217.09 454.6 220.25L452 226L480 226C469.93 202.75 466.6 196 466.1 196C465.6 196 463.39 200.16 461.19 205.25Z" />
	</g>
</svg>