<?xml version="1.0" standalone="no"?>
<!DOCTYPE svg PUBLIC "-//W3C//DTD SVG 20010904//EN"
 "http://www.w3.org/TR/2001/REC-SVG-20010904/DTD/svg10.dtd">
<svg version="1.0" xmlns="http://www.w3.org/2000/svg"
 width="1424.000000pt" height="1344.000000pt" viewBox="0 0 1424.000000 1344.000000"
 preserveAspectRatio="xMidYMid meet">

<g transform="translate(0.000000,1344.000000) scale(0.100000,-0.100000)"
fill="#000000" stroke="none">
<path d="M0 6720 l0 -6720 7120 0 7120 0 0 6720 0 6720 -7120 0 -7120 0 0
-6720z m8815 6622 c77 -17 190 -40 250 -51 138 -26 275 -63 355 -95 130 -53
495 -287 1415 -911 360 -243 394 -275 460 -428 65 -148 146 -306 328 -632 280
-504 317 -585 337 -738 21 -154 10 -640 -21 -932 -29 -276 -101 -741 -117
-757 -6 -6 -47 9 -102 37 -51 26 -96 43 -100 38 -5 -4 -49 -143 -99 -308 -139
-461 -314 -959 -358 -1024 -39 -56 -530 -540 -579 -570 -16 -10 -38 -28 -48
-40 -17 -19 -18 -23 -4 -38 8 -10 323 -398 699 -863 595 -735 715 -889 920
-1180 380 -541 439 -628 511 -760 100 -180 317 -617 368 -740 24 -58 297 -682
607 -1387 310 -706 563 -1286 563 -1289 0 -46 -136 239 -810 1696 -197 426
-412 891 -479 1033 -67 142 -133 286 -147 320 -77 184 -77 184 -683 1002 -130
176 -263 358 -296 405 -32 47 -121 164 -197 260 -75 96 -362 463 -636 815
-275 352 -506 640 -513 639 -8 -1 -102 -65 -209 -143 -175 -128 -205 -154
-296 -259 -142 -166 -388 -438 -514 -568 l-106 -111 -110 53 c-60 29 -269 152
-464 272 l-355 219 -51 -136 c-103 -275 -416 -1047 -431 -1064 -12 -12 -31
-17 -71 -17 -39 0 -53 -3 -49 -12 2 -7 57 -96 121 -197 65 -101 114 -187 109
-192 -5 -5 -65 -10 -135 -11 l-127 -3 179 -255 c107 -154 175 -259 169 -264
-5 -6 -105 -12 -222 -15 l-214 -6 169 -240 170 -240 -39 -7 c-21 -4 -97 -7
-170 -7 l-132 -1 48 -83 c163 -281 251 -435 251 -441 0 -3 -104 -6 -231 -6
-127 0 -229 -3 -227 -7 4 -10 267 -264 326 -316 23 -20 42 -41 42 -47 0 -5
-57 -43 -126 -83 l-125 -74 75 -68 c76 -68 89 -88 61 -99 -10 -4 -351 -222
-394 -252 -4 -3 46 -143 59 -164 7 -11 35 -7 169 30 l161 43 9 36 c72 279 82
303 149 358 26 21 91 77 144 125 69 62 108 89 133 94 19 3 164 -7 327 -25 161
-17 419 -42 573 -56 553 -49 631 -56 680 -63 l50 -7 3 -260 c2 -143 0 -274 -3
-290 -4 -24 -41 -62 -176 -180 -211 -185 -199 -174 -199 -190 0 -8 -9 -19 -20
-25 -14 -7 -20 -21 -20 -43 0 -35 -15 -135 -54 -362 -17 -96 -32 -159 -44
-175 -13 -17 -70 -44 -193 -92 -96 -37 -182 -68 -193 -68 -32 0 -76 -59 -200
-264 -65 -108 -128 -203 -140 -210 -17 -11 -317 -68 -482 -92 -17 -2 -133 -65
-259 -139 -126 -74 -234 -135 -240 -135 -5 0 -118 34 -250 75 -131 41 -245 75
-251 75 -7 0 -109 -32 -226 -71 -259 -86 -258 -86 -395 -1 -54 33 -136 81
-183 107 -47 27 -107 61 -135 76 -28 16 -59 26 -70 23 -16 -4 -352 49 -450 71
-15 3 -52 62 -129 202 -60 109 -119 212 -132 230 -19 25 -50 42 -151 81 -71
28 -159 60 -196 71 -75 23 -101 38 -125 72 -9 13 -33 131 -61 298 l-46 275
-203 184 -202 183 0 284 0 283 33 11 c17 6 106 17 197 26 91 8 230 22 310 30
80 8 305 29 500 45 195 17 384 34 420 40 84 12 162 13 194 0 41 -15 310 -256
328 -292 8 -18 31 -96 49 -172 30 -124 37 -139 59 -148 22 -8 253 -37 303 -38
12 0 25 18 42 56 14 31 25 60 25 64 0 5 -48 39 -107 76 -99 61 -313 211 -313
219 0 1 33 29 73 60 39 32 76 61 80 65 8 7 -245 160 -264 160 -26 0 8 33 143
140 80 63 176 142 213 175 l68 60 -278 5 -277 5 179 245 c98 135 183 251 187
258 6 11 -26 12 -177 6 -142 -5 -186 -4 -192 6 -5 7 9 29 39 59 25 25 124 138
219 251 l174 205 -249 6 c-137 4 -251 9 -254 12 -3 3 72 118 165 255 94 138
171 253 171 256 0 3 -58 6 -130 6 -71 0 -130 3 -130 7 0 7 185 326 211 364 22
32 17 39 -32 39 -20 0 -44 3 -53 6 -9 3 -107 238 -247 587 -127 320 -234 585
-238 589 -3 3 -166 -93 -361 -214 -195 -121 -402 -243 -459 -271 l-105 -50
-105 109 c-122 126 -433 470 -536 593 -59 70 -104 108 -279 235 -115 83 -211
151 -212 151 -2 0 -247 -313 -544 -695 -298 -382 -581 -744 -629 -805 -48 -60
-114 -148 -146 -195 -33 -47 -166 -229 -296 -405 -606 -818 -606 -818 -683
-1002 -14 -34 -80 -178 -147 -320 -67 -142 -269 -577 -449 -968 -671 -1452
-840 -1807 -840 -1761 0 3 253 583 563 1289 310 705 583 1329 607 1387 51 123
268 560 368 740 72 132 131 219 511 760 206 292 323 443 924 1184 671 828 687
849 670 869 -10 11 -34 30 -53 42 -55 35 -555 530 -588 583 -35 55 -265 722
-368 1065 -37 126 -72 235 -78 243 -9 12 -25 7 -98 -31 -47 -25 -93 -43 -101
-40 -16 7 -40 133 -86 460 -57 400 -66 522 -66 900 0 340 1 352 24 435 27 95
116 274 301 605 162 292 281 520 340 655 81 188 64 174 1145 898 693 463 706
470 1130 556 194 40 304 66 384 91 15 5 22 4 20 -3 -2 -6 -166 -144 -364 -307
-346 -285 -547 -454 -647 -547 l-48 -43 -105 -345 c-58 -190 -131 -417 -161
-505 -31 -88 -60 -180 -65 -205 -5 -25 -18 -53 -28 -63 -25 -26 -242 -141
-538 -288 -134 -66 -243 -123 -243 -126 0 -5 88 -172 96 -182 1 -1 45 11 96
28 51 16 164 48 251 70 l158 39 77 73 c42 41 248 234 457 429 499 465 573 538
596 582 11 21 46 113 78 205 50 142 200 553 245 673 30 77 37 34 55 -335 12
-237 11 -249 -38 -465 -97 -432 -136 -584 -196 -759 -75 -221 -88 -249 -143
-311 -140 -160 -286 -340 -299 -369 -8 -18 -36 -145 -63 -282 -28 -137 -56
-262 -64 -278 -32 -61 -148 -142 -311 -215 -66 -30 -183 -89 -260 -133 l-139
-78 -62 -97 c-48 -76 -62 -108 -67 -150 -4 -29 -45 -190 -93 -358 -248 -879
-324 -1170 -311 -1191 12 -20 606 -504 611 -497 56 73 188 224 366 418 124
135 354 389 511 565 158 176 331 367 385 425 55 58 236 258 404 445 600 671
772 855 799 855 14 0 41 -38 162 -227 57 -89 111 -172 120 -185 l17 -22 24 49
c13 28 31 51 41 53 12 3 51 -29 115 -92 l97 -95 100 99 c55 55 102 100 105
100 3 0 23 -27 44 -61 27 -41 42 -57 49 -50 6 6 74 104 151 218 78 114 147
209 153 211 20 6 124 -100 403 -408 141 -157 379 -420 528 -585 149 -165 314
-347 368 -405 53 -58 277 -307 497 -555 220 -247 430 -479 467 -515 38 -36 94
-98 125 -137 32 -40 59 -73 61 -73 12 0 591 476 603 496 14 21 7 52 -83 381
-55 197 -147 529 -207 739 -59 210 -111 405 -115 435 -6 43 -20 74 -69 150
l-62 95 -159 87 c-88 48 -202 105 -254 128 -142 61 -263 148 -296 211 -8 15
-36 137 -63 271 -27 133 -56 259 -64 280 -15 35 -156 210 -279 346 -32 35 -69
87 -83 115 -59 122 -155 440 -236 786 l-84 355 2 205 c2 202 17 457 27 468 3
3 8 3 11 1 5 -6 168 -443 261 -704 36 -99 72 -195 82 -214 9 -19 116 -127 237
-240 333 -311 794 -741 847 -790 45 -41 57 -46 200 -82 84 -22 197 -53 252
-70 54 -17 99 -29 100 -27 12 17 96 181 94 183 -2 2 -129 67 -283 144 -512
258 -524 265 -525 326 0 12 -22 81 -49 155 -27 74 -101 306 -166 515 l-117
380 -56 54 c-85 80 -257 225 -647 545 -322 264 -408 343 -328 303 15 -8 91
-28 168 -45z m-3243 -2534 l3 -463 168 -3 167 -2 0 -25 0 -25 -195 0 -195 0 0
490 0 490 25 0 25 0 2 -462z m1278 230 l0 -233 31 38 c17 20 52 49 77 65 42
24 57 27 138 27 83 0 94 -2 140 -30 60 -38 119 -114 139 -179 22 -72 19 -184
-5 -250 -26 -69 -89 -140 -154 -173 -41 -21 -65 -27 -121 -27 -83 0 -136 23
-202 87 l-43 41 0 -57 c0 -54 -1 -57 -25 -57 l-25 0 0 490 0 490 25 0 25 0 0
-232z m774 125 c19 -60 78 -241 131 -403 52 -162 98 -302 102 -310 3 -8 67
171 142 400 135 409 137 415 165 418 20 3 27 0 23 -10 -2 -7 -76 -232 -163
-499 -88 -268 -160 -486 -162 -484 -3 3 -322 981 -322 989 0 3 11 6 24 6 22 0
28 -10 60 -107z m1003 92 c135 -40 224 -199 202 -360 -14 -103 -82 -200 -169
-241 l-39 -19 98 -170 c98 -168 98 -170 73 -173 -32 -4 -28 -9 -138 183 l-89
155 -82 0 -83 0 0 -170 0 -170 -25 0 -25 0 0 490 0 490 113 0 c72 0 132 -6
164 -15z m-2182 -339 c200 -93 246 -395 85 -556 -58 -58 -119 -84 -201 -84
-119 0 -215 67 -271 190 -32 69 -33 218 -1 286 30 65 99 137 158 164 69 33
161 33 230 0z"/>
<path d="M8695 13342 c6 -5 179 -148 385 -317 327 -269 456 -377 561 -472 26
-24 26 -23 -28 194 -29 120 -56 251 -60 291 l-6 73 -66 33 c-101 51 -235 90
-466 136 -190 37 -250 50 -310 67 -13 3 -17 2 -10 -5z"/>
<path d="M5445 13309 c-16 -5 -130 -29 -251 -54 -249 -50 -357 -81 -459 -132
-38 -20 -72 -37 -74 -39 -3 -2 -6 -29 -8 -59 -2 -30 -27 -157 -57 -282 -30
-125 -53 -229 -52 -230 1 -1 51 41 111 94 61 52 274 231 475 396 201 165 369
304 375 309 12 10 -21 9 -60 -3z"/>
<path d="M9573 13039 c5 -55 98 -454 115 -499 7 -17 82 -74 230 -174 l220
-148 178 -24 c99 -13 304 -47 457 -75 153 -27 292 -49 308 -47 26 3 16 12
-104 92 -72 49 -276 187 -452 306 -360 245 -810 540 -899 590 l-59 33 6 -54z"/>
<path d="M4535 13007 c-88 -52 -651 -427 -1174 -783 -229 -155 -260 -179 -235
-182 16 -1 152 20 301 48 150 27 346 59 435 71 90 12 179 27 198 33 20 7 128
76 242 154 146 101 209 150 216 170 25 61 113 466 110 503 l-3 40 -90 -54z"/>
<path d="M8734 12693 c-4 -81 -8 -208 -8 -282 l-1 -135 92 -70 c50 -39 120
-97 156 -128 35 -32 67 -58 70 -58 8 0 -51 170 -148 430 -42 113 -90 243 -107
290 -16 47 -33 89 -38 93 -4 5 -11 -58 -16 -140z"/>
<path d="M5403 12678 c-28 -79 -95 -261 -148 -406 -53 -145 -95 -268 -93 -273
2 -5 43 27 92 71 50 44 120 101 157 127 43 30 69 57 72 71 6 30 -12 453 -21
510 l-7 43 -52 -143z"/>
<path d="M9717 12428 c105 -357 292 -928 304 -928 14 0 18 31 49 335 16 165
32 317 35 337 l5 37 -122 84 c-208 142 -275 187 -281 187 -3 0 1 -24 10 -52z"/>
<path d="M4296 12320 c-104 -71 -190 -131 -193 -134 -10 -9 63 -681 77 -705
10 -18 9 -20 66 144 38 107 254 804 254 817 0 4 -3 8 -7 8 -5 -1 -93 -59 -197
-130z"/>
<path d="M8733 12219 c3 -13 40 -175 83 -359 42 -184 81 -340 88 -346 10 -11
168 -81 761 -339 110 -48 268 -121 350 -161 130 -65 145 -70 114 -42 -191 172
-1031 964 -1039 979 -6 11 -28 30 -48 43 -20 13 -73 56 -117 96 -44 40 -107
90 -139 113 -55 37 -58 38 -53 16z"/>
<path d="M5405 12167 c-33 -24 -94 -75 -135 -112 -41 -37 -86 -75 -101 -84
-14 -9 -43 -36 -65 -60 -34 -38 -216 -211 -911 -860 -73 -69 -131 -126 -129
-128 2 -3 60 25 128 61 67 35 272 130 453 209 539 236 660 289 663 292 6 6
163 700 160 712 -2 9 -22 0 -63 -30z"/>
<path d="M10150 12195 c0 -9 468 -833 633 -1114 l55 -93 7 32 c20 93 96 293
165 441 43 91 97 210 118 265 22 54 54 129 70 165 l30 67 -44 43 c-39 38 -51
44 -92 46 -26 1 -171 24 -322 52 -151 28 -347 60 -435 71 -88 11 -166 23 -172
25 -7 2 -13 3 -13 0z"/>
<path d="M10126 12170 c-3 -8 -19 -159 -36 -335 -21 -217 -36 -327 -46 -342
-16 -26 -18 -66 -4 -93 15 -28 760 -414 760 -394 0 3 -46 85 -103 182 -101
173 -400 699 -510 897 -33 58 -58 93 -61 85z"/>
<path d="M3880 12144 c-91 -13 -290 -46 -444 -74 -153 -28 -298 -51 -321 -52
-38 0 -49 -7 -89 -47 l-46 -47 39 -89 c22 -50 60 -137 84 -195 25 -58 75 -168
111 -245 37 -77 88 -206 113 -287 l47 -146 79 136 c250 431 602 1061 596 1065
-2 2 -78 -7 -169 -19z"/>
<path d="M4011 12041 c-86 -156 -430 -764 -525 -926 -41 -71 -71 -131 -67
-133 5 -2 116 51 248 118 494 250 513 262 513 316 0 14 -7 35 -15 48 -11 16
-26 123 -50 356 -19 184 -36 334 -38 336 -1 1 -31 -50 -66 -115z"/>
<path d="M11186 11811 c-25 -60 -46 -111 -46 -115 0 -3 -43 -99 -96 -212 -86
-185 -159 -379 -183 -483 l-8 -38 121 -54 c66 -29 309 -137 540 -241 230 -103
421 -188 423 -188 9 0 -9 83 -32 149 -31 91 -90 206 -293 571 -163 293 -362
682 -362 709 0 34 -23 -1 -64 -98z"/>
<path d="M2935 11827 c-45 -112 -176 -365 -347 -672 -184 -331 -253 -466 -283
-556 -24 -70 -40 -149 -31 -149 3 0 191 84 417 186 226 102 466 210 533 239
121 53 121 53 120 87 -2 60 -84 289 -169 468 -46 96 -101 220 -123 275 -22 56
-50 122 -63 148 l-24 46 -30 -72z"/>
<path d="M8942 11383 c58 -189 107 -301 158 -361 178 -209 300 -356 300 -362
0 -4 60 14 133 40 72 25 243 84 379 130 l248 84 -128 67 c-70 36 -212 104
-317 149 -104 46 -323 141 -485 213 -162 71 -300 131 -307 134 -7 3 1 -36 19
-94z"/>
<path d="M4960 11310 c-173 -77 -393 -175 -489 -217 -95 -42 -230 -106 -299
-141 l-125 -65 379 -128 379 -129 20 27 c26 36 227 276 276 330 52 57 81 119
139 294 52 155 55 169 43 169 -5 -1 -150 -64 -323 -140z"/>
<path d="M10712 10708 c-66 -128 -148 -291 -181 -361 l-60 -128 32 6 c18 3
106 14 197 26 336 41 1185 170 1225 185 33 13 85 -12 -694 336 -195 87 -365
161 -377 164 -20 5 -33 -15 -142 -228z"/>
<path d="M3105 10800 c-675 -304 -829 -376 -830 -385 0 -12 154 -39 600 -106
331 -49 857 -119 863 -114 1 1 -78 161 -176 356 -137 272 -183 354 -198 356
-10 1 -127 -47 -259 -107z"/>
<path d="M9792 10767 c-301 -103 -381 -134 -377 -146 3 -8 28 -125 55 -259 28
-134 54 -250 58 -259 7 -11 70 64 257 304 137 175 276 350 310 388 66 77 89
105 84 104 -2 0 -176 -59 -387 -132z"/>
<path d="M10129 10802 c-87 -101 -579 -728 -579 -737 0 -4 8 -4 18 -1 17 6
634 113 785 137 42 6 77 13 77 15 0 5 -221 668 -224 671 -1 1 -36 -37 -77 -85z"/>
<path d="M10244 10848 c37 -122 201 -608 206 -608 4 0 233 454 258 512 4 9
-155 59 -326 103 -78 19 -143 35 -146 35 -3 0 1 -19 8 -42z"/>
<path d="M3891 10527 c-61 -187 -111 -340 -109 -341 2 -1 187 -33 413 -70 225
-38 422 -72 437 -77 15 -4 28 -5 28 -1 0 9 -479 618 -581 739 l-76 90 -112
-340z"/>
<path d="M4050 10844 c14 -17 59 -71 100 -121 41 -49 176 -218 300 -376 158
-201 227 -282 233 -272 4 8 31 131 60 274 45 225 50 261 37 266 -8 4 -172 60
-365 125 -192 65 -359 122 -370 126 -17 7 -17 4 5 -22z"/>
<path d="M3800 10820 c-199 -53 -295 -84 -295 -95 0 -13 249 -514 255 -515 5
0 94 262 176 518 36 112 40 132 26 131 -10 0 -82 -18 -162 -39z"/>
<path d="M11919 10416 c-13 -12 -795 -132 -1213 -186 -126 -16 -230 -31 -232
-33 -12 -12 954 -1172 988 -1185 4 -2 8 3 8 11 0 8 65 179 145 382 80 202 166
433 190 514 112 369 142 477 138 489 -5 12 -16 16 -24 8z"/>
<path d="M2266 10375 c-2 -6 18 -83 44 -171 27 -87 67 -222 90 -298 23 -77
108 -309 189 -515 82 -207 152 -385 155 -396 7 -19 8 -19 29 5 522 603 975
1160 954 1171 -7 4 -64 12 -127 19 -161 17 -1048 144 -1202 173 -90 16 -129
20 -132 12z"/>
<path d="M11906 10183 c-21 -71 -56 -188 -77 -261 -22 -73 -108 -305 -190
-515 -83 -210 -152 -392 -152 -405 -2 -19 20 -34 160 -106 135 -71 163 -82
167 -68 16 56 85 545 112 794 14 137 32 688 22 688 -3 0 -22 -57 -42 -127z"/>
<path d="M2264 10020 c3 -146 10 -312 16 -370 22 -227 69 -567 111 -806 l11
-64 162 83 c92 48 162 90 164 99 2 9 -69 198 -157 420 -118 298 -176 461 -224
628 -36 124 -71 236 -77 250 -7 18 -9 -45 -6 -240z"/>
<path d="M10370 10183 c-252 -42 -787 -135 -795 -137 -21 -6 135 -108 225
-147 146 -63 1112 -590 1340 -731 104 -64 273 -158 284 -158 3 0 -112 136
-256 303 -143 166 -364 431 -490 590 -246 307 -231 293 -308 280z"/>
<path d="M3553 9898 c-114 -145 -327 -403 -473 -573 -146 -171 -272 -319 -280
-329 -22 -27 95 34 280 146 85 52 326 189 535 305 558 308 627 345 768 412
117 55 265 147 254 157 -6 7 -817 144 -849 144 -23 0 -55 -36 -235 -262z"/>
<path d="M6419 9913 c-52 -54 -236 -255 -409 -448 -497 -554 -576 -642 -710
-785 -70 -74 -241 -263 -380 -420 -140 -157 -354 -393 -475 -525 -174 -188
-426 -492 -1166 -1405 -925 -1142 -949 -1173 -1238 -1585 -162 -231 -324 -464
-359 -518 -71 -109 -383 -719 -458 -897 -26 -63 -182 -421 -346 -794 -164
-374 -296 -681 -295 -683 2 -2 127 263 277 589 150 326 344 744 430 928 86
184 176 379 200 434 58 131 82 165 531 771 212 286 405 549 429 585 24 36 87
119 140 185 52 66 410 525 795 1019 604 775 731 933 924 1145 123 135 299 329
390 431 91 102 219 244 286 315 66 72 173 191 236 265 64 74 228 254 365 399
137 146 364 391 505 545 297 326 402 431 421 424 7 -3 62 -81 122 -174 60 -93
117 -180 127 -193 l19 -24 19 43 19 43 -107 161 c-58 88 -121 185 -139 214
-17 28 -38 52 -45 52 -8 0 -56 -44 -108 -97z"/>
<path d="M7644 9923 c-31 -49 -97 -145 -145 -215 -49 -70 -89 -134 -89 -142 0
-7 7 -31 16 -51 l16 -38 24 29 c13 16 74 107 136 203 62 95 119 176 126 179
19 7 123 -98 421 -424 141 -154 368 -399 505 -545 137 -145 301 -325 365 -399
63 -74 170 -193 236 -265 66 -71 179 -195 250 -275 72 -80 245 -271 385 -425
232 -255 321 -365 980 -1210 398 -512 758 -973 800 -1025 42 -52 96 -124 120
-160 24 -36 217 -299 429 -585 449 -606 473 -640 531 -771 24 -55 114 -250
200 -434 86 -184 280 -602 430 -928 150 -326 275 -591 277 -589 1 2 -131 309
-295 683 -164 373 -320 731 -346 794 -58 138 -345 710 -416 830 -28 47 -192
288 -365 535 l-315 450 -973 1202 c-534 661 -979 1205 -988 1208 -9 3 -101
101 -205 218 -104 116 -301 338 -438 492 -137 154 -306 341 -376 415 -134 143
-213 231 -710 785 -352 391 -497 545 -516 545 -7 0 -38 -39 -70 -87z"/>
<path d="M6379 9742 c-69 -70 -208 -219 -309 -332 -102 -113 -226 -248 -276
-300 -207 -216 -445 -473 -567 -615 -71 -82 -198 -224 -282 -315 -83 -91 -214
-235 -290 -320 -76 -85 -224 -249 -329 -364 -105 -114 -192 -211 -194 -215 -1
-4 72 -74 164 -156 135 -122 205 -175 380 -290 117 -77 271 -179 341 -227 160
-109 222 -132 427 -163 89 -13 204 -33 256 -44 52 -11 95 -19 96 -18 1 1 23
128 48 282 42 249 118 641 235 1205 24 120 50 215 74 270 61 148 339 754 479
1049 l136 283 -125 192 c-69 105 -129 194 -132 198 -4 5 -63 -49 -132 -120z"/>
<path d="M7634 9718 c-54 -84 -119 -179 -142 -212 l-44 -59 70 -141 c39 -77
97 -202 130 -276 33 -75 94 -207 137 -295 42 -88 98 -209 125 -270 26 -60 72
-165 103 -231 85 -183 77 -147 287 -1264 55 -294 103 -542 106 -551 4 -14 16
-13 114 7 60 13 173 33 252 44 217 31 273 53 454 180 60 43 204 140 320 215
155 102 242 167 338 254 70 64 146 132 167 151 l39 35 -152 165 c-83 91 -228
251 -321 355 -94 105 -239 264 -322 355 -84 91 -211 233 -282 315 -123 142
-361 400 -567 615 -50 52 -196 210 -323 350 -127 140 -267 290 -311 333 l-79
79 -99 -154z"/>
<path d="M6841 9582 c-25 -53 -100 -213 -168 -355 -68 -142 -123 -262 -123
-265 1 -14 511 -302 535 -302 4 0 5 25 2 57 -7 69 -190 963 -197 963 -3 0 -25
-44 -49 -98z"/>
<path d="M7306 9653 c-3 -16 -13 -68 -22 -118 -8 -49 -50 -236 -91 -415 -41
-179 -77 -356 -80 -393 l-6 -69 124 62 c275 136 429 215 429 222 0 14 -122
284 -164 363 -24 44 -58 118 -76 165 -37 97 -65 155 -91 188 l-17 23 -6 -28z"/>
<path d="M6920 9668 c0 -10 160 -792 164 -803 3 -5 5 136 5 314 l1 324 -85 86
c-47 47 -85 83 -85 79z"/>
<path d="M7197 9582 l-87 -88 2 -313 3 -314 68 299 c63 278 108 496 103 501
-1 1 -41 -37 -89 -85z"/>
<path d="M10289 9593 c50 -88 93 -133 198 -208 59 -43 304 -233 543 -423 239
-190 441 -349 448 -355 7 -5 15 -8 17 -5 3 2 -4 60 -16 129 -11 68 -22 151
-24 183 l-4 59 -118 62 c-65 33 -170 93 -233 132 -96 58 -684 388 -799 447
l-33 18 21 -39z"/>
<path d="M3559 9392 c-206 -115 -421 -238 -479 -274 -58 -36 -153 -91 -212
-122 l-108 -58 0 -41 c-1 -23 -11 -106 -23 -184 -13 -79 -20 -143 -16 -143 5
0 209 161 456 357 246 196 495 391 553 433 87 63 114 89 159 153 29 43 51 80
49 83 -3 2 -173 -90 -379 -204z"/>
<path d="M10375 9403 c4 -21 56 -211 115 -423 60 -212 137 -488 171 -615 34
-126 66 -234 70 -239 6 -6 463 250 718 403 44 27 64 51 41 51 -7 0 -40 22 -74
48 -33 27 -236 188 -451 359 -331 262 -524 410 -583 447 -10 6 -12 0 -7 -31z"/>
<path d="M3735 9337 c-55 -39 -299 -230 -541 -423 -242 -193 -451 -357 -463
-364 -20 -10 -21 -14 -10 -24 8 -7 147 -89 309 -181 162 -93 330 -189 373
-213 43 -25 79 -43 81 -41 2 2 36 123 75 269 40 146 117 423 171 616 90 319
119 434 109 434 -2 0 -49 -33 -104 -73z"/>
<path d="M11475 8950 c-9 -14 37 -313 45 -303 4 4 22 55 39 113 18 58 34 112
37 120 5 18 -112 85 -121 70z"/>
<path d="M2672 8897 c-46 -24 -61 -35 -56 -47 4 -8 22 -68 42 -132 19 -65 37
-117 38 -115 6 6 45 288 42 305 -3 18 -7 17 -66 -11z"/>
<path d="M6511 8882 c-11 -21 -69 -148 -129 -283 -60 -134 -138 -304 -171
-377 -34 -73 -61 -142 -59 -152 2 -11 88 -91 192 -178 l190 -159 37 61 c20 34
116 189 213 345 l175 284 -66 76 c-36 42 -131 154 -210 249 -80 94 -147 172
-149 172 -2 0 -12 -17 -23 -38z"/>
<path d="M6581 8904 c122 -151 381 -454 389 -454 6 0 107 155 118 182 2 4 -1
8 -7 8 -14 0 -391 203 -446 240 -65 43 -73 47 -54 24z"/>
<path d="M7375 8769 c-143 -72 -261 -134 -263 -139 -4 -11 115 -190 126 -190
9 0 331 362 375 421 16 21 27 39 25 38 -1 0 -120 -59 -263 -130z"/>
<path d="M7613 8828 c-47 -59 -231 -270 -339 -388 l-23 -25 82 -126 c45 -70
138 -219 207 -332 72 -119 131 -206 140 -206 8 -1 76 51 150 115 74 63 158
129 186 146 l52 31 -18 51 c-9 28 -29 74 -43 101 -13 28 -53 115 -87 195 -73
168 -236 510 -244 510 -3 0 -31 -33 -63 -72z"/>
<path d="M7035 8505 l-46 -75 46 -307 c26 -169 48 -310 51 -312 2 -2 4 170 4
382 0 213 -2 387 -4 387 -2 0 -25 -34 -51 -75z"/>
<path d="M7111 8165 l1 -410 55 331 56 332 -48 68 c-26 38 -52 73 -57 79 -4 5
-8 -175 -7 -400z"/>
<path d="M11130 8320 c-190 -110 -351 -204 -359 -209 -11 -7 -2 -23 46 -77 50
-58 252 -307 331 -408 12 -16 25 -26 28 -23 18 17 317 917 305 917 -3 0 -161
-90 -351 -200z"/>
<path d="M2730 8483 c0 -26 295 -892 309 -906 4 -4 84 88 179 205 94 117 186
231 205 253 l35 40 -307 177 c-396 228 -421 242 -421 231z"/>
<path d="M6768 8073 c-108 -175 -199 -325 -203 -334 -5 -13 13 -20 97 -38 57
-12 168 -38 247 -57 191 -45 187 -46 183 14 -2 26 -7 56 -12 67 -9 19 -32 159
-81 500 -12 83 -25 153 -28 158 -4 4 -95 -136 -203 -310z"/>
<path d="M7231 8330 c-9 -45 -75 -439 -97 -582 -3 -21 -10 -38 -15 -38 -10 0
-12 -60 -3 -84 3 -9 14 -16 23 -16 44 0 494 109 508 123 5 6 -346 579 -385
627 l-20 24 -11 -54z"/>
<path d="M10744 8065 c3 -11 15 -55 27 -99 l23 -79 145 -116 c80 -64 152 -120
160 -125 18 -11 -251 323 -314 390 -30 32 -44 42 -41 29z"/>
<path d="M3398 7973 c-35 -43 -111 -136 -168 -208 -57 -71 -110 -138 -119
-149 -9 -10 52 36 134 102 83 66 157 128 166 138 17 20 65 181 57 189 -3 3
-34 -30 -70 -72z"/>
<path d="M6130 8026 c0 -13 -70 -357 -89 -439 -30 -126 -135 -673 -165 -862
-15 -88 -29 -171 -32 -185 -5 -22 -4 -23 9 -10 8 8 139 238 290 510 374 673
360 650 375 650 32 0 -4 37 -178 180 -177 145 -210 170 -210 156z"/>
<path d="M8020 7991 c-25 -16 -101 -77 -170 -136 -68 -59 -135 -112 -147 -118
-26 -12 -29 -25 -9 -41 13 -11 72 -118 462 -838 115 -213 210 -383 212 -379 6
19 -287 1541 -297 1541 -3 0 -26 -13 -51 -29z"/>
<path d="M10771 7823 c-5 -21 -12 -59 -16 -85 -3 -27 -44 -191 -89 -365 -106
-403 -102 -388 -81 -376 24 14 511 489 542 529 l26 35 -24 26 c-29 31 -331
273 -341 273 -4 0 -11 -17 -17 -37z"/>
<path d="M3285 7724 c-144 -116 -215 -182 -215 -200 0 -14 548 -554 561 -554
17 0 9 38 -80 371 -48 184 -91 358 -95 387 -8 60 -22 102 -33 101 -5 0 -66
-47 -138 -105z"/>
<path d="M10460 7576 c-151 -122 -275 -225 -275 -227 0 -13 359 -329 365 -322
11 13 181 672 187 725 3 26 4 48 2 47 -2 0 -128 -100 -279 -223z"/>
<path d="M3475 7733 c12 -73 190 -743 197 -740 12 4 358 321 358 327 0 7 -518
426 -548 444 -10 6 -12 0 -7 -31z"/>
<path d="M7515 7674 c-66 -19 -182 -47 -257 -62 -134 -27 -136 -28 -142 -56
-10 -47 -7 -1321 3 -1311 5 6 102 267 216 580 114 314 234 637 266 720 33 82
59 153 59 157 0 12 -13 9 -145 -28z"/>
<path d="M6553 7683 c3 -10 36 -94 73 -188 37 -93 138 -366 224 -605 189 -522
233 -640 237 -636 1 1 3 301 3 667 l1 664 -33 6 c-18 3 -135 29 -260 58 -124
28 -232 51 -238 51 -7 0 -10 -8 -7 -17z"/>
<path d="M6388 7438 c-69 -123 -210 -376 -313 -563 -103 -187 -199 -352 -212
-366 -22 -24 -42 -79 -43 -116 0 -7 12 -16 26 -19 54 -14 579 -101 583 -97 3
2 9 72 13 156 12 220 68 1058 76 1150 5 42 5 77 1 77 -3 0 -63 -100 -131 -222z"/>
<path d="M7690 7635 c0 -35 36 -565 86 -1269 l6 -89 47 6 c25 3 125 24 221 46
96 22 209 46 250 53 41 6 77 13 78 14 2 2 -39 81 -91 176 -52 95 -199 366
-327 602 -127 235 -240 442 -251 460 l-19 31 0 -30z"/>
<path d="M7604 7493 c-34 -87 -151 -403 -259 -703 -109 -300 -207 -558 -218
-574 l-21 -29 75 7 c115 10 573 67 577 71 2 2 -3 109 -12 237 -9 128 -28 397
-41 598 -14 201 -29 407 -33 458 l-7 93 -61 -158z"/>
<path d="M6536 7551 c-16 -200 -56 -807 -66 -1006 -5 -121 -12 -234 -15 -251
l-6 -32 63 -7 c35 -4 151 -18 258 -32 242 -31 320 -38 320 -26 0 5 -6 17 -13
28 -15 21 -109 275 -286 767 -116 325 -228 618 -240 631 -5 4 -11 -28 -15 -72z"/>
<path d="M10107 7264 c-3 -11 -35 -153 -72 -317 l-67 -298 24 -35 c12 -18 26
-34 30 -34 4 0 97 66 208 146 l201 146 -28 37 c-43 57 -275 355 -283 365 -5 4
-10 0 -13 -10z"/>
<path d="M10231 7265 c9 -11 73 -91 144 -178 l127 -158 24 22 c13 12 24 25 24
29 0 3 -55 55 -122 115 -166 150 -216 193 -197 170z"/>
<path d="M9927 7129 c-86 -78 -159 -151 -163 -162 -4 -12 -63 -139 -131 -282
-138 -287 -195 -415 -191 -425 3 -7 459 346 493 381 10 11 158 629 150 629 -1
0 -72 -63 -158 -141z"/>
<path d="M3946 7050 c-130 -167 -155 -205 -144 -215 7 -7 98 -74 202 -149 202
-146 201 -145 231 -86 12 24 7 56 -56 331 -38 167 -70 308 -72 313 -2 5 -74
-82 -161 -194z"/>
<path d="M3845 7119 c-71 -66 -141 -131 -154 -144 l-25 -24 24 -26 24 -25 26
32 c148 180 249 308 243 307 -5 0 -66 -54 -138 -120z"/>
<path d="M4133 7225 c3 -11 34 -141 67 -290 34 -148 64 -280 67 -293 3 -12 33
-44 67 -70 359 -283 438 -343 442 -339 7 6 -54 142 -200 445 -69 144 -126 266
-126 271 0 7 -203 194 -299 276 l-24 20 6 -20z"/>
<path d="M9447 6772 c-153 -103 -306 -204 -340 -225 -34 -20 -61 -40 -60 -43
3 -9 354 -266 358 -262 1 1 15 32 30 68 15 36 77 169 137 295 140 290 169 355
160 355 -4 0 -132 -85 -285 -188z"/>
<path d="M4480 6932 c0 -4 46 -101 101 -217 56 -115 131 -276 168 -357 l66
-146 50 36 c27 20 110 81 183 136 l134 99 -59 31 c-32 18 -96 59 -143 93 -129
92 -500 334 -500 325z"/>
<path d="M9884 6572 c-39 -31 -161 -128 -271 -214 l-199 -157 -37 -151 c-21
-83 -40 -171 -44 -196 l-6 -45 109 113 c138 143 490 538 553 620 11 15 10 23
-9 53 -12 19 -22 35 -23 35 -1 -1 -34 -26 -73 -58z"/>
<path d="M4239 6569 c-20 -28 -21 -34 -8 -55 29 -47 559 -637 634 -704 l28
-25 -8 50 c-4 28 -23 115 -43 195 l-37 144 -175 138 c-96 76 -219 172 -272
213 l-97 75 -22 -31z"/>
<path d="M8960 6484 c-25 -8 -92 -21 -150 -29 -139 -19 -333 -56 -343 -65 -5
-4 34 -10 85 -14 51 -4 252 -39 446 -77 195 -39 358 -69 363 -67 8 3 -344 270
-353 267 -1 -1 -23 -7 -48 -15z"/>
<path d="M5186 6462 c-2 -4 -81 -64 -175 -132 -93 -69 -168 -126 -166 -128 1
-2 160 28 351 67 192 39 399 75 459 82 61 6 111 12 113 14 5 4 -266 53 -358
65 -47 6 -110 17 -140 25 -63 17 -77 18 -84 7z"/>
<path d="M8170 6334 c-85 -19 -200 -44 -255 -55 -55 -11 -110 -22 -122 -24
-15 -4 -42 -43 -99 -147 -123 -226 -420 -733 -497 -848 l-71 -105 90 82 c49
46 328 319 619 607 353 350 523 525 510 525 -11 0 -90 -16 -175 -35z"/>
<path d="M8397 6350 c-6 -24 -44 1 400 -272 178 -109 363 -218 412 -243 94
-47 101 -46 101 9 0 12 18 96 40 186 22 89 38 165 36 167 -12 12 -714 145
-833 158 -74 8 -138 15 -143 15 -4 0 -10 -9 -13 -20z"/>
<path d="M5785 6344 c-5 -1 -59 -8 -120 -14 -88 -8 -820 -145 -834 -156 -2 -2
15 -79 38 -171 23 -92 41 -180 41 -195 0 -15 4 -29 10 -33 5 -3 53 17 107 44
112 57 785 471 790 487 4 13 -20 43 -32 38z"/>
<path d="M6450 5751 c333 -330 606 -598 608 -596 4 4 -188 344 -422 747 l-201
347 -110 20 c-60 11 -180 32 -265 46 -85 14 -168 28 -185 31 -24 4 86 -110
575 -595z"/>
<path d="M7744 5726 c-342 -336 -621 -612 -620 -613 1 -2 170 -3 376 -3 297
-1 376 2 386 12 24 23 492 1204 482 1213 -2 1 -283 -272 -624 -609z"/>
<path d="M5857 6275 c11 -27 118 -299 239 -603 176 -445 223 -554 239 -557 34
-8 129 -10 435 -7 l295 2 -280 278 c-975 967 -948 941 -928 887z"/>
<path d="M6470 6235 c0 -3 78 -139 173 -303 148 -254 377 -657 430 -757 15
-28 16 8 17 483 l0 512 -42 0 c-24 0 -83 7 -133 14 -49 8 -155 22 -235 31 -80
8 -160 18 -177 21 -18 3 -33 2 -33 -1z"/>
<path d="M7455 6204 c-143 -18 -279 -33 -302 -33 l-43 -1 0 -497 c0 -273 4
-493 8 -488 53 60 354 561 529 880 91 166 95 175 81 174 -7 -1 -130 -16 -273
-35z"/>
<path d="M6555 5046 c265 -166 345 -218 429 -278 52 -37 98 -68 101 -68 3 0 4
87 3 193 l-3 192 -300 2 -300 3 70 -44z"/>
<path d="M7111 4895 c-1 -173 0 -195 15 -195 8 0 68 38 132 83 64 46 187 130
272 187 85 56 159 106 164 111 6 5 -117 9 -286 9 l-296 0 -1 -195z"/>
<path d="M7610 5002 c-69 -47 -194 -134 -279 -194 l-153 -108 406 0 407 0 -13
24 c-36 66 -224 356 -233 359 -5 2 -66 -35 -135 -81z"/>
<path d="M6420 5043 c-20 -33 -186 -315 -197 -335 -2 -5 182 -8 409 -8 l412 0
-74 54 c-88 64 -505 326 -519 326 -5 0 -19 -17 -31 -37z"/>
<path d="M6316 4434 c-93 -135 -165 -248 -162 -252 4 -3 213 -8 464 -10 453
-4 457 -4 437 16 -21 20 -347 319 -469 430 -38 34 -76 62 -86 62 -10 0 -78
-90 -184 -246z"/>
<path d="M6560 4675 c0 -2 19 -22 43 -44 23 -21 143 -131 266 -244 124 -114
226 -205 227 -204 1 1 0 111 -3 243 l-6 242 -45 6 c-52 7 -482 8 -482 1z"/>
<path d="M7123 4673 c-15 -5 -17 -168 -7 -371 7 -112 8 -119 23 -103 9 10 72
65 141 122 183 151 262 222 325 295 l57 64 -264 -1 c-144 0 -269 -3 -275 -6z"/>
<path d="M7591 4572 c-58 -60 -178 -168 -266 -241 -88 -73 -166 -142 -174
-153 l-15 -20 461 3 c254 2 464 7 468 11 10 9 -337 507 -354 508 -8 0 -62 -49
-120 -108z"/>
<path d="M6490 3963 c-85 -102 -184 -217 -220 -255 l-64 -70 114 6 c63 3 262
9 443 12 180 4 327 9 327 11 0 23 -146 206 -301 378 -71 78 -100 103 -119 104
-20 0 -54 -35 -180 -186z"/>
<path d="M6776 4088 c88 -91 197 -218 265 -310 l59 -80 0 220 0 219 -61 7
c-34 3 -121 6 -193 6 l-130 0 60 -62z"/>
<path d="M7120 3914 l0 -226 36 31 c39 35 85 88 248 289 l107 132 -195 0 -196
0 0 -226z"/>
<path d="M7390 3959 c-80 -100 -172 -207 -204 -240 l-60 -59 390 1 c214 1 402
4 417 8 l29 6 -164 232 -163 233 -50 -1 -50 0 -145 -180z"/>
<path d="M6557 3583 c-57 -76 -312 -424 -321 -440 -6 -10 80 -13 413 -13 232
0 421 4 421 8 0 5 -55 81 -122 168 -68 88 -150 199 -183 247 l-60 87 -52 0
c-51 0 -52 0 -96 -57z"/>
<path d="M6776 3572 c26 -37 111 -150 188 -252 l139 -185 -6 115 c-4 63 -7
177 -7 253 l0 137 -181 -1 -180 0 47 -67z"/>
<path d="M7111 3498 c1 -79 4 -188 8 -243 l6 -100 167 221 c91 122 171 231
177 243 l12 21 -186 0 -185 0 1 -142z"/>
<path d="M7468 3581 c-21 -32 -105 -147 -187 -255 l-150 -196 400 0 401 0 -20
33 c-11 17 -77 132 -147 255 l-127 222 -66 0 -67 0 -37 -59z"/>
<path d="M6802 3103 c2 -5 70 -73 151 -153 l148 -145 -3 150 -3 150 -148 3
c-82 1 -147 -1 -145 -5z"/>
<path d="M7120 2970 c0 -77 3 -140 6 -140 9 0 284 264 284 273 0 4 -65 7 -145
7 l-145 0 0 -140z"/>
<path d="M7345 2807 c-65 -160 -140 -334 -167 -384 -55 -103 -51 -112 27 -60
28 19 115 71 195 117 159 91 344 199 403 237 l38 24 -166 161 c-91 88 -176
169 -189 179 l-24 18 -117 -292z"/>
<path d="M6670 3013 c-47 -41 -140 -118 -208 -170 l-123 -96 161 -91 c89 -50
246 -141 350 -203 104 -62 200 -115 215 -119 26 -6 26 -5 -31 107 -128 255
-264 582 -264 635 0 8 -3 14 -7 14 -5 -1 -46 -35 -93 -77z"/>
<path d="M7380 3037 c-25 -22 -92 -85 -148 -140 l-104 -98 -3 -217 c-3 -142 0
-211 6 -202 32 48 92 181 189 421 60 150 109 273 107 275 -1 1 -22 -16 -47
-39z"/>
<path d="M6806 3018 c26 -89 110 -284 203 -473 l89 -180 3 110 c2 61 2 153 1
205 l-4 95 -146 148 c-81 81 -150 147 -154 147 -4 0 0 -24 8 -52z"/>
<path d="M5850 2659 c-30 -5 -212 -22 -405 -38 -465 -40 -967 -90 -973 -96 -3
-3 21 -5 54 -5 116 0 980 -46 1239 -65 258 -20 547 -36 551 -32 4 4 -242 218
-270 234 -24 14 -114 15 -196 2z"/>
<path d="M8172 2659 c-13 -5 -65 -46 -115 -91 -51 -46 -110 -97 -132 -115
l-40 -32 80 -1 c44 0 130 5 190 10 235 21 1034 72 1300 84 l280 12 -130 12
c-71 7 -308 28 -525 48 -217 19 -494 46 -614 59 -239 27 -260 28 -294 14z"/>
<path d="M7420 2468 c-178 -102 -244 -146 -205 -135 11 3 133 29 270 57 138
29 251 53 252 54 3 3 -134 126 -139 125 -2 0 -82 -45 -178 -101z"/>
<path d="M6542 2509 c-35 -28 -62 -53 -60 -54 5 -5 501 -115 504 -112 8 7
-353 217 -373 217 -5 0 -37 -23 -71 -51z"/>
<path d="M4451 2458 c11 -29 31 -80 44 -113 12 -33 71 -172 130 -309 63 -148
111 -274 118 -310 11 -63 38 -106 67 -106 18 0 106 44 310 155 63 34 214 112
335 173 548 274 854 436 843 448 -2 2 -80 8 -173 13 -94 6 -260 17 -370 26
-204 15 -844 49 -1125 60 -85 3 -165 8 -177 11 l-23 4 21 -52z"/>
<path d="M9440 2493 c-113 -4 -765 -45 -1145 -73 -148 -11 -299 -21 -335 -22
l-65 -3 130 -69 c72 -38 312 -167 535 -286 656 -353 691 -371 776 -400 l81
-28 18 57 c10 31 49 128 87 216 39 88 108 257 155 375 47 118 87 221 90 228 5
12 -59 13 -327 5z"/>
<path d="M9707 2276 c-49 -121 -124 -303 -168 -404 -44 -102 -78 -186 -76
-188 5 -5 319 271 329 290 5 8 7 129 6 268 l-3 253 -88 -219z"/>
<path d="M4421 2218 l-1 -256 143 -129 c78 -71 148 -133 155 -137 27 -16 -1
70 -91 279 -49 116 -116 275 -148 355 l-58 145 0 -257z"/>
<path d="M6490 2427 c0 -12 588 -397 606 -397 3 0 3 59 2 131 l-3 132 -105 24
c-58 13 -186 42 -285 64 -99 22 -188 42 -197 45 -10 3 -18 3 -18 1z"/>
<path d="M7460 2364 c-113 -24 -234 -49 -270 -56 l-65 -14 -3 -132 -3 -132
148 96 c81 54 210 137 286 187 75 49 137 91 137 93 0 7 -16 4 -230 -42z"/>
<path d="M6288 2361 c-26 -19 -289 -159 -585 -311 -574 -293 -744 -382 -740
-387 2 -1 154 38 338 88 184 49 471 126 639 171 168 44 337 89 375 99 39 10
77 19 86 19 38 0 38 22 -1 179 -22 85 -45 160 -52 166 -10 10 -23 4 -60 -24z"/>
<path d="M7856 2371 c-12 -19 -86 -282 -86 -305 0 -3 15 -9 33 -14 541 -155
1323 -359 1334 -349 2 3 -34 24 -79 47 -46 24 -290 154 -543 290 -483 259
-637 340 -647 340 -4 0 -9 -4 -12 -9z"/>
<path d="M7230 2078 c-58 -39 -107 -74 -108 -79 -2 -5 23 -53 56 -107 33 -53
155 -268 272 -477 217 -388 452 -796 457 -792 5 6 -546 1481 -565 1512 -5 8
-42 -11 -112 -57z"/>
<path d="M6842 2073 c-59 -131 -70 -158 -87 -218 -9 -33 -83 -233 -165 -445
-82 -212 -189 -493 -238 -625 -50 -132 -95 -252 -101 -267 -6 -16 -9 -28 -7
-28 6 0 140 241 331 595 283 524 449 817 496 876 l29 37 -109 71 c-60 39 -111
71 -114 71 -2 0 -18 -30 -35 -67z"/>
<path d="M6422 2014 c-30 -32 -778 -829 -997 -1063 l-60 -65 75 58 c41 32 212
163 380 292 168 128 418 326 555 439 142 118 282 224 323 247 41 23 77 50 82
62 4 11 5 22 1 23 -3 2 -69 9 -146 17 -77 8 -148 18 -158 21 -12 5 -28 -4 -55
-31z"/>
<path d="M7665 2030 c-38 -11 -97 -28 -129 -38 l-59 -18 219 -179 c120 -99
386 -317 590 -485 204 -169 377 -311 385 -315 21 -14 -476 547 -871 982 l-65
72 -70 -19z"/>
<path d="M7800 2012 c12 -15 173 -196 359 -402 185 -206 406 -455 489 -552
155 -180 197 -222 213 -212 5 3 18 22 28 42 18 35 364 523 457 644 24 31 44
59 44 62 0 13 -252 84 -585 166 -323 80 -871 228 -983 265 l-43 14 21 -27z"/>
<path d="M6320 2001 c-36 -10 -189 -50 -340 -90 -151 -40 -408 -109 -570 -153
-162 -43 -349 -93 -415 -109 -66 -16 -132 -34 -147 -40 -33 -14 -37 -44 -7
-59 25 -14 354 -454 471 -631 20 -32 28 -37 35 -25 4 8 235 256 513 552 449
477 539 576 528 573 -2 0 -32 -8 -68 -18z"/>
<path d="M7459 1894 c16 -44 111 -297 211 -564 100 -267 213 -570 250 -675 54
-150 127 -327 146 -353 5 -7 50 21 94 58 25 20 158 112 295 205 138 93 267
184 288 202 20 18 48 33 61 33 13 0 26 6 29 13 6 15 -1 20 -583 500 -629 517
-789 647 -806 654 -10 4 -7 -16 15 -73z"/>
<path d="M7053 1898 c-56 -86 -232 -403 -468 -838 -109 -201 -235 -430 -280
-510 -108 -190 -137 -249 -130 -260 4 -6 40 -10 80 -10 91 0 410 -40 638 -80
92 -16 173 -27 181 -24 10 4 14 175 19 891 4 487 5 888 3 890 -2 2 -21 -25
-43 -59z"/>
<path d="M7120 1709 c0 -130 -3 -526 -7 -882 l-6 -646 25 -6 c15 -4 38 -1 55
8 38 20 586 89 723 92 104 1 130 7 130 26 0 22 -135 278 -245 464 -64 110
-183 317 -262 460 -233 416 -364 647 -389 685 l-24 35 0 -236z"/>
<path d="M6685 1891 c-27 -16 -140 -104 -250 -195 -110 -91 -324 -261 -475
-378 -151 -116 -342 -264 -423 -327 -82 -64 -155 -121 -164 -128 -13 -10 -12
-15 8 -42 13 -17 30 -31 38 -31 9 0 75 -41 146 -91 72 -50 202 -141 290 -201
88 -60 189 -129 224 -154 35 -25 66 -43 68 -40 3 3 15 33 28 68 44 123 269
717 387 1023 112 288 188 498 188 517 0 13 -13 9 -65 -21z"/>
<path d="M557 1805 c-24 -50 -20 -58 4 -12 11 22 19 41 17 43 -3 2 -12 -12
-21 -31z"/>
<path d="M13661 1835 c0 -5 8 -26 19 -45 11 -19 19 -30 19 -25 0 6 -8 26 -19
45 -11 19 -19 31 -19 25z"/>
<path d="M9155 1234 c-226 -315 -251 -352 -241 -361 3 -3 85 25 182 62 119 47
181 76 190 90 16 25 104 515 92 515 -2 0 -102 -138 -223 -306z"/>
<path d="M4830 1522 c0 -36 74 -452 85 -479 15 -36 44 -53 129 -77 32 -10 104
-35 160 -56 55 -22 102 -37 104 -35 8 7 0 19 -290 416 -153 211 -188 253 -188
231z"/>
<path d="M8759 752 c-19 -16 -133 -95 -254 -177 -229 -155 -368 -255 -362
-261 2 -2 64 8 138 21 73 14 163 30 199 36 36 5 74 16 86 24 23 14 240 372
231 381 -2 3 -20 -8 -38 -24z"/>
<path d="M5421 764 c5 -11 201 -367 205 -373 5 -6 437 -82 446 -79 9 3 -134
111 -202 153 -25 15 -130 87 -235 160 -212 147 -219 151 -214 139z"/>
<path d="M6311 207 c52 -29 134 -77 181 -106 47 -28 100 -54 119 -57 25 -4 80
10 214 54 l180 60 -55 11 c-175 35 -593 91 -679 91 l-56 0 96 -53z"/>
<path d="M7555 220 c-165 -22 -307 -39 -316 -39 -8 -1 -23 -7 -32 -14 -15 -10
12 -21 185 -75 l203 -63 183 107 c100 58 179 110 176 115 -9 15 -84 9 -399
-31z"/>
<path d="M7051 10878 c-82 -14 -155 -80 -186 -167 -23 -67 -19 -166 9 -226 39
-85 137 -155 215 -155 84 0 182 63 223 144 27 52 35 159 18 221 -36 127 -155
205 -279 183z"/>
<path d="M8400 10944 l0 -267 103 5 c147 7 210 44 258 153 58 131 6 290 -114
350 -44 22 -64 25 -149 25 l-98 0 0 -266z"/>
<path d="M6282 10878 c-78 -13 -153 -84 -184 -172 -45 -130 6 -276 119 -343
40 -23 60 -28 114 -28 56 0 73 5 115 30 115 71 163 232 109 361 -17 41 -80
111 -119 131 -42 22 -102 30 -154 21z"/>
</g>
</svg>
