<svg id="svg" xmlns="http://www.w3.org/2000/svg" xmlns:xlink="http://www.w3.org/1999/xlink" width="400" height="378.5310734463277" viewBox="0, 0, 400,378.5310734463277"><g id="svgg"><path id="path0" d="M242.140 0.419 C 242.191 0.650,247.507 5.172,253.955 10.468 C 260.403 15.765,267.095 21.357,268.828 22.895 L 271.977 25.692 272.970 28.877 C 273.517 30.629,275.070 35.621,276.421 39.972 C 277.773 44.322,279.436 49.423,280.117 51.307 C 280.799 53.191,281.356 54.943,281.356 55.200 C 281.356 57.194,285.798 59.968,299.295 66.400 C 304.801 69.024,304.433 68.548,303.064 71.283 C 302.430 72.551,301.867 73.637,301.812 73.697 C 301.756 73.757,300.150 73.346,298.243 72.784 C 296.335 72.222,293.179 71.369,291.228 70.888 L 287.683 70.015 279.914 62.762 C 275.641 58.772,268.588 52.191,264.242 48.136 C 255.252 39.750,255.996 40.786,252.994 32.486 C 245.477 11.701,245.508 11.768,245.141 15.960 C 244.043 28.485,244.215 30.853,247.146 43.504 C 250.551 58.204,253.029 65.210,255.990 68.503 C 264.004 77.415,263.787 77.018,265.690 86.267 C 267.581 95.455,268.416 96.587,275.605 99.708 C 278.285 100.872,284.673 104.206,286.723 105.511 C 288.279 106.502,290.945 110.886,291.234 112.929 C 291.362 113.833,293.065 120.224,295.019 127.131 C 301.872 151.354,303.044 155.823,302.708 156.451 C 302.539 156.766,299.922 159.023,296.893 161.466 C 293.863 163.909,290.131 166.930,288.599 168.180 L 285.813 170.454 285.000 169.478 C 284.553 168.942,283.518 167.649,282.701 166.606 C 281.883 165.562,281.003 164.635,280.744 164.546 C 280.484 164.457,274.874 158.319,268.276 150.906 C 261.678 143.494,254.924 135.968,253.268 134.181 C 251.612 132.394,245.852 126.038,240.469 120.056 C 218.892 96.081,217.306 94.422,216.422 94.895 C 216.156 95.038,214.321 97.548,212.345 100.473 C 210.369 103.398,208.525 106.084,208.247 106.442 L 207.742 107.093 206.842 105.704 C 205.372 103.435,205.531 103.406,202.409 106.503 L 199.598 109.292 196.828 106.604 C 193.687 103.555,193.386 103.478,192.403 105.459 L 191.727 106.823 189.150 102.917 C 187.733 100.769,186.036 98.158,185.380 97.116 C 183.053 93.420,185.277 91.446,159.533 120.056 C 154.150 126.038,148.449 132.331,146.864 134.040 C 145.279 135.749,140.921 140.579,137.181 144.774 C 133.440 148.969,127.515 155.516,124.013 159.322 C 119.017 164.752,114.517 169.892,113.661 171.147 C 113.512 171.365,96.808 157.750,96.562 157.211 C 96.294 156.622,98.186 149.407,104.937 125.282 C 106.545 119.534,107.947 114.195,108.052 113.418 C 108.194 112.370,108.686 111.314,109.961 109.321 L 111.678 106.637 116.221 104.186 C 118.719 102.838,121.843 101.263,123.164 100.687 C 130.823 97.343,131.638 96.250,133.465 86.861 C 135.154 78.188,135.451 77.653,143.532 68.740 C 146.032 65.983,148.733 58.082,151.990 43.999 C 154.648 32.504,154.744 31.609,154.264 22.838 C 153.729 13.038,153.541 12.611,151.834 17.302 C 151.255 18.895,149.541 23.566,148.027 27.684 C 146.512 31.801,144.930 36.212,144.511 37.485 C 143.308 41.141,145.001 39.376,122.203 60.734 L 111.499 70.763 107.434 71.791 C 105.199 72.357,102.040 73.236,100.414 73.745 C 98.788 74.254,97.409 74.618,97.349 74.553 C 97.102 74.285,94.887 69.709,94.968 69.635 C 95.017 69.591,98.489 67.822,102.684 65.705 C 117.145 58.406,117.514 58.182,117.514 56.694 C 117.514 56.354,118.153 54.296,118.935 52.120 C 119.716 49.944,121.859 43.274,123.698 37.297 L 127.040 26.431 129.692 24.065 C 131.909 22.087,148.194 8.528,154.869 3.101 C 155.916 2.250,156.774 1.331,156.776 1.059 C 156.780 0.529,156.216 0.398,155.777 0.828 C 155.413 1.184,150.814 2.311,145.339 3.385 C 133.704 5.668,132.536 6.241,113.356 19.073 C 84.768 38.200,82.990 39.545,81.483 43.186 C 80.098 46.531,75.883 54.798,72.176 61.441 C 67.448 69.912,63.984 76.620,63.263 78.700 C 60.903 85.503,61.640 104.292,65.088 125.238 C 66.187 131.913,65.998 131.698,69.295 130.041 C 70.686 129.343,71.924 128.877,72.048 129.005 C 72.171 129.133,73.246 132.473,74.435 136.427 C 76.814 144.333,83.347 163.606,84.255 165.395 C 85.110 167.082,97.880 179.798,102.283 183.348 L 103.177 184.069 83.727 208.066 C 64.099 232.282,55.477 243.768,45.887 258.475 C 42.931 263.007,34.580 279.469,32.133 285.584 C 31.665 286.755,24.289 303.602,15.742 323.023 C 7.195 342.444,0.142 358.619,0.068 358.969 C -0.721 362.717,3.853 353.259,25.374 306.638 C 30.180 296.229,35.219 285.360,36.572 282.486 C 37.925 279.612,39.784 275.588,40.703 273.545 C 42.753 268.982,43.954 266.829,45.879 264.266 C 50.710 257.832,67.603 234.874,68.639 233.333 C 69.318 232.323,70.593 230.607,71.473 229.520 C 72.352 228.432,80.351 218.199,89.249 206.780 C 98.146 195.360,105.487 186.033,105.563 186.053 C 106.863 186.390,117.469 194.748,119.229 196.822 C 122.488 200.665,131.175 210.263,134.470 213.664 L 137.445 216.734 140.589 215.158 C 142.318 214.291,148.155 210.847,153.561 207.506 C 158.966 204.165,163.441 201.482,163.503 201.545 C 163.566 201.607,166.567 209.071,170.172 218.132 L 176.727 234.605 178.305 234.844 L 179.883 235.083 176.701 240.494 C 174.952 243.469,173.579 246.059,173.651 246.249 C 173.743 246.489,174.849 246.618,177.277 246.673 L 180.771 246.751 176.130 253.531 C 173.578 257.260,171.485 260.531,171.479 260.800 C 171.470 261.250,172.043 261.296,178.501 261.365 L 185.533 261.441 180.750 267.090 C 178.119 270.198,175.400 273.317,174.707 274.021 C 172.428 276.337,173.209 276.649,180.215 276.226 C 182.150 276.109,183.778 276.057,183.831 276.110 C 183.885 276.163,181.633 279.331,178.829 283.148 C 176.024 286.966,173.729 290.284,173.729 290.521 C 173.729 290.894,174.734 290.961,181.267 291.026 L 188.806 291.102 185.717 293.700 C 184.017 295.129,181.324 297.323,179.732 298.575 C 178.139 299.827,176.841 300.946,176.847 301.061 C 176.852 301.177,178.647 302.279,180.835 303.510 C 183.967 305.272,184.728 305.814,184.411 306.052 C 182.116 307.782,180.508 309.183,180.508 309.454 C 180.508 309.983,185.578 313.577,191.738 317.414 L 192.374 317.810 191.550 319.443 L 190.726 321.076 187.383 320.721 C 185.544 320.525,183.464 320.288,182.760 320.193 L 181.481 320.021 180.378 315.630 C 179.059 310.382,179.095 310.437,174.011 306.007 L 170.198 302.684 166.949 302.694 C 165.162 302.700,159.251 303.110,153.814 303.605 C 134.097 305.400,125.819 306.218,124.364 306.516 L 122.881 306.820 122.881 315.109 L 122.881 323.398 128.460 328.417 C 131.529 331.178,134.069 333.454,134.105 333.474 C 134.141 333.495,134.738 336.959,135.430 341.172 C 137.058 351.075,136.798 350.619,141.701 352.196 C 150.047 354.879,149.955 354.804,154.164 362.478 L 157.339 368.268 162.497 369.194 C 165.334 369.703,168.540 370.188,169.621 370.271 C 170.853 370.367,171.984 370.645,172.650 371.017 C 173.800 371.659,180.849 375.733,183.272 377.155 C 185.503 378.465,186.449 378.368,192.994 376.166 C 199.768 373.887,198.476 373.862,206.717 376.429 L 213.575 378.565 220.058 374.735 C 226.590 370.876,227.124 370.649,231.073 370.050 C 242.366 368.336,241.066 369.072,245.345 361.966 C 249.220 355.530,249.684 354.925,250.916 354.693 C 253.438 354.218,261.416 350.708,261.903 349.859 C 262.323 349.125,263.981 340.148,264.577 335.381 C 264.690 334.473,264.900 333.898,265.119 333.898 C 265.315 333.898,265.558 333.568,265.660 333.163 C 265.761 332.759,266.250 332.092,266.745 331.680 C 268.921 329.872,275.057 324.449,275.636 323.822 C 276.281 323.122,276.687 306.784,276.059 306.778 C 275.943 306.776,275.085 306.654,274.153 306.506 C 273.220 306.358,270.106 306.038,267.232 305.795 C 256.187 304.862,245.934 303.911,239.689 303.242 C 229.211 302.119,229.657 302.051,225.989 305.353 C 224.668 306.542,222.987 307.997,222.253 308.588 C 220.544 309.962,219.743 311.613,218.559 316.209 L 217.622 319.847 215.616 320.356 C 214.513 320.636,212.759 321.128,211.719 321.450 C 208.762 322.363,208.724 322.349,207.829 319.986 C 207.402 318.859,207.055 317.845,207.057 317.731 C 207.060 317.617,209.668 315.811,212.853 313.718 C 216.038 311.624,218.644 309.791,218.644 309.646 C 218.644 309.500,217.749 308.587,216.656 307.618 C 214.240 305.476,214.138 305.776,218.080 303.426 C 221.783 301.218,221.839 301.096,219.915 299.447 C 219.138 298.781,216.831 296.600,214.788 294.599 L 211.074 290.960 217.543 290.960 C 224.381 290.960,224.499 290.936,223.621 289.681 C 222.583 288.197,215.820 276.176,215.950 276.046 C 216.032 275.964,218.070 275.837,220.479 275.764 C 223.863 275.661,224.859 275.545,224.859 275.256 C 224.859 275.050,222.769 271.921,220.215 268.302 L 215.572 261.723 221.698 261.568 C 225.068 261.483,227.857 261.387,227.895 261.356 C 228.188 261.121,227.394 259.850,223.164 253.781 C 217.582 245.772,217.953 246.611,219.986 246.608 C 223.038 246.604,225.424 246.275,225.424 245.857 C 225.424 245.643,223.964 243.151,222.179 240.319 C 218.615 234.663,218.651 234.850,221.109 234.774 C 221.731 234.755,222.157 234.537,222.451 234.090 C 222.910 233.388,233.933 205.948,235.038 202.754 C 235.401 201.706,235.801 200.847,235.927 200.847 C 236.053 200.847,240.574 203.564,245.973 206.884 C 254.740 212.274,261.042 215.819,261.858 215.819 C 262.454 215.819,275.857 201.313,280.473 195.672 C 281.879 193.954,292.055 186.023,293.627 185.419 C 293.869 185.326,299.673 192.556,309.910 205.702 C 318.659 216.938,326.786 227.338,327.970 228.814 C 329.154 230.290,330.680 232.323,331.360 233.333 C 332.526 235.066,349.841 258.591,353.473 263.379 C 355.922 266.607,357.105 268.668,359.286 273.510 C 360.356 275.883,362.278 280.049,363.559 282.768 C 364.840 285.487,369.820 296.229,374.627 306.638 C 396.350 353.682,400.723 362.725,399.932 358.969 C 399.858 358.619,392.805 342.444,384.258 323.023 C 375.711 303.602,368.335 286.755,367.867 285.584 C 365.515 279.706,357.125 263.110,354.305 258.757 C 345.031 244.447,335.931 232.324,316.073 207.826 C 305.217 194.433,296.375 183.347,296.424 183.192 C 296.473 183.037,297.202 182.382,298.045 181.736 C 300.927 179.527,314.328 166.052,314.997 164.689 C 316.410 161.810,327.119 129.261,327.119 127.843 C 327.119 127.774,328.197 128.291,329.515 128.992 C 333.125 130.913,333.042 130.976,333.953 125.565 C 336.091 112.876,337.012 103.517,337.162 92.984 C 337.357 79.249,337.396 79.375,327.174 61.017 C 322.563 52.738,318.068 43.916,317.210 41.465 C 316.312 38.898,312.416 36.046,284.315 17.382 C 266.844 5.777,265.192 4.959,255.226 2.978 C 247.773 1.497,243.680 0.558,243.376 0.262 C 242.940 -0.164,242.038 -0.049,242.140 0.419 M247.034 2.229 C 247.655 2.386,250.713 3.024,253.828 3.645 C 260.113 4.900,263.275 5.810,266.273 7.229 L 268.280 8.179 268.451 9.810 C 268.545 10.707,269.264 14.161,270.049 17.487 C 270.835 20.812,271.433 23.577,271.378 23.631 C 271.324 23.685,270.083 22.679,268.620 21.396 C 267.157 20.113,261.638 15.513,256.356 11.174 C 244.579 1.500,244.678 1.585,245.360 1.785 C 245.659 1.872,246.412 2.072,247.034 2.229 M153.672 2.657 C 153.672 2.720,149.001 6.628,143.291 11.343 C 137.581 16.058,131.728 20.964,130.283 22.246 C 127.574 24.650,127.335 24.822,127.540 24.223 C 128.118 22.531,130.508 11.367,130.508 10.355 L 130.508 9.056 132.839 7.939 C 135.933 6.456,138.832 5.618,145.621 4.244 C 148.729 3.616,151.653 2.987,152.119 2.846 C 153.071 2.559,153.672 2.486,153.672 2.657 M272.048 10.564 C 276.447 13.139,312.741 37.571,312.167 37.571 C 311.970 37.571,307.976 36.876,303.292 36.028 C 298.607 35.180,292.677 34.219,290.113 33.894 L 285.452 33.302 282.910 31.591 C 273.415 25.203,272.916 24.831,272.620 23.921 C 272.212 22.670,270.089 13.821,269.645 11.523 C 269.130 8.857,269.132 8.857,272.048 10.564 M129.660 10.523 C 129.659 11.115,127.312 21.452,126.534 24.294 C 126.192 25.541,126.068 25.645,119.958 29.779 L 113.730 33.994 109.761 34.531 C 107.577 34.826,101.552 35.830,96.370 36.762 C 91.188 37.693,86.902 38.409,86.845 38.351 C 86.658 38.165,122.625 13.899,126.836 11.369 C 129.623 9.696,129.661 9.684,129.660 10.523 M249.416 25.351 C 250.823 29.118,252.481 33.670,253.100 35.466 L 254.227 38.733 253.288 37.940 C 252.772 37.504,251.466 36.384,250.386 35.452 C 249.307 34.520,247.747 33.312,246.920 32.768 L 245.416 31.780 245.592 24.859 C 245.791 17.082,245.921 16.028,246.495 17.544 C 246.694 18.072,248.008 21.585,249.416 25.351 M153.532 26.836 L 153.743 32.345 151.660 33.804 C 150.514 34.606,148.572 36.165,147.344 37.269 C 146.117 38.372,145.062 39.224,145.000 39.162 C 144.938 39.100,146.112 35.698,147.609 31.601 C 149.106 27.504,150.923 22.512,151.648 20.507 L 152.966 16.861 153.143 19.094 C 153.241 20.323,153.416 23.806,153.532 26.836 M279.025 30.150 C 281.861 32.074,284.181 33.791,284.181 33.965 C 284.181 36.625,282.255 53.107,281.944 53.107 C 281.669 53.107,278.628 44.037,275.555 34.054 C 274.362 30.178,273.314 26.820,273.227 26.592 C 273.023 26.062,272.821 25.938,279.025 30.150 M125.701 27.613 C 125.560 28.040,124.113 32.712,122.487 37.994 C 118.684 50.350,117.209 54.535,116.915 53.798 C 116.794 53.496,116.305 49.308,115.828 44.492 C 115.350 39.675,114.931 35.455,114.896 35.114 C 114.845 34.625,124.943 27.042,125.903 26.847 C 125.934 26.841,125.843 27.186,125.701 27.613 M248.058 34.819 C 250.038 36.386,253.647 39.433,254.761 40.478 C 255.126 40.821,258.050 43.588,261.258 46.627 C 264.466 49.666,271.031 55.821,275.847 60.305 C 280.664 64.788,284.732 68.580,284.887 68.730 C 285.042 68.880,283.835 68.294,282.203 67.427 C 280.572 66.561,275.169 64.079,270.198 61.912 C 265.226 59.745,258.743 56.920,255.791 55.635 C 252.839 54.349,250.405 53.286,250.383 53.273 C 250.360 53.260,249.365 48.990,248.171 43.785 C 246.977 38.581,245.938 34.100,245.862 33.828 C 245.645 33.048,246.053 33.232,248.058 34.819 M152.994 35.381 C 152.805 36.197,151.768 40.726,150.691 45.445 C 149.300 51.537,148.609 54.069,148.307 54.175 C 148.073 54.257,144.640 55.753,140.678 57.499 C 136.716 59.245,130.380 62.030,126.598 63.688 C 122.816 65.346,118.494 67.348,116.993 68.138 C 114.930 69.224,114.437 69.402,114.972 68.872 C 115.929 67.921,123.809 60.520,133.943 51.055 C 138.550 46.752,142.773 42.702,143.326 42.056 C 143.879 41.410,144.685 40.664,145.117 40.399 C 145.550 40.134,146.777 39.124,147.844 38.154 C 149.510 36.640,152.995 33.898,153.254 33.898 C 153.301 33.898,153.184 34.566,152.994 35.381 M290.678 34.895 C 292.620 35.136,298.086 36.028,302.825 36.876 C 307.564 37.724,311.891 38.418,312.441 38.418 C 313.250 38.418,313.674 38.655,314.654 39.654 L 315.867 40.889 315.282 42.037 C 314.960 42.668,314.007 44.877,313.165 46.945 C 312.323 49.014,310.816 52.422,309.817 54.520 C 307.818 58.715,306.941 60.946,305.719 64.944 L 304.907 67.599 301.071 60.989 C 298.962 57.353,295.047 50.501,292.372 45.763 C 289.698 41.024,287.129 36.474,286.665 35.651 L 285.820 34.156 286.483 34.307 C 286.848 34.389,288.736 34.654,290.678 34.895 M112.994 35.170 C 112.994 35.391,105.176 49.343,100.330 57.768 C 97.918 61.963,95.566 66.081,95.104 66.920 L 94.263 68.444 92.916 64.313 C 92.175 62.041,90.553 58.050,89.311 55.444 C 88.070 52.838,86.653 49.689,86.162 48.446 C 85.671 47.203,84.821 45.188,84.272 43.967 L 83.275 41.748 84.493 40.507 C 85.454 39.527,85.911 39.266,86.662 39.266 C 87.186 39.266,91.450 38.564,96.138 37.708 C 100.825 36.851,106.377 35.914,108.475 35.625 C 113.162 34.981,112.994 34.998,112.994 35.170 M290.296 44.068 C 292.868 48.651,296.876 55.687,299.202 59.702 C 301.527 63.718,303.375 67.058,303.307 67.126 C 303.179 67.254,292.237 61.807,286.311 58.665 C 282.274 56.526,281.787 55.873,282.726 53.857 C 283.142 52.963,283.448 50.834,284.014 44.915 C 284.917 35.466,285.018 34.745,285.362 35.311 C 285.503 35.544,287.723 39.484,290.296 44.068 M114.968 44.915 C 115.492 50.163,115.992 53.894,116.247 54.459 C 117.175 56.511,116.645 57.531,113.983 58.821 C 113.206 59.197,110.727 60.504,108.475 61.725 C 104.824 63.705,95.983 68.079,95.634 68.079 C 95.560 68.079,96.340 66.649,97.367 64.901 C 99.448 61.359,110.054 42.654,112.446 38.308 C 113.291 36.771,114.011 35.691,114.045 35.907 C 114.080 36.123,114.495 40.177,114.968 44.915 M317.770 45.127 C 319.309 48.622,321.644 53.079,326.686 62.147 C 332.791 73.124,334.071 75.629,335.011 78.434 C 335.941 81.210,336.101 82.362,335.523 82.110 C 335.328 82.026,329.703 79.497,323.023 76.490 C 316.342 73.484,309.699 70.520,308.261 69.904 C 305.672 68.796,305.649 68.777,305.826 67.938 C 306.389 65.276,308.715 59.057,310.797 54.645 C 312.113 51.857,313.480 48.814,313.835 47.881 C 314.822 45.286,316.164 42.373,316.371 42.373 C 316.474 42.373,317.103 43.612,317.770 45.127 M83.376 44.280 C 83.700 45.018,84.571 47.083,85.312 48.870 C 86.053 50.657,87.615 54.153,88.784 56.638 C 89.952 59.124,91.416 62.747,92.038 64.689 C 93.672 69.797,93.655 69.429,92.280 70.068 C 90.858 70.728,64.132 82.761,63.630 82.967 C 63.053 83.203,63.212 82.058,64.141 79.279 C 65.081 76.467,66.232 74.212,72.778 62.368 C 77.186 54.393,80.737 47.483,81.928 44.562 C 82.724 42.608,82.650 42.622,83.376 44.280 M259.463 58.265 C 263.192 59.905,268.785 62.353,271.893 63.704 C 275.000 65.055,279.303 67.062,281.454 68.165 L 285.365 70.171 284.279 70.558 C 277.281 73.049,264.407 77.297,264.407 77.116 C 264.407 76.987,262.659 74.828,260.523 72.318 C 254.055 64.719,254.177 64.927,251.813 57.423 L 250.904 54.536 251.794 54.909 C 252.283 55.114,255.734 56.624,259.463 58.265 M148.023 55.613 C 148.023 56.123,145.518 63.484,144.838 64.972 C 144.391 65.950,142.491 68.450,139.705 71.724 C 137.273 74.583,135.109 77.170,134.898 77.472 C 134.526 78.002,134.166 77.903,124.135 74.504 L 113.756 70.987 117.542 68.997 C 119.624 67.903,125.268 65.288,130.085 63.186 C 134.901 61.084,140.812 58.475,143.220 57.387 C 147.873 55.286,148.023 55.231,148.023 55.613 M324.648 78.248 C 330.980 81.096,336.128 83.456,336.089 83.493 C 335.593 83.962,295.381 89.826,295.035 89.480 C 294.934 89.379,301.681 75.858,303.646 72.223 L 305.099 69.537 309.117 71.304 C 311.327 72.276,318.316 75.401,324.648 78.248 M97.415 76.748 C 99.133 80.041,101.367 84.468,102.379 86.588 L 104.219 90.442 103.169 90.277 C 102.591 90.186,99.958 89.853,97.316 89.537 C 88.526 88.486,63.406 84.687,63.078 84.359 C 63.043 84.324,66.220 82.845,70.137 81.073 C 87.143 73.379,93.938 70.404,94.109 70.577 C 94.209 70.679,95.697 73.456,97.415 76.748 M285.593 71.360 C 285.593 71.456,284.852 72.378,283.947 73.409 C 283.042 74.439,280.715 77.316,278.778 79.802 C 268.661 92.779,268.242 93.284,268.026 92.748 C 267.828 92.256,265.218 79.391,265.147 78.555 C 265.123 78.275,268.115 77.118,275.141 74.689 C 285.568 71.084,285.593 71.076,285.593 71.360 M293.100 89.763 C 293.027 89.836,287.908 90.768,281.724 91.834 C 275.540 92.901,270.108 93.855,269.653 93.954 L 268.826 94.135 269.682 93.042 C 270.153 92.441,273.365 88.335,276.820 83.918 C 280.275 79.501,284.006 74.826,285.111 73.529 L 287.118 71.171 290.175 80.401 C 291.857 85.477,293.173 89.690,293.100 89.763 M292.475 72.183 C 295.776 73.007,300.769 74.478,301.063 74.712 C 301.103 74.745,299.553 77.997,297.617 81.940 C 295.596 86.058,294.031 88.931,293.941 88.692 C 293.699 88.051,288.136 71.348,288.136 71.262 C 288.136 71.115,288.523 71.197,292.475 72.183 M114.706 75.141 C 118.613 79.646,130.474 94.987,129.888 94.777 C 129.685 94.705,124.258 93.756,117.827 92.669 C 111.396 91.582,106.083 90.640,106.019 90.576 C 105.955 90.513,107.276 86.278,108.955 81.167 L 112.006 71.872 112.560 72.589 C 112.864 72.983,113.830 74.131,114.706 75.141 M125.282 75.895 C 130.099 77.527,134.065 78.888,134.096 78.919 C 134.173 78.994,131.139 93.814,131.023 93.930 C 130.972 93.981,127.880 90.133,124.152 85.378 C 120.423 80.624,116.451 75.668,115.325 74.365 C 114.198 73.062,113.277 71.948,113.277 71.889 C 113.277 71.830,114.008 72.039,114.901 72.354 C 115.794 72.669,120.466 74.262,125.282 75.895 M110.593 73.234 C 108.446 79.854,105.270 89.452,105.169 89.626 C 105.099 89.747,103.431 86.633,101.462 82.706 L 97.881 75.565 99.859 74.904 C 102.164 74.133,109.808 72.088,110.505 72.056 C 110.940 72.036,110.948 72.141,110.593 73.234 M336.158 84.851 C 336.158 85.065,335.961 85.796,335.720 86.476 C 335.479 87.156,334.531 90.318,333.613 93.503 C 331.454 100.993,331.284 101.479,326.767 112.994 C 324.664 118.355,322.870 122.964,322.780 123.237 C 322.584 123.827,322.751 124.004,315.094 115.113 C 307.503 106.298,296.394 92.764,295.139 90.801 C 295.001 90.584,296.514 90.295,300.083 89.857 C 306.963 89.013,325.250 86.328,330.907 85.332 C 336.468 84.353,336.158 84.381,336.158 84.851 M68.708 86.320 C 74.304 87.253,92.809 89.906,99.153 90.685 C 101.871 91.019,104.125 91.321,104.159 91.355 C 104.343 91.535,90.391 108.659,84.040 116.047 C 78.203 122.837,76.653 124.488,76.489 124.089 C 72.406 114.184,67.518 101.055,66.099 96.186 C 65.148 92.924,64.060 89.300,63.682 88.135 C 62.806 85.434,62.807 85.202,63.694 85.425 C 64.078 85.522,66.335 85.924,68.708 86.320 M336.342 94.140 C 336.053 103.764,335.193 112.152,333.287 123.939 L 332.408 129.375 327.927 127.072 C 325.291 125.718,323.446 124.603,323.446 124.364 C 323.446 124.141,325.418 118.952,327.828 112.833 C 331.495 103.520,336.158 89.607,336.158 87.979 C 336.158 87.910,336.242 87.853,336.344 87.853 C 336.446 87.853,336.445 90.682,336.342 94.140 M64.955 95.684 C 66.452 100.813,68.031 105.247,71.296 113.487 C 73.686 119.523,75.692 124.709,75.753 125.013 C 75.868 125.590,67.318 130.398,66.914 129.983 C 66.747 129.812,65.742 123.831,64.843 117.655 C 63.449 108.078,62.052 87.947,62.836 88.731 C 62.905 88.799,63.858 91.929,64.955 95.684 M300.347 98.941 C 305.545 105.440,315.006 116.688,320.453 122.844 C 321.287 123.787,318.639 122.443,313.726 119.430 C 307.028 115.322,281.458 101.337,276.275 98.946 C 273.114 97.487,270.099 95.626,269.976 95.056 C 269.933 94.856,288.701 91.391,293.550 90.705 C 293.654 90.690,296.713 94.396,300.347 98.941 M117.090 93.492 C 122.684 94.428,127.832 95.295,128.531 95.418 L 129.802 95.642 127.753 97.085 C 126.626 97.878,124.465 99.066,122.951 99.725 C 118.830 101.518,93.055 115.653,85.748 120.127 C 83.735 121.359,81.217 122.806,80.152 123.342 L 78.215 124.318 85.110 116.309 C 88.903 111.904,95.023 104.518,98.711 99.896 C 104.940 92.088,105.470 91.502,106.169 91.640 C 106.582 91.722,111.497 92.555,117.090 93.492 M185.474 99.078 C 186.533 100.750,188.264 103.417,189.321 105.005 L 191.243 107.891 190.763 108.896 L 190.284 109.901 186.671 104.386 C 184.684 101.352,182.891 98.870,182.688 98.870 C 182.175 98.870,176.292 104.914,169.903 112.006 C 166.963 115.268,163.464 119.082,162.126 120.480 C 155.710 127.190,149.310 134.124,146.223 137.710 C 144.350 139.886,140.770 143.891,138.266 146.610 C 135.763 149.329,132.588 152.825,131.209 154.379 C 128.131 157.849,124.947 161.360,119.038 167.797 C 115.679 171.456,109.558 179.087,95.473 197.175 C 85.008 210.614,74.846 223.644,72.891 226.130 C 70.935 228.616,68.582 231.730,67.661 233.051 C 66.740 234.371,62.973 239.520,59.291 244.492 C 41.334 268.737,42.806 266.529,38.990 274.956 C 37.783 277.621,34.831 283.997,32.430 289.124 C 30.029 294.251,26.940 300.893,25.566 303.883 C 24.191 306.873,23.029 309.281,22.982 309.235 C 22.936 309.188,24.747 304.962,27.008 299.843 C 29.268 294.725,31.877 288.694,32.804 286.441 C 36.677 277.031,44.481 262.141,48.868 255.791 C 63.416 234.734,63.850 234.167,91.644 199.859 C 112.640 173.942,119.524 165.643,124.567 160.169 C 128.073 156.363,134.576 149.181,139.017 144.209 C 143.458 139.237,148.293 133.898,149.763 132.345 C 151.233 130.791,156.931 124.499,162.425 118.362 C 178.306 100.624,182.936 95.658,183.351 95.915 C 183.460 95.982,184.416 97.406,185.474 99.078 M224.824 104.237 C 227.874 107.578,234.717 115.141,240.030 121.045 C 245.343 126.949,251.045 133.242,252.702 135.028 C 254.359 136.815,261.044 144.264,267.557 151.582 C 274.070 158.900,279.681 165.047,280.025 165.242 C 281.238 165.929,335.028 232.771,339.595 239.266 C 350.117 254.230,354.195 260.268,355.999 263.558 C 359.164 269.327,365.385 282.041,367.196 286.441 C 368.123 288.694,370.732 294.725,372.992 299.843 C 375.253 304.962,377.064 309.188,377.018 309.235 C 376.971 309.281,375.809 306.873,374.434 303.883 C 373.060 300.893,369.971 294.251,367.570 289.124 C 365.169 283.997,362.217 277.621,361.010 274.956 C 357.194 266.529,358.666 268.737,340.709 244.492 C 337.027 239.520,333.262 234.371,332.343 233.051 C 331.425 231.730,329.071 228.616,327.113 226.130 C 325.155 223.644,314.991 210.614,304.526 197.175 C 290.440 179.085,284.321 171.456,280.962 167.797 C 275.053 161.360,271.869 157.849,268.791 154.379 C 267.412 152.825,264.237 149.329,261.734 146.610 C 259.230 143.891,255.650 139.886,253.777 137.710 C 250.690 134.124,244.290 127.190,237.874 120.480 C 236.536 119.082,233.037 115.268,230.097 112.006 C 223.744 104.954,217.826 98.870,217.320 98.870 C 217.121 98.870,215.217 101.508,213.091 104.732 L 209.224 110.593 208.729 109.473 C 208.456 108.857,208.313 108.222,208.411 108.061 C 208.508 107.900,210.421 105.056,212.662 101.741 L 216.736 95.713 218.007 96.938 C 218.706 97.612,221.773 100.897,224.824 104.237 M183.367 101.059 C 183.722 101.642,185.322 104.116,186.922 106.556 L 189.831 110.994 187.824 115.172 C 184.196 122.723,181.341 128.854,178.247 135.734 C 176.571 139.463,174.601 143.785,173.870 145.339 C 171.971 149.379,171.580 150.628,170.337 156.638 C 169.726 159.590,168.769 164.167,168.211 166.808 C 166.736 173.788,164.289 186.946,163.405 192.655 C 162.478 198.646,162.939 198.168,158.881 197.342 C 157.026 196.965,154.047 196.464,152.260 196.228 C 146.152 195.423,146.316 195.505,133.145 186.675 C 124.926 181.165,115.960 173.979,115.960 172.902 C 115.960 172.762,118.323 170.062,121.210 166.903 C 124.097 163.743,128.796 158.552,131.652 155.367 C 134.508 152.182,138.378 147.924,140.252 145.904 C 142.126 143.884,145.134 140.506,146.936 138.398 C 149.923 134.904,155.892 128.435,162.557 121.469 C 163.969 119.993,167.529 116.116,170.469 112.853 C 174.899 107.936,182.426 100.000,182.660 100.000 C 182.694 100.000,183.013 100.477,183.367 101.059 M225.400 108.333 C 227.689 110.819,230.886 114.321,232.506 116.116 C 234.126 117.911,238.683 122.802,242.631 126.985 C 246.579 131.169,251.279 136.311,253.075 138.412 C 254.872 140.513,257.874 143.884,259.747 145.904 C 261.620 147.924,266.005 152.754,269.492 156.638 C 272.978 160.523,277.287 165.290,279.067 167.232 C 280.848 169.174,282.597 171.085,282.955 171.480 L 283.607 172.196 279.021 176.322 C 274.739 180.174,266.022 186.395,255.830 192.872 C 253.919 194.086,250.633 195.110,247.393 195.500 C 245.953 195.674,242.934 196.178,240.686 196.621 C 238.437 197.064,236.569 197.397,236.534 197.363 C 236.500 197.328,235.127 190.185,233.484 181.489 C 227.441 149.507,227.753 150.847,224.889 144.666 C 223.981 142.705,222.569 139.576,221.752 137.712 C 220.935 135.847,219.636 133.063,218.865 131.523 C 218.095 129.984,216.380 126.298,215.055 123.331 C 213.731 120.365,211.962 116.598,211.126 114.959 C 209.331 111.445,209.368 111.746,210.553 110.255 C 211.072 109.602,212.809 107.023,214.414 104.522 L 217.333 99.974 219.286 101.894 C 220.360 102.950,223.112 105.847,225.400 108.333 M196.332 118.958 C 197.749 125.890,198.868 132.024,198.819 132.591 L 198.729 133.620 193.079 130.570 C 187.495 127.555,184.181 125.568,184.181 125.235 C 184.181 125.140,185.936 121.362,188.081 116.839 C 190.226 112.316,192.291 107.891,192.671 107.005 C 193.556 104.941,193.282 104.047,196.332 118.958 M208.101 110.549 C 208.768 112.238,209.706 114.338,210.186 115.214 C 210.667 116.091,211.998 118.880,213.143 121.413 L 215.227 126.019 207.543 129.836 L 199.859 133.654 199.775 132.855 C 199.729 132.416,200.769 127.355,202.085 121.608 C 203.402 115.860,204.706 109.866,204.984 108.287 L 205.489 105.416 206.190 106.446 C 206.575 107.013,207.435 108.859,208.101 110.549 M199.090 113.631 C 199.133 115.534,199.069 119.124,198.948 121.610 L 198.729 126.130 196.796 116.667 C 195.733 111.462,194.796 106.886,194.715 106.497 C 194.598 105.935,195.022 106.239,196.790 107.982 L 199.011 110.172 199.090 113.631 M203.668 110.175 C 202.942 113.821,200.144 126.255,199.888 126.977 C 199.832 127.133,199.849 123.446,199.925 118.785 L 200.064 110.311 202.206 108.130 C 203.384 106.931,204.379 105.980,204.416 106.017 C 204.453 106.054,204.117 107.925,203.668 110.175 M299.718 112.581 C 304.456 115.192,310.685 118.736,313.560 120.458 C 316.435 122.179,319.581 123.961,320.552 124.416 L 322.316 125.245 322.316 126.518 C 322.316 127.218,322.581 129.430,322.904 131.433 C 323.228 133.437,323.443 135.126,323.382 135.186 C 323.322 135.247,317.496 130.713,310.436 125.111 C 303.375 119.508,296.455 114.123,295.056 113.142 C 292.230 111.160,291.827 110.758,290.280 108.362 L 289.204 106.695 290.153 107.265 C 290.675 107.578,294.979 109.970,299.718 112.581 M108.675 109.534 C 107.685 111.095,106.914 111.850,104.417 113.701 C 102.740 114.944,95.648 120.516,88.657 126.085 C 81.665 131.653,75.897 136.161,75.839 136.103 C 75.781 136.045,75.984 134.476,76.290 132.617 C 76.596 130.758,76.876 128.519,76.912 127.642 L 76.977 126.046 79.379 124.861 C 80.699 124.209,83.636 122.544,85.906 121.161 C 89.054 119.242,109.452 107.706,109.814 107.640 C 109.852 107.633,109.339 108.485,108.675 109.534 M294.746 114.121 C 296.055 115.051,302.719 120.253,309.556 125.680 C 316.392 131.108,322.321 135.769,322.733 136.038 C 323.719 136.684,323.916 136.535,316.525 140.746 C 313.107 142.693,308.460 145.363,306.198 146.678 L 302.086 149.071 300.858 144.521 C 300.182 142.019,298.000 134.207,296.009 127.161 C 292.356 114.239,291.888 112.429,292.197 112.429 C 292.290 112.429,293.437 113.190,294.746 114.121 M107.062 113.795 C 107.062 114.081,105.735 119.032,104.113 124.799 C 102.491 130.565,100.312 138.436,99.272 142.289 C 98.231 146.141,97.288 149.397,97.175 149.523 C 97.063 149.649,92.727 147.314,87.539 144.334 C 82.352 141.354,77.540 138.592,76.847 138.197 C 75.715 137.550,75.640 137.446,76.111 137.171 C 76.400 137.002,81.988 132.606,88.530 127.401 C 105.471 113.923,107.062 112.754,107.062 113.795 M326.208 127.254 C 326.251 127.292,325.875 128.737,325.373 130.467 C 324.870 132.197,324.374 133.517,324.271 133.402 C 324.057 133.164,323.164 127.537,323.164 126.426 L 323.164 125.697 324.647 126.442 C 325.463 126.851,326.165 127.217,326.208 127.254 M75.491 131.881 L 74.991 135.090 74.115 132.164 C 73.632 130.554,73.150 129.031,73.043 128.779 C 72.896 128.433,73.215 128.114,74.348 127.472 L 75.847 126.623 75.919 127.648 C 75.958 128.211,75.765 130.116,75.491 131.881 M188.458 132.658 C 191.155 135.860,193.778 138.966,194.287 139.560 L 195.213 140.640 191.483 146.662 C 189.432 149.974,186.782 154.282,185.595 156.235 L 183.437 159.786 178.250 155.464 C 175.397 153.086,172.950 151.029,172.814 150.893 C 172.553 150.632,172.782 150.092,178.522 137.429 C 180.423 133.234,182.277 129.135,182.641 128.319 C 183.477 126.445,182.801 125.941,188.458 132.658 M186.814 128.196 C 188.388 129.257,198.137 134.463,198.547 134.463 C 199.026 134.463,198.995 134.537,197.394 137.144 C 195.609 140.052,196.046 140.075,193.347 136.939 C 189.039 131.933,185.292 127.401,185.462 127.401 C 185.556 127.401,186.164 127.759,186.814 128.196 M217.822 131.568 C 220.316 136.714,226.023 149.473,226.383 150.707 C 226.514 151.160,226.279 151.426,225.209 152.037 C 224.472 152.457,222.236 154.207,220.239 155.926 C 215.646 159.879,215.683 159.859,215.095 158.723 C 214.418 157.413,207.563 146.312,205.622 143.382 C 203.970 140.888,203.957 140.853,204.483 140.274 C 207.479 136.982,213.083 130.569,214.192 129.167 C 214.960 128.196,215.637 127.401,215.696 127.401 C 215.755 127.401,216.712 129.276,217.822 131.568 M212.807 129.318 C 210.309 132.305,203.562 139.831,203.381 139.831 C 203.282 139.831,202.415 138.693,201.454 137.303 L 199.705 134.776 206.703 131.270 C 210.552 129.342,213.807 127.746,213.937 127.724 C 214.067 127.702,213.558 128.419,212.807 129.318 M198.975 148.588 L 198.778 155.791 197.712 148.729 C 197.125 144.845,196.608 141.406,196.563 141.088 C 196.518 140.769,196.986 139.666,197.605 138.635 L 198.729 136.762 198.951 139.073 C 199.072 140.344,199.084 144.626,198.975 148.588 M201.492 139.046 L 202.796 140.946 201.837 146.391 C 201.310 149.386,200.635 153.298,200.338 155.085 L 199.798 158.333 199.828 147.544 C 199.845 141.611,199.933 136.844,200.024 136.951 C 200.115 137.059,200.775 138.002,201.492 139.046 M322.188 141.081 C 320.525 146.379,314.586 163.560,314.424 163.541 C 314.337 163.531,313.121 162.051,311.723 160.251 C 310.325 158.450,307.807 155.330,306.128 153.317 C 304.449 151.303,303.114 149.621,303.162 149.580 C 303.457 149.322,322.893 138.151,323.068 138.139 C 323.092 138.137,322.697 139.461,322.188 141.081 M87.627 145.480 L 96.251 150.424 95.292 151.554 C 94.765 152.175,92.214 155.324,89.624 158.551 C 86.245 162.762,84.853 164.306,84.693 164.020 C 84.132 163.017,76.271 139.800,76.271 139.145 C 76.271 139.050,76.886 139.324,77.637 139.754 C 78.388 140.185,82.884 142.761,87.627 145.480 M197.037 150.460 C 197.725 155.101,198.410 159.343,198.559 159.887 C 198.709 160.431,198.921 161.498,199.030 162.258 L 199.229 163.640 198.414 163.429 C 197.966 163.313,194.675 162.550,191.102 161.733 C 187.528 160.916,184.605 160.117,184.605 159.957 C 184.605 159.612,195.566 141.800,195.698 141.931 C 195.747 141.981,196.350 145.819,197.037 150.460 M205.574 145.127 C 208.903 150.292,214.772 159.899,214.657 159.995 C 214.301 160.293,201.042 163.559,200.190 163.559 C 199.857 163.559,199.806 160.871,200.135 160.604 C 200.333 160.443,200.768 158.531,201.101 156.356 C 201.847 151.479,203.459 142.090,203.550 142.090 C 203.586 142.090,204.497 143.457,205.574 145.127 M308.173 157.374 C 310.105 159.766,311.439 161.520,311.139 161.273 C 310.839 161.025,309.103 159.651,307.282 158.221 L 303.970 155.620 303.382 153.587 C 303.059 152.469,302.738 151.363,302.670 151.130 C 302.488 150.511,304.199 152.452,308.173 157.374 M96.200 153.581 C 95.418 156.364,95.269 156.552,91.436 159.580 C 89.388 161.198,87.849 162.342,88.016 162.123 C 90.717 158.573,96.426 151.707,96.566 151.842 C 96.619 151.893,96.454 152.676,96.200 153.581 M178.059 156.591 C 180.830 158.915,182.960 160.898,182.795 161.000 C 182.484 161.193,176.133 172.406,168.661 185.956 C 166.281 190.274,164.288 193.761,164.234 193.706 C 163.975 193.448,167.834 172.625,169.767 163.842 C 170.366 161.123,171.125 157.500,171.454 155.791 C 172.183 152.000,172.221 151.887,172.667 152.154 C 172.863 152.271,175.289 154.268,178.059 156.591 M229.056 163.136 C 230.154 168.729,231.891 177.818,232.916 183.333 C 233.941 188.849,234.852 193.679,234.941 194.068 C 235.260 195.471,234.443 194.049,226.832 179.944 C 222.598 172.097,218.466 164.508,217.649 163.077 L 216.164 160.476 216.791 160.065 C 217.136 159.839,218.933 158.351,220.785 156.757 C 224.777 153.321,226.580 152.092,226.866 152.611 C 226.973 152.806,227.959 157.542,229.056 163.136 M307.486 159.683 C 309.195 161.012,311.285 162.724,312.131 163.486 L 313.669 164.872 313.041 165.753 C 312.119 167.049,297.897 180.826,297.794 180.523 C 297.746 180.382,298.848 175.903,300.244 170.571 C 301.639 165.238,302.869 160.177,302.977 159.322 C 303.215 157.432,303.580 156.640,304.045 157.004 C 304.228 157.148,305.777 158.353,307.486 159.683 M96.486 160.894 C 96.822 162.593,98.142 167.903,99.418 172.695 C 100.694 177.486,101.683 181.462,101.616 181.529 C 101.425 181.720,85.876 166.370,85.876 165.991 C 85.876 165.282,94.971 157.565,95.606 157.734 C 95.754 157.773,96.149 159.195,96.486 160.894 M302.059 159.534 C 301.883 160.664,296.935 179.713,296.776 179.871 C 296.674 179.974,287.043 171.306,286.932 171.012 C 286.881 170.875,301.920 158.508,302.172 158.480 C 302.201 158.477,302.150 158.951,302.059 159.534 M112.359 171.823 C 112.153 172.441,102.666 180.718,102.508 180.418 C 102.224 179.880,97.499 161.843,97.284 160.477 L 97.088 159.230 104.762 165.410 C 108.983 168.809,112.401 171.695,112.359 171.823 M196.963 164.021 L 199.153 164.503 199.153 183.005 C 199.153 193.181,199.101 201.454,199.037 201.389 C 198.878 201.226,194.561 189.514,191.394 180.650 C 188.436 172.372,184.537 162.163,184.156 161.697 C 183.628 161.053,184.339 161.136,189.482 162.320 C 192.393 162.991,195.759 163.756,196.963 164.021 M215.254 161.243 C 215.254 161.367,215.134 161.590,214.988 161.737 C 214.566 162.162,212.080 168.711,205.934 185.593 C 202.794 194.216,200.175 201.324,200.113 201.389 C 200.051 201.454,200.000 193.190,200.000 183.025 L 200.000 164.544 205.014 163.447 C 207.772 162.844,210.982 162.063,212.147 161.712 C 214.460 161.016,215.254 160.896,215.254 161.243 M182.773 165.558 C 182.321 170.428,181.079 189.308,180.826 195.143 C 180.696 198.142,180.476 200.710,180.336 200.850 C 180.186 201.000,176.754 200.533,171.931 199.705 C 167.447 198.935,163.712 198.305,163.631 198.305 C 163.200 198.305,163.923 195.566,164.523 194.928 C 164.894 194.533,168.305 188.616,172.102 181.780 C 180.791 166.134,182.876 162.443,182.971 162.538 C 183.012 162.579,182.923 163.938,182.773 165.558 M225.487 179.520 C 229.691 187.288,233.622 194.513,234.221 195.576 C 235.536 197.907,235.533 197.677,234.251 197.893 C 233.669 197.991,230.395 198.681,226.977 199.427 C 218.325 201.313,218.956 201.231,218.811 200.487 C 218.744 200.141,218.487 196.681,218.240 192.797 C 217.876 187.096,217.130 175.997,216.298 163.906 L 216.195 162.416 217.018 163.906 C 217.471 164.725,221.282 171.751,225.487 179.520 M215.552 165.483 C 215.560 166.367,216.108 174.781,216.770 184.181 C 217.850 199.508,217.928 201.291,217.532 201.468 C 217.289 201.576,213.658 202.055,209.463 202.534 C 205.268 203.012,201.413 203.457,200.895 203.524 L 199.953 203.644 200.412 202.944 C 200.664 202.559,203.525 194.970,206.768 186.080 C 215.700 161.597,215.520 162.019,215.552 165.483 M186.114 169.083 C 187.187 171.871,189.429 177.966,191.097 182.627 C 195.369 194.568,198.232 202.168,198.763 202.978 C 199.314 203.820,199.745 203.821,193.462 202.972 C 190.610 202.587,186.751 202.110,184.887 201.912 L 181.497 201.551 181.585 198.163 C 181.726 192.754,183.479 165.800,183.778 164.444 C 183.983 163.517,183.938 163.428,186.114 169.083 M289.304 179.237 C 291.239 181.723,292.910 183.901,293.018 184.077 C 293.203 184.381,282.575 192.373,281.986 192.373 C 281.844 192.373,281.495 191.942,281.212 191.415 L 280.696 190.458 282.628 181.847 L 284.560 173.236 285.172 173.977 C 285.509 174.384,287.368 176.751,289.304 179.237 M281.778 181.427 C 280.822 185.660,279.954 189.468,279.849 189.888 C 279.710 190.440,278.380 191.654,275.068 194.250 C 272.545 196.228,269.478 198.653,268.252 199.638 C 267.027 200.623,265.972 201.377,265.907 201.312 C 265.788 201.193,267.618 197.194,272.283 187.377 C 273.700 184.397,274.859 181.838,274.859 181.691 C 274.859 181.463,283.183 173.729,283.428 173.729 C 283.476 173.729,282.733 177.193,281.778 181.427 M116.785 182.880 L 118.725 191.465 118.100 192.343 C 117.757 192.825,117.422 193.220,117.357 193.220 C 117.226 193.220,106.787 185.689,106.396 185.313 C 106.180 185.106,114.324 174.294,114.696 174.294 C 114.778 174.294,115.718 178.157,116.785 182.880 M120.073 178.185 L 124.053 181.794 127.031 188.001 C 131.458 197.231,133.673 202.014,133.568 202.118 C 133.517 202.169,131.425 200.601,128.921 198.634 C 126.416 196.666,123.302 194.224,122.000 193.206 L 119.633 191.356 117.827 183.319 C 116.834 178.899,115.962 175.124,115.890 174.929 C 115.628 174.223,116.162 174.640,120.073 178.185 M296.179 180.833 C 296.733 181.353,296.733 181.359,296.156 181.935 L 295.577 182.515 292.656 178.899 C 291.049 176.910,289.597 175.093,289.429 174.862 C 289.182 174.521,293.953 178.742,296.179 180.833 M107.001 179.357 C 104.030 183.023,103.780 183.260,103.319 182.844 C 103.047 182.599,102.825 182.301,102.825 182.183 C 102.825 181.995,109.900 175.431,110.109 175.426 C 110.153 175.425,108.754 177.194,107.001 179.357 M271.847 186.088 C 267.895 194.346,265.312 199.902,264.951 200.918 C 264.473 202.268,265.020 202.523,259.360 198.320 L 254.454 194.678 255.687 194.054 C 256.366 193.712,258.362 192.418,260.124 191.181 C 262.844 189.270,273.468 182.220,273.647 182.207 C 273.679 182.205,272.869 183.951,271.847 186.088 M132.345 187.287 C 134.831 188.933,138.486 191.387,140.469 192.739 C 142.451 194.091,144.210 195.198,144.376 195.198 C 145.096 195.198,144.217 195.966,139.705 199.278 L 134.919 202.792 133.880 200.336 C 133.309 198.986,131.920 195.975,130.795 193.644 C 129.669 191.314,128.064 187.966,127.227 186.206 L 125.706 183.004 126.765 183.650 C 127.348 184.004,129.859 185.641,132.345 187.287 M281.073 193.187 C 281.073 193.574,278.929 196.079,271.858 203.955 C 264.793 211.823,262.712 213.906,262.712 213.112 C 262.712 212.641,264.206 206.309,264.854 204.035 C 264.959 203.666,267.432 201.525,270.864 198.830 C 274.071 196.312,277.452 193.655,278.378 192.925 L 280.061 191.599 280.567 192.242 C 280.846 192.596,281.073 193.021,281.073 193.187 M125.282 197.046 C 128.234 199.351,131.491 201.880,132.519 202.666 L 134.389 204.096 135.585 208.787 C 137.153 214.941,137.117 215.035,134.321 212.110 C 131.686 209.355,123.060 199.789,120.127 196.370 L 118.103 194.012 118.705 193.198 C 119.075 192.698,119.424 192.475,119.611 192.619 C 119.778 192.749,122.331 194.740,125.282 197.046 M258.294 198.739 C 260.914 200.675,262.889 202.260,262.684 202.260 C 262.479 202.260,258.175 201.440,253.119 200.438 C 248.063 199.436,243.100 198.539,242.090 198.444 C 237.766 198.039,238.433 197.769,246.893 196.498 C 249.456 196.113,251.871 195.671,252.260 195.516 C 253.364 195.075,253.271 195.025,258.294 198.739 M148.212 196.459 C 149.118 196.687,150.939 197.003,152.260 197.163 C 153.581 197.323,156.123 197.733,157.910 198.075 L 161.158 198.697 157.910 199.060 C 156.123 199.259,150.601 200.249,145.640 201.259 C 140.678 202.270,136.579 203.057,136.531 203.009 C 136.348 202.827,145.645 196.066,146.093 196.056 C 146.352 196.050,147.306 196.231,148.212 196.459 M254.520 201.630 L 263.983 203.531 263.089 207.062 C 262.598 209.004,262.043 211.500,261.856 212.607 L 261.515 214.622 259.366 213.629 C 257.558 212.793,237.030 200.407,236.361 199.747 C 234.846 198.255,240.789 198.871,254.520 201.630 M219.068 214.280 C 210.523 222.742,203.026 230.078,202.409 230.582 L 201.287 231.497 202.585 229.661 C 204.089 227.532,212.670 212.886,216.135 206.534 C 217.437 204.146,218.630 202.154,218.785 202.108 C 218.941 202.061,221.292 201.550,224.011 200.972 C 226.730 200.394,229.972 199.694,231.215 199.417 C 232.458 199.140,233.729 198.909,234.040 198.903 C 234.415 198.897,229.385 204.063,219.068 214.280 M162.853 200.098 C 162.853 201.015,138.531 215.773,137.981 215.190 C 137.942 215.147,137.706 214.032,137.457 212.712 C 137.209 211.391,136.645 208.941,136.205 207.268 C 135.407 204.234,135.406 204.224,135.993 204.098 C 152.918 200.467,162.853 198.988,162.853 200.098 M173.210 200.855 C 178.123 201.685,180.216 202.152,180.544 202.491 C 181.046 203.010,189.569 217.602,193.856 225.282 C 195.331 227.924,196.833 230.593,197.195 231.215 C 197.762 232.188,175.530 210.587,167.090 201.963 C 164.727 199.548,164.611 199.377,165.442 199.530 C 165.933 199.620,169.429 200.216,173.210 200.855 M234.135 202.472 C 232.450 207.194,221.973 233.194,221.596 233.591 C 221.278 233.925,200.938 234.139,200.677 233.811 C 200.634 233.757,234.828 200.041,234.952 200.014 C 234.988 200.006,234.621 201.112,234.135 202.472 M197.674 233.775 C 197.526 233.921,177.728 234.037,177.583 233.892 C 177.502 233.811,174.454 226.278,170.810 217.153 L 164.186 200.562 180.967 217.131 C 190.198 226.244,197.716 233.734,197.674 233.775 M188.280 203.237 C 191.385 203.618,195.102 204.084,196.540 204.271 L 199.153 204.611 199.152 212.969 C 199.151 217.566,199.068 223.712,198.966 226.626 L 198.781 231.923 198.221 231.004 C 197.912 230.498,196.456 227.924,194.983 225.282 C 193.510 222.641,190.014 216.540,187.214 211.723 C 184.414 206.907,182.070 202.871,182.005 202.754 C 181.838 202.453,182.017 202.467,188.280 203.237 M216.577 203.743 C 216.204 204.403,215.417 205.833,214.829 206.921 C 212.539 211.154,203.483 226.551,201.788 229.094 L 200.000 231.775 200.000 218.165 L 200.000 204.554 201.201 204.403 C 206.089 203.786,216.080 202.600,216.608 202.574 L 217.255 202.542 216.577 203.743 M199.000 235.946 C 199.090 236.607,199.066 239.009,198.946 241.285 L 198.729 245.424 196.610 243.883 C 195.445 243.035,191.949 240.743,188.842 238.789 C 185.734 236.836,183.071 235.127,182.924 234.992 C 182.771 234.852,186.135 234.746,190.745 234.746 L 198.835 234.746 199.000 235.946 M211.282 238.086 C 208.573 239.923,204.974 242.402,203.284 243.594 C 201.595 244.787,200.096 245.763,199.952 245.763 C 199.799 245.763,199.726 243.493,199.775 240.256 L 199.859 234.749 208.033 234.748 L 216.208 234.746 211.282 238.086 M220.998 240.254 L 224.214 245.339 222.206 245.514 C 221.101 245.610,216.068 245.705,211.020 245.726 L 201.842 245.763 203.675 244.498 C 212.875 238.153,217.405 235.101,217.577 235.133 C 217.690 235.153,219.229 237.458,220.998 240.254 M184.293 237.057 C 188.465 239.608,196.812 245.122,197.025 245.466 C 197.152 245.671,193.754 245.763,186.010 245.763 C 179.851 245.763,174.854 245.656,174.906 245.526 C 175.295 244.550,180.962 235.311,181.172 235.311 C 181.318 235.311,182.723 236.096,184.293 237.057 M186.778 250.071 C 194.361 256.961,198.261 260.590,198.176 260.675 C 198.128 260.723,192.374 260.673,185.389 260.563 L 172.689 260.364 175.398 256.382 C 176.888 254.192,178.996 251.097,180.082 249.505 C 182.525 245.923,182.182 245.894,186.778 250.071 M198.941 250.424 C 199.058 252.444,199.122 255.415,199.082 257.027 L 199.011 259.959 194.907 256.180 C 192.649 254.102,189.378 251.096,187.636 249.501 L 184.470 246.600 191.599 246.676 L 198.729 246.751 198.941 250.424 M213.609 247.952 C 211.988 249.871,210.625 251.121,205.367 255.507 C 202.804 257.646,200.547 259.594,200.353 259.837 C 200.066 260.195,200.000 259.593,199.999 256.622 C 199.998 254.611,199.915 251.536,199.814 249.788 L 199.631 246.610 207.187 246.610 L 214.742 246.610 213.609 247.952 M218.144 248.237 C 218.723 249.129,220.896 252.274,222.973 255.226 L 226.750 260.593 218.954 260.734 C 214.666 260.812,208.838 260.812,206.003 260.734 L 200.848 260.593 205.579 256.664 C 208.182 254.504,211.645 251.358,213.277 249.674 C 216.724 246.116,216.759 246.105,218.144 248.237 M190.055 263.974 C 194.016 268.158,199.207 274.646,198.846 274.962 C 198.782 275.018,193.360 275.137,186.798 275.226 L 174.866 275.386 176.912 273.075 C 178.038 271.803,179.968 269.555,181.203 268.079 C 187.591 260.440,186.979 260.724,190.055 263.974 M199.153 267.391 L 199.153 273.201 197.413 270.993 C 195.352 268.378,192.544 265.126,190.566 263.065 L 189.144 261.582 194.148 261.582 L 199.153 261.582 199.153 267.391 M209.120 261.819 L 210.472 262.006 208.968 263.842 C 208.141 264.852,206.218 267.203,204.695 269.068 C 203.172 270.932,201.493 272.816,200.963 273.255 L 200.000 274.052 200.000 267.817 L 200.000 261.582 203.884 261.607 C 206.020 261.620,208.377 261.716,209.120 261.819 M219.049 268.315 C 221.493 271.785,223.435 274.682,223.365 274.751 C 223.295 274.821,218.105 274.948,211.831 275.032 L 200.424 275.186 201.554 274.117 C 202.175 273.529,204.722 270.563,207.214 267.527 C 211.697 262.063,211.757 262.004,213.005 261.855 C 214.553 261.670,213.813 260.880,219.049 268.315 M189.548 277.893 C 190.247 278.931,192.560 282.073,194.687 284.876 L 198.554 289.972 186.945 290.046 C 180.560 290.086,175.283 290.067,175.219 290.003 C 175.118 289.902,177.294 286.869,183.805 278.037 L 185.315 275.989 186.796 275.998 L 188.277 276.007 189.548 277.893 M199.153 282.513 L 199.153 289.037 196.974 286.256 C 194.455 283.040,190.219 277.279,189.809 276.513 C 189.541 276.012,189.741 275.989,194.340 275.989 L 199.153 275.989 199.153 282.513 M209.605 276.259 C 209.605 276.540,200.328 288.983,200.118 288.983 C 200.053 288.983,200.000 286.059,200.000 282.486 L 200.000 275.989 204.802 275.989 C 207.675 275.989,209.605 276.097,209.605 276.259 M218.076 282.133 C 220.003 285.512,221.822 288.690,222.118 289.195 L 222.655 290.113 211.627 290.113 L 200.600 290.113 205.399 283.740 C 208.038 280.235,210.339 277.057,210.511 276.678 C 210.798 276.048,210.987 275.989,212.698 275.989 L 214.571 275.989 218.076 282.133 M199.292 293.856 C 199.398 295.448,199.442 297.223,199.390 297.798 L 199.294 298.845 195.301 294.903 L 191.309 290.960 195.204 290.960 L 199.098 290.960 199.292 293.856 M204.215 294.598 C 202.130 296.598,200.399 298.092,200.369 297.917 C 200.339 297.742,200.267 296.105,200.210 294.280 L 200.105 290.960 204.055 290.960 L 208.005 290.960 204.215 294.598 M215.369 296.523 C 220.023 301.036,220.077 301.103,219.436 301.509 C 218.239 302.266,211.190 306.386,208.475 307.915 C 206.999 308.746,204.691 310.102,203.347 310.928 C 202.003 311.754,200.844 312.429,200.772 312.429 C 200.700 312.429,201.360 310.999,202.238 309.251 C 203.117 307.504,205.165 302.753,206.791 298.694 C 209.370 292.252,209.803 291.354,210.199 291.631 C 210.448 291.806,212.775 294.008,215.369 296.523 M190.517 293.741 C 191.276 296.530,195.252 305.655,197.582 309.958 C 199.278 313.089,199.223 313.085,193.485 309.652 C 190.931 308.125,186.522 305.569,183.686 303.972 C 180.851 302.374,178.531 300.982,178.531 300.877 C 178.531 300.773,180.010 299.547,181.818 298.154 C 183.626 296.761,186.136 294.708,187.397 293.592 C 189.973 291.311,189.854 291.306,190.517 293.741 M199.421 305.929 L 199.406 311.441 197.962 308.616 C 197.167 307.062,196.104 304.838,195.599 303.672 C 195.094 302.507,194.044 300.092,193.265 298.305 C 192.486 296.518,191.647 294.357,191.400 293.503 L 190.951 291.949 195.193 296.183 L 199.435 300.417 199.421 305.929 M206.745 296.257 C 203.303 304.711,201.947 307.875,201.130 309.357 L 200.293 310.876 200.304 305.226 L 200.315 299.576 204.298 295.833 C 206.488 293.775,208.316 292.090,208.361 292.090 C 208.405 292.090,207.678 293.965,206.745 296.257 M173.124 306.568 L 176.780 309.746 175.376 309.832 C 174.604 309.879,169.437 309.595,163.893 309.200 C 153.312 308.446,132.923 307.345,129.560 307.345 C 124.115 307.345,133.349 306.279,152.793 304.663 C 157.704 304.255,162.359 303.816,163.136 303.688 C 163.912 303.560,165.655 303.441,167.008 303.423 L 169.468 303.390 173.124 306.568 M240.503 304.219 C 245.321 304.750,258.121 305.928,268.503 306.796 C 270.678 306.978,272.511 307.175,272.575 307.236 C 272.640 307.296,270.733 307.345,268.338 307.347 C 264.324 307.348,241.410 308.750,229.099 309.747 C 226.226 309.979,223.429 310.165,222.884 310.160 L 221.893 310.151 223.019 309.242 C 223.639 308.742,225.291 307.305,226.691 306.048 C 230.129 302.961,229.664 303.023,240.503 304.219 M192.155 309.982 C 195.828 312.188,195.927 312.288,193.898 311.753 C 193.120 311.548,190.234 310.895,187.485 310.303 C 181.790 309.076,181.963 309.218,184.100 307.523 L 185.714 306.242 187.278 307.117 C 188.138 307.598,190.333 308.887,192.155 309.982 M215.384 307.769 C 216.310 308.610,217.009 309.348,216.937 309.408 C 216.866 309.468,214.456 309.995,211.582 310.579 C 208.708 311.163,205.607 311.811,204.691 312.019 C 202.500 312.518,202.697 312.363,208.481 309.044 C 214.268 305.723,213.323 305.897,215.384 307.769 M141.667 308.774 C 148.192 309.087,157.853 309.656,163.136 310.039 C 168.418 310.421,173.630 310.737,174.718 310.741 L 176.695 310.747 175.989 311.304 C 175.600 311.610,171.532 313.783,166.949 316.133 C 158.258 320.589,141.881 329.053,137.335 331.438 L 134.698 332.822 134.041 332.205 C 133.599 331.789,133.286 331.029,133.082 329.870 C 132.904 328.858,131.598 325.415,129.904 321.491 C 128.323 317.828,126.425 313.264,125.688 311.349 L 124.346 307.868 127.074 308.037 C 128.575 308.129,135.141 308.461,141.667 308.774 M274.576 308.101 C 274.576 308.495,270.032 319.813,268.073 324.294 C 266.953 326.857,265.796 329.654,265.501 330.508 C 265.207 331.363,264.910 332.214,264.842 332.401 C 264.652 332.922,260.824 331.491,257.203 329.545 C 241.120 320.902,227.114 313.419,225.141 312.414 C 223.821 311.742,222.931 311.157,223.164 311.115 C 223.397 311.072,227.020 310.781,231.215 310.466 C 247.669 309.233,261.173 308.392,267.514 308.205 C 271.165 308.097,274.248 307.986,274.364 307.959 C 274.481 307.932,274.576 307.996,274.576 308.101 M275.424 315.907 L 275.424 322.774 271.283 326.430 C 269.006 328.440,266.980 330.182,266.782 330.300 C 266.583 330.419,267.536 327.940,268.899 324.792 C 270.263 321.644,272.256 316.811,273.330 314.054 C 274.403 311.296,275.313 309.040,275.353 309.040 C 275.392 309.040,275.424 312.130,275.424 315.907 M124.728 311.511 C 125.163 312.715,126.945 317.018,128.688 321.072 C 131.681 328.034,132.489 330.226,132.065 330.226 C 131.964 330.226,130.047 328.561,127.805 326.526 L 123.729 322.826 123.729 316.074 C 123.729 312.360,123.775 309.322,123.832 309.322 C 123.889 309.322,124.292 310.307,124.728 311.511 M188.148 311.425 C 195.409 313.042,198.997 313.875,199.086 313.964 C 199.133 314.010,199.135 315.585,199.091 317.464 L 199.011 320.879 196.469 319.241 C 195.071 318.340,192.147 316.477,189.972 315.101 C 185.476 312.256,182.351 310.031,183.205 310.283 C 183.523 310.377,185.747 310.891,188.148 311.425 M211.419 313.488 C 209.100 315.003,205.614 317.287,203.672 318.565 L 200.141 320.888 200.062 317.468 C 200.018 315.587,200.018 314.015,200.062 313.975 C 200.164 313.880,214.700 310.805,215.233 310.765 C 215.454 310.748,213.738 311.974,211.419 313.488 M179.504 316.032 C 180.634 320.543,180.591 320.904,178.932 320.904 C 178.591 320.904,177.185 321.231,175.808 321.630 C 174.432 322.029,170.636 323.051,167.373 323.901 C 164.110 324.751,156.928 326.658,151.412 328.138 C 145.897 329.618,141.130 330.892,140.819 330.968 C 139.734 331.236,143.470 329.258,158.616 321.545 C 174.023 313.699,176.742 312.234,177.421 311.416 C 178.021 310.694,178.351 311.424,179.504 316.032 M242.714 322.880 C 249.804 326.685,255.570 329.835,255.525 329.880 C 255.244 330.161,219.199 320.671,218.678 320.178 C 218.543 320.051,219.599 315.751,220.387 313.214 L 220.978 311.315 225.400 313.638 C 227.832 314.915,235.623 319.074,242.714 322.880 M213.968 338.983 C 217.899 349.470,221.207 358.369,221.318 358.757 C 221.548 359.561,217.455 352.717,214.052 346.610 C 208.370 336.410,201.975 325.143,201.039 323.682 L 200.013 322.082 203.043 320.122 L 206.073 318.163 206.447 319.039 C 206.653 319.521,210.037 328.496,213.968 338.983 M196.438 320.363 L 199.089 322.098 197.891 323.832 C 196.448 325.920,191.876 334.075,183.622 349.280 C 177.663 360.258,176.006 363.178,176.402 362.006 C 176.887 360.568,182.777 345.021,185.829 337.124 C 187.695 332.296,189.435 327.592,189.696 326.672 C 190.479 323.909,193.022 318.333,193.428 318.489 C 193.626 318.565,194.980 319.408,196.438 320.363 M186.158 321.470 C 191.221 321.941,191.440 322.227,188.099 324.008 C 186.330 324.951,183.773 326.930,176.412 333.055 C 171.158 337.427,152.617 351.625,153.306 350.749 C 153.604 350.370,159.506 344.040,166.423 336.683 C 173.340 329.325,179.490 322.754,180.091 322.080 C 180.975 321.089,181.321 320.883,181.905 320.998 C 182.302 321.077,184.216 321.289,186.158 321.470 M219.237 322.952 C 220.229 324.078,224.413 328.750,228.535 333.333 C 239.075 345.054,242.447 348.870,242.263 348.870 C 242.176 348.870,238.446 345.845,233.976 342.148 C 229.505 338.451,222.371 332.580,218.122 329.103 L 210.398 322.779 213.603 321.860 C 215.366 321.355,216.948 320.933,217.120 320.923 C 217.291 320.912,218.244 321.826,219.237 322.952 M228.107 323.875 C 232.302 325.052,240.819 327.285,247.034 328.837 C 256.376 331.169,263.328 333.099,263.792 333.487 C 263.843 333.529,263.194 334.497,262.351 335.638 C 257.531 342.159,249.718 353.224,249.718 353.529 C 249.718 355.422,248.526 354.553,244.188 349.493 C 242.230 347.208,235.903 340.081,230.130 333.655 C 219.377 321.687,219.045 321.293,219.952 321.572 C 220.243 321.662,223.912 322.698,228.107 323.875 M177.077 323.949 C 175.549 325.520,168.828 332.670,151.342 351.326 C 150.293 352.445,149.432 353.208,149.429 353.022 C 149.425 352.836,149.166 352.366,148.854 351.977 C 148.541 351.589,147.056 349.555,145.553 347.458 C 140.371 340.222,136.418 335.002,135.999 334.841 C 134.248 334.169,135.290 333.177,138.444 332.512 C 139.284 332.335,144.431 330.986,149.881 329.514 C 155.331 328.041,163.212 325.938,167.395 324.839 C 171.578 323.741,175.826 322.616,176.836 322.339 C 179.236 321.682,179.242 321.723,177.077 323.949 M215.537 328.263 C 220.321 332.155,240.629 348.864,246.675 353.883 C 248.471 355.373,248.551 355.689,247.202 355.965 C 246.696 356.068,245.943 356.465,245.528 356.847 C 245.113 357.229,241.592 359.697,237.703 362.333 C 233.814 364.969,229.900 367.721,229.005 368.450 C 228.111 369.178,227.249 369.774,227.089 369.774 C 226.617 369.774,224.703 365.391,222.608 359.509 C 221.530 356.482,218.403 348.051,215.660 340.774 C 208.887 322.806,208.994 323.104,209.394 323.342 C 209.587 323.457,212.352 325.671,215.537 328.263 M199.153 348.596 C 199.153 370.949,199.111 373.197,198.697 373.356 C 198.447 373.452,196.381 373.196,194.107 372.787 C 188.780 371.828,177.192 370.339,175.059 370.339 C 172.974 370.339,172.875 370.698,176.967 363.418 C 178.713 360.311,182.340 353.701,185.028 348.729 C 193.202 333.606,198.637 324.011,199.031 324.011 C 199.098 324.011,199.153 335.075,199.153 348.596 M204.853 332.203 C 206.647 335.388,209.676 340.791,211.585 344.209 C 213.493 347.627,216.772 353.347,218.871 356.921 C 225.999 369.053,226.784 371.276,223.697 370.583 C 222.114 370.227,203.290 372.496,201.822 373.219 C 199.853 374.188,200.000 376.170,200.000 348.653 L 200.000 323.901 200.795 325.157 C 201.233 325.847,203.058 329.018,204.853 332.203 M188.577 327.048 C 188.064 328.563,185.737 334.760,183.406 340.819 C 181.075 346.879,177.669 355.840,175.838 360.734 C 174.007 365.629,172.472 369.679,172.428 369.735 C 172.383 369.791,171.546 369.256,170.566 368.546 C 169.587 367.835,167.323 366.268,165.537 365.063 C 163.750 363.858,160.137 361.374,157.507 359.543 C 154.878 357.713,152.518 356.215,152.264 356.215 C 151.485 356.215,150.420 354.552,150.938 354.145 C 151.999 353.312,163.628 344.355,168.034 340.977 C 170.728 338.911,174.796 335.676,177.073 333.788 C 185.013 327.206,188.550 324.498,189.459 324.305 C 189.487 324.299,189.091 325.533,188.577 327.048 M139.325 340.607 C 141.249 343.210,143.631 346.483,144.621 347.881 C 145.610 349.280,146.925 351.094,147.543 351.914 C 148.960 353.792,148.859 353.869,146.334 352.827 C 145.200 352.360,143.242 351.657,141.981 351.266 C 138.990 350.338,138.456 350.045,137.940 349.048 C 137.407 348.017,135.353 335.876,135.711 335.876 C 135.776 335.876,137.402 338.005,139.325 340.607 M263.324 337.902 C 261.541 349.013,261.420 349.495,260.252 350.097 C 258.704 350.895,251.100 353.736,250.940 353.577 C 250.762 353.398,250.645 353.567,258.135 343.147 C 261.012 339.145,263.421 335.926,263.488 335.993 C 263.555 336.060,263.481 336.919,263.324 337.902 M244.227 361.929 C 240.591 367.975,241.422 367.357,235.559 368.381 C 232.859 368.853,230.336 369.317,229.952 369.412 C 228.728 369.714,230.700 368.228,238.559 362.925 C 242.599 360.199,246.147 357.700,246.444 357.372 C 247.619 356.074,247.071 357.200,244.227 361.929 M162.147 363.906 C 166.640 366.919,169.838 369.239,169.695 369.382 C 169.598 369.480,158.129 367.545,157.992 367.408 C 157.956 367.372,156.958 365.569,155.776 363.403 C 154.593 361.236,153.314 358.924,152.933 358.266 L 152.239 357.068 155.286 359.208 C 156.962 360.386,160.049 362.500,162.147 363.906 M182.776 372.037 C 186.423 372.505,190.801 373.140,192.504 373.449 C 194.208 373.758,195.733 374.016,195.894 374.023 C 196.652 374.053,187.023 377.100,186.158 377.104 C 185.583 377.107,184.578 376.772,183.757 376.304 C 180.641 374.528,175.275 371.402,175.165 371.298 C 174.927 371.073,176.289 371.205,182.776 372.037 M222.957 371.424 C 223.406 371.601,214.159 377.377,213.372 377.411 C 212.858 377.434,202.544 374.140,202.543 373.953 C 202.542 373.705,218.017 371.579,222.316 371.237 C 222.394 371.231,222.682 371.315,222.957 371.424 " stroke="none" fill="#000000" fill-rule="evenodd"></path></g></svg>