<?xml version="1.0" standalone="no"?>
<!DOCTYPE svg PUBLIC "-//W3C//DTD SVG 20010904//EN"
 "http://www.w3.org/TR/2001/REC-SVG-20010904/DTD/svg10.dtd">
<svg version="1.0" xmlns="http://www.w3.org/2000/svg"
 width="1424.000000pt" height="1344.000000pt" viewBox="0 0 1424.000000 1344.000000"
 preserveAspectRatio="xMidYMid meet">

<g transform="translate(0.000000,1344.000000) scale(0.100000,-0.100000)"
fill="#000000" stroke="none">
<path d="M0 6720 l0 -6720 7120 0 7120 0 0 6720 0 6720 -7120 0 -7120 0 0
-6720z m8750 6635 c52 -13 187 -42 299 -64 224 -46 356 -85 443 -134 32 -18
95 -53 141 -79 84 -47 684 -445 1209 -801 330 -224 386 -274 438 -395 63 -144
172 -357 345 -667 281 -505 314 -579 335 -755 21 -176 10 -588 -25 -920 -31
-292 -101 -731 -118 -742 -6 -4 -53 15 -103 43 -51 27 -95 46 -97 42 -3 -5
-46 -143 -96 -308 -111 -368 -311 -951 -346 -1011 -14 -24 -65 -84 -113 -132
-185 -185 -461 -448 -500 -477 -23 -16 -41 -35 -42 -41 0 -7 255 -326 566
-710 312 -385 628 -774 702 -867 222 -274 777 -1072 883 -1268 106 -197 339
-671 378 -769 34 -86 149 -348 782 -1786 193 -439 354 -808 357 -819 13 -51
-23 15 -113 210 -54 116 -167 359 -252 540 -86 182 -287 616 -448 965 -161
349 -346 748 -410 885 -65 138 -153 328 -196 423 -43 95 -104 212 -136 260
-32 48 -202 281 -378 517 -176 237 -374 505 -440 597 -66 92 -397 521 -735
954 -338 433 -619 794 -625 801 -8 10 -57 -21 -218 -138 -183 -133 -218 -163
-299 -257 -149 -174 -410 -463 -522 -579 l-104 -108 -104 51 c-56 28 -265 151
-462 273 -197 121 -360 221 -361 221 -2 0 -13 -28 -25 -62 -44 -123 -442
-1118 -454 -1134 -9 -11 -34 -19 -74 -23 l-60 -6 123 -195 c68 -107 121 -198
119 -202 -3 -4 -63 -8 -135 -8 -71 0 -129 -2 -129 -4 0 -3 79 -117 175 -255
96 -138 175 -255 175 -261 0 -6 -60 -10 -162 -11 -90 -1 -189 -4 -221 -8 l-58
-6 165 -234 c92 -128 166 -237 166 -241 0 -4 -74 -11 -165 -16 l-164 -9 66
-115 c36 -63 102 -178 147 -255 44 -76 83 -143 84 -147 2 -4 -103 -8 -234 -8
l-238 0 74 -76 c41 -41 128 -123 193 -181 64 -59 117 -109 117 -113 0 -3 -56
-39 -125 -79 -69 -41 -124 -77 -123 -81 2 -3 35 -35 73 -69 39 -35 71 -67 73
-71 2 -4 -46 -39 -105 -77 -59 -39 -154 -100 -210 -137 l-101 -66 33 -83 c22
-54 39 -83 51 -86 17 -3 271 62 303 78 8 4 29 62 47 134 46 176 59 203 140
273 37 32 100 89 140 126 100 93 103 94 376 63 122 -13 401 -40 618 -60 540
-48 711 -64 738 -72 l23 -6 -5 -279 c-4 -206 -9 -284 -18 -296 -7 -8 -89 -83
-183 -165 -93 -83 -173 -160 -178 -170 -4 -11 -15 -25 -23 -32 -10 -7 -17 -31
-19 -65 -6 -77 -73 -465 -86 -493 -6 -13 -19 -28 -29 -35 -25 -16 -318 -129
-355 -138 -50 -11 -80 -49 -208 -262 -96 -162 -128 -207 -152 -218 -31 -13
-359 -74 -430 -79 -59 -5 -76 -13 -315 -155 l-220 -131 -243 76 c-134 41 -254
75 -266 75 -12 0 -117 -32 -234 -71 -166 -55 -220 -69 -247 -64 -19 4 -87 37
-150 74 -63 38 -149 88 -190 111 -41 23 -93 53 -115 66 -24 15 -50 23 -65 20
-20 -3 -472 70 -476 77 -87 166 -233 419 -252 438 -29 28 -173 90 -312 134
-95 29 -123 44 -145 79 -12 17 -105 521 -105 565 0 4 -90 87 -200 186 l-200
179 0 288 0 287 38 10 c20 6 89 15 152 21 63 5 230 21 370 34 140 14 368 34
505 46 138 11 311 27 387 36 104 12 146 13 177 4 42 -11 146 -96 282 -230 l66
-65 38 -155 c21 -85 41 -158 44 -162 7 -8 251 -38 308 -38 30 0 35 5 64 62 27
54 29 63 16 72 -9 6 -71 46 -139 88 -132 83 -260 177 -264 193 -2 6 31 36 71
68 41 32 75 62 75 65 -1 9 -254 152 -269 152 -27 0 -1 25 137 132 81 64 179
145 217 181 l70 66 -274 1 c-234 0 -272 2 -268 14 3 8 87 126 187 262 99 136
179 248 177 250 -2 2 -66 -1 -142 -7 -129 -10 -245 -6 -245 9 0 4 29 36 64 72
36 36 135 148 221 250 l156 185 -83 7 c-46 3 -158 6 -250 7 -105 1 -168 5
-168 11 0 6 19 38 43 73 24 34 101 146 171 249 l127 188 -136 0 c-74 0 -135 3
-135 8 0 4 6 16 14 27 18 27 216 364 216 368 0 3 -26 7 -58 11 l-58 7 -234
589 c-129 325 -238 590 -241 590 -3 0 -163 -97 -355 -216 -192 -119 -398 -241
-459 -271 l-110 -56 -88 94 c-135 144 -445 487 -541 598 -74 85 -115 121 -284
243 -108 79 -202 147 -209 151 -8 5 -210 -247 -574 -715 -310 -398 -588 -754
-619 -793 -31 -38 -97 -126 -145 -195 -49 -69 -159 -219 -245 -335 -398 -537
-580 -785 -616 -840 -21 -33 -72 -136 -114 -230 -43 -93 -130 -282 -195 -420
-64 -137 -236 -508 -381 -822 -397 -862 -825 -1777 -837 -1788 -20 -20 4 37
208 500 212 481 587 1334 783 1780 60 138 125 288 143 335 39 98 273 575 378
769 69 128 230 366 601 891 117 166 362 477 834 1060 368 454 675 833 684 843
14 16 13 20 -9 43 -13 15 -36 34 -51 43 -49 31 -534 509 -572 564 -29 43 -67
141 -167 432 -71 208 -165 494 -208 636 -43 143 -81 263 -85 266 -4 4 -49 -14
-101 -39 -70 -36 -96 -44 -103 -35 -12 14 -73 394 -101 627 -39 321 -45 425
-45 745 0 297 2 326 22 400 25 92 125 298 277 570 179 320 291 533 355 680 83
187 108 212 450 444 524 356 1096 738 1170 781 41 24 102 60 135 80 124 75
261 120 545 175 169 33 337 73 361 86 63 33 -25 -45 -378 -337 -365 -301 -494
-409 -611 -516 l-43 -39 -124 -402 c-68 -221 -141 -451 -163 -512 -22 -60 -43
-127 -46 -147 -12 -68 -7 -65 -538 -333 -148 -74 -268 -137 -268 -140 0 -15
91 -185 99 -185 5 0 58 15 118 34 59 18 169 48 243 66 122 30 138 37 179 74
25 23 156 145 291 271 135 127 362 339 505 473 144 133 273 261 288 284 14 22
38 77 53 122 32 98 292 808 298 813 12 13 36 -332 36 -530 0 -126 -1 -133
-115 -627 -54 -234 -159 -569 -209 -669 -14 -27 -49 -76 -79 -108 -96 -105
-254 -298 -271 -331 -9 -18 -39 -144 -66 -280 -28 -136 -55 -260 -61 -275 -25
-61 -126 -135 -294 -217 -88 -43 -218 -109 -289 -148 l-130 -71 -62 -96 c-50
-78 -63 -107 -69 -152 -4 -31 -47 -196 -95 -367 -48 -171 -141 -504 -205 -739
-111 -406 -116 -429 -101 -452 14 -22 594 -495 606 -495 3 0 42 44 86 98 44
53 186 212 315 352 129 140 345 379 479 530 135 151 286 317 335 370 83 88
262 286 710 785 452 503 529 581 557 561 8 -6 52 -70 98 -141 121 -190 180
-275 189 -275 5 0 18 23 29 50 12 28 27 50 35 50 10 0 37 -117 103 -434 l89
-435 3 330 2 330 -85 92 c-47 50 -85 96 -84 101 0 6 40 -32 90 -85 l89 -95
105 102 106 102 43 -64 43 -65 144 215 c79 117 151 218 159 224 29 18 118 -74
816 -853 187 -209 386 -428 441 -486 55 -59 299 -330 541 -602 243 -272 454
-504 469 -515 15 -11 64 -65 108 -120 l80 -100 51 42 c401 322 545 441 557
460 16 24 -6 110 -283 1096 -65 234 -121 445 -125 471 -4 32 -24 73 -67 141
l-62 96 -166 90 c-91 49 -210 109 -264 133 -120 52 -247 143 -275 196 -10 21
-38 133 -60 248 -23 116 -51 239 -61 275 -21 68 -20 68 -257 343 -51 59 -102
125 -113 147 -57 112 -155 438 -235 785 -46 198 -86 385 -90 415 -9 79 20 620
34 620 4 0 36 -82 73 -182 36 -101 105 -289 152 -418 48 -129 94 -254 102
-277 24 -65 66 -109 379 -399 160 -148 399 -371 532 -495 l242 -226 133 -33
c73 -18 184 -48 245 -66 62 -19 117 -34 123 -34 8 0 100 169 100 185 0 3 -75
42 -167 86 -220 105 -597 305 -617 328 -9 10 -20 37 -25 62 -5 24 -40 134 -78
244 -38 110 -111 338 -162 506 l-94 306 -126 111 c-115 101 -652 545 -848 702
-78 62 -103 90 -65 75 9 -4 60 -18 112 -30z"/>
<path d="M8690 13346 c0 -3 174 -148 387 -323 213 -175 432 -357 487 -406 54
-48 100 -86 102 -85 1 2 -22 104 -52 228 -30 124 -57 253 -61 288 l-6 63 -50
29 c-79 45 -245 95 -447 135 -102 20 -221 45 -265 56 -84 20 -95 22 -95 15z"/>
<path d="M5475 13319 c-16 -5 -140 -32 -275 -60 -263 -54 -390 -91 -485 -142
l-60 -32 -7 -70 c-6 -64 -101 -485 -114 -506 -14 -23 13 -3 94 69 92 83 305
261 670 561 122 100 222 185 222 187 0 5 -9 4 -45 -7z"/>
<path d="M9570 13050 c0 -37 68 -345 106 -480 l16 -55 215 -145 c118 -80 224
-148 234 -152 11 -4 92 -17 180 -28 88 -11 296 -45 462 -75 166 -30 310 -55
321 -55 18 0 18 2 6 15 -8 8 -166 116 -350 241 -704 475 -1161 774 -1186 774
-2 0 -4 -18 -4 -40z"/>
<path d="M4545 13017 c-97 -57 -685 -449 -1145 -763 -157 -107 -292 -199 -300
-204 -45 -26 31 -18 313 33 171 32 380 66 462 77 83 11 162 22 176 25 15 4
125 74 245 156 167 115 221 157 227 177 32 112 117 500 115 523 l-3 29 -90
-53z"/>
<path d="M8736 12778 c-3 -46 -9 -178 -13 -293 l-6 -210 84 -62 c46 -34 120
-93 163 -132 43 -39 81 -69 84 -67 6 7 -29 109 -148 431 -59 160 -118 318
-130 353 -13 34 -24 62 -25 62 -1 0 -5 -37 -9 -82z"/>
<path d="M5431 12763 c-13 -38 -60 -165 -103 -283 -112 -302 -179 -492 -175
-497 2 -2 49 36 103 84 55 49 130 110 167 136 l67 48 0 57 c0 99 -21 476 -28
500 -6 18 -11 11 -31 -45z"/>
<path d="M9700 12479 c0 -18 232 -756 277 -882 33 -90 41 -106 52 -94 11 14
88 704 79 711 -10 8 -385 264 -395 270 -8 4 -13 2 -13 -5z"/>
<path d="M4298 12324 c-175 -119 -198 -138 -198 -162 0 -59 61 -629 71 -666 6
-21 14 -35 19 -30 12 13 134 381 230 699 46 149 85 276 87 283 3 6 1 12 -3 12
-5 -1 -98 -62 -206 -136z"/>
<path d="M8730 12228 c0 -7 38 -172 83 -366 l82 -354 155 -68 c85 -37 313
-136 505 -220 193 -84 405 -182 473 -217 68 -36 125 -63 128 -61 4 5 -177 176
-691 652 -165 153 -330 308 -366 345 -104 104 -342 301 -364 301 -3 0 -5 -6
-5 -12z"/>
<path d="M5409 12174 c-65 -48 -220 -179 -274 -232 -28 -28 -130 -124 -837
-789 -141 -134 -255 -243 -252 -243 3 0 71 34 152 74 81 41 278 132 437 202
160 70 375 164 479 210 104 45 193 88 197 96 6 12 39 150 139 587 17 74 29
136 27 138 -2 2 -33 -18 -68 -43z"/>
<path d="M10154 12184 c13 -33 324 -582 619 -1092 63 -108 65 -112 72 -82 21
96 95 294 174 462 49 106 106 236 126 288 21 52 49 117 62 144 l25 49 -48 48
c-42 43 -54 49 -89 49 -22 0 -163 23 -313 50 -151 27 -344 59 -430 70 -86 11
-168 23 -181 26 -19 4 -22 2 -17 -12z"/>
<path d="M10120 12173 c0 -76 -63 -644 -75 -671 -8 -18 -15 -46 -15 -61 0 -57
-4 -55 490 -304 135 -69 255 -127 268 -131 19 -6 13 9 -44 106 -107 183 -454
792 -533 936 -74 134 -91 157 -91 125z"/>
<path d="M3860 12144 c-91 -12 -288 -45 -439 -73 -151 -28 -293 -51 -315 -51
-36 0 -48 -6 -84 -43 -23 -23 -42 -48 -42 -55 0 -7 11 -35 25 -62 13 -26 43
-95 65 -152 23 -57 78 -179 122 -272 45 -94 100 -232 125 -310 25 -78 47 -148
50 -156 4 -13 6 -13 14 0 40 65 236 406 404 705 302 537 280 495 258 494 -10
-1 -92 -12 -183 -25z"/>
<path d="M3970 11974 c-91 -167 -490 -867 -549 -966 -13 -21 -20 -38 -16 -38
36 0 751 374 765 401 14 25 12 66 -4 98 -9 17 -27 146 -46 342 -18 173 -35
322 -39 333 -5 14 -32 -26 -111 -170z"/>
<path d="M11211 11878 c-13 -29 -40 -97 -61 -150 -22 -53 -76 -175 -121 -270
-77 -163 -167 -408 -172 -470 -2 -28 3 -31 210 -123 117 -51 358 -159 535
-239 178 -80 327 -146 331 -146 15 0 6 56 -24 144 -33 101 -92 216 -307 601
-158 283 -283 524 -328 635 -16 38 -31 70 -35 70 -3 0 -15 -24 -28 -52z"/>
<path d="M2930 11823 c-59 -137 -159 -331 -312 -608 -83 -148 -181 -328 -219
-400 -70 -134 -129 -290 -129 -343 l0 -30 243 110 c133 61 377 171 542 244
294 131 300 135 297 162 -7 66 -107 333 -189 507 -49 105 -98 213 -108 240
-22 61 -82 195 -88 195 -2 0 -18 -35 -37 -77z"/>
<path d="M8910 11476 c0 -14 101 -308 122 -356 14 -30 45 -77 70 -105 59 -66
269 -315 288 -342 15 -21 17 -20 398 111 l383 131 -183 90 c-101 50 -255 121
-343 159 -88 38 -279 121 -425 186 -268 118 -310 135 -310 126z"/>
<path d="M5170 11404 c-69 -31 -285 -125 -480 -211 -195 -85 -421 -189 -502
-231 l-147 -76 373 -126 c205 -70 377 -130 383 -133 6 -4 13 -1 16 7 3 7 63
82 134 166 70 84 146 173 167 199 21 25 50 71 63 101 26 58 125 351 120 356
-1 2 -59 -22 -127 -52z"/>
<path d="M10713 10718 c-131 -254 -245 -489 -240 -495 15 -14 1425 192 1460
214 24 15 32 11 -761 365 -184 81 -334 148 -336 148 -1 0 -56 -105 -123 -232z"/>
<path d="M3285 10883 c-44 -19 -264 -119 -490 -221 -225 -101 -436 -196 -467
-210 -32 -14 -58 -31 -58 -39 0 -7 4 -13 9 -13 5 0 87 -13 182 -30 329 -56
1266 -186 1276 -176 9 9 -354 727 -367 725 -3 0 -41 -16 -85 -36z"/>
<path d="M9920 10814 c-560 -193 -512 -173 -505 -203 4 -14 28 -132 54 -261
26 -130 52 -243 57 -252 7 -13 56 44 249 290 132 169 274 347 316 397 82 98
94 115 82 114 -4 0 -118 -38 -253 -85z"/>
<path d="M10193 10887 c-4 -9 -40 -53 -79 -99 -114 -133 -564 -712 -564 -725
0 -9 6 -10 23 -3 20 9 151 32 671 120 99 16 181 32 183 34 4 4 -214 676 -222
684 -2 2 -7 -3 -12 -11z"/>
<path d="M10235 10868 c24 -83 211 -638 215 -638 3 0 64 120 135 265 l130 265
-90 30 c-87 28 -362 100 -385 100 -7 0 -9 -9 -5 -22z"/>
<path d="M3810 10825 c-212 -55 -312 -87 -310 -100 4 -19 255 -524 261 -525 6
0 223 660 218 664 -2 2 -78 -16 -169 -39z"/>
<path d="M3889 10531 c-62 -188 -110 -343 -108 -345 2 -2 194 -36 426 -75 232
-39 429 -74 437 -77 9 -3 16 -1 16 5 0 13 -483 629 -588 751 -36 41 -66 77
-68 78 -1 2 -53 -150 -115 -337z"/>
<path d="M4030 10865 c0 -2 31 -41 69 -85 39 -44 183 -225 322 -401 152 -193
255 -317 261 -311 12 12 117 535 109 544 -6 6 -742 258 -755 258 -3 0 -6 -2
-6 -5z"/>
<path d="M11755 10389 c-196 -35 -848 -131 -1080 -159 -242 -29 -224 -21 -172
-83 25 -29 130 -158 233 -289 104 -130 310 -376 458 -547 l268 -312 23 63 c12
35 81 212 153 393 72 182 151 400 177 485 25 85 66 221 90 302 25 82 45 155
45 163 0 19 0 19 -195 -16z"/>
<path d="M2262 10364 c6 -32 97 -338 157 -529 21 -66 101 -280 178 -475 77
-195 143 -363 147 -373 7 -21 -18 -48 312 338 233 271 684 828 684 844 0 4
-51 13 -112 20 -258 28 -1254 174 -1345 197 -24 6 -25 5 -21 -22z"/>
<path d="M11941 10318 c0 -4 -19 -70 -42 -145 -22 -76 -56 -192 -75 -258 -20
-66 -105 -297 -190 -513 -86 -216 -154 -401 -152 -410 3 -19 319 -185 330
-174 9 9 71 415 97 632 36 298 57 708 42 815 -5 33 -9 57 -10 53z"/>
<path d="M2259 10225 c-4 -113 1 -329 12 -480 17 -247 112 -941 131 -961 4 -3
81 33 172 81 l165 86 -13 42 c-8 23 -80 209 -161 412 -109 274 -164 431 -215
605 -89 304 -88 303 -91 215z"/>
<path d="M10295 10174 c-317 -53 -719 -125 -724 -129 -13 -13 146 -114 257
-163 154 -68 1050 -558 1312 -717 74 -45 173 -101 219 -125 l85 -42 -51 58
c-27 33 -144 167 -258 299 -114 132 -312 371 -440 530 -127 160 -238 295 -246
301 -10 8 -51 5 -154 -12z"/>
<path d="M3743 10137 c-17 -18 -127 -153 -245 -302 -118 -148 -328 -401 -466
-562 -139 -161 -252 -295 -252 -298 0 -9 152 74 310 170 264 161 1164 655
1294 710 89 39 219 117 244 147 11 14 10 17 -5 22 -10 3 -193 35 -408 71 -214
35 -402 67 -416 69 -20 4 -33 -3 -56 -27z"/>
<path d="M6400 9893 c-122 -125 -204 -215 -735 -808 -143 -159 -298 -330 -345
-380 -115 -122 -244 -264 -445 -490 -92 -104 -280 -311 -416 -460 -176 -193
-386 -441 -729 -865 -266 -327 -687 -847 -937 -1156 -342 -422 -506 -634 -662
-855 -488 -693 -525 -753 -754 -1216 -57 -114 -123 -255 -147 -313 -24 -58
-203 -467 -397 -909 -194 -443 -351 -806 -349 -808 4 -4 23 38 406 867 164
355 339 733 390 840 51 107 123 265 162 350 116 260 80 206 713 1060 116 157
238 323 270 370 33 47 123 166 200 265 78 99 442 565 809 1036 540 694 703
896 858 1065 105 115 264 290 352 389 89 99 221 245 294 324 73 79 192 211
264 295 124 144 233 262 554 601 78 83 164 175 190 206 185 215 541 589 560
589 6 0 61 -78 123 -172 61 -95 120 -184 130 -197 l19 -25 21 43 22 42 -124
192 c-69 106 -136 205 -149 220 l-23 28 -125 -128z"/>
<path d="M7698 10003 c-9 -10 -44 -60 -78 -112 -34 -52 -97 -145 -141 -207
l-79 -113 17 -45 c10 -25 21 -46 25 -46 11 0 76 90 183 258 54 83 104 152 110
152 18 0 403 -405 567 -598 40 -47 60 -69 258 -277 215 -226 378 -404 493
-537 64 -76 177 -202 250 -280 73 -79 203 -222 289 -318 86 -96 233 -258 327
-360 147 -159 382 -444 581 -704 30 -40 307 -395 615 -790 591 -757 604 -774
798 -1041 68 -93 266 -363 441 -599 309 -418 350 -481 426 -656 18 -41 99
-217 180 -390 81 -173 284 -610 450 -970 272 -590 360 -775 347 -730 -3 8
-162 373 -354 810 -192 437 -369 842 -393 900 -128 305 -380 777 -533 1000
-405 590 -587 839 -889 1210 -171 212 -601 743 -955 1180 -355 437 -657 804
-672 815 -15 11 -196 209 -401 440 -418 471 -519 582 -635 705 -44 47 -159
173 -255 280 -545 606 -807 894 -877 963 -75 74 -80 77 -95 60z"/>
<path d="M6409 9783 c-95 -99 -358 -385 -433 -472 -26 -31 -110 -121 -185
-201 -314 -331 -489 -520 -564 -610 -44 -52 -166 -189 -272 -305 -105 -115
-275 -302 -376 -415 -101 -113 -244 -270 -316 -349 -73 -79 -133 -147 -133
-152 0 -4 74 -75 165 -156 131 -120 201 -173 347 -268 101 -66 247 -164 325
-218 140 -96 229 -144 308 -166 22 -6 104 -20 183 -31 79 -11 187 -30 239 -40
53 -11 98 -19 100 -16 2 2 28 147 58 322 77 454 240 1260 280 1378 25 75 350
790 529 1164 59 123 106 227 104 230 -14 30 -260 392 -266 392 -5 0 -47 -39
-93 -87z"/>
<path d="M7603 9678 c-71 -105 -135 -202 -143 -214 -14 -22 -11 -30 42 -132
31 -59 92 -189 136 -288 44 -98 116 -254 160 -345 44 -91 99 -209 121 -261 22
-53 65 -150 95 -215 30 -66 66 -164 80 -219 26 -99 116 -561 242 -1234 36
-195 69 -358 72 -362 4 -3 70 6 147 22 77 15 185 33 239 40 105 12 205 39 271
72 22 11 103 64 180 118 77 53 226 153 330 222 152 99 223 154 353 272 101 92
159 152 155 159 -4 7 -102 116 -218 242 -115 127 -266 293 -335 370 -68 77
-179 199 -245 270 -67 72 -181 200 -255 285 -127 148 -251 281 -581 630 -81
85 -167 178 -191 207 -126 150 -505 553 -520 553 -4 0 -65 -86 -135 -192z"/>
<path d="M6825 9557 c-33 -72 -110 -237 -171 -366 l-113 -234 87 -52 c111 -66
440 -245 453 -245 19 0 7 91 -41 325 -27 132 -70 345 -96 473 -26 127 -50 232
-53 232 -3 0 -33 -60 -66 -133z"/>
<path d="M7306 9663 c-3 -10 -15 -70 -26 -133 -12 -63 -55 -260 -96 -438 -77
-336 -94 -432 -77 -432 8 0 552 266 560 274 5 4 -143 330 -180 396 -20 36 -52
108 -72 160 -36 94 -76 174 -94 185 -5 3 -12 -3 -15 -12z"/>
<path d="M7197 9585 l-87 -84 1 -323 c0 -178 2 -318 5 -313 20 50 179 793 172
801 -2 2 -43 -34 -91 -81z"/>
<path d="M10274 9613 c53 -99 97 -147 207 -227 63 -46 313 -241 557 -434 244
-194 447 -352 452 -352 13 0 13 -3 -10 146 -11 71 -20 150 -20 176 l0 48 -72
36 c-40 20 -154 85 -253 144 -139 83 -692 393 -853 479 -23 12 -23 12 -8 -16z"/>
<path d="M3580 9407 c-201 -112 -429 -242 -507 -290 -79 -48 -183 -107 -232
-131 -71 -36 -88 -49 -85 -63 5 -16 -25 -247 -43 -335 l-6 -33 29 19 c16 11
49 36 74 56 202 166 819 654 914 722 103 75 124 96 173 168 30 45 53 83 51 86
-2 2 -168 -88 -368 -199z"/>
<path d="M10374 9398 c4 -24 58 -225 121 -448 63 -223 141 -502 174 -620 33
-118 63 -214 68 -213 4 1 145 81 313 178 168 97 338 194 378 216 39 22 72 47
72 55 0 8 -4 14 -9 14 -5 0 -209 158 -453 352 -413 328 -648 508 -664 508 -4
0 -4 -19 0 -42z"/>
<path d="M3720 9331 c-58 -42 -298 -232 -535 -420 -236 -189 -440 -348 -452
-354 -13 -6 -23 -15 -23 -21 0 -6 60 -45 133 -86 72 -41 247 -141 387 -222
140 -81 255 -146 256 -145 1 1 34 121 74 267 39 146 119 431 176 634 97 342
116 427 97 425 -5 0 -55 -35 -113 -78z"/>
<path d="M11474 8893 c4 -38 15 -115 25 -173 l17 -105 27 90 c15 50 36 113 46
141 l18 51 -64 32 c-35 17 -66 31 -69 31 -4 0 -3 -30 0 -67z"/>
<path d="M2667 8897 c-39 -22 -56 -37 -53 -47 3 -8 22 -70 42 -137 21 -68 39
-122 40 -120 2 2 12 60 24 130 21 131 25 207 13 207 -5 -1 -34 -15 -66 -33z"/>
<path d="M6526 8922 c-11 -18 -316 -692 -352 -776 -18 -44 -31 -83 -28 -87 2
-4 86 -76 187 -160 100 -84 186 -156 191 -160 5 -5 7 -11 4 -14 -3 -3 -92 67
-198 155 -105 89 -193 160 -195 158 -11 -10 -217 -1042 -260 -1297 -38 -227
-40 -240 -26 -225 6 5 138 239 294 521 331 593 365 653 376 653 4 0 15 17 23
38 8 21 106 186 217 366 176 284 201 329 190 344 -8 9 -41 49 -74 87 -63 72
-312 368 -331 394 -7 9 -13 10 -18 3z"/>
<path d="M6570 8914 c8 -10 81 -98 162 -194 80 -96 166 -198 190 -227 23 -28
45 -52 48 -52 7 -1 123 189 119 193 -2 1 -87 47 -189 101 -102 54 -214 117
-250 140 -101 64 -98 62 -80 39z"/>
<path d="M7380 8775 c-146 -74 -269 -136 -274 -138 -9 -3 124 -208 134 -206
13 1 410 462 410 475 0 5 24 17 -270 -131z"/>
<path d="M7608 8828 c-35 -46 -128 -153 -205 -239 -77 -86 -143 -161 -147
-167 -4 -7 20 -51 52 -99 61 -91 319 -509 342 -553 7 -14 14 -26 15 -28 8 -9
61 30 182 134 73 62 153 125 178 139 38 23 45 31 39 49 -21 73 -375 846 -387
846 -2 0 -33 -37 -69 -82z"/>
<path d="M7035 8509 l-49 -81 48 -321 c27 -177 50 -324 52 -326 2 -2 5 101 5
230 1 255 -1 573 -5 576 -1 2 -24 -34 -51 -78z"/>
<path d="M7108 8204 c-3 -434 -1 -585 11 -597 8 -8 364 70 466 102 40 13 60
24 59 34 -1 14 -206 352 -338 556 -49 77 -61 90 -67 75 -8 -20 -53 -273 -90
-511 -12 -79 -26 -143 -30 -143 -5 0 -6 12 -3 28 2 15 22 135 44 267 22 132
46 275 54 319 l15 78 -59 86 -60 85 -2 -379z"/>
<path d="M11195 8361 c-159 -92 -325 -187 -367 -212 l-77 -44 57 -66 c32 -35
127 -151 212 -257 100 -125 156 -188 161 -180 23 42 314 917 307 923 -2 2
-133 -72 -293 -164z"/>
<path d="M2736 8448 c41 -142 297 -883 305 -883 3 0 79 92 169 205 90 113 184
227 209 253 26 28 41 51 35 56 -8 8 -657 381 -711 410 l-22 11 15 -52z"/>
<path d="M6763 8071 c-112 -180 -203 -333 -203 -339 0 -5 30 -17 68 -26 124
-29 461 -106 467 -106 8 0 -5 121 -15 140 -4 8 -29 160 -56 338 -26 177 -50
322 -53 322 -4 -1 -97 -148 -208 -329z"/>
<path d="M10740 8079 c0 -33 49 -182 67 -201 10 -11 56 -50 103 -86 47 -36
113 -89 147 -119 33 -29 64 -53 68 -53 6 0 -284 361 -350 434 -20 22 -35 33
-35 25z"/>
<path d="M3434 8018 c-22 -24 -104 -124 -183 -223 -79 -99 -151 -189 -160
-200 -9 -10 2 -4 24 14 22 18 99 80 172 138 72 58 135 112 138 122 12 29 54
185 51 188 -2 2 -21 -16 -42 -39z"/>
<path d="M8030 8000 c-19 -10 -102 -75 -183 -144 -82 -69 -152 -126 -158 -126
-12 0 -12 -27 0 -32 9 -3 116 -197 416 -753 202 -374 269 -495 272 -491 1 1
-45 254 -103 562 -187 982 -191 1004 -202 1004 -4 -1 -23 -9 -42 -20z"/>
<path d="M10777 7853 c-3 -5 -12 -48 -21 -95 -8 -48 -53 -233 -100 -412 -47
-178 -86 -331 -86 -340 0 -9 5 -16 11 -16 6 0 140 128 297 284 l285 284 -69
62 c-75 68 -277 228 -299 236 -7 3 -15 1 -18 -3z"/>
<path d="M3290 7731 c-74 -60 -157 -129 -184 -153 l-50 -44 33 -42 c45 -55
538 -532 551 -532 5 0 10 5 10 11 0 6 -40 163 -89 348 -50 185 -95 366 -101
403 -9 61 -25 119 -32 118 -2 -1 -64 -50 -138 -109z"/>
<path d="M10463 7582 c-155 -125 -283 -230 -283 -233 0 -7 367 -339 375 -339
3 0 5 7 5 16 0 8 40 169 89 357 78 300 108 428 99 427 -2 0 -130 -103 -285
-228z"/>
<path d="M3470 7761 c0 -34 27 -147 113 -469 l83 -312 186 167 c103 93 187
170 187 173 0 3 -128 108 -284 233 -213 170 -285 223 -285 208z"/>
<path d="M6545 7692 c-3 -8 -2 -18 3 -21 13 -9 141 -343 290 -756 155 -429
240 -657 250 -667 4 -4 8 297 10 668 3 639 3 674 -14 674 -10 0 -126 25 -258
55 -133 30 -249 57 -258 59 -9 2 -19 -3 -23 -12z"/>
<path d="M7560 7688 c-36 -11 -150 -40 -255 -63 l-190 -42 -3 -679 c-1 -397 2
-674 7 -669 5 6 102 266 215 578 218 601 310 843 327 863 14 17 3 34 -19 33
-9 0 -46 -10 -82 -21z"/>
<path d="M6452 7557 c-35 -62 -179 -319 -319 -572 -141 -253 -266 -471 -279
-485 -25 -28 -44 -113 -27 -123 6 -4 129 -26 274 -51 145 -25 278 -48 295 -51
24 -6 33 -3 38 11 4 10 11 108 16 218 11 232 56 904 70 1050 6 55 7 103 3 107
-5 5 -37 -42 -71 -104z"/>
<path d="M7687 7623 c2 -27 12 -185 24 -353 40 -602 68 -993 72 -997 3 -2 78
12 168 32 90 20 223 48 294 62 72 15 132 28 135 30 2 2 -4 19 -14 36 -15 27
-563 1035 -646 1189 -14 26 -28 48 -31 48 -3 0 -4 -21 -2 -47z"/>
<path d="M7606 7509 c-32 -85 -150 -405 -262 -711 -112 -307 -211 -569 -220
-583 l-16 -25 43 0 c40 0 501 52 577 65 30 6 32 8 32 47 0 49 -76 1168 -87
1282 l-8 79 -59 -154z"/>
<path d="M6540 7629 c0 -13 -4 -71 -10 -129 -14 -152 -58 -831 -65 -995 -3
-77 -8 -165 -10 -195 l-5 -55 37 -2 c62 -5 311 -33 413 -48 183 -26 190 -27
190 -7 0 10 -4 22 -9 27 -11 11 -150 384 -286 765 -87 244 -241 649 -250 659
-3 2 -5 -7 -5 -20z"/>
<path d="M10211 7285 c9 -11 76 -94 149 -185 73 -91 134 -167 136 -169 5 -6
54 40 54 50 0 6 -273 258 -330 304 l-25 20 16 -20z"/>
<path d="M10106 7269 c-11 -30 -136 -600 -136 -617 0 -10 12 -32 28 -49 l27
-31 202 146 c111 81 202 150 202 154 1 8 -264 351 -301 392 -14 15 -18 16 -22
5z"/>
<path d="M3840 7118 c-91 -83 -166 -156 -168 -162 -1 -7 8 -22 21 -34 l24 -23
147 182 c81 99 146 182 144 184 -1 1 -77 -65 -168 -147z"/>
<path d="M9920 7126 c-128 -118 -158 -152 -174 -192 -11 -27 -66 -146 -123
-264 -112 -231 -197 -420 -191 -425 2 -2 491 376 515 399 2 1 32 133 68 292
35 159 67 299 70 312 3 12 2 22 -2 22 -5 0 -78 -65 -163 -144z"/>
<path d="M3945 7054 c-82 -107 -151 -200 -152 -207 -2 -11 374 -289 400 -295
7 -1 23 14 36 33 l24 36 -67 297 c-77 339 -75 332 -84 331 -4 0 -74 -88 -157
-195z"/>
<path d="M4130 7233 c1 -27 140 -617 148 -622 12 -9 386 -302 456 -357 51 -42
58 -45 51 -23 -9 30 -90 206 -233 504 l-109 230 -149 137 c-141 130 -164 148
-164 131z"/>
<path d="M9470 6792 c-146 -97 -283 -191 -306 -207 -22 -17 -60 -39 -82 -49
-23 -11 -42 -22 -42 -27 0 -4 66 -56 148 -116 240 -178 217 -168 242 -103 7
19 80 176 162 349 82 172 148 317 146 322 -2 5 -122 -71 -268 -169z"/>
<path d="M4509 6859 c21 -46 80 -169 131 -274 51 -104 110 -230 131 -280 23
-53 43 -89 51 -87 17 5 357 255 358 264 0 3 -20 16 -44 28 -25 11 -80 46 -123
77 -92 67 -509 342 -529 350 -9 3 1 -27 25 -78z"/>
<path d="M9705 6435 c-137 -108 -260 -206 -273 -219 -17 -16 -33 -63 -61 -177
-21 -85 -41 -174 -44 -199 l-5 -45 81 85 c101 106 436 477 528 586 38 45 69
88 69 95 0 8 -10 27 -23 42 l-22 28 -250 -196z"/>
<path d="M4233 6565 l-23 -35 88 -102 c189 -220 583 -648 596 -648 6 0 -16
119 -40 215 -44 179 -47 184 -122 242 -37 28 -157 121 -266 207 -109 86 -202
156 -205 156 -3 0 -16 -16 -28 -35z"/>
<path d="M8951 6484 c-25 -7 -97 -21 -160 -29 -115 -15 -338 -58 -346 -67 -3
-3 48 -10 113 -16 65 -7 277 -43 471 -82 195 -39 355 -69 357 -67 5 5 -360
270 -376 273 -8 1 -35 -4 -59 -12z"/>
<path d="M5017 6338 c-99 -73 -174 -134 -169 -136 6 -2 169 28 364 67 194 38
400 74 457 80 58 6 106 13 108 15 6 5 -256 55 -352 66 -49 6 -115 18 -146 25
-31 8 -63 15 -70 15 -8 0 -94 -60 -192 -132z"/>
<path d="M8235 6350 c-71 -15 -200 -42 -285 -60 -85 -17 -162 -35 -170 -40 -8
-4 -58 -85 -111 -181 -147 -267 -403 -702 -484 -821 -41 -60 -64 -102 -54 -94
37 25 1243 1216 1237 1221 -2 2 -61 -9 -133 -25z"/>
<path d="M8398 6356 c-6 -15 -9 -28 -7 -30 2 -2 171 -106 374 -231 309 -190
532 -315 540 -303 1 2 7 37 13 78 7 41 27 133 46 204 21 83 29 129 22 131 -63
19 -758 146 -845 155 -63 6 -118 13 -123 16 -4 3 -13 -6 -20 -20z"/>
<path d="M5840 6350 c0 -4 37 -42 83 -85 45 -43 294 -287 552 -544 587 -581
602 -596 582 -555 -37 72 -252 452 -429 757 -139 238 -197 329 -212 333 -63
16 -576 99 -576 94z"/>
<path d="M5660 6334 c-83 -9 -824 -149 -836 -158 -1 -1 16 -68 37 -151 21 -82
41 -175 45 -207 l6 -56 92 43 c66 31 786 464 815 491 2 2 1 15 -3 29 -4 15
-13 25 -24 24 -9 -1 -69 -8 -132 -15z"/>
<path d="M7889 5873 c-267 -263 -551 -542 -630 -620 l-146 -142 336 -3 c185
-2 361 -1 391 2 l55 5 201 500 c180 450 289 735 280 735 -1 0 -221 -215 -487
-477z"/>
<path d="M5865 6243 c19 -48 128 -322 243 -608 l207 -520 40 -5 c22 -3 190 -4
374 -2 l334 4 -329 330 c-181 181 -458 455 -616 609 l-287 281 34 -89z"/>
<path d="M6472 6218 c29 -44 337 -575 408 -703 40 -71 99 -176 132 -233 32
-56 63 -112 68 -125 5 -13 9 177 9 493 l1 516 -92 11 c-257 33 -505 63 -522
63 -17 0 -17 -2 -4 -22z"/>
<path d="M7475 6210 c-121 -15 -253 -31 -292 -35 l-73 -7 0 -501 0 -501 69
100 c93 135 561 943 561 969 0 8 -24 5 -265 -25z"/>
<path d="M6685 5090 l-199 -5 144 -89 c161 -99 332 -212 399 -263 24 -18 47
-33 51 -33 8 0 20 312 13 357 l-5 32 -102 3 c-55 2 -191 1 -301 -2z"/>
<path d="M7110 4993 c0 -54 -3 -142 -7 -195 l-6 -98 24 0 c13 0 60 26 104 57
44 31 172 119 284 195 l205 138 -302 0 -302 0 0 -97z"/>
<path d="M7615 5008 c-189 -127 -445 -309 -445 -315 0 -7 811 5 818 12 6 6
-231 378 -243 381 -6 2 -64 -34 -130 -78z"/>
<path d="M6433 5068 c-20 -26 -214 -360 -211 -363 2 -2 190 -6 418 -10 l415
-6 -30 26 c-65 57 -548 365 -572 365 -6 0 -15 -6 -20 -12z"/>
<path d="M6470 4673 c0 -5 -74 -116 -165 -248 -90 -132 -165 -243 -165 -246 0
-6 932 -20 938 -14 2 2 -333 312 -510 473 -30 26 -57 42 -73 42 -14 0 -25 -3
-25 -7z"/>
<path d="M6570 4657 c85 -82 521 -477 526 -477 7 0 -5 482 -13 490 -2 3 -125
6 -271 8 l-267 3 25 -24z"/>
<path d="M7109 4673 c-4 -20 4 -489 7 -492 2 -3 21 11 42 31 20 19 105 91 187
161 83 69 190 166 240 216 l90 91 -283 0 c-155 0 -283 -3 -283 -7z"/>
<path d="M7595 4579 c-55 -55 -180 -168 -277 -250 -98 -83 -178 -154 -178
-159 0 -12 909 -14 927 -2 7 5 -44 85 -154 242 -91 129 -167 243 -170 253 -11
38 -48 17 -148 -84z"/>
<path d="M6580 4073 c-36 -43 -134 -158 -219 -256 l-153 -179 233 8 c129 5
327 8 442 6 168 -2 207 0 207 11 0 31 -140 209 -313 400 -104 113 -110 114
-197 10z"/>
<path d="M6824 4032 c100 -112 222 -259 258 -312 16 -24 17 -15 17 203 l1 227
-190 0 -191 0 105 -118z"/>
<path d="M7120 3920 c0 -180 3 -231 12 -228 22 8 385 436 375 443 -1 1 -89 5
-194 9 l-193 7 0 -231z"/>
<path d="M7400 3973 c-74 -91 -165 -199 -202 -238 -38 -40 -68 -76 -68 -80 0
-7 831 3 838 10 2 1 -72 109 -164 239 l-167 236 -51 0 -51 0 -135 -167z"/>
<path d="M6410 3388 c-102 -138 -186 -255 -188 -260 -2 -4 190 -8 427 -7 237
0 431 4 431 8 0 4 -54 79 -121 166 -66 87 -150 201 -186 252 l-66 93 -56 0
-56 0 -185 -252z"/>
<path d="M6739 3623 c12 -22 166 -233 276 -377 l80 -105 3 177 c2 97 0 210 -3
250 l-7 72 -179 0 c-168 0 -179 -1 -170 -17z"/>
<path d="M7110 3395 c0 -135 3 -245 8 -245 13 1 362 467 362 485 0 3 -83 5
-185 5 l-185 0 0 -245z"/>
<path d="M7482 3605 c-12 -19 -96 -134 -187 -254 -91 -121 -165 -222 -165
-225 0 -3 180 -6 400 -6 220 0 400 4 400 8 0 5 -65 121 -143 258 l-144 249
-70 3 -71 3 -20 -36z"/>
<path d="M6940 2960 c85 -82 159 -149 164 -150 5 0 6 30 3 68 -4 37 -7 104 -7
150 l0 82 -157 0 -158 0 155 -150z"/>
<path d="M7120 2964 l0 -146 150 142 c83 78 150 144 150 146 0 2 -67 4 -150 4
l-150 0 0 -146z"/>
<path d="M6685 3032 c-39 -37 -129 -113 -202 -169 -72 -57 -134 -107 -137
-112 -6 -9 30 -30 334 -201 85 -48 200 -115 254 -149 89 -56 156 -85 156 -67
0 4 -29 64 -64 134 -127 252 -221 474 -246 580 -6 28 -15 52 -18 52 -4 0 -39
-31 -77 -68z"/>
<path d="M7277 2946 l-157 -151 0 -220 0 -220 41 73 c38 69 284 660 277 667
-2 1 -74 -65 -161 -149z"/>
<path d="M7450 3074 c-73 -191 -233 -570 -271 -642 -27 -51 -49 -95 -49 -97 0
-15 38 0 88 33 31 21 116 72 187 112 72 40 201 116 289 168 l158 95 -63 55
c-35 31 -120 111 -189 179 -69 68 -129 123 -133 123 -4 0 -12 -12 -17 -26z"/>
<path d="M6790 3071 c0 -25 60 -192 106 -293 90 -202 197 -417 204 -413 5 3 8
96 8 207 l0 203 -159 155 c-88 85 -159 148 -159 141z"/>
<path d="M5824 2659 c-28 -5 -190 -20 -360 -34 -356 -29 -1015 -93 -1021 -99
-2 -2 63 -6 144 -10 470 -22 962 -49 1196 -66 335 -24 537 -35 537 -27 0 7
-210 194 -252 225 -26 19 -43 22 -112 21 -45 -1 -104 -5 -132 -10z"/>
<path d="M8155 2654 c-16 -8 -59 -43 -95 -77 -36 -34 -90 -83 -120 -108 -30
-26 -52 -50 -48 -54 4 -4 135 2 290 14 546 41 1025 72 1292 81 148 5 271 12
274 15 3 3 0 5 -6 5 -6 0 -84 7 -174 15 -90 8 -318 28 -508 45 -190 17 -446
42 -570 55 -263 29 -295 30 -335 9z"/>
<path d="M6541 2513 c-39 -31 -70 -58 -68 -59 2 -2 93 -24 203 -48 109 -25
228 -52 264 -60 35 -8 65 -14 67 -13 3 4 -242 153 -328 201 l-66 36 -72 -57z"/>
<path d="M7425 2474 c-178 -101 -229 -133 -222 -141 3 -2 103 17 223 42 121
25 242 51 271 57 l51 10 -71 64 c-39 35 -73 64 -76 64 -3 0 -82 -43 -176 -96z"/>
<path d="M4430 2508 c0 -12 130 -332 209 -516 51 -117 97 -239 102 -271 8 -43
18 -66 39 -86 l28 -27 84 42 c46 23 135 71 198 105 63 34 347 181 630 325 283
144 530 274 549 288 31 23 33 26 15 33 -10 4 -49 8 -85 8 -37 1 -187 10 -335
21 -252 18 -841 51 -1159 65 -77 3 -170 8 -207 11 -38 3 -68 4 -68 2z"/>
<path d="M9345 2493 c-27 -2 -192 -12 -365 -23 -173 -12 -468 -32 -655 -45
-187 -14 -362 -26 -390 -27 l-49 -3 159 -84 c88 -46 345 -183 570 -304 226
-121 463 -248 528 -283 65 -34 148 -73 185 -85 37 -12 72 -24 78 -26 7 -3 19
18 29 49 10 29 57 145 105 258 85 198 230 559 230 573 0 7 -324 7 -425 0z"/>
<path d="M9703 2275 c-50 -126 -128 -313 -172 -415 -44 -101 -78 -186 -76
-188 5 -5 336 288 341 302 2 6 3 128 2 271 l-3 260 -92 -230z"/>
<path d="M4410 2230 l0 -265 108 -96 c59 -53 131 -118 161 -145 l54 -49 -6 46
c-3 26 -56 161 -116 300 -60 140 -126 299 -146 354 -21 55 -41 104 -46 110 -5
5 -9 -103 -9 -255z"/>
<path d="M6548 2377 c40 -28 180 -120 312 -204 l240 -152 0 138 0 138 -77 16
c-43 9 -177 39 -298 66 -121 28 -227 51 -235 51 -8 0 18 -24 58 -53z"/>
<path d="M7409 2357 l-286 -60 -7 -60 c-3 -33 -6 -94 -6 -135 0 -60 3 -73 14
-69 17 7 566 364 581 378 12 12 30 15 -296 -54z"/>
<path d="M6281 2360 c-29 -22 -88 -57 -130 -78 -912 -462 -1206 -616 -1188
-620 6 -1 154 36 327 83 334 90 865 231 1039 275 58 15 106 31 108 37 5 13
-62 282 -79 318 -6 14 -14 25 -17 25 -3 -1 -30 -19 -60 -40z"/>
<path d="M7846 2357 c-26 -64 -79 -288 -70 -296 16 -15 534 -157 966 -266 229
-58 420 -105 425 -105 4 0 -39 26 -97 56 -58 31 -292 157 -520 279 -228 122
-477 255 -552 294 l-137 72 -15 -34z"/>
<path d="M7228 2079 c-60 -39 -108 -76 -108 -84 0 -7 22 -49 48 -92 27 -43
156 -269 287 -503 246 -440 456 -802 461 -797 8 7 -569 1548 -579 1547 -1 0
-50 -32 -109 -71z"/>
<path d="M6867 2133 c-20 -32 -98 -222 -116 -282 -12 -41 -77 -214 -143 -385
-141 -364 -378 -995 -378 -1004 0 -12 86 141 340 608 303 556 451 820 497 882
l34 47 -106 71 c-107 70 -120 76 -128 63z"/>
<path d="M6396 1988 c-76 -78 -945 -1004 -1007 -1073 l-44 -50 45 36 c25 20
203 157 395 304 193 148 459 359 593 469 134 111 274 218 313 240 63 34 110
79 97 92 -3 2 -66 11 -139 19 -74 8 -147 18 -162 21 -25 5 -36 -2 -91 -58z"/>
<path d="M7595 2014 c-66 -20 -121 -37 -122 -38 -1 -1 114 -96 255 -211 141
-116 412 -338 602 -495 354 -293 394 -324 349 -274 -14 16 -75 85 -135 154
-60 69 -230 260 -379 425 -148 166 -304 340 -345 387 -41 48 -82 87 -90 87 -8
0 -69 -16 -135 -35z"/>
<path d="M7780 2035 c0 -8 12 -21 456 -515 160 -179 337 -379 392 -445 115
-137 211 -235 229 -235 7 0 24 21 37 48 20 40 392 565 478 674 l28 36 -107 36
c-60 19 -289 81 -511 136 -341 85 -925 242 -984 265 -10 4 -18 4 -18 0z"/>
<path d="M6300 1999 c-36 -10 -153 -42 -260 -70 -107 -28 -368 -97 -580 -154
-212 -57 -425 -114 -475 -125 -49 -12 -109 -28 -133 -37 -36 -13 -41 -19 -36
-37 4 -12 12 -24 18 -28 6 -4 18 -13 28 -20 23 -18 392 -525 452 -620 l19 -30
91 98 c130 141 880 940 935 997 52 54 46 57 -59 26z"/>
<path d="M7430 1965 c0 -2 98 -267 219 -587 120 -321 244 -655 275 -743 64
-180 134 -335 150 -335 14 0 54 26 108 71 23 20 156 112 293 204 138 93 261
179 275 191 14 13 34 25 45 27 25 3 45 16 45 27 0 8 -823 691 -1232 1023 -138
112 -178 140 -178 122z"/>
<path d="M7062 1918 c-44 -65 -225 -388 -472 -843 -122 -226 -260 -476 -306
-557 -79 -139 -114 -210 -114 -229 0 -5 30 -9 67 -9 85 0 418 -42 643 -81 96
-16 185 -27 197 -24 l23 5 0 890 c0 490 -2 890 -5 890 -2 0 -17 -19 -33 -42z"/>
<path d="M7110 1065 l0 -886 23 -8 c15 -6 35 -3 62 10 60 27 710 104 761 90
28 -8 43 -7 65 4 28 15 28 15 12 52 -36 87 -119 243 -226 425 -63 106 -219
380 -347 608 -246 441 -325 576 -341 585 -5 4 -9 -323 -9 -880z"/>
<path d="M6687 1895 c-52 -31 -208 -156 -451 -359 -44 -36 -211 -166 -370
-288 -160 -122 -342 -262 -404 -311 l-113 -89 23 -26 c13 -13 37 -31 55 -38
18 -8 85 -51 150 -97 65 -46 192 -134 283 -196 91 -62 191 -131 223 -154 34
-24 61 -37 66 -31 4 5 61 151 126 324 65 173 188 500 275 725 133 347 169 444
205 563 6 19 -5 15 -68 -23z"/>
<path d="M466 1605 c-9 -26 -7 -32 5 -12 6 10 9 21 6 23 -2 3 -7 -2 -11 -11z"/>
<path d="M13760 1611 c0 -6 4 -13 10 -16 6 -3 7 1 4 9 -7 18 -14 21 -14 7z"/>
<path d="M9160 1245 c-269 -373 -281 -391 -242 -379 127 43 342 132 361 149
21 20 29 52 63 252 21 125 37 239 36 252 -2 19 -48 -38 -218 -274z"/>
<path d="M4864 1286 c49 -290 45 -282 175 -322 47 -14 124 -41 170 -60 47 -19
89 -34 94 -34 17 0 0 35 -51 105 -29 39 -129 176 -223 305 -159 218 -184 249
-200 250 -3 0 13 -110 35 -244z"/>
<path d="M8760 756 c-14 -13 -146 -105 -295 -206 -255 -172 -330 -228 -321
-238 5 -4 338 53 398 69 34 9 44 21 149 197 62 103 114 190 116 195 9 17 -24
5 -47 -17z"/>
<path d="M5420 763 c1 -5 47 -91 104 -193 l103 -185 204 -37 c112 -21 215 -36
229 -35 21 2 11 12 -65 68 -50 37 -110 79 -135 94 -25 15 -131 88 -236 161
-105 74 -194 134 -198 134 -3 0 -6 -3 -6 -7z"/>
<path d="M6220 262 c0 -5 24 -22 53 -37 28 -16 108 -62 177 -103 83 -50 138
-76 165 -79 52 -6 416 111 375 121 -100 24 -680 106 -747 106 -13 0 -23 -4
-23 -8z"/>
<path d="M7565 225 c-346 -43 -349 -44 -369 -58 -13 -10 18 -23 186 -75 112
-34 207 -63 212 -62 14 0 376 214 376 223 0 14 -139 5 -405 -28z"/>
</g>
</svg>
