<?xml version="1.0" encoding="utf-8"?>
<!-- Generator: Adobe Illustrator 21.0.2, SVG Export Plug-In . SVG Version: 6.00 Build 0)  -->
<svg version="1.1" id="Ebene_4" xmlns="http://www.w3.org/2000/svg" xmlns:xlink="http://www.w3.org/1999/xlink" x="0px" y="0px"
	 viewBox="0 0 544.1 424.1" style="enable-background:new 0 0 544.1 424.1;" xml:space="preserve">
<style type="text/css">
	.st0{fill:#000000;}
	.st1{fill:#97BF0D;}
</style>
<g>
	<g>
		<path class="st0" d="M3.5,399.8h7c5.3,0,8.5,3,8.5,7.8c0,6.7-4.4,11-10.8,11H0L3.5,399.8z M8.2,415.6c4.7,0,7.5-3.4,7.5-7.9
			c0-3.1-1.9-5-5.5-5h-4l-2.4,12.9H8.2z"/>
		<path class="st0" d="M34.8,412.4H24.3c0,2.3,1.3,3.5,3.8,3.5c1.5,0,2.9-0.5,3.8-1.5l1.3,2.3c-1.4,1.3-3.4,2-5.4,2
			c-4,0-6.5-2.5-6.5-6.3c0-4.9,3.2-8.4,7.7-8.4c3.7,0,6.1,2.4,6.1,6.3C35,411.1,34.9,411.8,34.8,412.4z M24.5,410.2h7.6
			c0-2.2-1.3-3.4-3.4-3.4C26.6,406.8,25.1,408.1,24.5,410.2z"/>
		<path class="st0" d="M47.4,404.1l-0.6,3.2c-0.3-0.1-0.5-0.1-0.8-0.1c-2.4,0-4.1,1.3-4.6,4.3l-1.3,7.1H37l2.6-14.3h3l-0.3,1.9
			C43.5,404.6,45.2,404.1,47.4,404.1z"/>
		<path class="st0" d="M68.4,414.3h-8.8l-2.5,4.3h-3.5L65,399.8h3.2l4.3,18.8h-3.2L68.4,414.3z M67.8,411.5l-1.8-8.3l-4.8,8.3H67.8z
			"/>
		<path class="st0" d="M75,412.5c0-4.8,3.3-8.4,8-8.4c2.7,0,4.7,1.1,5.7,3.4L86,409c-0.6-1.3-1.7-2-3.3-2c-2.6,0-4.6,2.2-4.6,5.4
			c0,2.2,1.3,3.6,3.5,3.6c1.5,0,2.8-0.6,3.6-2l2.3,1.7c-1.2,2-3.5,3.2-6.1,3.2C77.5,418.8,75,416.3,75,412.5z"/>
		<path class="st0" d="M90.1,412.5c0-4.8,3.3-8.4,8-8.4c2.7,0,4.7,1.1,5.7,3.4l-2.7,1.5c-0.6-1.3-1.7-2-3.3-2
			c-2.6,0-4.6,2.2-4.6,5.4c0,2.2,1.3,3.6,3.5,3.6c1.5,0,2.8-0.6,3.6-2l2.3,1.7c-1.2,2-3.5,3.2-6.1,3.2
			C92.6,418.8,90.1,416.3,90.1,412.5z"/>
		<path class="st0" d="M118.8,412.4h-10.5c0,2.3,1.3,3.5,3.8,3.5c1.5,0,2.9-0.5,3.8-1.5l1.3,2.3c-1.4,1.3-3.4,2-5.4,2
			c-4,0-6.5-2.5-6.5-6.3c0-4.9,3.2-8.4,7.7-8.4c3.7,0,6.1,2.4,6.1,6.3C119,411.1,118.9,411.8,118.8,412.4z M108.5,410.2h7.6
			c0-2.2-1.3-3.4-3.4-3.4C110.6,406.8,109.1,408.1,108.5,410.2z"/>
		<path class="st0" d="M124.6,398.7h3.1l-3.7,19.9h-3.1L124.6,398.7z"/>
		<path class="st0" d="M142.2,412.4h-10.5c0,2.3,1.3,3.5,3.8,3.5c1.5,0,2.9-0.5,3.8-1.5l1.3,2.3c-1.4,1.3-3.4,2-5.4,2
			c-4,0-6.5-2.5-6.5-6.3c0-4.9,3.2-8.4,7.7-8.4c3.7,0,6.1,2.4,6.1,6.3C142.4,411.1,142.4,411.8,142.2,412.4z M132,410.2h7.6
			c0-2.2-1.3-3.4-3.4-3.4C134.1,406.8,132.5,408.1,132,410.2z"/>
		<path class="st0" d="M154.8,404.1l-0.6,3.2c-0.3-0.1-0.5-0.1-0.8-0.1c-2.4,0-4.1,1.3-4.6,4.3l-1.3,7.1h-3.1l2.6-14.3h3l-0.3,1.9
			C150.9,404.6,152.6,404.1,154.8,404.1z"/>
		<path class="st0" d="M171.1,404.3l-2.6,14.3h-3l0.3-1.5c-1.1,1.1-2.6,1.7-4.3,1.7c-3.3,0-5.8-2.3-5.8-6.3c0-4.9,3.2-8.4,7.5-8.4
			c2.1,0,3.6,0.8,4.5,2.3l0.4-2.1H171.1z M166.8,410.5c0-2.2-1.3-3.6-3.5-3.6c-2.6,0-4.6,2.2-4.6,5.4c0,2.2,1.3,3.6,3.5,3.6
			C164.9,415.9,166.8,413.7,166.8,410.5z"/>
		<path class="st0" d="M177.4,413.8c0,0.2,0,0.4,0,0.6c0,1,0.5,1.6,1.6,1.6c0.6,0,1.2-0.2,1.7-0.6l0.5,2.5c-0.9,0.6-2.1,0.9-3.2,0.9
			c-2.3,0-3.8-1.4-3.8-3.8c0-0.3,0-0.7,0.1-1.1l1.3-6.8h-2.2l0.5-2.7h2.2l0.6-3.3h3.1l-0.6,3.3h3.6l-0.5,2.7h-3.6L177.4,413.8z"/>
		<path class="st0" d="M183.7,412.5c0-4.8,3.3-8.4,7.9-8.4c3.9,0,6.5,2.5,6.5,6.3c0,4.8-3.3,8.4-7.9,8.4
			C186.3,418.8,183.7,416.3,183.7,412.5z M195,410.5c0-2.2-1.3-3.6-3.5-3.6c-2.6,0-4.6,2.2-4.6,5.4c0,2.2,1.3,3.6,3.5,3.6
			C193,415.9,195,413.7,195,410.5z"/>
		<path class="st0" d="M210.5,404.1l-0.6,3.2c-0.3-0.1-0.5-0.1-0.8-0.1c-2.4,0-4.1,1.3-4.6,4.3l-1.3,7.1h-3.1l2.6-14.3h3l-0.3,1.9
			C206.6,404.6,208.3,404.1,210.5,404.1z"/>
		<path class="st0" d="M225.2,403.6l-0.1,0.8h3.6l-0.5,2.7h-3.6l-2.1,11.5h-3.1l2.1-11.5h-2.2l0.5-2.7h2.2l0.2-1
			c0.6-3,2.4-4.9,5.3-4.9c1.1,0,2.2,0.3,2.9,0.9l-1.3,2.4c-0.4-0.4-1-0.6-1.6-0.6C226.2,401.2,225.5,402,225.2,403.6z"/>
		<path class="st0" d="M244.2,404.3l-2.7,14.3h-3l0.3-1.6c-1.2,1.2-2.8,1.8-4.5,1.8c-2.9,0-4.8-1.7-4.8-4.9c0-0.5,0-1.1,0.2-1.7
			l1.5-7.9h3.1l-1.5,7.9c-0.1,0.4-0.1,0.8-0.1,1.1c0,1.7,0.9,2.6,2.6,2.6c2.2,0,3.8-1.3,4.3-4.1l1.4-7.4L244.2,404.3L244.2,404.3z
			 M234.6,400.6c0-1.1,0.7-1.8,1.6-1.8c0.8,0,1.4,0.6,1.4,1.5c0,1-0.7,1.8-1.6,1.8C235.2,402,234.6,401.4,234.6,400.6z M239.4,400.6
			c0-1.1,0.7-1.8,1.6-1.8c0.8,0,1.4,0.6,1.4,1.5c0,1-0.8,1.8-1.6,1.8C240,402,239.4,401.4,239.4,400.6z"/>
		<path class="st0" d="M256.5,404.1l-0.6,3.2c-0.3-0.1-0.5-0.1-0.8-0.1c-2.4,0-4.1,1.3-4.6,4.3l-1.3,7.1h-3.1l2.6-14.3h3l-0.3,1.9
			C252.6,404.6,254.2,404.1,256.5,404.1z"/>
		<path class="st0" d="M277.4,414.3h-8.8l-2.5,4.3h-3.5l11.3-18.8h3.2l4.3,18.8h-3.2L277.4,414.3z M276.9,411.5l-1.8-8.3l-4.8,8.3
			H276.9z"/>
		<path class="st0" d="M299.6,404.3l-2.3,12.2c-1,5.3-3.7,7.6-8.2,7.6c-2.6,0-4.7-0.7-6.2-2l1.6-2.5c1,1,2.8,1.6,4.8,1.6
			c2.9,0,4.3-1.4,4.8-4.1l0.1-0.7c-1.1,1-2.6,1.7-4.4,1.7c-3.5,0-5.9-2.3-5.9-5.9c0-4.5,3.2-7.9,7.5-7.9c2,0,3.8,0.8,4.7,2.5
			l0.4-2.4h3.1V404.3z M295.2,410.2c0-2-1.3-3.3-3.5-3.3c-2.7,0-4.6,2-4.6,4.9c0,2,1.3,3.3,3.5,3.3
			C293.3,415.1,295.2,413.1,295.2,410.2z"/>
		<path class="st0" d="M311.8,404.1l-0.6,3.2c-0.3-0.1-0.5-0.1-0.8-0.1c-2.4,0-4.1,1.3-4.6,4.3l-1.3,7.1h-3.1l2.6-14.3h3l-0.3,1.9
			C307.9,404.6,309.6,404.1,311.8,404.1z"/>
		<path class="st0" d="M328.1,404.3l-2.6,14.3h-3l0.3-1.5c-1.1,1.1-2.6,1.7-4.3,1.7c-3.3,0-5.8-2.3-5.8-6.3c0-4.9,3.2-8.4,7.5-8.4
			c2.1,0,3.6,0.8,4.5,2.3l0.4-2.1H328.1z M323.8,410.5c0-2.2-1.3-3.6-3.5-3.6c-2.6,0-4.6,2.2-4.6,5.4c0,2.2,1.3,3.6,3.5,3.6
			C321.9,415.9,323.8,413.7,323.8,410.5z"/>
		<path class="st0" d="M340.3,404.1l-0.6,3.2c-0.3-0.1-0.5-0.1-0.8-0.1c-2.4,0-4.1,1.3-4.6,4.3l-1.3,7.1h-3.1l2.6-14.3h3l-0.3,1.9
			C336.4,404.6,338.1,404.1,340.3,404.1z"/>
		<path class="st0" d="M342.9,416.4c0,0.7-0.2,1.2-0.7,2.1l-2.3,4.2h-2l1.8-4.2c-0.5-0.4-0.9-1-0.9-1.8c0-1.4,1-2.4,2.2-2.4
			C342.1,414.3,342.9,415.2,342.9,416.4z"/>
		<path class="st0" d="M360.4,402.7l-1.1,5.7h8.4l-0.5,3h-8.4l-1.3,7.2h-3.2l3.5-18.8h12.7l-0.5,2.9L360.4,402.7L360.4,402.7z"/>
		<path class="st0" d="M370.2,412.5c0-4.8,3.3-8.4,7.9-8.4c3.9,0,6.5,2.5,6.5,6.3c0,4.8-3.3,8.4-7.9,8.4
			C372.8,418.8,370.2,416.3,370.2,412.5z M381.5,410.5c0-2.2-1.3-3.6-3.5-3.6c-2.6,0-4.6,2.2-4.6,5.4c0,2.2,1.3,3.6,3.5,3.6
			C379.5,415.9,381.5,413.7,381.5,410.5z"/>
		<path class="st0" d="M387,412.5c0-4.8,3.3-8.4,7.9-8.4c3.9,0,6.5,2.5,6.5,6.3c0,4.8-3.3,8.4-7.9,8.4
			C389.5,418.8,387,416.3,387,412.5z M398.2,410.5c0-2.2-1.3-3.6-3.5-3.6c-2.6,0-4.6,2.2-4.6,5.4c0,2.2,1.3,3.6,3.5,3.6
			C396.3,415.9,398.2,413.7,398.2,410.5z"/>
		<path class="st0" d="M420.3,398.7l-3.7,19.9h-3l0.3-1.5c-1.1,1-2.6,1.7-4.3,1.7c-3.3,0-5.8-2.3-5.8-6.3c0-4.9,3.2-8.4,7.5-8.4
			c2.1,0,3.7,0.8,4.5,2.2l1.4-7.7L420.3,398.7L420.3,398.7z M415,410.5c0-2.2-1.3-3.6-3.5-3.6c-2.6,0-4.6,2.2-4.6,5.4
			c0,2.2,1.3,3.6,3.5,3.6C413.1,415.9,415,413.7,415,410.5z"/>
		<path class="st0" d="M442.8,414.6l1.7,2.1l-2.1,2.1l-1.7-2.1c-1.7,1.4-3.7,2.1-5.9,2.1c-3.6,0-5.9-1.8-5.9-4.6
			c0-2.7,1.8-4.5,5.1-6.2c-0.8-1.1-1.2-2.2-1.2-3.4c0-3.2,2.4-5.1,5.5-5.1c2.6,0,4.4,1.3,4.4,3.7c0,2.4-1.6,3.9-4.5,5.4l3,3.8
			c0.6-0.9,1.1-2,1.6-3.2l2.4,0.9C444.5,411.9,443.7,413.4,442.8,414.6z M439.1,414.7l-3.7-4.8c-2.3,1.2-3.4,2.2-3.4,3.8
			c0,1.4,1.1,2.4,3.1,2.4C436.5,416.1,437.9,415.6,439.1,414.7z M435.6,404.4c0,0.7,0.3,1.4,1,2.4c2.6-1.3,3.3-2.1,3.3-3.3
			c0-0.9-0.7-1.6-1.8-1.6C436.6,402,435.6,402.9,435.6,404.4z"/>
		<path class="st0" d="M458.8,399.8h7c5.3,0,8.5,3,8.5,7.8c0,6.7-4.4,11-10.8,11h-8.1L458.8,399.8z M463.5,415.6
			c4.7,0,7.5-3.4,7.5-7.9c0-3.1-1.9-5-5.5-5h-4l-2.4,12.9H463.5z"/>
		<path class="st0" d="M478.9,404.3h3.1l-2.6,14.3h-3.1L478.9,404.3z M479.3,400c0-1.2,0.8-2.1,2.1-2.1c1.1,0,1.9,0.8,1.9,1.8
			c0,1.3-0.8,2.2-2.1,2.2C480,401.9,479.3,401,479.3,400z"/>
		<path class="st0" d="M499.7,404.3l-2.3,12.2c-1,5.3-3.7,7.6-8.2,7.6c-2.6,0-4.7-0.7-6.2-2l1.6-2.5c1,1,2.8,1.6,4.8,1.6
			c2.9,0,4.3-1.4,4.8-4.1l0.1-0.7c-1.1,1-2.6,1.7-4.4,1.7c-3.5,0-5.9-2.3-5.9-5.9c0-4.5,3.2-7.9,7.5-7.9c2,0,3.8,0.8,4.7,2.5
			l0.4-2.4h3.1V404.3z M495.2,410.2c0-2-1.3-3.3-3.5-3.3c-2.7,0-4.6,2-4.6,4.9c0,2,1.3,3.3,3.5,3.3
			C493.4,415.1,495.2,413.1,495.2,410.2z"/>
		<path class="st0" d="M504.2,404.3h3.1l-2.6,14.3h-3.1L504.2,404.3z M504.6,400c0-1.2,0.8-2.1,2.1-2.1c1.1,0,1.9,0.8,1.9,1.8
			c0,1.3-0.8,2.2-2.1,2.2C505.3,401.9,504.6,401,504.6,400z"/>
		<path class="st0" d="M513.5,413.8c0,0.2,0,0.4,0,0.6c0,1,0.5,1.6,1.6,1.6c0.6,0,1.2-0.2,1.7-0.6l0.5,2.5c-0.9,0.6-2.1,0.9-3.2,0.9
			c-2.3,0-3.8-1.4-3.8-3.8c0-0.3,0-0.7,0.1-1.1l1.3-6.8h-2.2l0.5-2.7h2.2l0.6-3.3h3.1l-0.6,3.3h3.6l-0.5,2.7h-3.6L513.5,413.8z"/>
		<path class="st0" d="M535.4,404.3l-2.6,14.3h-3l0.3-1.5c-1.1,1.1-2.6,1.7-4.3,1.7c-3.3,0-5.8-2.3-5.8-6.3c0-4.9,3.2-8.4,7.5-8.4
			c2.1,0,3.6,0.8,4.5,2.3l0.4-2.1H535.4z M531.1,410.5c0-2.2-1.3-3.6-3.5-3.6c-2.6,0-4.6,2.2-4.6,5.4c0,2.2,1.3,3.6,3.5,3.6
			C529.2,415.9,531.1,413.7,531.1,410.5z"/>
		<path class="st0" d="M541,398.7h3.1l-3.7,19.9h-3.1L541,398.7z"/>
	</g>
	<g>
		<path class="st0" d="M2.4,367.9l5.8-12.1c4.5,3.3,11.6,5.4,18.2,5.4c7.1,0,10.2-2.1,10.2-5.6c0-8.1-27.7-1.4-27.7-20.8
			c0-12.9,11-20.2,26.2-20.2c7.3,0,14.6,1.8,19.3,4.8L49,331.7c-4.9-3.3-10.6-4.4-15.4-4.4c-7,0-10.1,2.6-10.1,5.7
			c0,8.4,27.6,1.7,27.6,20.8c0,13.1-11.3,20.1-26.3,20.1C15.5,373.9,6.8,371.3,2.4,367.9z"/>
		<path class="st0" d="M112.2,348.8h-40c0.5,7.8,4.9,11.8,13.5,11.8c5.3,0,10.4-1.9,14-5.3l6.3,11c-6,5.3-13.9,7.7-21.9,7.7
			c-16.3,0-26.7-10.1-26.7-25.7c0-19.2,12.6-33.4,30.8-33.4c15.3,0,24.9,9.9,24.9,25.3C113,343.1,112.7,346.1,112.2,348.8z
			 M73.2,339.1h25.9c0-7.6-4.7-11.9-11.7-11.9C80.2,327.2,75.3,331.9,73.2,339.1z"/>
		<path class="st0" d="M172.6,348.8h-40c0.5,7.8,4.9,11.8,13.5,11.8c5.3,0,10.4-1.9,14-5.3l6.3,11c-6,5.3-13.9,7.7-21.9,7.7
			c-16.3,0-26.7-10.1-26.7-25.7c0-19.2,12.6-33.4,30.8-33.4c15.3,0,24.9,9.9,24.9,25.3C173.5,343.1,173.1,346.1,172.6,348.8z
			 M133.7,339.1h25.9c0-7.6-4.7-11.9-11.7-11.9C140.7,327.2,135.7,331.9,133.7,339.1z"/>
		<path class="st0" d="M124.7,196.2c-0.6,0-1.1-0.2-1.4-0.6c-0.3-0.4-0.5-0.9-0.4-1.5l1.8-10.3c0.2-1.1,1.3-2.1,2.4-2.3l10.8-1.5
			h0.3c0.6,0,1.1,0.2,1.4,0.6c0.3,0.4,0.5,0.9,0.4,1.5l-1.8,10.3c-0.2,1.1-1.3,2.1-2.4,2.3l-10.8,1.5
			C125,196.2,124.8,196.2,124.7,196.2z"/>
		<path class="st0" d="M99.4,199.7c-0.6,0-1.1-0.2-1.4-0.6c-0.3-0.4-0.5-0.9-0.4-1.5l1.8-10.3c0.2-1.1,1.3-2.1,2.4-2.3l10.8-1.5h0.3
			c0.6,0,1.1,0.2,1.4,0.6c0.3,0.4,0.5,0.9,0.4,1.5l-1.8,10.3c-0.2,1.1-1.3,2.1-2.4,2.3l-10.8,1.5C99.6,199.6,99.4,199.7,99.4,199.7z
			"/>
		<path class="st0" d="M192.5,234.6c-0.6,0-1.1-0.2-1.4-0.6c-0.3-0.4-0.5-0.9-0.4-1.5l1.8-10.3c0.2-1.1,1.3-2.1,2.4-2.3l10.8-1.5
			h0.3c0.6,0,1.1,0.2,1.4,0.6c0.3,0.4,0.5,0.9,0.4,1.5l-1.8,10.3c-0.2,1.1-1.3,2.1-2.4,2.3l-10.8,1.5
			C192.7,234.6,192.5,234.6,192.5,234.6z"/>
		<path class="st0" d="M217.8,231.2c-0.6,0-1.1-0.2-1.4-0.6c-0.3-0.4-0.5-0.9-0.4-1.5l1.8-10.3c0.2-1.1,1.3-2.1,2.4-2.3L231,215h0.3
			c0.6,0,1.1,0.2,1.4,0.6c0.3,0.4,0.5,0.9,0.4,1.5l-1.8,10.3c-0.2,1.1-1.3,2.1-2.4,2.3l-10.8,1.5
			C218.1,231.1,217.9,231.2,217.8,231.2z"/>
		<path class="st0" d="M243.2,227.5c-0.6,0-1.1-0.2-1.4-0.6c-0.3-0.4-0.5-0.9-0.4-1.5l1.8-10.3c0.2-1.1,1.3-2.1,2.4-2.3l10.8-1.5
			h0.3c0.6,0,1.1,0.2,1.4,0.6c0.3,0.4,0.5,0.9,0.4,1.5l-1.8,10.3c-0.2,1.1-1.3,2.1-2.4,2.3l-10.8,1.5
			C243.5,227.5,243.2,227.5,243.2,227.5z"/>
		<path class="st0" d="M145.9,217.1c-0.6,0-1.1-0.2-1.4-0.6c-0.3-0.4-0.5-0.9-0.4-1.5l1.8-10.3c0.2-1.1,1.3-2.1,2.4-2.3l10.8-1.5
			h0.3c0.6,0,1.1,0.2,1.4,0.6c0.3,0.4,0.5,0.9,0.4,1.5l-1.8,10.3c-0.2,1.1-1.3,2.1-2.4,2.3l-10.8,1.5H145.9z"/>
		<path class="st0" d="M171.3,213.7c-0.6,0-1.1-0.2-1.4-0.6c-0.3-0.4-0.5-0.9-0.4-1.5l1.8-10.3c0.2-1.1,1.3-2.1,2.4-2.3l10.8-1.5
			h0.3c0.6,0,1.1,0.2,1.4,0.6c0.3,0.4,0.5,0.9,0.4,1.5l-1.8,10.3c-0.2,1.1-1.3,2.1-2.4,2.3l-10.8,1.5H171.3z"/>
		<path class="st0" d="M196.6,210.3c-0.6,0-1.1-0.2-1.4-0.6c-0.3-0.4-0.5-0.9-0.4-1.5l1.8-10.3c0.2-1.1,1.3-2.1,2.4-2.3l10.8-1.5
			h0.3c0.6,0,1.1,0.2,1.4,0.6c0.3,0.4,0.5,0.9,0.4,1.5l-1.8,10.3c-0.2,1.1-1.3,2.1-2.4,2.3l-10.8,1.5
			C196.9,210.3,196.7,210.3,196.6,210.3z"/>
		<path class="st0" d="M222,206.9c-0.6,0-1.1-0.2-1.4-0.6c-0.3-0.4-0.5-0.9-0.4-1.5l1.8-10.3c0.2-1.1,1.3-2.1,2.4-2.3l10.8-1.5h0.3
			c0.6,0,1.1,0.2,1.4,0.6c0.3,0.4,0.5,0.9,0.4,1.5l-1.8,10.3c-0.2,1.1-1.3,2.1-2.4,2.3l-10.8,1.5H222z"/>
		<path class="st0" d="M247.4,203.2c-0.6,0-1.1-0.2-1.4-0.6c-0.3-0.4-0.5-0.9-0.4-1.5l1.8-10.3c0.2-1.1,1.3-2.1,2.4-2.3l10.8-1.5
			h0.3c0.6,0,1.1,0.2,1.4,0.6c0.3,0.4,0.5,0.9,0.4,1.5l-1.8,10.3c-0.2,1.1-1.3,2.1-2.4,2.3l-10.8,1.5H247.4z"/>
		<path class="st0" d="M249.8,260.7c-0.3-0.4-0.8-0.6-1.4-0.6h-0.3l-10.8,1.5c-1.2,0.2-2.2,1.2-2.4,2.3l-10.3,60.3
			c-3-6.3-9.7-9.5-17.3-9.5c-16.1,0-28.8,14.1-28.8,33.4c0,16.3,10.4,25.7,22.5,25.7c6.5,0,11.9-2.5,16-6.6l-1.1,5.8h14.4
			l19.9-110.8C250.2,261.7,250.1,261.1,249.8,260.7z M205.6,360.1c-7.6,0-11.9-4.9-11.9-12.7c0-11.2,6.4-18.9,15.3-18.9
			c7.6,0,11.9,4.9,11.9,12.7C220.9,352.4,214.5,360.1,205.6,360.1z"/>
		<path class="st0" d="M239,252c-0.6,0-1.1-0.2-1.4-0.6c-0.3-0.4-0.5-0.9-0.4-1.5l1.8-10.3c0.2-1.1,1.3-2.1,2.4-2.3l10.8-1.5h0.3
			c0.6,0,1.1,0.2,1.4,0.6c0.3,0.4,0.5,0.9,0.4,1.5l-1.8,10.3c-0.2,1.1-1.3,2.1-2.4,2.3l-10.8,1.5H239z"/>
		<path class="st0" d="M150.1,192.8c-0.6,0-1.1-0.2-1.4-0.6c-0.3-0.4-0.5-0.9-0.4-1.5l1.8-10.3c0.2-1.1,1.3-2.1,2.4-2.3l10.8-1.5
			h0.3c0.6,0,1.1,0.2,1.4,0.6c0.3,0.4,0.5,0.9,0.4,1.5l-1.8,10.3c-0.2,1.1-1.3,2.1-2.4,2.3l-10.8,1.5
			C150.4,192.8,150.1,192.8,150.1,192.8z"/>
		<path class="st0" d="M175.5,189.4c-0.6,0-1.1-0.2-1.4-0.6c-0.3-0.4-0.5-0.9-0.4-1.5l1.8-10.3c0.2-1.1,1.3-2.1,2.4-2.3l10.8-1.5
			h0.3c0.6,0,1.1,0.2,1.4,0.6c0.3,0.4,0.5,0.9,0.4,1.5l-1.8,10.3c-0.2,1.1-1.3,2.1-2.4,2.3l-10.8,1.5
			C175.7,189.4,175.5,189.4,175.5,189.4z"/>
		<path class="st0" d="M200.8,186c-0.6,0-1.1-0.2-1.4-0.6c-0.3-0.4-0.5-0.9-0.4-1.5l1.8-10.3c0.2-1.1,1.3-2.1,2.4-2.3l10.8-1.5h0.3
			c0.6,0,1.1,0.2,1.4,0.6c0.3,0.4,0.5,0.9,0.4,1.5l-1.8,10.3c-0.2,1.1-1.3,2.1-2.4,2.3l-10.8,1.5C201.1,186,200.9,186,200.8,186z"/>
		<path class="st0" d="M226.2,182.6c-0.6,0-1.1-0.2-1.4-0.6c-0.3-0.4-0.5-0.9-0.4-1.5l1.8-10.3c0.2-1.1,1.3-2.1,2.4-2.3l10.8-1.5
			h0.3c0.6,0,1.1,0.2,1.4,0.6c0.3,0.4,0.5,0.9,0.4,1.5l-1.8,10.3c-0.2,1.1-1.3,2.1-2.4,2.3l-10.8,1.5H226.2z"/>
		<path class="st0" d="M154.3,168.5c-0.6,0-1.1-0.2-1.4-0.6c-0.3-0.4-0.5-0.9-0.4-1.5l1.8-10.3c0.2-1.1,1.3-2.1,2.4-2.3l10.8-1.5
			h0.3c0.6,0,1.1,0.2,1.4,0.6c0.3,0.4,0.5,0.9,0.4,1.5l-1.8,10.3c-0.2,1.1-1.3,2.1-2.4,2.3l-10.8,1.5H154.3z"/>
		<path class="st0" d="M179.7,165.1c-0.6,0-1.1-0.2-1.4-0.6c-0.3-0.4-0.5-0.9-0.4-1.5l1.8-10.3c0.2-1.1,1.3-2.1,2.4-2.3l10.8-1.5
			h0.3c0.6,0,1.1,0.2,1.4,0.6c0.3,0.4,0.5,0.9,0.4,1.5l-1.8,10.3c-0.2,1.1-1.3,2.1-2.4,2.3l-10.8,1.5
			C179.9,165.1,179.7,165.1,179.7,165.1z"/>
		<path class="st0" d="M205,161.7c-0.6,0-1.1-0.2-1.4-0.6c-0.3-0.4-0.5-0.9-0.4-1.5l1.8-10.3c0.2-1.1,1.3-2.1,2.4-2.3l10.8-1.5h0.3
			c0.6,0,1.1,0.2,1.4,0.6c0.3,0.4,0.5,0.9,0.4,1.5l-1.8,10.3c-0.2,1.1-1.3,2.1-2.4,2.3l-10.8,1.5C205.3,161.7,205.1,161.7,205,161.7
			z"/>
	</g>
	<g>
		<path class="st1" d="M309.1,348.1c0-19.1,13.2-33.4,31.6-33.4c16,0,26.3,10.1,26.3,25.7c0,19.1-13.1,33.4-31.6,33.4
			C319.5,373.9,309.1,363.6,309.1,348.1z M351.7,341.2c0-7.8-4.3-12.7-11.9-12.7c-8.9,0-15.3,7.7-15.3,18.9
			c0,7.8,4.4,12.7,11.9,12.7C345.3,360.1,351.7,352.4,351.7,341.2z"/>
		<path class="st1" d="M433.1,315.6L422.7,373h-14.4l1.1-6.2c-4.7,4.8-10.7,7-17,7c-11.2,0-18.7-6.8-18.7-19.5
			c0-2.1,0.2-4.5,0.7-6.9l5.7-31.8h15.2l-5.5,30.8c-0.3,1.5-0.4,2.9-0.4,4.2c0,5.8,2.8,9,8.7,9c7.5,0,12.7-4.7,14.6-14.7l5.3-29.2
			L433.1,315.6L433.1,315.6z"/>
		<path class="st1" d="M432.8,367.9l5.8-12.1c4.5,3.3,11.6,5.4,18.2,5.4c7.1,0,10.2-2.1,10.2-5.6c0-8.1-27.7-1.4-27.7-20.8
			c0-12.9,11-20.2,26.2-20.2c7.3,0,14.6,1.8,19.3,4.8l-5.4,12.2c-4.9-3.3-10.6-4.4-15.4-4.4c-7,0-10.1,2.6-10.1,5.7
			c0,8.4,27.6,1.7,27.6,20.8c0,13.1-11.3,20.1-26.3,20.1C445.9,373.9,437.2,371.3,432.8,367.9z"/>
		<path class="st1" d="M542.6,348.8h-40c0.5,7.8,4.9,11.8,13.5,11.8c5.3,0,10.4-1.9,14-5.3l6.3,11c-6,5.3-13.9,7.7-21.9,7.7
			c-16.3,0-26.7-10.1-26.7-25.7c0-19.2,12.6-33.4,30.8-33.4c15.3,0,24.9,9.9,24.9,25.3C543.4,343.1,543,346.1,542.6,348.8z
			 M503.6,339.1h25.9c0-7.6-4.7-11.9-11.7-11.9C510.6,327.2,505.6,331.9,503.6,339.1z"/>
		<path class="st1" d="M283.6,314.7c-5.9,0-11.9,2.1-16.4,6.2l11.2-62.3c0.1-0.6,0-1.1-0.4-1.5c-0.3-0.4-0.8-0.6-1.4-0.6h-0.3
			l-10.8,1.5c-1.2,0.2-2.2,1.2-2.4,2.3L242.8,373H258l5.2-29.2c1.8-10,7.2-14.7,14.9-14.7c6,0,8.9,3.3,8.9,9.2c0,1.2-0.1,2.6-0.4,4
			L281,373h15.2l5.8-31.8c0.5-2.5,0.7-4.7,0.7-6.8C302.7,321.5,295,314.7,283.6,314.7z"/>
		<path class="st1" d="M267.3,248.4c-0.6,0-1.1-0.2-1.4-0.6c-0.3-0.4-0.5-0.9-0.4-1.5l1.8-10.3c0.2-1.1,1.3-2.1,2.4-2.3l10.8-1.5
			h0.3c0.6,0,1.1,0.2,1.4,0.6c0.3,0.4,0.5,0.9,0.4,1.5l-1.8,10.3c-0.2,1.1-1.3,2.1-2.4,2.3l-10.8,1.5
			C267.5,248.4,267.3,248.4,267.3,248.4z"/>
		<path class="st1" d="M271.4,224.2c-0.6,0-1.1-0.2-1.4-0.6c-0.3-0.4-0.5-0.9-0.4-1.5l1.8-10.3c0.2-1.1,1.3-2.1,2.4-2.3l10.8-1.5
			h0.3c0.6,0,1.1,0.2,1.4,0.6c0.3,0.4,0.5,0.9,0.4,1.5l-1.8,10.3c-0.2,1.1-1.3,2.1-2.4,2.3l-10.8,1.5
			C271.7,224.1,271.5,224.2,271.4,224.2z"/>
		<path class="st1" d="M271.6,224.2c-0.6,0-1.1-0.2-1.4-0.6c-0.3-0.4-0.5-0.9-0.4-1.5l1.8-10.3c0.2-1.1,1.3-2.1,2.4-2.3l10.8-1.5
			h0.3c0.6,0,1.1,0.2,1.4,0.6c0.3,0.4,0.5,0.9,0.4,1.5l-1.8,10.3c-0.2,1.1-1.3,2.1-2.4,2.3l-10.8,1.5
			C271.8,224.1,271.6,224.2,271.6,224.2z"/>
		<path class="st1" d="M275.7,199.9c-0.6,0-1.1-0.2-1.4-0.6c-0.3-0.4-0.5-0.9-0.4-1.5l1.8-10.3c0.2-1.1,1.3-2.1,2.4-2.3l10.8-1.5
			h0.3c0.6,0,1.1,0.2,1.4,0.6c0.3,0.4,0.5,0.9,0.4,1.5l-1.8,10.3c-0.2,1.1-1.3,2.1-2.4,2.3l-10.8,1.5
			C276,199.9,275.8,199.9,275.7,199.9z"/>
		<path class="st1" d="M279.9,175.6c-0.6,0-1.1-0.2-1.4-0.6c-0.3-0.4-0.5-0.9-0.4-1.5l1.8-10.3c0.2-1.1,1.3-2.1,2.4-2.3l10.8-1.5
			h0.3c0.6,0,1.1,0.2,1.4,0.6c0.3,0.4,0.5,0.9,0.4,1.5l-1.8,10.3c-0.2,1.1-1.3,2.1-2.4,2.3l-10.8,1.5
			C280.2,175.6,280,175.6,279.9,175.6z"/>
		<path class="st1" d="M284.1,151.3c-0.6,0-1.1-0.2-1.4-0.6c-0.3-0.4-0.5-0.9-0.4-1.5l1.8-10.3c0.2-1.1,1.3-2.1,2.4-2.3l10.8-1.5
			h0.3c0.6,0,1.1,0.2,1.4,0.6c0.3,0.4,0.5,0.9,0.4,1.5l-1.8,10.3c-0.2,1.1-1.3,2.1-2.4,2.3l-10.8,1.5
			C284.4,151.3,284.2,151.3,284.1,151.3z"/>
		<path class="st1" d="M309.5,147.9c-0.6,0-1.1-0.2-1.4-0.6c-0.3-0.4-0.5-0.9-0.4-1.5l1.8-10.3c0.2-1.1,1.3-2.1,2.4-2.3l10.8-1.5
			h0.3c0.6,0,1.1,0.2,1.4,0.6c0.3,0.4,0.5,0.9,0.4,1.5l-1.8,10.3c-0.2,1.1-1.3,2.1-2.4,2.3l-10.8,1.5H309.5z"/>
		<path class="st1" d="M334.9,144.5c-0.6,0-1.1-0.2-1.4-0.6c-0.3-0.4-0.5-0.9-0.4-1.5l1.8-10.3c0.2-1.1,1.3-2.1,2.4-2.3l10.8-1.5
			h0.3c0.6,0,1.1,0.2,1.4,0.6c0.3,0.4,0.5,0.9,0.4,1.5l-1.8,10.3c-0.2,1.1-1.3,2.1-2.4,2.3l-10.8,1.5
			C335.1,144.5,334.9,144.5,334.9,144.5z"/>
		<path class="st1" d="M262.9,130.4c-0.6,0-1.1-0.2-1.4-0.6c-0.3-0.4-0.5-0.9-0.4-1.5l1.8-10.3c0.2-1.1,1.3-2.1,2.4-2.3l10.8-1.5
			h0.3c0.6,0,1.1,0.2,1.4,0.6s0.5,0.9,0.4,1.5l-1.8,10.3c-0.2,1.1-1.3,2.1-2.4,2.3l-10.8,1.5C263.2,130.4,263,130.4,262.9,130.4z"/>
		<path class="st1" d="M288.3,127c-0.6,0-1.1-0.2-1.4-0.6s-0.5-0.9-0.4-1.5l1.8-10.3c0.2-1.1,1.3-2.1,2.4-2.3l10.8-1.5h0.3
			c0.6,0,1.1,0.2,1.4,0.6s0.5,0.9,0.4,1.5l-1.8,10.3c-0.2,1.1-1.3,2.1-2.4,2.3l-10.8,1.5C288.6,127,288.3,127,288.3,127z"/>
		<path class="st1" d="M313.7,123.6c-0.6,0-1.1-0.2-1.4-0.6s-0.5-0.9-0.4-1.5l1.8-10.3c0.2-1.1,1.3-2.1,2.4-2.3l10.8-1.5h0.3
			c0.6,0,1.1,0.2,1.4,0.6s0.5,0.9,0.4,1.5l-1.8,10.3c-0.2,1.1-1.3,2.1-2.4,2.3l-10.8,1.5H313.7z"/>
		<path class="st1" d="M339,120.2c-0.6,0-1.1-0.2-1.4-0.6s-0.5-0.9-0.4-1.5l1.8-10.3c0.2-1.1,1.3-2.1,2.4-2.3l10.8-1.5h0.3
			c0.6,0,1.1,0.2,1.4,0.6s0.5,0.9,0.4,1.5l-1.8,10.3c-0.2,1.1-1.3,2.1-2.4,2.3l-10.8,1.5C339.3,120.2,339.1,120.2,339,120.2z"/>
		<path class="st1" d="M364.4,116.8c-0.6,0-1.1-0.2-1.4-0.6s-0.5-0.9-0.4-1.5l1.8-10.3c0.2-1.1,1.3-2.1,2.4-2.3l10.8-1.5h0.3
			c0.6,0,1.1,0.2,1.4,0.6s0.5,0.9,0.4,1.5l-1.8,10.3c-0.2,1.1-1.3,2.1-2.4,2.3l-10.8,1.5C364.7,116.8,364.4,116.8,364.4,116.8z"/>
		<path class="st1" d="M267.1,106.1c-0.6,0-1.1-0.2-1.4-0.6s-0.5-0.9-0.4-1.5l1.8-10.3c0.2-1.1,1.3-2.1,2.4-2.3l10.8-1.5h0.3
			c0.6,0,1.1,0.2,1.4,0.6s0.5,0.9,0.4,1.5l-1.8,10.3c-0.2,1.1-1.3,2.1-2.4,2.3l-10.8,1.5C267.4,106.1,267.2,106.1,267.1,106.1z"/>
		<path class="st1" d="M292.5,102.7c-0.6,0-1.1-0.2-1.4-0.6s-0.5-0.9-0.4-1.5l1.8-10.3c0.2-1.1,1.3-2.1,2.4-2.3l10.8-1.5h0.3
			c0.6,0,1.1,0.2,1.4,0.6s0.5,0.9,0.4,1.5L306,99c-0.2,1.1-1.3,2.1-2.4,2.3l-10.8,1.5C292.8,102.7,292.5,102.7,292.5,102.7z"/>
		<path class="st1" d="M317.9,99.3c-0.6,0-1.1-0.2-1.4-0.6s-0.5-0.9-0.4-1.5l1.8-10.3c0.2-1.1,1.3-2.1,2.4-2.3l10.8-1.5h0.3
			c0.6,0,1.1,0.2,1.4,0.6s0.5,0.9,0.4,1.5l-1.8,10.3c-0.2,1.1-1.3,2.1-2.4,2.3l-10.8,1.5C318.1,99.3,317.9,99.3,317.9,99.3z"/>
		<path class="st1" d="M343.2,95.9c-0.6,0-1.1-0.2-1.4-0.6s-0.5-0.9-0.4-1.5l1.8-10.3c0.2-1.1,1.3-2.1,2.4-2.3l10.8-1.5h0.3
			c0.6,0,1.1,0.2,1.4,0.6s0.5,0.9,0.4,1.5l-1.8,10.3c-0.2,1.1-1.3,2.1-2.4,2.3l-10.8,1.5C343.5,95.9,343.3,95.9,343.2,95.9z"/>
		<path class="st1" d="M368.6,92.5c-0.6,0-1.1-0.2-1.4-0.6s-0.5-0.9-0.4-1.5l1.8-10.3c0.2-1.1,1.3-2.1,2.4-2.3l10.8-1.5h0.3
			c0.6,0,1.1,0.2,1.4,0.6s0.5,0.9,0.4,1.5l-1.8,10.3c-0.2,1.1-1.3,2.1-2.4,2.3l-10.8,1.5H368.6z"/>
		<path class="st1" d="M394,89.1c-0.6,0-1.1-0.2-1.4-0.6s-0.5-0.9-0.4-1.5l1.8-10.3c0.2-1.1,1.3-2.1,2.4-2.3l10.8-1.5h0.3
			c0.6,0,1.1,0.2,1.4,0.6s0.5,0.9,0.4,1.5l-1.8,10.3c-0.2,1.1-1.3,2.1-2.4,2.3l-10.8,1.5C394.2,89.1,394,89.1,394,89.1z"/>
		<path class="st1" d="M271.3,81.9c-0.6,0-1.1-0.2-1.4-0.6s-0.5-0.9-0.4-1.5l1.8-10.3c0.2-1.1,1.3-2.1,2.4-2.3l10.8-1.5h0.3
			c0.6,0,1.1,0.2,1.4,0.6s0.5,0.9,0.4,1.5l-1.8,10.3c-0.2,1.1-1.3,2.1-2.4,2.3l-10.8,1.5C271.6,81.8,271.4,81.9,271.3,81.9z"/>
		<path class="st1" d="M296.7,78.4c-0.6,0-1.1-0.2-1.4-0.6s-0.5-0.9-0.4-1.5l1.8-10.3c0.2-1.1,1.3-2.1,2.4-2.3l10.8-1.5h0.3
			c0.6,0,1.1,0.2,1.4,0.6c0.3,0.4,0.5,0.9,0.4,1.5l-1.8,10.3c-0.2,1.1-1.3,2.1-2.4,2.3L297,78.4H296.7z"/>
		<path class="st1" d="M322.1,75c-0.6,0-1.1-0.2-1.4-0.6s-0.5-0.9-0.4-1.5l1.8-10.3c0.2-1.1,1.3-2.1,2.4-2.3l10.8-1.5h0.3
			c0.6,0,1.1,0.2,1.4,0.6c0.3,0.4,0.5,0.9,0.4,1.5l-1.8,10.3c-0.2,1.1-1.3,2.1-2.4,2.3L322.4,75C322.3,75,322.1,75,322.1,75z"/>
		<path class="st1" d="M347.4,71.6c-0.6,0-1.1-0.2-1.4-0.6s-0.5-0.9-0.4-1.5l1.8-10.3c0.2-1.1,1.3-2.1,2.4-2.3l10.8-1.5h0.3
			c0.6,0,1.1,0.2,1.4,0.6c0.3,0.4,0.5,0.9,0.4,1.5l-1.8,10.3c-0.2,1.1-1.3,2.1-2.4,2.3l-10.8,1.5C347.7,71.6,347.5,71.6,347.4,71.6z
			"/>
		<path class="st1" d="M372.8,68.2c-0.6,0-1.1-0.2-1.4-0.6s-0.5-0.9-0.4-1.5l1.8-10.3c0.2-1.1,1.3-2.1,2.4-2.3L386,52h0.3
			c0.6,0,1.1,0.2,1.4,0.6c0.3,0.4,0.5,0.9,0.4,1.5l-1.8,10.3c-0.2,1.1-1.3,2.1-2.4,2.3l-10.8,1.5C373.1,68.2,372.8,68.2,372.8,68.2z
			"/>
		<path class="st1" d="M398.2,64.8c-0.6,0-1.1-0.2-1.4-0.6s-0.5-0.9-0.4-1.5l1.8-10.3c0.2-1.1,1.3-2.1,2.4-2.3l10.8-1.5h0.3
			c0.6,0,1.1,0.2,1.4,0.6c0.3,0.4,0.5,0.9,0.4,1.5L411.7,61c-0.2,1.1-1.3,2.1-2.4,2.3l-10.8,1.5C398.4,64.8,398.2,64.8,398.2,64.8z"
			/>
		<path class="st1" d="M300.9,54.2c-0.6,0-1.1-0.2-1.4-0.6c-0.3-0.4-0.5-0.9-0.4-1.5l1.8-10.3c0.2-1.1,1.3-2.1,2.4-2.3l10.8-1.5h0.3
			c0.6,0,1.1,0.2,1.4,0.6c0.3,0.4,0.5,0.9,0.4,1.5l-1.8,10.3c-0.2,1.1-1.3,2.1-2.4,2.3l-10.8,1.5C301.2,54.1,300.9,54.2,300.9,54.2z
			"/>
		<path class="st1" d="M326.2,50.7c-0.6,0-1.1-0.2-1.4-0.6c-0.3-0.4-0.5-0.9-0.4-1.5l1.8-10.3c0.2-1.1,1.3-2.1,2.4-2.3l10.8-1.5h0.3
			c0.6,0,1.1,0.2,1.4,0.6c0.3,0.4,0.5,0.9,0.4,1.5L339.8,47c-0.2,1.1-1.3,2.1-2.4,2.3l-10.8,1.5C326.5,50.7,326.3,50.7,326.2,50.7z"
			/>
		<path class="st1" d="M351.6,47.3c-0.6,0-1.1-0.2-1.4-0.6c-0.3-0.4-0.5-0.9-0.4-1.5l1.8-10.3c0.2-1.1,1.3-2.1,2.4-2.3l10.8-1.5h0.3
			c0.6,0,1.1,0.2,1.4,0.6s0.5,0.9,0.4,1.5l-1.8,10.3c-0.2,1.1-1.3,2.1-2.4,2.3l-10.8,1.5C351.9,47.3,351.6,47.3,351.6,47.3z"/>
		<path class="st1" d="M377,43.9c-0.6,0-1.1-0.2-1.4-0.6c-0.3-0.4-0.5-0.9-0.4-1.5l1.8-10.3c0.2-1.1,1.3-2.1,2.4-2.3l10.8-1.5h0.3
			c0.6,0,1.1,0.2,1.4,0.6s0.5,0.9,0.4,1.5l-1.8,10.3c-0.2,1.1-1.3,2.1-2.4,2.3l-10.8,1.5C377.3,43.9,377,43.9,377,43.9z"/>
		<path class="st1" d="M402.3,40.5c-0.6,0-1.1-0.2-1.4-0.6c-0.3-0.4-0.5-0.9-0.4-1.5l1.8-10.3c0.2-1.1,1.3-2.1,2.4-2.3l10.8-1.5h0.3
			c0.6,0,1.1,0.2,1.4,0.6s0.5,0.9,0.4,1.5l-1.8,10.3c-0.2,1.1-1.3,2.1-2.4,2.3l-10.8,1.5C402.6,40.5,402.4,40.5,402.3,40.5z"/>
		<path class="st1" d="M406.5,16.2c-0.6,0-1.1-0.2-1.4-0.6s-0.5-0.9-0.4-1.5l1.8-10.3c0.2-1.1,1.3-2.1,2.4-2.3L419.8,0h0.3
			c0.6,0,1.1,0.2,1.4,0.6s0.5,0.9,0.4,1.5l-1.8,10.3c-0.2,1.1-1.3,2.1-2.4,2.3l-10.8,1.5C406.8,16.2,406.6,16.2,406.5,16.2z"/>
	</g>
</g>
</svg>
