<svg height="512" viewBox="0 0 48 60" width="512" xmlns="http://www.w3.org/2000/svg"><g id="039---Cigarette-Addiction-Weight" fill="none"><g id="Layer_3" transform="translate(1)"><path id="Shape" d="m44.83 28.83c-1.5642825 1.5597839-4.0957175 1.5597839-5.66 0-.07-.07-.13-.14-.19-.21-.155009-.3535849-.3641867-.6808467-.62-.97-.8352468-1.8439107-.1613167-4.0211495 1.5695721-5.0707533 1.7308888-1.0496037 3.9730594-.6406761 5.2219783.9523856s1.1108542 3.8680317-.3215504 5.2983677z" fill="#ffe0b2"/><path id="Shape" d="m44.83 23.17c-1.1369791-1.1337806-2.8406541-1.480024-4.33-.88 1.5128343.6103264 2.5034674 2.0781919 2.5034674 3.7095s-.9906331 3.0991736-2.5034674 3.7095c1.7645101.7175623 3.7902399.091299 4.8419141-1.496899s.8375027-3.6976808-.5119141-5.042101z" fill="#dfc49c"/><path id="Shape" d="m29.95 41.32c-.5037177.5053752-.698306 1.2417584-.51 1.93l1.42 5.24c.0913274.3391773.1383848.688746.14 1.04v7.35c.0242939 1.0062308-.6743874 1.8858959-1.66 2.09-.5811514.1002551-1.176925-.0610858-1.6280703-.4408962-.4511454-.3798104-.7116678-.9393683-.7119297-1.5291038v-6.45c-.0016061-.3587626-.0982158-.710698-.28-1.02l-2.04-3.4-1.52 5.31c-.1091562.3693879-.267224.7225181-.47 1.05l-3.54 5.55c-.3736464.521209-.9484866.8621273-1.5850406.9400339s-1.2766447-.1143186-1.7649594-.5300339c-.9226572-.7907214-1.06747-2.1642492-.33-3.13l2.86-4.31c.4380214-.65743.6711891-1.4300155.67-2.22v-9.12c-.0035377-.8801372.2887718-1.7359351.83-2.43l4.32-4.32.79-.78.94-.94 3.8-3.76-2.82-2.82c-.3930079-.3899779-1.0269921-.3899779-1.42 0l-2.88 2.88-1.27 1.27c-.6986401.7339867-1.8217734.864388-2.67.31-.4756668-.3456609-.7769144-.8815955-.8249497-1.4676271-.0480354-.5860315.1619195-1.163868.5749497-1.5823729l2.9-2.9 2.76-2.76c.3753304-.3822327.8497351-.6523317 1.37-.78 1.0273071-.2694511 2.1204012.0276268 2.87.78l4.37 4.37c1.1444491-.550796 2.5120062-.318191 3.41.58l2.12 2.12c.07.07.13.14.19.21.2558133.2891533.464991.6164151.62.97.6890361 1.5163328.3663728 3.3009398-.81 4.48z" fill="#02a9f4"/><path id="Shape" d="m32.64 24.74 2.53 2.7c.07.07.13.14.19.21.2558133.2891533.464991.6164151.62.97.6890361 1.5163328.3663728 3.3009398-.81 4.48l-8.22 8.22c-.5037177.5053752-.698306 1.2417584-.51 1.93l1.42 5.24c.0913274.3391773.1383848.688746.14 1.04v7.35c-.0012505.5160191-.1819 1.015545-.511 1.413.4537171.5373311 1.1576696.7948005 1.851.677.9856126-.2041041 1.6842939-1.0837692 1.66-2.09v-7.35c-.0016152-.351254-.0486726-.7008227-.14-1.04l-1.42-5.24c-.188306-.6882416.0062823-1.4246248.51-1.93l8.22-8.22c1.1763728-1.1790602 1.4990361-2.9636672.81-4.48-.155009-.3535849-.3641867-.6808467-.62-.97-.06-.07-.12-.14-.19-.21l-2.12-2.12c-.8979938-.898191-2.2655509-1.130796-3.41-.58" fill="#0377bc"/><path id="Shape" d="m37.39 19.68-4.9 4.91-4.22-4.22c-.7495988-.7523732-1.8426929-1.0494511-2.87-.78l-9.52-9.52 5.95-5.95c.3930079-.38997787 1.0269921-.38997787 1.42 0l2.27 2.28c.2165992.21025872.3205119.51086339.28.81-.004683.146042-.0496756.28794186-.13.41l-1.32 2.19c-.2308301.3973814-.1695668.8997402.15 1.23l1.57 1.57 2.83 2.82 1.57 1.57c.3219296.3283807.8281118.3906162 1.22.15l2.2-1.31c.1220581-.0803244.263958-.125317.41-.13.2989573-.0387344.5987846.0649096.81.28l2.28 2.27c.3899779.3930079.3899779 1.0269921 0 1.42z" fill="#ffdc00"/><path id="Shape" d="m25.4 19.59c-.5202649.1276683-.9946696.3977673-1.37.78l-2.76 2.76-.35-1.19c-.1906673-.6505778-.6994222-1.1593327-1.35-1.35l-10.98-3.23 7.29-7.29z" fill="#673ab7"/><path id="Shape" d="m24.15 32.91v.01l-4.32 4.32-1.57 1.58h-.01v-.01l-15.55-15.55 5.89-5.9 10.98 3.23c.6505778.1906673 1.1593327.6994222 1.35 1.35l.35 1.19-2.9 2.9c-.4130302.4185049-.6229851.9963414-.5749497 1.5823729.0480353.5860316.3492829 1.1219662.8249497 1.4676271.8482266.554388 1.9713599.4239867 2.67-.31l1.27-1.27z" fill="#9d27b0"/><path id="Shape" d="m18.25 38.81v.01l-2.11 2.11c-.7861438.7701483-2.0438562.7701483-2.83 0l-12.73-12.73c-.77014827-.7861438-.77014827-2.0438562 0-2.83l2.12-2.11z" fill="#ffdc00"/><path id="Shape" d="m2.7 23.26-.01-.01" fill="#ffdc00"/><path id="Shape" d="m29.68 27.44-3.8 3.76-.94.94-.79.78v-.01l-1.59-5.41 2.88-2.88c.3930079-.3899779 1.0269921-.3899779 1.42 0z" fill="#673ab7"/><path id="Shape" d="m40.21 15.43-2.82 2.83-2.28-2.27c-.2112154-.2150904-.5110427-.3187344-.81-.28v-.01l3.09-3.09c.3900375-.3877236 1.0199625-.3877236 1.41 0l1.41 1.41c.3877236.3900375.3877236 1.0199625 0 1.41z" fill="#cfd8dc"/><path id="Shape" d="m38.09 10.48-1.41-1.41c-.3930079-.38997787-1.0269921-.38997787-1.42 0 .191781-.18439106.3001659-.43895486.3001659-.705s-.1083849-.52060894-.3001659-.705l-1.41-1.42c-.3900375-.38772359-1.0199625-.38772359-1.41 0 .3802469-.39309163.3802469-1.01690837 0-1.41l-1.42-1.42c-.3900375-.38772359-1.0199625-.38772359-1.41 0l-.71.71c.3877236-.39003745.3877236-1.01996255 0-1.41l-1.41-1.42c-.3930079-.38997787-1.0269921-.38997787-1.42 0l-2.82 2.83 2.27 2.28c.2165992.21025872.3205119.51086339.28.81-.004683.146042-.0496756.28794186-.13.41l-1.32 2.19c-.2308301.3973814-.1695668.8997402.15 1.23l1.57 1.57 2.83 2.82 1.57 1.57c.3219296.3283807.8281118.3906162 1.22.15l2.2-1.31c.1220581-.0803244.263958-.125317.41-.13v-.01l3.09-3.09.7-.71c.3899779-.3930079.3899779-1.0269921 0-1.42z" fill="#f5f5f5"/></g><path id="Shape" d="m38.118 25.974c-.5707416-.6831376-1.3394319-1.1723041-2.2-1.4l3.182-3.187c.5022189-.5066458.6965514-1.2424418.51-1.931l2.316-2.315c.7807639-.7809997.7807639-2.0470003 0-2.828-.4982721-.5678211-1.0399015-1.0960769-1.62-1.58.1987888-.6944522.0076636-1.4421338-.5-1.956-1.51-1.509-1.629-1.735-2.314-1.907-.193-.764-.6-1-1.929-2.335-.2492436-.24730631-.5599106-.42369613-.9-.511-.0876187-.33996218-.2639643-.65055125-.511-.9l-1.423-1.418c-.5127807-.50957939-1.2615808-.70099047-1.956-.5-.4889633-.57356645-1.0143857-1.11502206-1.573-1.621-.78397-.78113283-2.05203-.78113283-2.836 0l-2.32 2.328c-.6821571-.17506034-1.4063715.0139309-1.916.5-19.1 19.1 23.26-23.261-21.258 21.258-1.15343662 1.1776115-1.15343662 3.0613885 0 4.239l12.73 12.735c.5642458.5557101 1.3250517.8662138 2.117.864 1.511 0 2.153-.9 3.277-2.022v8.3c.0017131.5928653-.1722763 1.172946-.5 1.667l-2.821 4.257c-.7180331.9485095-.8675232 2.2109674-.390871 3.3009419.4766522 1.0899746 1.5050479 1.8373361 2.688941 1.9541223s2.3384944-.4152316 3.01893-1.3910642c4.626-7.253 3.644-5.169 5.016-9.958.894 1.491.992 1.57.992 1.93v6.453c.000306.8828811.389495 1.7208032 1.0639053 2.2905836.6744104.5697804 1.5655622.8135633 2.4360947.6664164 1.4690713-.2837825 2.5233439-1.5799226 2.502-3.076v-7.35c0-.938-.128-1.131-1.6-6.546-.0930751-.3412895.0034212-.7062972.253-.957l8.221-8.22c.8307855-.8372366 1.3363091-1.9429366 1.426-3.119 1.9594288.7123928 4.1552289.1325581 5.507495-1.4543384 1.3522662-1.5868966 1.5764004-3.8468767.5621724-5.6684711-1.014228-1.8215943-3.0533638-2.8214301-5.1145504-2.507783-2.0611866.313647-3.7106265 1.8747666-4.137117 3.9155925zm.269-8.126-1.417-1.412 2.124-2.123 1.414 1.415zm-4.009-1.867-2.2 1.312-.861-.86 5.656-5.655 1.415 1.413c-4.8 4.797-3.259 3.329-4.01 3.79zm-4.478-.962-1.416-1.414 5.658-5.656 1.414 1.414zm2.827-8.484-5.657 5.656-.866-.865c.5855735-.8143987 1.0880829-1.68541489 1.5-2.6l3.6-3.6zm-4.948-3.535 1.412 1.417-2.121 2.118-1.409-1.415zm-4.239 2.828c.1.073-.039-.043 2.273 2.276l-1.331 2.208c-.4500405.79072-.3232669 1.7837117.311 2.436 6.837 6.83 5.814 5.813 6.051 6.017.6475007.5884289 1.6023202.6876783 2.357.245l2.199-1.31 2.278 2.275-4.194 4.2-3.512-3.512c-.7484407-.7523629-1.7667723-1.174027-2.828-1.171-.134 0-.263.025-.4.038l-8.459-8.459zm-4.499 25.072c1.28386.8514374 2.9968621.6391169 4.034-.5l.953 3.246-4.771 4.754-14.147-14.146 4.767-4.766 10.411 3.062c.618.18.68.7.854 1.293l-2.481 2.481c-.6222802.6270488-.9385783 1.4952632-.8654694 2.3756482.0731089.8803851.5282834 1.6845349 1.2454694 2.2003518zm6.6 1.143-.955-3.249 2.466-2.463 2.109 2.109zm-2.93-9.767c-.3488431-.7938778-1.0289877-1.3943065-1.86-1.642l-9.363-2.754 5.392-5.391 7.845 7.845c-.7258412.5872173-1.3996725 1.2359556-2.014 1.939zm-7.7 18.954-12.722-12.73c-.38567544-.3947705-.38567544-1.0252295 0-1.42l1.411-1.412 14.143 14.146-1.407 1.408c-.3941847.3861343-1.0241077.3883508-1.421.005zm23.448-7.833-8.221 8.22c-.7582758.7585698-1.051103 1.865739-.767 2.9 1.529 5.635 1.529 5.483 1.529 6.014v7.35c.0200175.5160437-.3248478.9753074-.826 1.1-.2905015.0513324-.5888458-.0282221-.8152195-.217381-.2263737-.189159-.3576759-.4686192-.3587805-.763619 0-6.975.141-7.019-.423-7.984l-2.722-4.531c-.2882766-.4654363-.89723-.6125344-1.3661822-.3300132-.4689522.2825211-.6235406.8896163-.3468178 1.3620132l.456.758c-1.513 5.29-1.434 5.167-1.751 5.678l-3.511 5.505c-.3266432.4525886-.9073064.643771-1.438937.4737675-.5316306-.1700034-.893628-.6626273-.897063-1.2207675 0-.53 0-.386 3.162-5.145.5482123-.8214916.8398949-1.7873859.838-2.775v-9.12c-.0044284-.6375678.2003712-1.2589926.583-1.769l9.1-9.048c.632.631.9 1.027 1.442 1.027.4043959-.0000863.7689341-.2437275.923678-.6173454.1547439-.373618.0692299-.8036603-.216678-1.0896546l-4.259-4.261c-.7834002-.7815671-2.0515998-.7815671-2.835 0l-4.149 4.149c-.3658886.4161466-.9998534.4568886-1.416.091s-.4568886-.9998534-.091-1.416l5.66-5.66c.7914431-.7541589 2.0355569-.7541589 2.827 0l4.371 4.37c.3014636.3012304.7607119.378307 1.144.192.7611684-.363192 1.6685162-.2082301 2.266.387l2.12 2.12c1.1688007 1.175941 1.1656698 3.0759174-.007 4.248zm6.66-4.27c-.5810185.5806427-1.3747089.8976498-2.1958691.8770499-.8211603-.0205999-1.5979572-.3770047-2.1491309-.9860499-.1471898-.2894126-.3223585-.5637208-.523-.819-.6038627-1.3872839-.0801737-3.0071257 1.2215262-3.7783481 1.3016999-.7712225 2.9739768-.4524318 3.9006552.7435924.9266783 1.1960242.8177065 2.8949247-.2541814 3.9627557z" fill="#000" transform="translate(0 -1)"/></g></svg>