<?xml version="1.0" encoding="UTF-8"?>
<svg xmlns="http://www.w3.org/2000/svg" xmlns:xlink="http://www.w3.org/1999/xlink" width="512" height="512" viewBox="0 0 62 60" version="1.1"><!-- Generator: Sketch 51.3 (57544) - http://www.bohemiancoding.com/sketch --><title>062 - Conflict</title><desc>Created with Sketch.</desc><defs/><g id="Page-1" stroke="none" stroke-width="1" fill="none" fill-rule="evenodd"><g id="062---Conflict" fill-rule="nonzero"><path d="M59.213,22.22 C57.943,21.57 56.672,23.5 56.672,23.5 L56.593,23.49 C56.7559709,20.4955491 56.7559709,17.4944509 56.593,14.5 C56,1.64 41.193,1 41.193,1 L38.812,1 C36.0859428,1.20934799 33.4229586,1.92596615 30.96,3.113 C28.5186807,1.94945606 25.8835087,1.24667573 23.187,1.04 L20.807,1.04 C20.807,1.04 6,1.68 5.407,14.54 C5.24402908,17.5344509 5.24402908,20.5355491 5.407,23.53 L5.328,23.54 C5.328,23.54 4.057,21.61 2.787,22.26 C1.528,22.89 2.148,28.68 2.148,28.68 C2.148,28.68 2.778,33.14 6.528,35.08 C6.367,38.8 6.088,42.18 10.148,46.04 C10.6300751,46.4951694 11.0873982,46.9758594 11.518,47.48 L11.518,57 C11.5179862,58.100676 12.4073377,58.9944966 13.508,59 L30.487,59 C30.6832883,58.9960853 30.8778421,58.9623671 31.064,58.9 C31.2109996,58.9359555 31.3616721,58.9547476 31.513,58.956 L48.492,58.956 C49.5926623,58.9504966 50.4820138,58.056676 50.482,56.956 L50.482,47.44 C50.9126018,46.9358594 51.3699249,46.4551694 51.852,46 C55.912,42.14 55.633,38.76 55.472,35.04 C59.222,33.1 59.852,28.64 59.852,28.64 C59.852,28.64 60.472,22.85 59.213,22.22 Z" id="Shape" fill="#B0D3F0"/><path d="M56.59,23.49 C56.27,28.45 55.41,30.02 55.41,33.14 C55.41,33.79 55.43,34.42 55.47,35.04 C55.63,38.76 55.91,42.14 51.85,46 C51.3674124,46.4546547 50.9100622,46.9353732 50.48,47.44 C47.06,51.41 46.6,55 42.37,55 L37.63,55 C33.4,55 32.94,51.41 29.52,47.44 C29.0899378,46.9353732 28.6325876,46.4546547 28.15,46 C24.09,42.14 24.37,38.76 24.53,35.04 C24.57,34.42 24.59,33.79 24.59,33.14 C24.59,30.02 23.73,28.45 23.41,23.49 C23.2465184,20.495563 23.2465184,17.494437 23.41,14.5 C23.95,2.75 36.37,1.2 38.5,1.02 C38.7,1 38.81,1 38.81,1 L41.19,1 C41.19,1 56,1.64 56.59,14.5 C56.7534816,17.494437 56.7534816,20.495563 56.59,23.49 Z" id="Shape" fill="#A4C2F7"/><path d="M53.59,23.49 C53.27,28.45 52.41,30.02 52.41,33.14 C52.41,33.79 52.43,34.42 52.47,35.04 C52.63,38.76 52.91,42.14 48.85,46 C48.3674124,46.4546547 47.9100622,46.9353732 47.48,47.44 C44.06,51.41 43.6,55 39.37,55 L37.63,55 C33.4,55 32.94,51.41 29.52,47.44 C29.0899378,46.9353732 28.6325876,46.4546547 28.15,46 C24.09,42.14 24.37,38.76 24.53,35.04 C24.57,34.42 24.59,33.79 24.59,33.14 C24.59,30.02 23.73,28.45 23.41,23.49 C23.2465184,20.495563 23.2465184,17.494437 23.41,14.5 C23.95,2.75 36.37,1.2 38.5,1.02 C40.63,1.2 53.05,2.75 53.59,14.5 C53.7534816,17.494437 53.7534816,20.495563 53.59,23.49 Z" id="Shape" fill="#E8EDFC"/><path d="M59.852,28.64 C59.852,28.64 59.222,33.1 55.472,35.04 C55.433,34.42 55.412,33.79 55.412,33.14 C55.412,30.02 56.273,28.45 56.593,23.49 L56.672,23.5 C56.672,23.5 57.943,21.57 59.213,22.22 C60.472,22.85 59.852,28.64 59.852,28.64 Z" id="Shape" fill="#A4C2F7"/><path d="M50.482,47.44 L50.482,56.96 C50.4820138,58.060676 49.5926623,58.9544966 48.492,58.96 L31.513,58.96 C30.4123377,58.9544966 29.5229862,58.060676 29.523,56.96 L29.523,47.44 C32.943,51.41 33.403,55 37.633,55 L42.373,55 C46.6,55 47.063,51.41 50.482,47.44 Z" id="Shape" fill="#A4C2F7"/><path d="M6.588,33.18 C6.588,33.83 6.567,34.46 6.528,35.08 C2.778,33.14 2.148,28.68 2.148,28.68 C2.148,28.68 1.528,22.89 2.787,22.26 C4.057,21.61 5.328,23.54 5.328,23.54 L5.407,23.53 C5.727,28.49 6.588,30.06 6.588,33.18 Z" id="Shape" fill="#FFFFFF"/><path d="M38.59,23.53 C38.27,28.49 37.41,30.06 37.41,33.18 C37.41,33.83 37.43,34.46 37.47,35.08 C37.63,38.8 37.91,42.18 33.85,46.04 C33.3674124,46.4946547 32.9100622,46.9753732 32.48,47.48 C29.06,51.45 28.6,55.04 24.37,55.04 L19.63,55.04 C15.4,55.04 14.94,51.45 11.52,47.48 C11.0899378,46.9753732 10.6325876,46.4946547 10.15,46.04 C6.09,42.18 6.37,38.8 6.53,35.08 C6.57,34.46 6.59,33.83 6.59,33.18 C6.59,30.06 5.73,28.49 5.41,23.53 C5.2465184,20.535563 5.2465184,17.534437 5.41,14.54 C5.95,2.79 18.37,1.24 20.5,1.06 C20.7,1.04 20.81,1.04 20.81,1.04 L23.19,1.04 C23.19,1.04 38,1.68 38.59,14.54 C38.7534816,17.534437 38.7534816,20.535563 38.59,23.53 Z" id="Shape" fill="#A4C2F7"/><path d="M35.59,23.53 C35.27,28.49 34.41,30.06 34.41,33.18 C34.41,33.83 34.43,34.46 34.47,35.08 C34.63,38.8 34.91,42.18 30.85,46.04 C30.3674124,46.4946547 29.9100622,46.9753732 29.48,47.48 C26.22,51.26 25.65,54.7 21.94,55.02 L21.93,55.02 C21.75,55.03 21.57,55.04 21.37,55.04 L19.63,55.04 C15.4,55.04 14.94,51.45 11.52,47.48 C11.0899378,46.9753732 10.6325876,46.4946547 10.15,46.04 C6.09,42.18 6.37,38.8 6.53,35.08 C6.57,34.46 6.59,33.83 6.59,33.18 C6.59,30.06 5.73,28.49 5.41,23.53 C5.2465184,20.535563 5.2465184,17.534437 5.41,14.54 C5.95,2.79 18.37,1.24 20.5,1.06 C20.8,1.09 21.29,1.14 21.93,1.24 C25.87,1.87 35.13,4.43 35.59,14.54 C35.7534816,17.534437 35.7534816,20.535563 35.59,23.53 Z" id="Shape" fill="#FFFFFF"/><path d="M35.59,23.53 C35.27,28.49 34.41,30.06 34.41,33.18 C34.41,33.83 34.43,34.46 34.47,35.08 C34.63,38.8 34.91,42.18 30.85,46.04 C30.3674124,46.4946547 29.9100622,46.9753732 29.48,47.48 C26.22,51.26 25.65,54.7 21.94,55.02 L21.93,55.02 C18.22,54.7 17.65,51.26 14.39,47.48 C13.9599378,46.9753732 13.5025876,46.4946547 13.02,46.04 C8.96,42.18 9.24,38.8 9.4,35.08 C9.44,34.46 9.46,33.83 9.46,33.18 C9.46,30.06 8.6,28.49 8.28,23.53 C8.1165184,20.535563 8.1165184,17.534437 8.28,14.54 C8.74,4.43 18,1.87 21.93,1.24 C25.87,1.87 35.13,4.43 35.59,14.54 C35.7534816,17.534437 35.7534816,20.535563 35.59,23.53 Z" id="Shape" fill="#E8EDFC"/><path d="M32.477,47.48 L32.477,57 C32.4770138,58.100676 31.5876623,58.9944966 30.487,59 L13.508,59 C12.4073377,58.9944966 11.5179862,58.100676 11.518,57 L11.518,47.48 C14.937,51.45 15.398,55.04 19.627,55.04 L24.367,55.04 C28.6,55.04 29.057,51.45 32.477,47.48 Z" id="Shape" fill="#A4C2F7"/><path d="M47,11.04 C47.8165702,9.96087108 48.2557788,8.64324528 48.25,7.29 C48.2488961,3.83867766 45.4513223,1.04110389 42,1.04 C41.9132114,1.03814179 41.8263895,1.0414811 41.74,1.05 C41.6831457,1.0480414 41.6262326,1.05138923 41.57,1.06 C41.4863236,1.06128973 41.4028172,1.06797024 41.32,1.08 C41.2694657,1.08173825 41.2192244,1.08843709 41.17,1.1 C40.9406504,1.12788077 40.7134604,1.17131415 40.49,1.23 C38.6901415,1.67405949 37.1827914,2.89901065 36.38,4.57 C36.0746316,5.1918867 35.8784413,5.86163971 35.8,6.55 C34.5058926,5.02090072 32.4205424,4.41776541 30.51,5.02 L30.5,5.02 C28.4151122,5.67263487 26.9969748,7.60535348 27,9.79 C26.9964386,10.2119922 27.0502648,10.6325097 27.16,11.04 L27,11.04 C25.6726954,11.0360001 24.3986004,11.5614997 23.4600501,12.5000501 C22.5214997,13.4386004 21.9960001,14.7126954 22,16.04 C22,18.8014237 24.2385763,21.04 27,21.04 L47,21.04 C48.3273046,21.0439999 49.6013996,20.5185003 50.5399499,19.5799499 C51.4785003,18.6413996 52.0039999,17.3673046 52,16.04 C52,13.2785763 49.7614237,11.04 47,11.04 Z" id="Shape" fill="#7FACFA"/><path d="M44,11.04 C44.8165702,9.96087108 45.2557788,8.64324528 45.25,7.29 C45.2512762,4.41379994 43.2846452,1.91006377 40.49,1.23 C38.6901415,1.67405949 37.1827914,2.89901065 36.38,4.57 C36.0746316,5.1918867 35.8784413,5.86163971 35.8,6.55 C35.131625,5.74951173 34.223628,5.18508116 33.21,4.94 C33.01,5.44 31.41,5.3 30.51,5.02 L30.5,5.02 C28.4151122,5.67263487 26.9969748,7.60535348 27,9.79 C26.9964386,10.2119922 27.0502648,10.6325097 27.16,11.04 L27,11.04 C25.6726954,11.0360001 24.3986004,11.5614997 23.4600501,12.5000501 C22.5214997,13.4386004 21.9960001,14.7126954 22,16.04 C22,18.8014237 24.2385763,21.04 27,21.04 L44,21.04 C45.3273046,21.0439999 46.6013996,20.5185003 47.5399499,19.5799499 C48.4785003,18.6413996 49.0039999,17.3673046 49,16.04 C49,13.2785763 46.7614237,11.04 44,11.04 Z" id="Shape" fill="#A4C2F7"/><path d="M43.96,26.43 L37.65,28.8 C37.260306,28.943745 37.0010774,29.3146413 37,29.73 L37,32.63 C36.9983042,33.0344441 36.7531528,33.3980455 36.3788524,33.5512679 C36.004552,33.7044903 35.5748091,33.6171614 35.29,33.33 L30.04,28.08 C29.8085664,27.844333 29.708434,27.5095864 29.7724423,27.1855442 C29.8364507,26.8615019 30.0563418,26.5899699 30.36,26.46 L34.9,24.51 C35.1722932,24.3931079 35.3781545,24.1607176 35.4613478,23.8763126 C35.5445411,23.5919076 35.4963723,23.2852092 35.33,23.04 L33.04,19.59 C32.8337729,19.2844004 32.8136286,18.8897605 32.9876663,18.5647503 C33.161704,18.2397402 33.5013326,18.0377529 33.87,18.04 L40.38,18.04 C40.7601569,18.0373543 41.1089345,18.2504962 41.28,18.59 L44.5,25.05 C44.6289905,25.3022442 44.6437318,25.597665 44.5404931,25.8614973 C44.4372543,26.1253295 44.2259293,26.3322896 43.96,26.43 Z" id="Shape" fill="#A4C2F7"/><path d="M40.96,26.43 L34.65,28.8 C34.260306,28.943745 34.0010774,29.3146413 34,29.73 L34,32.04 L30.04,28.08 C29.8085664,27.844333 29.708434,27.5095864 29.7724423,27.1855442 C29.8364507,26.8615019 30.0563418,26.5899699 30.36,26.46 L34.9,24.51 C35.1722932,24.3931079 35.3781545,24.1607176 35.4613478,23.8763126 C35.5445411,23.5919076 35.4963723,23.2852092 35.33,23.04 L33.04,19.59 C32.8337729,19.2844004 32.8136286,18.8897605 32.9876663,18.5647503 C33.161704,18.2397402 33.5013326,18.0377529 33.87,18.04 L37.38,18.04 C37.7601569,18.0373543 38.1089345,18.2504962 38.28,18.59 L41.5,25.05 C41.6289905,25.3022442 41.6437318,25.597665 41.5404931,25.8614973 C41.4372543,26.1253295 41.2259293,26.3322896 40.96,26.43 Z" id="Shape" fill="#E8EDFC"/><path d="M16.37,59 L13.51,59 C12.4093377,58.9944966 11.5199862,58.100676 11.52,57 L11.52,47.48 C12.5656949,48.7448158 13.521374,50.0814299 14.38,51.48 L14.38,57 C14.3799862,58.100676 15.2693377,58.9944966 16.37,59 Z" id="Shape" fill="#FFFFFF"/><path d="M6.476,36.076 C6.31694817,36.0763626 6.1601645,36.0382817 6.019,35.965 C1.848,33.813 1.132,29.026 1.1,28.823 C0.777,25.835 0.724,22.146 2.277,21.364 C3.908,20.538 5.451,21.996 6.105,22.988 C6.31602577,23.2860753 6.34777195,23.6754852 6.18781229,24.0038047 C6.02785263,24.3321242 5.70163094,24.5471295 5.33683868,24.5646621 C4.97204643,24.5821947 4.6267089,24.3994657 4.436,24.088 C4.145,23.654 3.563,23.088 3.243,23.129 C2.906,23.72 2.829,26.199 3.084,28.575 C3.084,28.575 3.695,32.517 6.932,34.186 C7.34151073,34.3980617 7.55290029,34.8626656 7.44373467,35.3107193 C7.33456905,35.7587729 6.93316073,36.0740722 6.472,36.074 L6.476,36.076 Z" id="Shape" fill="#428DFF"/><path d="M20.823,2.039 C16.8,2.383 12.559,3.808 9.712,6.62 C7.62974041,8.75834608 6.42907181,11.6023919 6.349,14.586 L4.349,14.494 C4.449,13.649 4.53,12.794 4.67,11.958 L5.016,10.715 C5.11304958,10.2946626 5.25416353,9.88573386 5.437,9.495 C5.7608202,8.69081782 6.17301721,7.92511743 6.666,7.212 C7.1384186,6.4857538 7.68611452,5.8113571 8.3,5.2 C9.96324389,3.59641008 11.9370732,2.35017511 14.1,1.538 C16.2256712,0.713790117 18.461503,0.208326998 20.735,0.038 L20.823,2.039 Z" id="Shape" fill="#FFFFFF"/><path d="M15.88,1.979 C16.0399579,2.49389828 16.5693244,2.79888307 17.095,2.679 C18.3157599,2.35377563 19.563564,2.14022975 20.823,2.041 L20.737,0.041 C19.3359876,0.145535501 17.9477007,0.379873781 16.59,0.741 C16.3270515,0.803512113 16.1016447,0.971949179 15.9671828,1.20640532 C15.8327209,1.44086146 15.8011681,1.7204749 15.88,1.979 Z" id="Shape" fill="#428DFF"/><path d="M4.351,14.494 L6.351,14.586 C6.43053319,11.6026658 7.63047236,8.75865643 9.712,6.62 C9.92360671,6.39447258 10.1537458,6.18707983 10.4,6 C10.7871709,5.62983018 10.8369669,5.02884409 10.516,4.6 C10.3515627,4.38484607 10.1036715,4.24942915 9.83377893,4.22731931 C9.56388637,4.20520946 9.29726113,4.29847673 9.1,4.484 C8.81492017,4.70271619 8.54743332,4.94345435 8.3,5.204 C7.68633651,5.81410112 7.13864787,6.48714811 6.666,7.212 C6.17371199,7.92520997 5.76218762,8.6909069 5.439,9.495 C5.25616353,9.88573386 5.11504958,10.2946626 5.018,10.715 L4.672,11.958 C4.532,12.8 4.456,13.649 4.351,14.494 Z" id="Shape" fill="#428DFF"/><path d="M13.524,3.971 C13.7472443,3.85265005 13.9235745,3.66186078 14.024,3.43 L14.072,3.247 C14.0841284,3.18106485 14.0874909,3.11381611 14.082,3.047 C14.0864331,2.9838829 14.0810354,2.92046021 14.066,2.859 C14.0487826,2.79345463 14.0267219,2.7292782 14,2.667 C13.8933971,2.42217695 13.6952937,2.22873902 13.448,2.128 C13.3194575,2.08378706 13.1838335,2.06378252 13.048,2.069 C12.6278934,2.10054596 12.2659628,2.37699344 12.125,2.774 C12.0513604,3.02775327 12.0789608,3.3001734 12.202,3.534 C12.3356063,3.76228494 12.5451252,3.93641209 12.794,4.026 C13.0352276,4.10328922 13.2970762,4.0835609 13.524,3.971 Z" id="Shape" fill="#428DFF"/><path d="M35.849,7.23 C35.6465413,7.23008302 35.4488259,7.16871105 35.282,7.054 C33.6,5.89 31.141,4.261 30.619,3.981 C28.3273618,2.73741927 25.7671298,2.07118918 23.16,2.04 L20.78,2.04 C20.2277153,2.04 19.78,1.59228475 19.78,1.04 C19.78,0.48771525 20.2277153,0.04 20.78,0.04 L23.16,0.04 C26.0956155,0.0727703927 28.9789377,0.821061142 31.56,2.22 C32.285,2.606 35.126,4.52 36.414,5.407 C36.774364,5.65572574 36.9310026,6.10996823 36.8005417,6.52794747 C36.6700808,6.9459267 36.2828659,7.23042004 35.845,7.23 L35.849,7.23 Z" id="Shape" fill="#428DFF"/><path d="M24.34,56.04 L19.6,56.04 C16.123,56.04 14.748,53.933 13.156,51.492 C12.1083945,49.7677922 10.8507759,48.1803174 9.412,46.766 C5.136,42.715 5.307,38.983 5.473,35.375 C5.506,34.657 5.54,33.928 5.54,33.175 C5.51892741,31.8477619 5.36787257,30.5257809 5.089,29.228 C4.612,26.606 3.96,23.016 4.351,14.489 C4.38890189,13.9423538 4.85231919,13.5235554 5.4,13.541 C5.66495674,13.5531847 5.91421912,13.6701319 6.09294449,13.8661109 C6.27166987,14.0620899 6.36521568,14.3210447 6.353,14.586 C5.972,22.886 6.576,26.207 7.061,28.876 C7.36163593,30.2901859 7.52340414,31.7303584 7.544,33.176 C7.544,33.955 7.509,34.715 7.475,35.463 C7.31,39.053 7.18,41.889 10.792,45.31 C12.342877,46.8338 13.6994919,48.5434238 14.831,50.4 C16.362,52.748 17.206,54.041 19.6,54.041 L24.34,54.041 C26.374,54.041 27.292,53.15 28.707,51.019 L29.096,50.419 C30.2309046,48.5543918 31.593367,46.8382131 33.152,45.31 C36.441,42.2 36.27,39.47 36.07,36.3 C36.045,35.9 36.02,35.491 36.001,35.082 C35.9887888,34.8168791 36.0824705,34.5577782 36.2614096,34.3617706 C36.4403486,34.1657629 36.6898662,34.0489274 36.955,34.037 C37.5058101,34.0182312 37.970367,34.4436675 38,34.994 C38.018,35.394 38.043,35.786 38.067,36.179 C38.279,39.538 38.497,43.013 34.528,46.767 C33.0831615,48.1860825 31.8216838,49.7804829 30.773,51.513 L30.373,52.121 C28.952,54.267 27.516,56.04 24.34,56.04 Z" id="Shape" fill="#428DFF"/><path d="M30.47,60 L13.47,60 C11.8131458,60 10.47,58.6568542 10.47,57 L10.47,47.48 C10.47,46.9277153 10.9177153,46.48 11.47,46.48 C12.0222847,46.48 12.47,46.9277153 12.47,47.48 L12.47,57 C12.47,57.5522847 12.9177153,58 13.47,58 L30.47,58 C31.0222847,58 31.47,57.5522847 31.47,57 L31.47,47.48 C31.47,46.9277153 31.9177153,46.48 32.47,46.48 C33.0222847,46.48 33.47,46.9277153 33.47,47.48 L33.47,57 C33.47,58.6568542 32.1268542,60 30.47,60 Z" id="Shape" fill="#428DFF"/><path d="M41.57,2.06 C41.0128801,2.06176443 40.5569901,1.61699365 40.545,1.06 C40.5393644,0.797426184 40.6394654,0.543598876 40.8228105,0.35555269 C41.0061555,0.167506504 41.2573677,0.0610126009 41.52,0.06 L41.57,0.06 C42.1222847,0.0600000082 42.57,0.507715256 42.57,1.06 C42.57,1.61228474 42.1222847,2.05999999 41.57,2.06 Z" id="Shape" fill="#428DFF"/><path d="M42.4,56.04 L37.66,56.04 C34.48,56.04 33.051,54.271 31.636,52.132 C31.4201773,51.8341896 31.38525,51.441944 31.5450578,51.1106858 C31.7048656,50.7794277 32.0336125,50.5626282 32.4010364,50.5461916 C32.7684603,50.529755 33.1152523,50.7163344 33.304,51.032 C34.709,53.156 35.625,54.044 37.66,54.044 L42.4,54.044 C44.794,54.044 45.64,52.75 47.174,50.4 C47.9562338,49.1510601 48.8250285,47.9584723 49.774,46.831 C50.2260033,46.2994727 50.707424,45.7936805 51.216,45.316 C54.825,41.897 54.695,39.061 54.53,35.471 C54.496,34.723 54.461,33.963 54.461,33.184 C54.4815959,31.7383584 54.6433641,30.2981859 54.944,28.884 C55.429,26.215 56.033,22.894 55.652,14.594 C55.273,6.244 48.313,3.432 44.182,2.494 C43.6706673,2.40156701 43.3153267,1.93291614 43.3643453,1.41561336 C43.4133639,0.898310589 43.8504065,0.504744423 44.37,0.51 L44.38,0.51 C44.4539859,0.510013162 44.5277516,0.518060329 44.6,0.534 C49.285,1.589 57.21,4.805 57.649,14.5 C58.04,23.026 57.388,26.616 56.911,29.238 C56.6321274,30.5357809 56.4810726,31.8577619 56.46,33.185 C56.46,33.933 56.494,34.662 56.527,35.385 C56.693,38.993 56.864,42.725 52.588,46.776 C52.1292632,47.2057593 51.6952348,47.6611552 51.288,48.14 C50.3967927,49.2020378 49.5804917,50.324744 48.845,51.5 C47.254,53.932 45.877,56.04 42.4,56.04 Z" id="Shape" fill="#428DFF"/><path d="M55.524,36.076 C55.0628393,36.0760722 54.6614309,35.7607729 54.5522653,35.3127193 C54.4430997,34.8646656 54.6544893,34.4000617 55.064,34.188 C58.325,32.506 58.91,28.588 58.916,28.546 C59.167,26.201 59.091,23.724 58.754,23.132 C58.461,23.069 57.854,23.656 57.554,24.093 C57.2477352,24.5504105 56.6293816,24.6742847 56.1705559,24.3701441 C55.7117302,24.0660035 55.5849901,23.448231 55.887,22.988 C56.542,21.996 58.087,20.536 59.718,21.366 C61.268,22.146 61.218,25.835 60.896,28.792 C60.864,29.026 60.148,33.813 55.977,35.965 C55.8370359,36.0376581 55.6816993,36.0757207 55.524,36.076 Z" id="Shape" fill="#428DFF"/><path d="M48.53,60 L31.53,60 C31.2540244,60.0021779 30.9791829,59.9644545 30.714,59.888 C30.1960074,59.7214481 29.906239,59.1713098 30.0618888,58.6499376 C30.2175385,58.1285654 30.7614776,57.8273209 31.286,57.972 C31.3656988,57.9922923 31.4477762,58.001711 31.53,58 L48.53,58 C49.0822847,58 49.53,57.5522847 49.53,57 L49.53,47.48 C49.53,46.9277153 49.9777153,46.48 50.53,46.48 C51.0822847,46.48 51.53,46.9277153 51.53,47.48 L51.53,57 C51.53,58.6568542 50.1868542,60 48.53,60 Z" id="Shape" fill="#428DFF"/><path d="M47,22.04 L42.5,22.04 C41.9477153,22.04 41.5,21.5922847 41.5,21.04 C41.5,20.4877153 41.9477153,20.04 42.5,20.04 L47,20.04 C49.209139,20.04 51,18.249139 51,16.04 C51,13.830861 49.209139,12.04 47,12.04 C46.6212279,12.04 46.2749648,11.8259976 46.1055728,11.4872136 C45.9361808,11.1484296 45.9727368,10.7430176 46.2,10.44 C46.887431,9.53432878 47.2565421,8.4269956 47.25,7.29 C47.2415406,5.88859535 46.6765022,4.54799739 45.6792783,3.56333958 C44.6820544,2.57868177 43.3343992,2.0306882 41.933,2.04 C41.9090247,2.03846105 41.8849753,2.03846105 41.861,2.04 C41.827,2.04 41.774,2.047 41.74,2.047 C41.6839624,2.05732992 41.6268622,2.06068875 41.57,2.057 C41.5331657,2.05812003 41.4964324,2.06145942 41.46,2.067 C41.4135406,2.07278223 41.3668096,2.07612016 41.32,2.077 C39.5666956,2.30738114 38.0478614,3.40655238 37.281,5 C37.0238377,5.52070388 36.8587345,6.08198702 36.793,6.659 C36.7473943,7.05636182 36.4694008,7.38832685 36.0862209,7.50299795 C35.7030409,7.61766905 35.2883901,7.49298601 35.032,7.186 C34.2786278,6.29371141 33.1677707,5.7822482 32,5.79 C29.790861,5.79 28,7.580861 28,9.79 C27.996767,10.1220912 28.0384787,10.4530933 28.124,10.774 C28.2070459,11.0749548 28.144769,11.3974262 27.9556318,11.645816 C27.7664945,11.8942058 27.4722025,12.0400084 27.16,12.04 L27,12.04 C24.790861,12.04 23.0000001,13.830861 23.0000001,16.04 C23.0000001,18.249139 24.790861,20.04 27,20.04 L34,20.04 C34.5522847,20.04 35,20.4877153 35,21.04 C35,21.5922847 34.5522847,22.04 34,22.04 L27,22.04 C24.5756982,22.0364796 22.3912182,20.5758068 21.4617131,18.3367732 C20.532208,16.0977395 21.0399557,13.5194241 22.749,11.8 C23.6373903,10.920024 24.7753488,10.3351573 26.008,10.125 C26,10.014 26,9.9 26,9.79 C26.0018083,7.60043617 27.1952252,5.58541019 29.1144283,4.53144036 C31.0336314,3.47747052 33.3743733,3.55164058 35.223,4.725 C35.3,4.525 35.387,4.325 35.482,4.125 C36.5368968,1.93330871 38.6270555,0.422391394 41.039,0.108 C41.1049744,0.0946534084 41.1718061,0.0859652896 41.239,0.082 C41.329,0.072 41.411,0.063 41.498,0.061 C41.558,0.055 41.622,0.052 41.687,0.05 C41.787,0.042 41.893,0.04 42,0.04 C44.4580779,0.0443673352 46.747149,1.2917302 48.0833252,3.35493146 C49.4195013,5.41813273 49.6214446,8.01716709 48.62,10.262 C51.5079587,11.0702113 53.3556692,13.8866238 52.9470316,16.8575708 C52.538394,19.8285178 49.9989179,22.0414966 47,22.04 Z" id="Shape" fill="#428DFF"/><path d="M37,36.04 C36.7348052,36.0399434 36.4804927,35.9345494 36.293,35.747 L28.293,27.747 C28.058468,27.5123884 27.9555481,27.1767407 28.0182548,26.8509866 C28.0809614,26.5252326 28.3011315,26.2517786 28.606,26.121 L34.5,23.6 L32.2,20.154 C31.7910904,19.5403157 31.7530604,18.7514048 32.1010451,18.101234 C32.4490297,17.4510631 33.1265616,17.0451355 33.864,17.045 L40.377,17.045 C41.1354269,17.0424301 41.8293051,17.4714012 42.166,18.151 L45.9,25.593 C46.0268826,25.8466479 46.0400927,26.142243 45.9363417,26.4061979 C45.8325906,26.6701528 45.6216381,26.8776377 45.356,26.977 L38,29.733 L38,35.04 C38.0001018,35.4444291 37.7565907,35.8091037 37.383,35.964 C37.2616682,36.0145857 37.1314539,36.0404246 37,36.04 Z M30.751,27.377 L36,32.626 L36,29.04 C36.0001565,28.6232446 36.2587604,28.2502811 36.649,28.104 L43.609,25.494 L40.382,19.04 L33.869,19.04 L36.832,23.485 C36.9968632,23.7321892 37.0432668,24.0398902 36.9586338,24.3247053 C36.8740009,24.6095204 36.6670969,24.8419509 36.394,24.959 L30.751,27.377 Z" id="Shape" fill="#428DFF"/></g></g></svg>
