<?xml version="1.0" encoding="iso-8859-1"?>
<!-- Generator: Adobe Illustrator 19.0.0, SVG Export Plug-In . SVG Version: 6.00 Build 0)  -->
<svg version="1.1" id="Capa_1" xmlns="http://www.w3.org/2000/svg" xmlns:xlink="http://www.w3.org/1999/xlink" x="0px" y="0px"
	 viewBox="0 0 500.506 500.506" style="enable-background:new 0 0 500.506 500.506;" xml:space="preserve">
<g>
	<g>
		<path style="fill:#00EFD1;" d="M253.91,452.44c4.318,4.287,6.761,10.111,6.792,16.196c0,12.696-10.292,22.988-22.988,22.988h0
			c-6.085-0.031-11.909-2.474-16.196-6.792c-4.475-4.18-6.947-10.075-6.792-16.196c0-12.696,10.292-22.988,22.988-22.988h0
			C243.836,445.494,249.73,447.966,253.91,452.44z"/>
		<g>
			<path style="fill:#4B5D63;" d="M255.478,223.608l64.261-43.886h2.09c2.272,10.967,0.212,22.387-5.747,31.869
				c-12.634,20.807-39.665,27.564-60.604,15.151l-4.18,1.567l0,0v-3.657L255.478,223.608z"/>
			<path style="fill:#4B5D63;" d="M319.739,179.722l-64.261,43.886h-4.18v-14.106c-0.07-5.066-0.419-10.124-1.045-15.151h1.045
				l50.678-38.139l1.567-4.18c9.259,6.469,15.778,16.154,18.286,27.167L319.739,179.722z"/>
			<path style="fill:#4B5D63;" d="M301.975,156.212l-50.678,38.139h-1.045c-1.645-10.24-5-20.13-9.927-29.257
				c13.007-20.688,40.163-27.187,61.127-14.629l2.09,1.567L301.975,156.212z"/>
			<path style="fill:#4B5D63;" d="M175.02,114.416v3.135c-37.094,41.796-80.457,42.318-101.878,39.184
				c3.443-5.931,7.659-11.377,12.539-16.196c18.198-18.066,42.798-28.206,68.441-28.212
				C161.146,112.218,168.158,112.919,175.02,114.416z"/>
			<path style="fill:#4B5D63;" d="M206.367,127.477h-0.522c-52.767,89.861-144.196,63.739-146.808,62.694
				c2.18-12.123,6.802-23.677,13.584-33.959c21.42,3.135,64.784,2.612,101.878-39.184v-2.612
				C185.842,116.747,196.65,121.177,206.367,127.477z"/>
			<path style="fill:#4B5D63;" d="M240.327,165.094c4.926,9.127,8.282,19.017,9.927,29.257c0.626,5.027,0.975,10.085,1.045,15.151
				v17.763c-19.811-10.397-34.664-28.258-41.273-49.633c-44.408,76.8-147.331,51.2-153.078,50.155v-18.286
				c-0.109-6.333,0.593-12.654,2.09-18.808c2.612,1.045,94.041,27.167,146.808-62.694h0.522
				C220.73,137.189,232.438,149.977,240.327,165.094z"/>
		</g>
		<path style="fill:#F7CAA5;" d="M251.298,227.265v48.065c0.053,25.91-10.3,50.756-28.735,68.963
			c-9.767,9.727-21.533,17.214-34.482,21.943c-10.819,4.228-22.344,6.356-33.959,6.269c-10.455,0.015-20.85-1.57-30.824-4.702
			c-39.743-13.293-66.487-50.567-66.351-92.473v-47.543c5.747,1.045,108.669,26.645,153.078-50.155
			C216.634,199.007,231.487,216.868,251.298,227.265z"/>
		<path style="fill:#EDB288;" d="M189.127,391.314v1.045l-34.482,32.914l-31.869-32.914v-24.555
			c9.975,3.132,20.37,4.717,30.824,4.702c11.791,0.153,23.5-1.976,34.482-6.269l1.045,2.612V391.314z"/>
		<path style="fill:#00ACEA;" d="M492.147,35.526v66.351c0,14.716-11.929,26.645-26.645,26.645h-18.808l-55.902,59.037v-59.037
			h-59.559c-14.713,0.289-26.874-11.405-27.162-26.117c-0.003-0.176-0.005-0.352-0.005-0.528V35.526
			c-0.003-14.716,11.924-26.647,26.64-26.65c0.176,0,0.352,0.002,0.528,0.005h134.269C480.218,8.881,492.147,20.811,492.147,35.526z
			"/>
	</g>
	<g>
		<path style="fill:#083863;" d="M191.216,462.367h-8.359c-4.328,0-7.837-3.509-7.837-7.837s3.509-7.837,7.837-7.837h8.359
			c4.328,0,7.837,3.509,7.837,7.837S195.544,462.367,191.216,462.367z"/>
		<path style="fill:#083863;" d="M191.216,487.445h-8.359c-4.328,0-7.837-3.509-7.837-7.837s3.509-7.837,7.837-7.837h8.359
			c4.028-0.3,7.537,2.723,7.837,6.752c0.027,0.361,0.027,0.724,0,1.085C199.053,483.936,195.544,487.445,191.216,487.445z"/>
		<path style="fill:#083863;" d="M112.849,298.841c-13.27,0.289-24.261-10.235-24.549-23.505c-0.004-0.176-0.006-0.352-0.006-0.528
			v-4.18c0-4.328,3.509-7.837,7.837-7.837c4.328,0,7.837,3.509,7.837,7.837v4.18c0.086,2.183,1.024,4.246,2.612,5.747
			c1.473,1.928,3.863,2.924,6.269,2.612c4.617,0,8.359-3.743,8.359-8.359v-4.18c0-4.328,3.509-7.837,7.837-7.837
			c4.028-0.3,7.537,2.723,7.837,6.752c0.027,0.361,0.027,0.724,0,1.085v4.18C136.605,287.964,126.005,298.563,112.849,298.841z"/>
		<path style="fill:#083863;" d="M195.396,298.841c-12.682,0.591-23.442-9.211-24.033-21.893c-0.033-0.713-0.033-1.427,0-2.14v-4.18
			c-0.3-4.028,2.723-7.537,6.752-7.837c0.361-0.027,0.724-0.027,1.085,0c4.328,0,7.837,3.509,7.837,7.837v4.18
			c0.258,4.505,3.854,8.101,8.359,8.359c4.608,0.289,8.577-3.213,8.865-7.82c0.011-0.179,0.017-0.359,0.016-0.539v-4.18
			c0-4.328,3.509-7.837,7.837-7.837c4.328,0,7.837,3.509,7.837,7.837v4.18C219.667,288.165,208.756,298.844,195.396,298.841z"/>
		<path style="fill:#083863;" d="M329.143,177.632L329.143,177.632c-2.679-12.746-10.163-23.972-20.898-31.347l-3.135-2.09
			c-20.533-12.295-46.795-9.066-63.739,7.837c-14.817-22.941-38.105-39.093-64.784-44.931c-7.392-1.497-14.924-2.198-22.465-2.09
			c-27.752-0.046-54.405,10.84-74.188,30.302c-5.266,5.45-9.99,11.399-14.106,17.763c-7.124,10.977-12.088,23.212-14.629,36.049
			l-1.045,1.045c-1.803,6.297-2.856,12.786-3.135,19.331v65.829c-0.23,43.63,26.941,82.714,67.918,97.698v13.061H75.233
			C34.482,386.089,0,417.959,0,458.71v20.898c0,4.328,3.509,7.837,7.837,7.837s7.837-3.509,7.837-7.837V458.71
			c0-30.824,26.122-56.424,57.469-58.514v9.927c-7.556,0.839-14.489,4.587-19.331,10.449c-7.455,6.664-11.807,16.125-12.016,26.122
			v41.796c0.278,4.319,4.005,7.595,8.324,7.317c0.012-0.001,0.023-0.002,0.035-0.002h12.016c4.328,0,7.837-3.509,7.837-7.837
			s-3.509-7.837-7.837-7.837h-4.702v-33.437c0.135-5.758,2.583-11.219,6.792-15.151c3.588-4.012,8.724-6.294,14.106-6.269
			c11.542-0.004,20.901,9.35,20.904,20.891c0,0.176-0.002,0.353-0.007,0.529v33.437h-4.702c-4.328,0-7.837,3.509-7.837,7.837
			s3.509,7.837,7.837,7.837h15.151c4.18,0,5.224-3.135,5.224-7.314v-41.796c0-17.763-10.449-32.914-26.122-36.571v-8.359h30.824
			l26.645,26.645v51.2c0,4.328,3.509,7.837,7.837,7.837c4.328,0,7.837-3.509,7.837-7.837V428.93l30.302-27.167h37.616v37.616
			c-10.449,3.135-22.988,15.151-22.988,29.257c0.118,8.268,3.498,16.155,9.404,21.943c5.68,5.684,13.385,8.878,21.42,8.882
			c16.733,0.291,30.533-13.038,30.825-29.77c0.006-0.351,0.006-0.703,0-1.054c-0.003-8.035-3.198-15.74-8.882-21.42
			c-3.922-3.932-8.774-6.807-14.106-8.359v-38.139c26.122,4.702,52.245,28.735,52.245,57.992v20.898
			c0,4.328,3.509,7.837,7.837,7.837c4.328,0,7.837-3.509,7.837-7.837V458.71c0-40.751-35.527-72.62-76.8-72.62h-38.139v-15.151
			c11.689-5.409,22.446-12.639,31.869-21.42c19.8-19.6,30.905-46.327,30.824-74.188v-38.661c5.809,2.363,12.014,3.604,18.286,3.657
			c4.056-0.008,8.094-0.534,12.016-1.567c27.237-6.443,44.094-33.746,37.651-60.982C329.166,177.728,329.154,177.68,329.143,177.632
			z M261.224,211.592v-2.612c0-3.135-1.567-6.792-1.567-9.927l45.976-35.527c3.371,3.565,6.189,7.616,8.359,12.016L261.224,211.592z
			 M291.527,154.122l-36.049,27.69c-1.513-5.363-3.434-10.603-5.747-15.673C259.406,153.234,276.475,148.327,291.527,154.122z
			 M233.012,168.228l1.045,1.567c4.434,7.998,7.606,16.633,9.404,25.6c0.522,4.702,2.09,9.404,2.09,13.584v4.18
			c-12.486-9.329-21.791-22.283-26.645-37.094c-1.049-3.221-3.937-5.49-7.314-5.747c-3.543-0.38-7.049,0.983-9.404,3.657
			c-36.049,62.694-113.371,51.722-139.494,47.543v-12.539c0.312-2.994,0.836-5.962,1.567-8.882
			c9.103,1.908,18.391,2.784,27.69,2.612c32.914,0,81.502-10.449,116.506-64.261C218.691,146.491,227.067,156.649,233.012,168.228z
			 M76.8,165.094h11.494c34.937-0.054,68.121-15.311,90.906-41.796c5.615,1.71,11.041,3.986,16.196,6.792
			c-26.71,43.003-77.333,64.877-126.955,54.857C70.232,177.953,73.049,171.262,76.8,165.094z M154.122,120.163h6.269
			c-19.258,19.227-45.408,29.95-72.62,29.78l3.135-3.657C107.51,129.285,130.361,119.842,154.122,120.163z M182.857,389.224
			l-27.167,25.078l-25.078-25.078V377.73c7.884,1.788,15.948,2.665,24.033,2.612c9.523,0.005,19.006-1.225,28.212-3.657V389.224z
			 M252.865,468.636c-0.021,4.042-1.506,7.94-4.18,10.971c-6.026,5.64-15.394,5.64-21.42,0c-2.864-2.913-4.379-6.891-4.18-10.971
			c-0.294-7.785,5.778-14.335,13.564-14.629c0.355-0.013,0.71-0.013,1.065,0c4.08-0.2,8.058,1.316,10.971,4.18
			C251.324,461.033,252.814,464.756,252.865,468.636z M218.384,338.547c-9.027,9.266-20.131,16.251-32.392,20.376
			c-47.323,17.614-99.965-6.469-117.579-53.792c-3.553-9.545-5.486-19.617-5.719-29.8v-38.139
			c12.611,2.044,25.363,3.092,38.139,3.135c33.437,0,78.89-8.359,108.147-45.976c7.744,16.204,20.592,29.419,36.571,37.616v43.363
			C245.241,299.172,235.468,321.913,218.384,338.547z M269.584,223.608l44.931-30.824c-0.629,5.042-2.417,9.87-5.224,14.106
			C301.206,220.628,285.06,227.427,269.584,223.608z"/>
		<path style="fill:#083863;" d="M390.792,195.396h-3.135c-2.9-1.265-4.755-4.151-4.702-7.314v-51.722h-51.722
			c-19.044,0.002-34.483-15.434-34.486-34.478c0-0.175,0.001-0.351,0.004-0.526V35.526C296.46,16.773,311.427,1.335,330.18,1.045
			c0.351-0.005,0.702-0.005,1.053,0h134.269c19.042-0.289,34.712,14.914,35,33.955c0.003,0.175,0.004,0.351,0.004,0.526v65.829
			c0,19.332-15.672,35.004-35.004,35.004h-15.151l-54.335,56.424C394.812,194.462,392.857,195.439,390.792,195.396z M331.233,16.718
			c-10.387,0-18.808,8.421-18.808,18.808v65.829c-0.289,10.383,7.895,19.035,18.278,19.323c0.176,0.005,0.353,0.007,0.53,0.007
			h59.559c4.328,0,7.837,3.509,7.837,7.837v39.184l42.841-44.408c1.205-1.678,3.159-2.656,5.224-2.612h18.808
			c10.676,0,19.331-8.655,19.331-19.331V35.526c-0.283-10.471-8.855-18.812-19.331-18.808H331.233z"/>
		<path style="fill:#083863;" d="M452.963,59.559H343.771c-4.328,0-7.837-3.509-7.837-7.837s3.509-7.837,7.837-7.837h109.192
			c4.328,0,7.837,3.509,7.837,7.837S457.291,59.559,452.963,59.559z"/>
		<path style="fill:#083863;" d="M410.122,94.041h-66.351c-4.328,0-7.837-3.509-7.837-7.837c0-4.328,3.509-7.837,7.837-7.837h66.351
			c4.328,0,7.837,3.509,7.837,7.837C417.959,90.532,414.451,94.041,410.122,94.041z"/>
	</g>
</g>
<g>
</g>
<g>
</g>
<g>
</g>
<g>
</g>
<g>
</g>
<g>
</g>
<g>
</g>
<g>
</g>
<g>
</g>
<g>
</g>
<g>
</g>
<g>
</g>
<g>
</g>
<g>
</g>
<g>
</g>
</svg>
