<svg height="512" viewBox="0 0 58 58" width="512" xmlns="http://www.w3.org/2000/svg"><g id="Page-1" fill="none" fill-rule="evenodd"><g id="039---Brain-Health" fill-rule="nonzero"><path id="Shape" d="m34.79 40.32c.1411101.5488002.2116789 1.1133512.21 1.68.0049159 1.3855502-.4061522 2.7406815-1.18 3.89-.943895 1.4117855-2.3692224 2.4319076-4.01 2.87-.5896962.1615218-1.198587.2422587-1.81.24-1.2535788.0022034-2.4841569-.3365513-3.56-.98-.1592594-.090605-.312875-.190789-.46-.3h-.01c-.4162032-.2819654-.7928688-.618274-1.12-1h-.01c-.4191021.184608-.8720407.2799635-1.33.28-.2213968.0007888-.4423749-.0193002-.66-.06h-.01c-1.641817-.3270009-2.8255963-1.7659411-2.83-3.44h-.01v-18.5c3.58-4.47 9.11-.92 12.08 2 2.28 2.23 7.64 8.68 3.94 11.43 0 .0055228.0044772.01.01.01.3449339.5856228.6010566 1.2191896.76 1.88z" fill="#ff5364"/><path id="Shape" d="m29.81 48.76c-.6299184 1.871806-2.1533283 3.3051622-4.06 3.82-1.2691186.4622071-2.6459048.5421719-3.96.23.08-.32.18-.64.28-.96.3415784-1.4948372.9921882-2.9016533 1.91-4.13 1.1727057.8374916 2.5789575 1.2852534 4.02 1.28.611413.0022587 1.2203038-.0784782 1.81-.24z" fill="#df4d60"/><path id="Shape" d="m18 25v18.5c-.0044037 1.6740589-1.188183 3.1129991-2.83 3.44h-.01c-.2176251.0406998-.4386032.0607888-.66.06-.4387191-.0008033-.8732203-.0856669-1.28-.25-.02-.01-.05-.02-.07-.03-.3271312.381726-.7037968.7180346-1.12 1-.147125.109211-.3007406.209395-.46.3-1.0794708.6435201-2.31326992.9822101-3.57.98-.61141298.0022587-1.22030378-.0784782-1.81-.24-1.64077763-.4380924-3.06610499-1.4582145-4.01-2.87-.77384784-1.1493185-1.18491595-2.5044498-1.18-3.89-.00167893-.5666488.06888995-1.1311998.21-1.68.15894337-.6608104.41506611-1.2943772.76-1.88.00552285 0 .01-.0044772.01-.01-3.7-2.75 1.66-9.2 3.94-11.43 2.97-2.92 8.5-6.47 12.08-2z" fill="#fb7b76"/><path id="Shape" d="m14.22 52.81c-1.317011.317048-2.6984134.2370172-3.97-.23-1.9066717-.5148378-3.43008165-1.948194-4.06-3.82.58969622.1615218 1.19858702.2422587 1.81.24 1.44413373.0052576 2.8535713-.442405 4.03-1.28.9178118 1.2283467 1.5684216 2.6351628 1.91 4.13.1.32.2.64.28.96z" fill="#df4d60"/><path id="Shape" d="m23.98 47.72c-.9178118 1.2283467-1.5684216 2.6351628-1.91 4.13-.1.32-.2.64-.28.96-.3990217 1.3794779-.6504312 2.7974276-.75 4.23-.0293694.533018-.4662275.9524018-1 .96h-4.07c-.5337725-.0075982-.9706306-.426982-1-.96-.0995688-1.4325724-.3509783-2.8505221-.75-4.23-.08-.32-.18-.64-.28-.96-.3415784-1.4948372-.9921882-2.9016533-1.91-4.13.4162032-.2819654.7928688-.618274 1.12-1 .4261553.1845509.8856.2798432 1.35.28.2213968.0007888.4423749-.0193002.66-.06h.01c1.641817-.3270009 2.8255963-1.7659411 2.83-3.44h.01c.0044037 1.6740589 1.188183 3.1129991 2.83 3.44h.01c.2176251.0406998.4386032.0607888.66.06.4611811-.000074.9173768-.0953985 1.34-.28.3271312.381726.7037968.7180346 1.12 1z" fill="#ff5364"/><path id="Shape" d="m34.79 40.32c-1.5423363.8360843-3.2568307 1.3049181-5.01 1.37h-.1c-.5184309-.018857-.9363545-.4310313-.9623907-.9491512-.0260361-.51812.3484619-.9701145.8623907-1.0408488 2.76-.28 3.75-.77 4.35-1.2.03-.02.07-.04.1-.06.3449339.5856228.6010566 1.2191896.76 1.88z" fill="#df4d60"/><path id="Shape" d="m7.32 40.8c-.05892146.507584-.48900773.8903608-1 .89h-.1c-1.75316932-.0650819-3.46766369-.5339157-5.01-1.37.15894337-.6608104.41506611-1.2943772.76-1.88.03.02.07.04.1.06.6.43 1.59.92 4.35 1.2.54976826.0598948.9501562.5492579.9 1.1z" fill="#df4d60"/><path id="Shape" d="m19 33c-.5522847 0-1-.4477153-1-1 0-1.1045695-.8954305-2-2-2-.5522847 0-1-.4477153-1-1s.4477153-1 1-1c2.209139 0 4 1.790861 4 4 0 .5522847-.4477153 1-1 1z" fill="#ff5364"/><path id="Shape" d="m17 38c-.5522847 0-1-.4477153-1-1 0-2.209139 1.790861-4 4-4 .5522847 0 1 .4477153 1 1s-.4477153 1-1 1c-1.1045695 0-2 .8954305-2 2 0 .5522847-.4477153 1-1 1z" fill="#fb7b76"/><path id="Shape" d="m29 35.5c-.5522847 0-1-.4477153-1-1 0-1.3807119-1.1192881-2.5-2.5-2.5-.5522847 0-1-.4477153-1-1s.4477153-1 1-1c2.4841391.0027556 4.4972444 2.0158609 4.5 4.5 0 .5522847-.4477153 1-1 1z" fill="#df4d60"/><path id="Shape" d="m7 35.5c-.55228475 0-1-.4477153-1-1 .00275556-2.4841391 2.01586091-4.4972444 4.5-4.5.5522847 0 1 .4477153 1 1s-.4477153 1-1 1c-1.38071187 0-2.5 1.1192881-2.5 2.5 0 .5522847-.44771525 1-1 1z" fill="#df4d60"/><path id="Shape" d="m25.643 41.739c-.1359396-.3304707-.4378569-.5633153-.7920227-.6108235-.3541657-.0475082-.7067737.0975376-.925.3805-.2182262.2829624-.2689169.6608528-.1329773.9913235.2737315.6285444.2787889 1.3416363.014 1.974-.4670516 1.0780628-1.6148059 1.692739-2.771 1.484l-.047-.008c-1.1530448-.2510199-1.9765091-1.269953-1.98-2.45 0-.5522847-.4477153-1-1-1h-.009c-.5522847 0-1 .4477153-1 1-.0038672 1.1799133-.8271649 2.1986403-1.98 2.45l-.047.008c-.4887051.0915906-.9936704.0337409-1.449-.166-.5982674-.246432-1.0744001-.7200473-1.324-1.317-.2651908-.6326306-.2601326-1.3461924.014-1.975.2101443-.5108634-.0336366-1.0953556-.5445-1.3055-.5108634-.2101443-1.0953556.0336366-1.3055.5445-.47325664 1.1223494-.47577884 2.387773-.007 3.512.7110554 1.6590124 2.3380586 2.738576 4.143 2.749.2651174.0008103.529796-.0216088.791-.067.025 0 .05-.007.073-.012 1.0407485-.2097512 1.9741689-.77986 2.636-1.61.6622955.8310651 1.5970048 1.4013122 2.639 1.61l.07.011c.2641672.0460008.5318586.0687546.8.068.5923496.0005985 1.178609-.1195116 1.723-.353 1.0918857-.4480797 1.9612247-1.3113041 2.417-2.4.4682053-1.1228846.4660437-2.3867235-.006-3.508z" fill="#df4d60"/><path id="Shape" d="m32.11 49.61c.5626281 2.7710543 3.1347188 4.6639995 5.9477386 4.377273 2.8130197-.2867265 4.9502934-2.6596897 4.9422614-5.487273v-19.5h4v19.5c-.0259398 4.9980125-3.9201388 9.1211579-8.9085263 9.4322729-4.9883875.3111151-9.3647198-3.2962148-10.0114737-8.2522729z" fill="#7f8c8d"/><path id="Shape" d="m36 44c-.0005038 2.4980452-1.5507054 4.7336831-3.89 5.61-.6725005.2617053-1.3883835.3940249-2.11.39-.653432.0019479-1.3025204-.1062335-1.92-.32-2.9015977-.9800454-4.5993588-3.9881272-3.9387631-6.9786742.6605957-2.9905471 3.4674927-5.0035742 6.5119305-4.6701724s5.349132 2.9062084 5.3468326 5.9688466z" fill="#95a5a5"/><circle id="Oval" cx="30" cy="44" fill="#ecf0f1" r="4"/><g fill="#f29c1f"><path id="Shape" d="m11 20c-.4583065-.0004704-.8576317-.3124303-.969-.757l-1-4c-.12972141-.5339666.19570268-1.072566.72872921-1.2060974.53302659-.1335314 1.07393619.1880381 1.21127079.7200974l1 4c.0644087.2573975.0238814.5298406-.1126593.7573459-.1365406.2275052-.3578997.3914195-.6153407.4556541-.0794037.020245-.1610567.0303256-.243.03z"/><path id="Shape" d="m7 22c-.26519481-.0000566-.51950727-.1054506-.707-.293l-2-2c-.37897221-.3923789-.37355237-1.0160848.01218142-1.4018186.3857338-.3857338 1.00943969-.3911536 1.40181858-.0121814l2 2c.28590792.2859943.37142191.7160366.21667798 1.0896546-.15474393.3736179-.51928208.6172591-.92367798.6173454z"/><path id="Shape" d="m25 20c-.0819433.0003256-.1635963-.009755-.243-.03-.257441-.0642346-.4788001-.2281489-.6153407-.4556541-.1365407-.2275053-.177068-.4999484-.1126593-.7573459l1-4c.1373346-.5320593.6782442-.8536288 1.2112708-.7200974.5330265.1335314.8584506.6721308.7287292 1.2060974l-1 4c-.1113683.4445697-.5106935.7565296-.969.757z"/><path id="Shape" d="m29 22c-.4043959-.0000863-.7689341-.2437275-.923678-.6173454-.1547439-.373618-.0692299-.8036603.216678-1.0896546l2-2c.3923789-.3789722 1.0160848-.3735524 1.4018186.0121814s.3911536 1.0094397.0121814 1.4018186l-2 2c-.1874927.1875494-.4418052.2929434-.707.293z"/></g><path id="Shape" d="m57.96 4.6-2.83 18.6c-.5481577 3.8914736-3.880111 6.7840016-7.81 6.78h-4.64c-3.929889.0040016-7.2618423-2.8885264-7.81-6.78l-2.83-18.61c-.1683788-1.14937607.1668962-2.31555018.92-3.2.7447057-.87925213 1.837757-1.38739304 2.99-1.39h2.05v4h-2.05l2.83 18.6c.2740177 1.9437446 1.9370358 3.3892911 3.9 3.39h4.64c1.9629642-.0007089 3.6259823-1.4462554 3.9-3.39l2.83-18.6h-2.05v-4h2.05c1.152243.00260696 2.2452943.51074787 2.99 1.39.7545018.88765004 1.0897714 2.05744922.92 3.21z" fill="#3b97d3"/><path id="Shape" d="m52 0v4.00002771l-2-.00002771c-.5305905.00282307-1.0395388-.2101411-1.41-.59-.3798589-.3704612-.5928231-.87940947-.59-1.41.0032948-1.10320187.8967981-1.9967052 2-2z" fill="#65ddb9"/><path id="Shape" d="m42 2c-.0032948 1.10320187-.8967981 1.9967052-2 2h-2v-4.00002771l2 .00002771c.5305905-.00282307 1.0395388.2101411 1.41.59.3798589.3704612.5928231.87940947.59 1.41z" fill="#65ddb9"/></g></g></svg>