<?xml version="1.0" encoding="iso-8859-1"?>
<!-- Generator: Adobe Illustrator 19.0.0, SVG Export Plug-In . SVG Version: 6.00 Build 0)  -->
<svg version="1.1" id="Capa_1" xmlns="http://www.w3.org/2000/svg" xmlns:xlink="http://www.w3.org/1999/xlink" x="0px" y="0px"
	 viewBox="0 0 511.999 511.999" style="enable-background:new 0 0 511.999 511.999;" xml:space="preserve">
<path style="fill:#ED3B72;" d="M466.018,278.224h9.097c8.774,0,15.887-7.113,15.887-15.887v-37.19
	c0-8.774-7.113-15.887-15.887-15.887h-9.097H45.991h-9.106c-8.774,0-15.887,7.113-15.887,15.887v37.19
	c0,8.774,7.113,15.887,15.887,15.887h9.107"/>
<path style="fill:#FFE5BB;" d="M427.472,335.589v4.942c0,5.622-0.272,11.191-0.805,16.677
	c-8.38,86.873-81.606,154.791-170.672,154.791c-89.067,0-162.283-67.918-170.663-154.791c-0.533-5.486-0.805-11.055-0.805-16.677
	V335.6l4.629-158.229l0.219-7.513l23.928-57.386l0.993-2.382l133.381-64.042l144.614,56.55c7.053,9.216,13.176,19.163,18.254,29.706
	c6.792,14.075,11.724,29.236,14.451,45.14c1.379,8.056,2.205,16.3,2.414,24.712v0.01L427.472,335.589z"/>
<path style="fill:#E5C69A;" d="M133.114,340.537v-4.933l2.956-101.008c1.253-42.792,10.339-84.992,26.811-124.507l0,0L274.45,56.522
	l-26.775-10.473l-133.378,64.04L89.38,169.862l-4.851,165.74v4.933c0,94.697,76.766,171.463,171.463,171.463
	c8.247,0,16.356-0.596,24.293-1.721C197.095,498.479,133.114,426.986,133.114,340.537z"/>
<path style="fill:#1F3B63;" d="M457.273,85.984c-74.25,0-99.662,56.675-185.647,68.399c-28.348,3.866-55.108,0.366-78.242-6.06
	c-0.01,0-0.01-0.01-0.021-0.01c-47.02-13.061-79.067-38.222-79.067-38.222S89.887,0,244.27,0c8.161,0,16.05,0.24,23.677,0.7h0.094
	C404.704,8.882,457.273,85.984,457.273,85.984z"/>
<path style="fill:#152C49;" d="M193.364,148.313c-47.02-13.061-79.067-38.222-79.067-38.222S89.887,0,244.27,0
	c8.161,0,16.05,0.24,23.677,0.7C184.942-2.456,123.459,104.824,193.364,148.313z"/>
<path style="fill:#E5C69A;" d="M427.472,335.589v4.942c0,5.622-0.272,11.191-0.805,16.677c-1.39,0.136-2.8,0.209-4.232,0.209
	h-77.657c-14.869,0-28.975-6.039-39.706-16.332c-12.748-12.215-30.03-19.717-49.068-19.717c-19.048,0-36.331,7.502-49.068,19.717
	c-10.742,10.292-24.837,16.332-39.716,16.332H89.573c-1.432,0-2.842-0.073-4.242-0.209c-0.533-5.486-0.805-11.055-0.805-16.677
	V335.6l4.629-158.229h333.28c0.857,0,1.714,0.021,2.56,0.073c1.379,8.056,2.205,16.3,2.414,24.712v0.01L427.472,335.589z"/>
<g>
	<path style="fill:#ED3B72;" d="M380.418,373.946c-3.123,0-6.058-1.939-7.241-4.838c-1.294-3.171-0.362-6.92,2.306-9.076
		c5.563-4.496,14.035,0.552,12.616,7.613C387.371,371.266,384.117,373.946,380.418,373.946z"/>
	<path style="fill:#ED3B72;" d="M362.833,402.912c-6.953,0-10.398-8.736-5.401-13.506c2.624-2.505,6.732-2.838,9.748-0.84
		c2.537,1.68,3.891,4.811,3.381,7.81C369.929,400.096,366.616,402.912,362.833,402.912z"/>
	<path style="fill:#ED3B72;" d="M347.202,373.958c-7.084,0-10.525-9.139-5.123-13.773c2.607-2.236,6.439-2.504,9.339-0.667
		c2.769,1.754,4.144,5.18,3.404,8.366C354.011,371.384,350.808,373.958,347.202,373.958z"/>
	<path style="fill:#ED3B72;" d="M131.586,373.958c-6.916,0-10.422-8.764-5.408-13.517c2.389-2.264,6.024-2.792,8.959-1.303
		c2.953,1.497,4.701,4.848,4.198,8.129C138.756,371.046,135.422,373.958,131.586,373.958z"/>
	<path style="fill:#ED3B72;" d="M149.172,402.921c-7.01,0-10.461-8.969-5.268-13.647c5.389-4.855,14.276-0.063,12.982,7.146
		C156.223,400.116,152.944,402.921,149.172,402.921z"/>
	<path style="fill:#ED3B72;" d="M164.804,373.958c-6.768,0-10.332-8.399-5.66-13.267c2.402-2.504,6.295-3.115,9.353-1.482
		c2.922,1.561,4.59,4.93,4.035,8.201C171.902,371.124,168.585,373.958,164.804,373.958z"/>
</g>
<path style="fill:#E5C69A;" d="M284.634,304.399v36.31c0,15.82-12.821,28.63-28.63,28.63c-7.91,0-15.067-3.197-20.25-8.38
	s-8.38-12.34-8.38-20.25v-36.31"/>
<path style="fill:#ED3B72;" d="M256.001,422.69c-17.432,0-34.862-2.607-51.808-7.82c-4.137-1.273-6.46-5.658-5.186-9.795
	c1.273-4.138,5.664-6.456,9.794-5.186c30.878,9.498,63.518,9.5,94.4,0c4.136-1.274,8.522,1.048,9.794,5.186
	c1.274,4.137-1.049,8.522-5.186,9.795C290.862,420.083,273.431,422.69,256.001,422.69z"/>
<path style="fill:#152C49;" d="M89.57,154.382c0-38.107,24.725-44.292,24.725-44.292s9.383,19.404,10,44.293"/>
<path style="fill:#E5C69A;" d="M279.444,455.349h-46.889c-4.329,0-7.837-3.509-7.837-7.837c0-4.328,3.508-7.837,7.837-7.837h46.889
	c4.329,0,7.837,3.509,7.837,7.837C287.281,451.84,283.773,455.349,279.444,455.349z"/>
<path style="fill:#B6C5D8;" d="M422.431,154.382H89.57c-24.07,0-43.584,19.513-43.584,43.584v92.877
	c0,24.07,19.512,43.584,43.584,43.584h77.654c14.87,0,28.973-6.039,39.708-16.329c12.741-12.212,30.024-19.718,49.068-19.718
	s36.327,7.507,49.068,19.718c10.735,10.289,24.838,16.329,39.708,16.329h77.654c24.07,0,43.583-19.512,43.583-43.583v-92.878
	C466.014,173.895,446.501,154.382,422.431,154.382z"/>
<path style="fill:#99A9BA;" d="M127.186,334.429H89.57c-24.074,0-43.583-19.519-43.583-43.583v-92.881
	c0-24.074,19.508-43.583,43.583-43.583h37.616c-24.074,0-43.583,19.508-43.583,43.583v92.881
	C83.603,314.911,103.112,334.429,127.186,334.429z"/>
<g>
	<path style="fill:#F4E662;" d="M351.876,194.688c-0.064-0.256-0.128-0.512-0.128-0.704c0-2.368,3.647-4.095,6.398-4.095
		c1.6,0,2.88,0.512,3.263,1.856l8.957,32.823l8.894-32.823c0.383-1.344,1.663-1.856,3.263-1.856c2.751,0,6.398,1.727,6.398,4.095
		c0,0.192-0.064,0.448-0.127,0.704l-11.901,39.029c-0.704,2.24-3.583,3.327-6.526,3.327c-2.942,0-5.822-1.088-6.525-3.327
		L351.876,194.688z"/>
	<path style="fill:#F4E662;" d="M399.036,192.896c0-1.6,1.215-3.007,3.071-3.007h13.244c8.767,0,15.739,3.263,15.739,13.692
		c0,7.166-3.263,11.261-7.742,12.989l7.806,14.14c0.256,0.385,0.32,0.832,0.32,1.153c0,2.495-3.327,5.182-6.269,5.182
		c-1.281,0-2.496-0.512-3.201-1.855l-8.766-17.019h-4.222v15.42c0,2.048-2.496,3.071-4.99,3.071c-2.496,0-4.99-1.023-4.99-3.071
		V192.896z M409.017,198.591v11.9h6.334c3.584,0,5.759-1.471,5.759-5.951c0-4.478-2.175-5.95-5.759-5.95L409.017,198.591
		L409.017,198.591z"/>
</g>
<g>
</g>
<g>
</g>
<g>
</g>
<g>
</g>
<g>
</g>
<g>
</g>
<g>
</g>
<g>
</g>
<g>
</g>
<g>
</g>
<g>
</g>
<g>
</g>
<g>
</g>
<g>
</g>
<g>
</g>
</svg>
