<svg id="icons" enable-background="new 0 0 64 64" height="512" viewBox="0 0 64 64" width="512" xmlns="http://www.w3.org/2000/svg"><path d="m23.99 8.01v13.011h-.01l-6.99-.011-5 2v-2h-3v-13h14.99z" fill="#ccd1d9"/><path d="m23.99 1v7.01 13.011 4l21.01-.011 6 2v-2h3v-24.01z" fill="#e6e9ed"/><path d="m40.99 5c.55 0 1 .45 1 1v1c0 .55-.45 1-1 1h-3.99c-.55 0-1-.45-1-1v-1c0-.55.45-1 1-1z" fill="#aab2bd"/><path d="m48.991 12.009v1.495s-.45.495-1 .495h-17.988c-.55 0-1-.45-1-1v-2c0-.55.45-1 1-1h17.988c.55 0 1 .45 1 1z" fill="#aab2bd"/><path d="m36.99 16.999v3.01h-2.99c-1.65 0-3-1.35-3-3v-3.01c0 1.65 1.35 3 3 3z" fill="#545c66"/><path d="m46.99 13.009v.99c0 1.65-1.351 3-3 3h-3l-2-1-2 1h-2.99c-1.65 0-3-1.35-3-3v-.99-3.01c0-1.649 1.35-3 3-3h2 5.99 2c1.649 0 3 1.351 3 3z" fill="#656d78"/><path d="m46.99 17.009c0 1.65-1.351 3-3 3h-3v-3.01h3c1.649 0 3-1.35 3-3z" fill="#545c66"/><path d="m40.99 16.999v3.01l-2-1-2 1v-3.01l2-1z" fill="#434a54"/><path d="m54 52.07v3.93l-2 1-2-1-2 1-2-1v-3.93c1.2.6 2.55.93 3.99.93s2.8-.34 4.01-.93z" fill="#f5f7fa"/><path d="m5 35c0-1.66 1.34-3 3-3v6c0 1.66-1.35 3-3 3z" fill="#e9573f"/><path d="m26 63h-24v-2c0-2.76 2.23-5 5-5h3l4 5 3.99-4.979.01-.021h3c2.76 0 5 2.24 5 5z" fill="#48cfad"/><path d="m21 56h-3c2.759.002 4.997 2.241 4.997 5v2h3.003v-2c0-2.76-2.24-5-5-5z" fill="#37bc9b"/><path d="m18 52.07v3.93l-.01.021-3.99 4.979-4-5v-3.93c1.2.59 2.55.93 3.99.93 1.439 0 2.79-.34 4-.939z" fill="#eac6bb"/><path d="m59 39.5v1.22c-1.95-2.539-3.36-3.09-5-2.88l3-4.17c1.26 1.61 2 3.641 2 5.83z" fill="#f6bb42"/><path d="m57 33.67-3 4.17c-2.66.341-5.92 2.67-13 1.801-.33-.04-.66-.091-1-.141 0-5.24 4.25-9.5 9.49-9.5 3.05 0 5.77 1.44 7.51 3.67z" fill="#ffce54"/><path d="m18.99 41h-7.99c-1.66 0-3-1.34-3-3v-6c1.9-1.95 4.56-2.979 7.5-2.979 5.8 0 10.5 4.699 10.5 10.5v8.5c0-2.37-1.19-4.471-3-5.74-1.14-.8-2.52-1.26-4.01-1.26z" fill="#fc6e51"/><path d="m15.5 29.021c-.53 0-1.046.045-1.555.111 5.112.707 9.052 5.081 9.052 10.389v2.758c.001.001.002.001.003.002 1.81 1.27 3 3.37 3 5.74v-8.5c0-5.801-4.7-10.5-10.5-10.5z" fill="#e9573f"/><path d="m59 44v.01c0 3.53-2.04 6.58-5 8.061-1.21.589-2.57.929-4.01.929s-2.79-.33-3.99-.93c-2.96-1.47-5-4.521-5-8.061v-.05-4.319c7.08.869 10.34-1.46 13-1.801 1.64-.21 3.05.341 5 2.88z" fill="#eac6bb"/><path d="m55.997 38.08v5.92.01c0 3.53-2.04 6.58-5 8.061-.78.38-1.627.643-2.514.791.491.081.991.138 1.507.138 1.439 0 2.8-.34 4.01-.93 2.96-1.48 5-4.53 5-8.061v-.009-3.28c-1.134-1.476-2.083-2.266-3.003-2.64z" fill="#d3b1a9"/><path d="m62 61v2h-24v-2c0-2.76 2.23-5 5-5h3l2 1 2-1 2 1 2-1h3c2.76 0 5 2.24 5 5z" fill="#e6e9ed"/><path d="m57 56h-3-.001c2.759.002 4.998 2.241 4.998 5v2h3.003v-2c0-2.76-2.24-5-5-5z" fill="#ccd1d9"/><path d="m23 42.28v1.72c0 3.54-2.04 6.601-5.01 8.061-1.21.6-2.561.939-4 .939-1.44 0-2.79-.34-3.99-.93-2.96-1.47-5-4.53-5-8.07v-3c1.65 0 3-1.34 3-3 0 1.66 1.34 3 3 3h7.99v.021c1.49 0 2.87.459 4.01 1.259z" fill="#eac6bb"/><path d="m19.997 41.098v2.902c0 3.54-2.04 6.601-5.01 8.061-.778.386-1.619.649-2.5.799.49.082.988.14 1.503.14 1.439 0 2.79-.34 4-.939 2.97-1.46 5.01-4.521 5.01-8.061v-1.72c-.878-.616-1.899-1.024-3.003-1.182z" fill="#d3b1a9"/><g style="fill:none;stroke:#000;stroke-width:2;stroke-linecap:round;stroke-linejoin:round;stroke-miterlimit:10"><path d=""/><path d=""/><path d=""/></g><path d="m50.03 60.999c-.553 0-1.005-.447-1.005-1s.442-1 .994-1h.011c.552 0 1 .447 1 1s-.448 1-1 1z" fill="#e6e9ed"/><path d="m42.994 13.003h-7.99c-.553 0-1-.447-1-1s.447-1 1-1h7.99c.553 0 1 .447 1 1s-.447 1-1 1z" fill="#545c66"/></svg>