<?xml version="1.0"?>
<svg xmlns="http://www.w3.org/2000/svg" xmlns:xlink="http://www.w3.org/1999/xlink" version="1.1" id="Capa_1" x="0px" y="0px" viewBox="0 0 512.001 512.001" style="enable-background:new 0 0 512.001 512.001;" xml:space="preserve" width="512px" height="512px"><g><g>
	<g>
		<path d="M122.996,120.459c-3.79,0-6.024,1.944-7.385,5.733c-4.76,13.506-9.23,29.053-14.088,42.753l-14.38-42.848    c-1.263-3.79-3.888-5.733-7.774-5.733c-5.15,0-7.773,2.624-7.773,7.773c0,0.971,0.194,2.04,0.485,3.109l20.6,57.133    c1.846,5.15,4.761,7.773,8.745,7.773c4.276,0,7.384-2.818,9.425-8.551l19.919-56.162c0.388-0.778,0.68-1.846,0.68-2.818    C131.45,124.442,126.98,120.459,122.996,120.459z" data-original="#000000" class="active-path" data-old_color="#000000" fill="#000000"/>
	</g>
</g><g>
	<g>
		<path d="M178.187,163.115c7.87-5.053,11.465-12.535,11.465-19.919c0-11.563-9.035-22.64-25.36-22.64h-19.336    c-6.316,0-9.619,2.526-9.619,8.065h-0.001v58.98c0,5.733,2.624,8.551,7.871,8.551c5.15,0,7.676-2.818,7.676-8.551v-20.502h11.271    l12.243,24.874c1.749,3.401,4.373,4.275,7.093,4.275c5.053,0,7.385-3.11,7.385-7.482c0-1.651-0.583-3.4-1.263-5.052    L178.187,163.115z M164.973,151.649h-14.089v-15.546h14.089c6.121,0,8.745,3.498,8.745,7.093    C173.718,147.277,170.414,151.649,164.973,151.649z" data-original="#000000" class="active-path" data-old_color="#000000" fill="#000000"/>
	</g>
</g><g>
	<g>
		<path d="M511.804,324.696l-8.343-55.218c-1.304-8.631-8.587-14.896-17.316-14.896h-25.304    c-9.398-22.534-30.945-38.613-56.231-40.299c-1.058-0.071-2.116-0.141-3.175-0.212c-54.264-3.618-110.739-12.179-165.06-8.557    c-1.78,0.119-3.559,0.237-5.339,0.356c6.022-13.462,9.379-28.366,9.379-44.042c0-59.682-48.555-108.237-108.236-108.237    c-41.021,0-78.034,22.744-96.595,59.357c-1.879,3.707-0.398,8.236,3.31,10.115c3.706,1.879,8.236,0.398,10.115-3.31    c15.983-31.526,47.851-51.111,83.17-51.111c51.382,0,93.185,41.802,93.185,93.185c0,16.392-4.259,31.806-11.722,45.202    c-36.266,2.418-72.533,4.835-108.799,7.253C90.846,215.215,78,220.568,67.72,228.975c-16.176-15.507-26.842-36.772-28.498-60.579    c-0.289-4.147-3.884-7.272-8.03-6.985c-4.146,0.289-7.274,3.883-6.985,8.03c1.864,26.808,13.558,51.749,32.958,70.403    c-3.451,4.487-6.34,9.431-8.553,14.738H25.856c-8.729,0-16.011,6.265-17.316,14.896l-8.343,55.218    c-0.762,5.05,0.71,10.165,4.041,14.036c3.33,3.871,8.169,6.091,13.275,6.091h17.261l-5.043,39.671    c-2.377,18.693,3.405,37.525,15.861,51.665s30.408,22.25,49.252,22.25h52.34c12.659,0,25.141-2.108,37.099-6.265l67.829-23.579    h5.227l67.829,23.579c3.927,1.366,8.215-0.71,9.58-4.637c1.365-3.926-0.711-8.215-4.637-9.58l-69.03-23.997    c-0.795-0.276-1.63-0.417-2.471-0.417h-7.769c-0.841,0-1.677,0.141-2.471,0.417l-69.029,23.997    c-10.365,3.603-21.184,5.43-32.157,5.43h-52.34c-14.523,0-28.358-6.25-37.958-17.148c-9.6-10.897-14.056-25.41-12.224-39.817    l6.109-48.059l10.43-74.465c6.371-19.188,23.866-33.183,44.642-34.568c43.183-2.879,86.366-5.758,129.548-8.636    c54.973-3.665,112.493,4.922,167.781,8.607c0.145,0.01,0.291,0.019,0.436,0.029c24.084,1.606,43.773,20.15,46.817,44.095    l14.364,112.996c1.831,14.407-2.624,28.92-12.224,39.817c-9.6,10.898-23.435,17.148-37.958,17.148h-32.506    c-4.156,0-7.526,3.37-7.526,7.526s3.369,7.526,7.526,7.526h32.508c18.844,0,36.796-8.11,49.252-22.25s18.238-32.971,15.861-51.665    l-5.043-39.671h19.81c5.106,0,9.945-2.22,13.275-6.091C511.094,334.862,512.566,329.746,511.804,324.696z M44.097,271.498    l-7.408,58.274H17.514v0.001c-0.982,0-1.59-0.536-1.865-0.856c-0.275-0.319-0.715-1.001-0.568-1.972l8.343-55.218    c0.183-1.213,1.206-2.093,2.433-2.093h18.519C44.279,270.254,44.176,270.872,44.097,271.498z M496.353,328.917    c-0.275,0.32-0.883,0.856-1.865,0.856h-19.259l-8.424-60.138h19.34c1.226,0,2.249,0.88,2.433,2.093l8.343,55.217    C497.068,327.916,496.628,328.597,496.353,328.917z" data-original="#000000" class="active-path" data-old_color="#000000" fill="#000000"/>
	</g>
</g><g>
	<g>
		<path d="M282.431,254.582h-63.178c-4.157,0-7.526,3.369-7.526,7.526c0,4.157,3.37,7.526,7.526,7.526h63.178    c4.156,0,7.526-3.369,7.526-7.526C289.957,257.951,286.587,254.582,282.431,254.582z" data-original="#000000" class="active-path" data-old_color="#000000" fill="#000000"/>
	</g>
</g><g>
	<g>
		<path d="M381.692,301.69c-2.699-3.16-7.45-3.534-10.61-0.834l-36.41,31.099c-3.16,2.699-3.534,7.45-0.834,10.61    c1.489,1.743,3.601,2.638,5.726,2.638c1.729,0,3.467-0.593,4.884-1.804l36.41-31.099    C384.018,309.601,384.392,304.85,381.692,301.69z" data-original="#000000" class="active-path" data-old_color="#000000" fill="#000000"/>
	</g>
</g><g>
	<g>
		<path d="M419.876,316.146c-2.699-3.16-7.449-3.534-10.61-0.834l-90.934,77.673c-3.16,2.699-3.534,7.45-0.834,10.61    c1.489,1.743,3.601,2.638,5.726,2.638c1.729,0,3.467-0.593,4.884-1.804l90.934-77.673    C422.202,324.057,422.576,319.306,419.876,316.146z" data-original="#000000" class="active-path" data-old_color="#000000" fill="#000000"/>
	</g>
</g><g>
	<g>
		<path d="M156.105,301.69c-2.699-3.16-7.449-3.534-10.61-0.834l-36.409,31.099c-3.16,2.699-3.534,7.45-0.834,10.61    c1.489,1.743,3.601,2.638,5.726,2.638c1.729,0,3.467-0.593,4.884-1.804l36.409-31.099    C158.431,309.601,158.805,304.85,156.105,301.69z" data-original="#000000" class="active-path" data-old_color="#000000" fill="#000000"/>
	</g>
</g><g>
	<g>
		<path d="M194.29,316.146c-2.699-3.16-7.45-3.534-10.61-0.834l-90.934,77.673c-3.16,2.699-3.534,7.45-0.834,10.61    c1.489,1.743,3.601,2.638,5.726,2.638c1.729,0,3.467-0.593,4.884-1.804l90.934-77.673    C196.616,324.057,196.99,319.306,194.29,316.146z" data-original="#000000" class="active-path" data-old_color="#000000" fill="#000000"/>
	</g>
</g></g> </svg>
