<svg width="756" height="129" viewBox="0 0 756 129" fill="none" xmlns="http://www.w3.org/2000/svg">
<path d="M149.508 35.0546C149.362 36.8001 151.408 35.7819 152.284 35.9273L152.577 40.291C151.7 40.5819 149.508 39.4183 149.508 41.1637V94.9819C150.385 96.291 152.577 97.0183 151.992 98.9092L142.348 108.364L133.289 96.8728C134.019 78.5455 133.289 59.6364 133.873 41.0183C133.435 39.7092 131.827 40.4364 130.951 40.291L130.658 36.0728L133.581 35.491L134.311 12.5092C139.28 10.1819 143.955 7.56371 149.216 5.52734C149.946 15.1273 149.654 26.6183 149.508 35.0546Z" fill="black"/>
<path d="M174.056 35.9273L177.417 36.2182L177.709 40.4364C176.394 40.7273 174.056 39.5636 173.764 41.3091V94.4C174.641 95.8545 177.563 96.7273 176.394 98.7636L166.75 108.073L157.545 97.1636C158.129 78.1091 158.568 59.7818 158.129 40.5818C157.252 40.1454 155.937 40.4364 154.915 40.4364V36.2182C155.791 35.7818 157.106 36.0727 158.129 35.9273C159.006 28.5091 158.129 20.3636 158.86 12.6545L172.741 5.96362L173.472 6.6909L174.056 35.9273Z" fill="black"/>
<path d="M657.133 96.5818C658.009 97.7455 660.055 98.7636 659.909 100.509L650.996 110.109C647.781 106.909 644.712 102.982 641.936 99.2C642.521 93.5273 642.813 87.1273 642.667 80.8727L642.959 13.8182L656.548 6.98181L657.133 7.85454V96.5818Z" fill="black"/>
<path d="M199.481 17.891L191.152 25.891C187.792 23.7092 185.015 20.2182 181.947 17.4546V16.291L190.714 7.85461L199.481 16.291V17.891Z" fill="black"/>
<path d="M728.586 38.691L732.239 39.2728L731.946 43.0546C730.485 43.2001 727.709 42.7637 728.293 44.8001L728.001 97.6001C729.024 98.7637 731.216 100.218 729.755 101.818L721.28 110.691L712.804 100.364C713.389 80.4364 713.681 63.1273 713.243 43.0546H709.59V38.9819C710.613 38.5455 712.074 38.691 713.243 38.691L714.12 14.8364L728.147 7.85461C729.024 17.7455 728.293 28.3637 728.586 38.691Z" fill="black"/>
<path d="M105.964 17.891C103.041 20.5092 100.265 23.4183 97.4887 26.0364C93.6896 23.5637 91.2055 20.5092 87.8447 17.1637L96.9042 7.85461L105.964 16.5819V17.891Z" fill="black"/>
<path d="M117.654 26.6182C114.585 23.7091 110.932 20.5091 108.594 17.1637L117.654 8.4364L126.421 17.4546L117.654 26.6182Z" fill="black"/>
<path d="M752.55 38.9818L755.618 39.2728V43.3455H752.55L751.965 96.4364C758.102 101.527 748.166 105.309 745.828 109.382L744.951 110.4L736.184 99.9273C735.746 98.6182 736.915 97.7455 737.207 96.8727L737.353 43.4909C736.476 42.9091 735.161 43.4909 734.284 42.9091V39.1273L737.353 38.5455C737.937 30.6909 737.645 22.9818 737.937 15.1273C742.759 13.2364 747.435 10.3273 751.965 8.72729L752.55 38.9818Z" fill="black"/>
<path d="M244.194 39.2727C243.756 58.3273 242.879 74.1818 243.902 93.2364C244.048 95.4182 246.532 96.5818 246.532 98.7637L236.304 108.655C232.066 104.291 227.098 99.2 228.706 92.0727C228.852 76.9455 229.728 59.0546 227.975 43.4909C227.244 42.1818 226.368 41.0182 224.906 40.8727L222.276 43.0546L222.569 93.6727L225.199 98.4727C222.569 101.964 218.916 105.309 215.555 108.218L206.057 96L206.934 94.5455V41.6C206.203 40.7273 205.034 40 205.618 38.6909L214.824 29.0909L223.884 38.6909L234.55 27.3455L244.194 39.2727Z" fill="black"/>
<path d="M198.458 38.691C197.582 57.1637 197.582 73.4546 197.582 92.3637L200.796 97.6C198.02 101.236 194.221 104.436 191.152 107.782L181.508 96.1455C182.823 78.1091 182.239 59.6364 182.093 40.5819C181.216 40.0001 180.924 38.8364 181.362 37.9637L189.983 28.5092L198.458 38.691Z" fill="black"/>
<path d="M364.744 29.5273C368.543 35.0546 372.635 41.7455 375.265 47.7091C372.635 51.3455 368.251 54.6909 364.744 58.1819C360.361 53.8182 358.753 47.4182 355.1 42.4728C354.37 41.7455 353.347 42.6182 353.493 43.3455V90.4728L364.452 98.9091V99.7819C361.237 102.4 358.315 105.746 355.1 108.8C349.255 105.309 343.995 100.945 338.442 97.0182C339.319 79.1273 339.027 59.9273 338.735 42.6182C339.027 40.5819 335.812 40.1455 336.543 37.9637L345.749 29.0909L353.931 39.7091L364.744 29.5273Z" fill="black"/>
<path d="M449.348 88.8727C449.495 69.3818 448.91 49.0182 449.787 30.5455L455.193 29.6727C462.938 24.2909 465.276 15.4182 464.399 6.54545C463.668 9.6 462.499 13.5273 458.846 14.6909C444.526 13.2364 434.736 1.16363 419.394 1.74545C411.211 3.34545 403.466 8.87272 400.982 17.3091C400.106 24 400.544 30.6909 407.119 34.6182C408.435 35.4909 410.48 35.6364 411.065 37.2364C407.85 41.6 404.489 45.9636 402.151 50.7636C396.014 65.6 397.914 85.8182 407.996 98.3273C416.471 107.2 428.161 113.018 440.581 108.218C455.632 102.4 462.499 86.9818 462.207 71.7091C458.846 77.2364 456.362 85.8182 449.348 88.8727ZM405.658 30.6909C404.781 28.3636 402.59 26.7636 403.466 23.8545C406.097 20.0727 410.188 16.2909 415.594 16.8727C425.238 18.6182 432.691 24.8727 441.75 28.0727C437.513 32.5818 431.376 34.7636 425.385 36.5091L419.54 36.2182C419.978 33.3091 422.462 31.4182 422.9 28.5091C419.394 29.0909 416.763 32.8727 413.403 35.0545C410.188 35.0545 408.288 32 405.658 30.6909ZM417.786 83.6364C411.211 70.6909 411.211 51.6364 418.225 38.9818C420.709 38.4 423.485 38.9818 425.823 38.4V83.6364C423.485 84.5091 418.955 89.0182 417.786 83.6364ZM446.28 91.0545C440.727 94.8364 432.544 95.2727 426.407 92.3636C424.8 90.7636 421.878 90.4727 421.585 88L442.335 78.8364C444.088 62.1091 443.211 47.4182 443.357 29.9636C444.234 29.2364 445.257 28.2182 446.426 29.0909L446.28 91.0545Z" fill="black"/>
<path d="M80.2465 56.2898C78.4931 45.9625 70.018 35.7807 59.3512 33.308C57.5978 33.8898 55.5521 34.4716 53.7986 34.1807L53.9447 17.4534C55.6982 17.5989 57.4516 18.1807 59.059 17.8898C65.6344 15.1262 70.1642 7.9989 70.8948 1.01708C68.9952 3.1989 66.5111 4.36254 64.1732 5.23527C60.6663 4.36254 56.721 3.1989 54.8215 -0.00109863C45.6158 7.9989 36.118 15.9989 25.4511 19.9262C27.2046 13.0898 33.3417 7.41708 38.602 2.76254C32.1727 4.07163 26.9123 8.28981 21.3597 12.2171C3.24072 26.7625 -3.04249 49.0171 1.34115 72.1444C3.38684 87.8534 15.0765 103.126 30.4192 108.363C39.3326 112.29 49.415 108.653 57.4516 105.017C75.2784 95.1262 81.8539 75.6353 80.2465 56.2898ZM24.136 22.9807L29.9809 20.3625L30.5654 22.5444L29.9809 92.6535L26.6201 93.6716C17.9989 73.4535 16.5377 44.0716 24.136 22.9807ZM50.5839 103.563C47.3693 106.326 42.9857 106.763 38.7481 107.199L32.9033 103.272C31.5882 100.653 28.6658 98.6171 28.3735 95.5625L46.3464 86.2534C47.077 68.7989 46.9309 56.2898 47.2232 38.6898H50.5839V103.563V103.563ZM50.5839 35.4898L47.2232 36.7989L46.9309 11.7807L51.1684 15.9989L50.5839 35.4898ZM53.9447 100.217V40.4353C58.7667 44.508 58.6206 50.7625 59.9357 56.2898C60.8124 71.2716 62.1275 87.8535 53.9447 100.217Z" fill="black"/>
<path d="M125.398 39.5637C120.43 35.2 114.877 31.8546 109.763 27.7819C103.334 33.6 96.612 38.8364 87.8448 39.5637L88.137 93.2364C88.4292 94.6909 86.8219 95.8546 87.4064 97.1637L103.187 108.364C109.325 101.382 116.923 98.1818 125.106 95.5637C124.083 75.9273 124.96 59.3455 125.398 39.5637ZM109.617 95.1273C107.133 94.2546 105.379 92.3637 103.334 90.7637L103.626 40.291L109.763 44.6546V95.1273H109.617Z" fill="black"/>
<path d="M289.784 97.1636C289.93 79.1273 289.638 58.4727 290.076 39.8545C284.67 35.7818 279.556 31.4182 273.565 28.6545C267.574 33.8909 261.729 38.8364 254.131 39.8545L253.546 94.6909C254.131 100.364 257.638 105.309 261.729 109.236L274.149 97.3091C273.272 105.018 285.254 107.491 283.355 115.491C282.04 116.509 280.725 117.964 279.263 118.691C275.318 116.218 271.519 113.6 267.135 112.582C262.313 113.6 258.222 116.655 254.423 120.291V121.164C259.537 122.036 263.775 125.527 268.304 128.145C276.195 122.036 286.423 117.673 291.976 109.091C294.314 104.436 290.515 101.091 289.784 97.1636ZM274.003 94.4C273.126 95.4182 272.104 96 270.935 96C268.158 93.0909 268.304 88.5818 268.45 84.8V41.7454L274.295 45.2364L274.003 94.4Z" fill="black"/>
<path d="M504.29 93.9636C504.29 77.3818 503.998 58.3273 504.436 41.1636L486.463 28.3636C481.057 34.0364 475.066 38.9818 468.052 40.5818L467.613 93.0909C467.321 99.6364 471.559 104.727 475.796 109.091L488.216 96.1455H488.947C489.824 101.236 493.331 105.164 496.545 109.236L506.774 98.4727C506.482 96.5818 504.874 95.4182 504.29 93.9636ZM484.856 96L483.102 93.2364L483.394 42.0364L488.216 45.6727L488.509 92.5091L484.856 96Z" fill="black"/>
<path d="M549.88 97.6C549.88 80.2909 549.733 59.3455 550.172 40.8727C544.473 37.2364 539.943 31.4182 533.514 29.3818C527.962 35.4909 521.532 39.1273 514.08 40.8727L513.934 96.7273C514.518 101.673 518.025 106.182 521.678 109.382L534.683 95.8546L535.121 96.2909C533.076 104.727 544.327 106.764 544.181 114.327C543.45 116.655 540.966 117.382 539.359 118.545C535.121 116.073 531.176 113.455 526.208 112.727C521.094 113.6 516.564 117.964 513.788 122.182C518.756 122.327 522.555 125.236 526.354 128C534.391 122.618 543.743 119.418 550.61 111.855C552.802 107.345 551.633 101.527 549.88 97.6ZM534.683 92.5091C533.076 93.6727 532.199 97.3091 529.715 96.1455L528.838 93.3818L529.13 42.3273L534.683 46.2546V92.5091Z" fill="black"/>
<path d="M626.593 29.9637H625.424L612.712 41.6001H611.981L611.689 7.56372C607.159 9.45463 602.045 11.9274 597.369 14.2546L597.077 98.7637L612.858 110.109C618.995 104.727 624.986 99.6364 632.877 98.7637L633.023 45.9637C632.438 40.0001 630.246 34.6183 626.593 29.9637ZM618.264 97.1637C616.073 96.7273 614.027 94.5455 612.127 93.2364V44.6546C616.949 38.1092 618.264 48.291 618.264 51.3455V97.1637Z" fill="black"/>
<path d="M702.722 94.4001C703.307 78.5455 702.43 59.2001 703.453 42.1819C697.9 38.691 692.64 34.1819 686.941 30.8364C680.95 36.3637 674.813 40.8728 666.923 42.0364L666.776 94.8364C666.484 101.236 671.014 105.6 674.521 110.4L687.818 97.3092C688.841 102.546 692.932 106.473 696.293 110.546L705.791 100.218C705.937 97.7455 703.161 96.5819 702.722 94.4001ZM687.672 93.6728L683.288 98.0364L682.119 96.8728L682.411 42.9092C684.311 44.6546 686.795 45.8182 688.256 48.0001L687.672 93.6728Z" fill="black"/>
<path d="M314.333 72.4364C321.639 68.5091 328.652 62.9818 335.228 58.4727C331.867 48.2909 328.214 37.9636 324.269 28.3636C316.817 34.6182 308.926 39.8546 299.136 40.7273L298.99 89.8909L297.967 96.2909C303.52 100.364 308.926 105.6 314.917 108.655L324.269 99.6364V98.9091C321.346 95.8546 317.255 93.3818 314.04 90.1818C314.186 84.3636 313.894 78.2546 314.333 72.4364ZM314.625 44.0727L321.639 65.1636L314.917 69.6727L314.333 68.8L314.625 44.0727Z" fill="black"/>
<path d="M573.844 73.6L594.447 59.3455C591.67 49.0182 587.579 39.2727 584.072 29.3818C576.766 35.9273 568.437 39.7091 558.793 40.5818C558.501 59.2 559.378 79.4182 557.917 96.7273L575.451 109.673L584.657 99.7818V98.9091L573.698 91.0546V73.6H573.844ZM574.428 46.1091L580.858 65.1636C580.565 68.0727 576.62 68.8 574.428 70.5455V46.1091Z" fill="black"/>
</svg>
