<svg width="842" height="128" viewBox="0 0 842 128" fill="none" xmlns="http://www.w3.org/2000/svg">
<g clip-path="url(#clip0)">
<path d="M0.996351 15.5526C0.455123 16.0956 0.0685296 17.5696 0.0685296 18.9659C0.0685296 21.7586 0.455122 21.9138 8.34161 22.8447C11.1251 23.155 13.5993 23.8532 14.1405 24.5514C15.6869 26.4132 15.3776 104.222 13.8312 105.773C13.5993 106.006 10.5065 106.782 6.94989 107.557L0.455123 108.876L0.223167 111.979L-0.00878906 115.082L25.9703 115.16H51.9493L51.7174 112.057L51.4854 108.876L45.6865 107.868C42.5165 107.325 39.1144 106.704 38.1866 106.471C36.5629 106.161 36.4856 106.006 36.4083 88.0082L36.331 69.8556L38.1093 69.3902C39.1144 69.1574 50.7122 69.1574 64.011 69.4677L88.0571 69.9332L88.5984 76.915C88.9076 80.7161 88.9076 88.8615 88.5984 94.9124L88.0571 106.006L80.8665 107.325L73.6759 108.721L73.1346 111.358C72.9027 112.832 72.8254 114.229 72.98 114.384C73.212 114.617 85.0417 114.849 99.3457 115.005L125.325 115.16L124.861 112.445C124.552 110.893 124.242 109.419 124.088 109.109C123.933 108.876 120.918 107.868 117.361 106.937L111.021 105.23L110.789 65.9768C110.634 44.3332 110.866 26.258 111.175 25.715C111.562 25.2496 114.732 24.0083 118.366 22.9999L124.938 21.138L125.17 18.1126L125.402 15.0096L100.273 15.0871C86.5108 15.1647 74.8357 15.475 74.3717 15.7077C73.9078 16.018 73.5212 17.2593 73.5212 18.4229C73.5212 20.5174 73.8305 20.6726 80.016 22.3017C83.65 23.3102 86.9747 24.5514 87.5159 25.172C88.1345 25.9477 88.521 31.6108 88.8303 42.8593L89.2169 59.3829L79.2428 59.8483C66.6399 60.5465 56.2019 60.5465 45.2226 59.8483L36.5629 59.3829L36.8722 41.8508C37.2588 21.6811 36.1763 23.8532 46.3051 22.3017L51.872 21.4483V18.5005C51.872 14.5441 51.0215 14.3114 39.733 15.3974C33.3929 15.9405 27.13 15.9405 19.3982 15.3974C4.78496 14.389 2.07881 14.4665 0.996351 15.5526Z" fill="#0066FF"/>
<path d="M437.692 17.9574V21.4483L441.403 22.3016C443.413 22.6895 446.197 23.3101 447.589 23.5429C451.996 24.3962 452.305 25.5598 453.156 46.8156C453.542 57.521 453.929 74.7429 454.006 85.1379C454.161 106.937 454.779 105.075 446.042 107.868L440.785 109.574V112.988V116.478L444.109 115.78C445.888 115.392 457.254 115.082 469.393 115.082H491.428V111.591V108.1L484.238 107.247C480.295 106.704 476.815 106.083 476.506 105.773C475.578 104.842 475.114 26.1804 475.965 24.9392C477.356 23.0774 485.398 22.7671 490.655 24.3186C499.16 26.7235 503.181 33.938 502.485 45.1865C502.021 52.0907 499.856 56.5901 495.604 59.3829C493.052 61.0119 491.351 61.4774 486.325 61.7877L480.217 62.1756V65.4338C480.217 68.6919 480.294 68.7695 484.315 70.5538C487.794 72.1829 489.573 72.4156 496.841 72.4156C504.418 72.4156 505.81 72.1829 509.753 70.321C515.861 67.4507 520.732 62.7186 523.748 56.5901C526.067 51.858 526.222 50.9271 526.222 43.7126C526.222 36.4204 526.067 35.6447 523.67 31.0677C519.263 22.6119 513.542 18.2677 504.263 16.2507C501.557 15.6301 491.196 15.3974 474.882 15.3974C461.042 15.475 446.97 15.2422 443.723 14.9319L437.692 14.3889V17.9574Z" fill="#0066FF"/>
<path d="M753.693 19.8194C753.461 20.2073 752.611 23.0776 751.683 26.3358C750.755 29.5939 749.131 34.7915 748.126 37.9721C747.044 41.0752 746.193 43.7903 746.193 44.1006C746.193 44.3333 747.276 45.1867 748.59 45.9624L750.987 47.3588L757.018 40.92L762.972 34.4036L774.029 34.1709C780.137 34.0158 785.317 34.1709 785.704 34.5588C786.168 35.0242 786.477 49.7636 786.632 69.1576C786.786 98.5585 786.632 103.135 785.627 104.222C784.931 104.842 781.529 106.238 777.972 107.247C770.703 109.419 769.002 110.583 769.621 113.298L770.085 115.082H795.601C809.595 115.082 821.27 114.849 821.58 114.539C821.889 114.229 821.889 112.988 821.58 111.669C821.116 109.497 820.729 109.264 814.776 107.868C809.363 106.626 808.436 106.161 807.972 104.532C807.662 103.523 807.43 87.2324 807.353 68.3042L807.276 34.0158H816.786C823.203 34.0158 826.683 34.3261 827.533 34.9467C828.229 35.4897 830.085 38.8255 831.708 42.3164C834.26 48.1346 834.724 48.7552 836.734 48.7552C841.373 48.7552 841.296 49.143 841.296 33.5503V19.2764H838.203C835.42 19.2764 835.033 19.5091 834.028 21.9139C833.178 24.0085 832.482 24.5515 829.853 24.9394C828.229 25.2497 812.302 25.4824 794.596 25.4824H762.43L760.497 22.3794C758.951 19.897 758.1 19.2764 756.245 19.2764C755.008 19.2764 753.848 19.5091 753.693 19.8194Z" fill="#0066FF"/>
<path d="M172.876 22.5345C169.938 30.9127 142.721 102.282 141.871 103.989C140.556 106.549 137.541 108.1 132.129 108.876C128.495 109.419 128.417 109.497 128.417 112.367V115.237L146.046 115.005L163.597 114.772L163.829 112.057C164.061 109.497 163.907 109.342 161.123 108.876C153.237 107.48 152.386 107.092 152.464 104.377C152.464 102.98 153.933 97.8603 155.788 92.973L159.113 84.0518L172.257 83.8191L185.401 83.6639L189.731 94.6797C192.205 101.041 193.752 106.083 193.365 106.471C192.979 106.859 190.118 107.712 187.025 108.488C181.458 109.807 181.381 109.807 181.149 112.445L180.917 115.082L204.576 115.16H228.236L228.004 112.445C227.772 109.885 227.463 109.574 224.293 108.643C222.36 108.1 219.963 107.402 218.88 107.092C216.483 106.394 215.865 105.152 204.654 76.9927C199.783 64.6581 192.669 47.2036 188.881 38.2823L181.999 21.9914L177.669 21.7587C174.577 21.6036 173.108 21.8363 172.876 22.5345ZM178.829 66.5199C180.453 70.9417 181.69 74.6654 181.535 74.8981C181.381 75.0533 177.051 75.0533 171.948 74.9757L162.67 74.743L166.845 63.4945C169.087 57.2884 171.175 51.703 171.407 51.0823C171.948 49.686 174.267 54.5733 178.829 66.5199Z" fill="#0066FF"/>
<path d="M251.354 22.8447C233.03 27.8095 225.53 48.4447 236.277 64.1926C239.602 69.0023 245.092 72.7259 254.215 76.2944C274.937 84.3621 277.565 85.9136 279.498 91.7318C283.519 103.446 268.287 112.988 254.138 107.712C248.958 105.695 245.092 101.662 242.076 94.8348L239.834 89.87H235.813H231.793L232.334 97.007C232.566 100.886 232.798 105.54 232.798 107.402C232.798 110.04 233.185 110.971 234.422 111.591C238.21 113.686 249.189 116.246 255.762 116.711C268.674 117.642 277.72 114.617 285.838 106.549C289.704 102.67 290.71 101.118 291.792 97.1621C292.565 94.447 293.106 89.7148 293.106 85.9136C293.106 71.3295 285.607 63.8823 263.648 56.5901C254.138 53.4095 249.576 50.5392 247.411 46.3502C244.396 40.2992 246.483 34.4035 252.901 31.0677C257.54 28.7405 262.334 28.818 267.514 31.378C272.076 33.7053 275.169 37.7392 277.256 44.178L278.571 47.9792H282.359H286.148V42.5489C286.148 39.6011 285.761 34.5586 285.297 31.3005L284.447 25.4823L280.426 24.3186C270.22 21.3708 259.009 20.7502 251.354 22.8447Z" fill="#0066FF"/>
<path d="M700.807 22.7671C694.931 24.3962 691.374 26.4132 687.741 30.292C682.096 36.1102 680.859 39.4459 680.859 48.3671C680.859 55.4265 681.091 56.5126 683.101 60.6241C685.73 65.8217 690.369 70.3987 695.704 73.0362C697.715 74.0447 704.673 76.915 711.013 79.3972C720.446 83.0433 723.152 84.4396 725.472 86.8445C734.982 96.7742 724.853 110.505 709.08 109.031C700.807 108.333 695.163 103.911 691.065 95.0675L688.668 89.8699H684.88H681.091L681.323 99.9548C681.555 107.557 681.942 110.272 682.792 111.126C684.802 113.065 697.483 116.323 704.828 116.789C717.353 117.564 727.56 114.151 735.059 106.626C739.776 101.894 741.477 97.3948 742.095 88.6287C743.178 73.0362 735.523 64.3477 714.493 57.2883C705.06 54.1077 700.498 51.7029 697.947 48.755C689.132 38.1271 702.431 24.7065 715.652 30.835C720.678 33.1623 724.235 38.1271 727.096 46.5829C727.482 47.669 728.487 47.9793 731.58 47.9793H735.601L735.137 40.7647C734.209 27.3441 733.9 26.258 730.962 25.0168C723.23 21.7587 708.616 20.6726 700.807 22.7671Z" fill="#0066FF"/>
<path d="M299.678 26.3357C299.369 28.0424 299.292 29.5939 299.446 29.7491C299.523 29.9042 302.539 30.3697 306.096 30.9127C309.652 31.3782 312.977 31.9212 313.518 32.1539C315.065 32.7745 315.528 43.2472 315.528 76.76V106.859L312.668 107.635C311.044 108.023 308.029 108.643 305.864 108.876C299.601 109.729 299.292 109.885 299.292 112.677V115.16L335.477 115.392C355.348 115.548 375.528 115.703 380.399 115.78L389.29 115.858L391.378 104.997C392.46 99.0239 393.62 92.8178 393.93 91.1888L394.471 88.3184H391.533C387.821 88.3184 387.435 88.6288 385.27 93.3609C382.409 99.3342 379.239 102.748 374.445 105.152C370.038 107.325 369.961 107.325 354.497 107.325C342.435 107.325 338.647 107.092 337.719 106.238C336.559 105.308 336.404 103.058 336.404 88.5512V71.9503L349.626 72.183C364.935 72.4933 364.162 72.0279 366.249 81.0263L367.641 86.7669H370.579H373.517V68.4594V50.2291L370.347 50.4618L367.177 50.6945L365.786 55.9697C363.698 64.3479 363.389 64.5806 348.93 64.8909L336.636 65.2012L336.173 52.7115C335.941 45.8848 335.941 38.1272 336.173 35.5672L336.636 30.9127H343.672C347.538 30.9127 355.734 31.3006 361.92 31.6885C374.832 32.6194 374.213 32.2315 379.316 42.1612C382.254 47.9794 383.801 49.2982 386.662 48.3672C388.131 47.9018 388.208 47.2036 388.208 37.1963C388.208 28.12 387.976 26.2582 386.894 25.4048C385.888 24.4739 378.157 24.3188 343.827 24.3188C320.786 24.3188 301.611 24.086 301.07 23.6982C300.529 23.3103 300.065 24.1636 299.678 26.3357Z" fill="#0066FF"/>
<path fill-rule="evenodd" clip-rule="evenodd" d="M599.993 127.224C635.008 127.224 663.394 98.7439 663.394 63.6121C663.394 28.4802 635.008 0 599.993 0C564.977 0 536.591 28.4802 536.591 63.6121C536.591 98.7439 564.977 127.224 599.993 127.224ZM587.586 20.368L597.001 22.9582L596.546 25.2436C596.242 26.4626 595.939 27.6053 595.786 27.7576C595.635 27.9862 594.041 27.6814 592.37 27.1482C590.623 26.6149 589.105 26.3864 588.877 26.5387C588.345 27.072 583.182 46.4984 583.182 47.9459C583.182 48.7077 583.79 49.3172 584.549 49.3172C585.232 49.3934 586.751 49.7743 587.814 50.3076C589.561 51.1455 589.712 51.4503 589.181 53.5834L588.498 55.9451L578.475 53.2025L578.185 53.1209H578.184C568.45 50.3835 568.378 50.363 568.528 48.2506C568.756 45.2796 568.983 45.2034 572.704 46.1175C574.45 46.5746 576.045 46.8032 576.273 46.6508C576.424 46.4223 577.64 42.3084 579.006 37.3566C579.372 35.9865 579.705 34.7603 580.002 33.6624C581.791 27.0526 582.322 25.0893 581.596 24.3183C581.289 23.9926 580.758 23.8796 580.002 23.7189C579.705 23.6557 579.372 23.5852 579.006 23.4914C577.108 23.0343 575.589 22.1964 575.589 21.6631C575.589 19.53 576.577 17.2445 577.412 17.5493C577.867 17.7016 582.499 18.9967 587.586 20.368ZM619.932 26.0055C622.21 26.9958 625.247 29.9669 625.931 32.0238C626.083 32.6333 626.994 32.481 628.892 31.5667C639.219 26.6911 648.254 38.0422 641.8 47.7174C640.585 49.4696 637.776 52.4407 635.498 54.3452C630.866 58.2305 619.628 64.0203 617.579 63.6394C615.604 63.2585 610.897 55.9451 608.163 49.0124C605.05 41.0134 604.519 33.9284 606.644 30.424C609.758 25.5483 614.769 23.8724 619.932 26.0055ZM588.953 68.1342C587.51 64.6298 583.03 60.9731 578.475 59.6018C569.515 56.9354 562.454 59.8303 558.581 67.7533C551.596 82.0752 557.139 93.6549 571.489 94.8736C579.765 95.4833 585.461 91.3695 588.573 82.456C590.244 77.5804 590.472 71.6386 588.953 68.1342ZM617.351 71.3339C621.279 72.8463 622.844 73.4489 623.22 74.4852C623.468 75.1705 623.196 76.045 622.744 77.4976V77.4976L622.742 77.5043C622.21 79.2568 621.603 80.5516 621.299 80.3995C612.491 75.7521 607.404 74.8379 605.658 77.6564C604.67 79.2568 606.265 81.1613 612.187 85.1983C617.958 89.1601 619.628 91.4455 619.628 95.3313C619.628 101.502 615.073 105.692 608.391 105.692C603.303 105.692 590.016 101.045 590.016 99.2923C590.016 98.0736 591.535 92.741 591.914 92.741C592.066 92.741 593.813 93.7309 595.862 95.0264C600.874 98.0736 606.037 99.3683 608.543 98.2256C612.415 96.474 611.048 94.1878 602.696 88.3983C596.242 83.9036 594.572 78.4182 597.989 73.2384C600.798 68.8199 608.922 68.058 617.351 71.3339ZM622.742 109.729C624.868 109.12 626.083 106.301 625.02 104.397C623.273 101.045 618.11 102.339 618.11 106.072C618.11 108.282 620.692 110.262 622.742 109.729Z" fill="#0066FF"/>
<path d="M580.721 79.7821C578.873 85.802 576.448 90.396 569.465 88.2378C562.481 86.0805 563.053 80.9139 564.901 74.8936C566.749 68.8735 570.084 64.561 576.156 66.4374C582.812 68.494 582.569 73.7617 580.721 79.7821Z" fill="#0066FF"/>
</g>
<defs>
<clipPath id="clip0">
<rect width="842" height="128" fill="white"/>
</clipPath>
</defs>
</svg>
