<?xml version="1.0" encoding="utf-8"?>
<!-- Generator: Adobe Illustrator 23.0.4, SVG Export Plug-In . SVG Version: 6.00 Build 0)  -->
<svg version="1.1" xmlns="http://www.w3.org/2000/svg" xmlns:xlink="http://www.w3.org/1999/xlink" x="0px" y="0px"
	 viewBox="0 0 323.6 177.1" style="enable-background:new 0 0 323.6 177.1;" xml:space="preserve">
<style type="text/css">
	.st0{fill:#00386C;}
	.st1{fill:#FFFFFF;}
	.st2{fill:#00AFEA;}
</style>
<g>
	<path class="st0" d="M152.9,94.1c0-16.9,5.6-30.4,16.1-39.2c0.4-0.3,0.8-0.6,1.1-0.9C156.7,22.3,125.2,0,88.6,0
		C39.7,0,0,39.6,0,88.5c0,48.9,39.7,88.5,88.6,88.5c33.6,0,62.9-18.8,77.9-46.4C157.6,122,152.9,109.4,152.9,94.1z"/>
	<path class="st0" d="M246.1,123.9L288,69.7h-38.9v-19h71.2v13.8l-42.1,54.3h45.4v18.5h-77.6V123.9z"/>
	<path class="st1" d="M64.9,50.6h25.9v13.5c5.2-6.8,14.6-15.3,29.6-15.3c14.5,0,25,7.3,25,25v62.6h-25.8V81.9
		c0-7.7-2.9-11.8-10.2-11.8c-6.9,0-12.9,3.5-18.7,8.5v57.6H64.9V50.6z"/>
	<g>
		<g>
			<path class="st2" d="M184.9,104.1c-0.6-3.1-0.9-6.4-0.9-9.8c0-15.6,5.7-26.1,18.1-26.1c6.6,0,11.1,3,14,7.9l17.5-15.7
				c-8.6-8.1-20.4-11.3-31.5-11.3c-21.1,0-44.2,11.2-44.2,45c0,11.7,2.9,20.7,7.5,27.5L184.9,104.1z"/>
			<path class="st0" d="M237,64.1l-18.8,16.8c1.3,3.9,1.9,8.5,1.9,13.4c0,15.7-5.7,26.4-18,26.4c-8.1,0-13.1-4.5-15.7-11.2
				l-17.9,16.1c8.7,9.7,21.6,13.4,33.7,13.4c20.9,0,44.1-11.3,44.1-44.9C246.2,80.8,242.6,71.1,237,64.1z"/>
		</g>
	</g>
</g>
</svg>
