<svg width="336" height="123" viewBox="0 0 336 123" fill="none" xmlns="http://www.w3.org/2000/svg">
<path d="M305.208 77.9333C303.688 82.3749 301.288 86.4641 298.151 89.9563C295.271 93.2437 291.659 95.8078 287.606 97.4416C283.109 99.2448 278.297 100.128 273.454 100.04C268.698 100.14 263.972 99.2556 259.574 97.4416C255.509 95.8092 251.884 93.2454 248.989 89.9563C245.991 86.4434 243.748 82.3509 242.398 77.9333C239.297 67.4934 239.297 56.3766 242.398 45.9367C243.748 41.5192 245.991 37.4267 248.989 33.9138C251.893 30.6255 255.515 28.0508 259.574 26.3898C268.748 22.8732 278.897 22.8732 288.071 26.3898C292.094 28.0399 295.688 30.5867 298.578 33.8362C301.575 37.3563 303.83 41.4458 305.208 45.8592C308.259 56.3064 308.259 67.4086 305.208 77.8558V77.9333ZM331.378 37.7146C328.535 30.4725 324.263 23.8775 318.817 18.3227C313.283 12.764 306.691 8.37237 299.431 5.40775C291.377 2.16153 282.757 0.55301 274.074 0.676125C265.375 0.562739 256.737 2.14347 248.64 5.33019C241.217 8.28081 234.465 12.6999 228.79 18.3227C223.31 23.8583 219.022 30.4579 216.189 37.7146C210.244 53.2339 210.244 70.4035 216.189 85.9228C219.035 93.1725 223.322 99.7695 228.79 105.315C234.403 110.913 241.089 115.319 248.447 118.268C264.809 124.472 282.875 124.472 299.237 118.268C306.448 115.322 312.97 110.911 318.39 105.315C323.831 99.7559 328.103 93.1619 330.952 85.9228C337.388 70.5268 337.541 53.2221 331.378 37.7146" fill="#0075BE"/>
<path d="M305.208 77.9333C303.688 82.3749 301.288 86.4641 298.151 89.9563C295.271 93.2437 291.659 95.8078 287.606 97.4416C283.109 99.2448 278.297 100.128 273.454 100.04C268.698 100.14 263.972 99.2556 259.574 97.4416C255.509 95.8092 251.884 93.2454 248.989 89.9563C245.991 86.4434 243.748 82.3509 242.398 77.9333C239.297 67.4934 239.297 56.3766 242.398 45.9367C243.748 41.5192 245.991 37.4267 248.989 33.9138C251.893 30.6255 255.515 28.0508 259.574 26.3898C268.748 22.8732 278.897 22.8732 288.071 26.3898C292.094 28.0399 295.688 30.5867 298.578 33.8362C301.575 37.3563 303.83 41.4458 305.208 45.8592C308.259 56.3064 308.259 67.4086 305.208 77.8558V77.9333ZM331.378 37.7146C328.535 30.4725 324.263 23.8775 318.817 18.3227C313.283 12.764 306.691 8.37237 299.431 5.40775C291.377 2.16153 282.757 0.55301 274.074 0.676125C265.375 0.562739 256.737 2.14347 248.64 5.33019C241.217 8.28081 234.465 12.6999 228.79 18.3227C223.31 23.8583 219.022 30.4579 216.189 37.7146C210.244 53.2339 210.244 70.4035 216.189 85.9228C219.035 93.1725 223.322 99.7695 228.79 105.315C234.403 110.913 241.089 115.319 248.447 118.268C264.809 124.472 282.875 124.472 299.237 118.268C306.448 115.322 312.97 110.911 318.39 105.315C323.831 99.7559 328.103 93.1619 330.952 85.9228C337.388 70.5268 337.541 53.2221 331.378 37.7146V37.7146Z" fill="#0075BE"/>
<path d="M221.694 1.95593L216.228 22.2011C216.228 22.2011 214.328 27.9798 210.567 28.0186C204.17 28.0186 137.134 28.0186 137.134 28.0186L143.144 1.95593H221.694Z" fill="#0075BE"/>
<path d="M221.694 1.95593L216.228 22.2011C216.228 22.2011 214.328 27.9798 210.567 28.0186C204.17 28.0186 137.134 28.0186 137.134 28.0186L143.144 1.95593H221.694Z" fill="#0075BE"/>
<path d="M190.406 44.0362H133.451C133.451 44.0362 124.417 81.1522 123.991 83.5568C123.487 81.0747 122.905 78.7864 122.246 76.6145C121.587 74.4426 120.966 72.4259 120.385 70.5255L100.999 8.16118C100.442 6.37326 99.2933 4.82794 97.7425 3.77863C95.9704 2.66281 93.9028 2.10854 91.8104 2.18848H83.8236C81.7123 2.13218 79.6413 2.77277 77.9303 4.01132C76.4944 5.05156 75.401 6.49636 74.7898 8.16118L55.4042 70.5255C54.7839 72.5422 54.1635 74.6753 53.5044 76.9635C52.8453 79.2518 52.2637 81.6564 51.7209 84.2161C51.4591 81.7879 51.0448 79.3785 50.4802 77.0024C49.9374 74.6753 49.3946 72.5422 48.8518 70.5255L32.4516 8.16118C31.9442 6.38002 30.8165 4.83925 29.2723 3.81742C27.4807 2.67731 25.3848 2.10918 23.2628 2.18848H0L36.9103 121.681H61.9953L84.7928 47.6043C85.1805 46.4795 85.5683 45.1997 85.9948 43.7259C86.4212 42.2521 86.7702 40.9334 87.1579 39.3821C87.5456 40.9334 87.9333 42.3685 88.3598 43.7259C88.7863 45.0833 89.174 46.3632 89.5617 47.6043L112.01 121.681H137.134L154.271 70.2152C166.368 70.2152 178.387 70.2152 180.131 69.9049C184.009 69.3232 185.792 62.7687 185.792 62.7687L190.406 44.0362Z" fill="#0075BE"/>
<path d="M190.406 44.0362H133.451C133.451 44.0362 124.417 81.1522 123.991 83.5568C123.487 81.0747 122.905 78.7864 122.246 76.6145C121.587 74.4426 120.966 72.4259 120.385 70.5255L100.999 8.16118C100.442 6.37326 99.2933 4.82794 97.7425 3.77863C95.9704 2.66281 93.9028 2.10854 91.8104 2.18848H83.8236C81.7123 2.13218 79.6413 2.77277 77.9303 4.01132C76.4944 5.05156 75.401 6.49636 74.7898 8.16118L55.4042 70.5255C54.7839 72.5422 54.1635 74.6753 53.5044 76.9635C52.8453 79.2518 52.2637 81.6564 51.7209 84.2161C51.4591 81.7879 51.0448 79.3785 50.4802 77.0024C49.9374 74.6753 49.3946 72.5422 48.8518 70.5255L32.4516 8.16118C31.9442 6.38002 30.8165 4.83925 29.2723 3.81742C27.4807 2.67731 25.3848 2.10918 23.2628 2.18848H0L36.9103 121.681H61.9953L84.7928 47.6043C85.1805 46.4795 85.5683 45.1997 85.9948 43.7259C86.4212 42.2521 86.7702 40.9334 87.1579 39.3821C87.5456 40.9334 87.9333 42.3685 88.3598 43.7259C88.7863 45.0833 89.174 46.3632 89.5617 47.6043L112.01 121.681H137.134L154.271 70.2152C166.368 70.2152 178.387 70.2152 180.131 69.9049C184.009 69.3232 185.792 62.7687 185.792 62.7687L190.406 44.0362Z" fill="#0075BE"/>
</svg>
