<svg width="118" height="127" viewBox="0 0 118 127" fill="none" xmlns="http://www.w3.org/2000/svg">
<path d="M5.22535 1.23337C5.01613 1.09412 4.55807 0.924558 4.0107 0.924558C2.79719 0.924558 1.61222 1.72028 1.61222 3.77873C1.61222 5.76803 2.53764 6.75226 3.85144 6.75226C4.32922 6.75226 4.70803 6.66322 4.99688 6.55333V4.57445L4.38914 4.4352C4.2896 4.41531 4.24959 4.385 4.24959 4.32626C4.24959 4.23627 4.31879 4.11691 4.35994 4.02692H6.62807C6.62807 4.02692 6.63803 4.08755 6.63803 4.13681C6.63803 4.29595 6.54844 4.41531 6.30036 4.48541L6.07076 4.54414V6.62343C5.80229 6.8612 5.06609 7.39832 3.6026 7.39832C1.85073 7.39832 0.478058 6.31556 0.478058 3.89809C0.478058 1.31295 2.39876 0.298404 4.05033 0.298404C5.10609 0.298404 5.63336 0.596797 5.96108 0.746468C5.99113 1.04392 6.02146 1.66061 6.02146 1.74018C6.02146 2.049 5.93188 2.24698 5.67261 2.24698C5.59307 2.24698 5.51344 2.22803 5.44376 2.20813L5.22535 1.23337Z" fill="#231F20"/>
<path d="M8.33104 4.89274C8.34147 6.1261 8.9295 6.703 9.78486 6.703C10.4214 6.703 10.7799 6.45387 11.0291 6.24546C11.128 6.32504 11.178 6.49365 11.178 6.58364C11.178 6.83183 10.5218 7.39832 9.41648 7.39832C8.19254 7.39832 7.27679 6.70301 7.27679 4.97232C7.27679 3.24163 8.32222 2.35685 9.4561 2.35685C10.5811 2.35685 11.1483 3.0427 11.1483 4.03735C11.1483 4.29596 11.0984 4.64455 11.0291 4.89274H8.33104ZM10.0733 4.36605C10.093 4.27606 10.1238 4.1065 10.1238 3.93788C10.1238 3.39035 9.92336 2.92334 9.3468 2.92334C8.75991 2.92334 8.41067 3.39035 8.34147 4.36605H10.0733Z" fill="#231F20"/>
<path d="M14.7914 3.02375H13.5768V6.74279L14.2533 6.87162C14.3522 6.89151 14.3934 6.92183 14.3934 7.0014C14.3934 7.09992 14.3229 7.24959 14.293 7.27991H11.9252C11.9252 7.27991 11.9149 7.22022 11.9149 7.18991C11.9149 7.01087 12.0345 6.9313 12.223 6.8612L12.5618 6.74279V3.02375H11.8253C11.8253 3.02375 11.8148 2.96313 11.8148 2.93376C11.8148 2.7443 11.9341 2.64483 12.1229 2.59557L12.5618 2.47622V2.37676C12.5618 0.775845 13.5368 1.00136e-05 14.3934 1.00136e-05C14.8903 1.00136e-05 15.0895 0.218838 15.0895 0.526706C15.0895 0.775842 14.9402 0.915088 14.7914 0.994659C14.7014 0.895195 14.4422 0.705744 14.1337 0.705744C13.7064 0.705744 13.5564 0.944458 13.5564 1.53177C13.5564 1.83964 13.5768 2.47622 13.5768 2.47622H14.9002L14.7914 3.02375Z" fill="#231F20"/>
<path d="M19.9164 4.83306C19.9164 6.55333 18.7125 7.39832 17.4984 7.39832C16.2541 7.39832 15.2291 6.60354 15.2291 4.93253C15.2291 3.25204 16.4234 2.35685 17.6872 2.35685C18.9314 2.35685 19.9164 3.10332 19.9164 4.83306ZM16.6825 1.67102C16.3837 1.67102 16.1445 1.4522 16.1445 1.13392C16.1445 0.795735 16.3837 0.576912 16.6825 0.576912C16.9906 0.576912 17.2195 0.795735 17.2195 1.13392C17.2195 1.4522 16.9906 1.67102 16.6825 1.67102ZM16.2944 4.87285C16.2944 6.20568 16.8314 6.80247 17.5687 6.80247C18.3044 6.80247 18.8518 6.22557 18.8518 4.89274C18.8518 3.55991 18.3044 2.94418 17.5687 2.94418C16.8314 2.94418 16.2944 3.53055 16.2944 4.87285ZM18.4829 1.67102C18.1649 1.67102 17.936 1.4522 17.936 1.13392C17.936 0.795735 18.1649 0.576912 18.4829 0.576912C18.7821 0.576912 19.0111 0.795735 19.0111 1.13392C19.0111 1.4522 18.7821 1.67102 18.4829 1.67102Z" fill="#231F20"/>
<path d="M22.2271 3.27194H22.2568C22.466 2.93376 22.8345 2.35686 23.4802 2.35686C23.949 2.35686 24.1671 2.57569 24.1671 2.88355C24.1671 3.10332 24.0683 3.29183 23.9886 3.39035C23.9091 3.35151 23.6602 3.24163 23.321 3.24163C22.7741 3.24163 22.4956 3.46045 22.2863 3.74937V6.74279L23.0025 6.87162C23.1029 6.89151 23.1426 6.92183 23.1426 7.0014C23.1426 7.09992 23.0629 7.24959 23.0437 7.27991H20.6348C20.6348 7.27991 20.6244 7.22022 20.6244 7.18991C20.6244 7.01087 20.7441 6.9313 20.9325 6.8612L21.2818 6.74279V3.06259L20.5755 2.95365C20.5755 2.95365 20.5652 2.89397 20.5652 2.85418C20.5652 2.68556 20.694 2.56526 20.9325 2.54631L22.2863 2.41654L22.2271 3.27194Z" fill="#231F20"/>
<path d="M28.8149 6.7229L29.5414 6.82236C29.5414 6.82236 29.5514 6.86121 29.5514 6.90194C29.5514 7.08098 29.4222 7.20033 29.1829 7.22023L27.8695 7.33864V6.69258H27.8398C27.6206 7.0014 27.2029 7.39832 26.426 7.39832C25.4514 7.39832 24.536 6.77216 24.536 5.04242C24.536 3.19237 25.8298 2.35685 27.1041 2.35685C27.3918 2.35685 27.641 2.40612 27.8102 2.44685V0.705742L27.1041 0.606272C27.1041 0.606272 27.0936 0.537118 27.0936 0.497332C27.0936 0.327768 27.2226 0.20841 27.461 0.189465L28.8149 0.0596867V6.7229ZM27.8102 3.25205C27.6614 3.11279 27.3918 2.95365 26.9744 2.95365C26.1679 2.95365 25.571 3.53054 25.571 4.84348C25.571 6.1261 26.1283 6.64332 26.7948 6.64332C27.3725 6.64332 27.6806 6.3743 27.8102 6.22558V3.25205Z" fill="#231F20"/>
<path d="M31.1755 4.89274C31.1848 6.1261 31.7717 6.703 32.6278 6.703C33.2648 6.703 33.6228 6.45387 33.872 6.24546C33.9709 6.32504 34.0213 6.49365 34.0213 6.58364C34.0213 6.83183 33.364 7.39832 32.2593 7.39832C31.0355 7.39832 30.1198 6.70301 30.1198 4.97232C30.1198 3.24163 31.1651 2.35685 32.2993 2.35685C33.424 2.35685 33.9917 3.0427 33.9917 4.03735C33.9917 4.29596 33.9417 4.64455 33.872 4.89274H31.1755ZM32.9167 4.36605C32.9359 4.27606 32.966 4.1065 32.966 3.93788C32.966 3.39035 32.7678 2.92334 32.1898 2.92334C31.6032 2.92334 31.2551 3.39035 31.1848 4.36605H32.9167Z" fill="#231F20"/>
<path d="M36.3409 3.27194H36.3709C36.5801 2.93376 36.9482 2.35686 37.5948 2.35686C38.0628 2.35686 38.2817 2.57569 38.2817 2.88355C38.2817 3.10332 38.1824 3.29183 38.1028 3.39035C38.0232 3.35151 37.7739 3.24163 37.4351 3.24163C36.8882 3.24163 36.6093 3.46045 36.4001 3.74937V6.74279L37.1171 6.87162C37.217 6.89151 37.2566 6.92183 37.2566 7.0014C37.2566 7.09992 37.177 7.24959 37.1577 7.27991H34.7486C34.7486 7.27991 34.7386 7.22022 34.7386 7.18991C34.7386 7.01087 34.8582 6.9313 35.0471 6.8612L35.3958 6.74279V3.06259L34.6893 2.95365C34.6893 2.95365 34.6794 2.89397 34.6794 2.85418C34.6794 2.68556 34.8078 2.56526 35.0471 2.54631L36.4001 2.41654L36.3409 3.27194Z" fill="#231F20"/>
<path d="M41.6251 3.02375H40.2624V5.92718C40.2624 6.3743 40.4012 6.74279 40.8993 6.74279C41.2874 6.74279 41.6058 6.57322 41.6855 6.50407C41.7354 6.58364 41.7751 6.73238 41.7751 6.83184C41.7751 6.93131 41.4273 7.39832 40.5209 7.39832C39.6155 7.39832 39.2574 6.87162 39.2574 6.10622V3.02375H38.5113C38.5113 3.02375 38.5008 2.96312 38.5008 2.93376C38.5008 2.7443 38.6201 2.63536 38.8089 2.59557L39.297 2.47621L39.5259 1.13392H40.2624V2.47621H41.7354L41.6251 3.02375Z" fill="#231F20"/>
<path d="M48.6127 6.7229L49.3389 6.82236C49.3389 6.82236 49.3489 6.86121 49.3489 6.90194C49.3489 7.08098 49.2194 7.20033 48.9805 7.22023L47.667 7.33864V6.69258H47.637C47.419 7.0014 47.0004 7.39832 46.2247 7.39832C45.2489 7.39832 44.3332 6.77216 44.3332 5.04242C44.3332 3.19237 45.6262 2.35685 46.9005 2.35685C47.1894 2.35685 47.4382 2.40612 47.6078 2.44685V0.705742L46.9005 0.606272C46.9005 0.606272 46.8908 0.537118 46.8908 0.497332C46.8908 0.327768 47.0204 0.20841 47.2597 0.189465L48.6127 0.0596867V6.7229ZM47.6078 3.25205C47.4578 3.11279 47.1894 2.95365 46.7716 2.95365C45.9654 2.95365 45.3682 3.53054 45.3682 4.84348C45.3682 6.1261 45.9255 6.64332 46.592 6.64332C47.1697 6.64332 47.4782 6.3743 47.6078 6.22558V3.25205Z" fill="#231F20"/>
<path d="M54.3558 6.7229L55.0817 6.82236C55.0817 6.82236 55.092 6.86121 55.092 6.90194C55.092 7.08098 54.9624 7.20033 54.7235 7.22023L53.4097 7.33864V6.68311H53.3905C53.2312 6.89151 52.7939 7.39832 51.9181 7.39832C50.8531 7.39832 50.355 6.77216 50.355 5.59942V3.06259L49.6489 2.95365C49.6489 2.95365 49.6388 2.89396 49.6388 2.85418C49.6388 2.68556 49.7685 2.56526 50.0069 2.54631L51.3608 2.41653V5.54921C51.3608 6.45387 51.8385 6.66322 52.2762 6.66322C52.7835 6.66322 53.1208 6.44439 53.3504 6.18579V3.06259L52.6439 2.95365C52.6439 2.95365 52.6343 2.89396 52.6343 2.85418C52.6343 2.68556 52.7638 2.56526 53.0031 2.54631L54.3558 2.41653V6.7229Z" fill="#231F20"/>
<path d="M57.1731 3.27194H57.2028C57.412 2.93376 57.7804 2.35686 58.4274 2.35686C58.895 2.35686 59.1135 2.57569 59.1135 2.88355C59.1135 3.10332 59.0143 3.29183 58.9346 3.39035C58.855 3.35151 58.6062 3.24163 58.2681 3.24163C57.7201 3.24163 57.4416 3.46045 57.2331 3.74937V6.74279L57.9496 6.87162C58.0488 6.89151 58.0885 6.92183 58.0885 7.0014C58.0885 7.09992 58.0088 7.24959 57.9885 7.27991H55.5808C55.5808 7.27991 55.5704 7.22022 55.5704 7.18991C55.5704 7.01087 55.6901 6.9313 55.8797 6.8612L56.2277 6.74279V3.06259L55.5204 2.95365C55.5204 2.95365 55.5112 2.89397 55.5112 2.85418C55.5112 2.68556 55.6408 2.56526 55.8797 2.54631L57.2331 2.41654L57.1731 3.27194Z" fill="#231F20"/>
<path d="M61.8007 2.95365C61.1342 2.95365 60.5565 3.43108 60.5565 4.7336C60.5565 5.98686 61.0446 6.71248 61.9804 6.71248C62.5969 6.71248 62.9554 6.39514 63.1146 6.23599C63.2042 6.32504 63.2739 6.48418 63.2739 6.57322C63.2739 6.82236 62.7265 7.39832 61.6323 7.39832C60.3381 7.39832 59.5023 6.58364 59.5023 4.942C59.5023 3.26151 60.6269 2.35685 61.9704 2.35685C63.0653 2.35685 63.3431 2.89397 63.3431 3.1829C63.3431 3.45098 63.2146 3.69916 62.8357 3.77873C62.6869 3.43108 62.4581 2.95365 61.8007 2.95365Z" fill="#231F20"/>
<path d="M65.4946 3.07206H65.5142C65.7131 2.83429 66.1908 2.35686 67.0473 2.35686C68.0423 2.35686 68.6089 2.94418 68.6089 4.1065V6.74279L69.1866 6.87162C69.2865 6.89151 69.3253 6.92183 69.3253 7.0014C69.3253 7.09992 69.2458 7.24959 69.2265 7.27991H66.9676C66.9676 7.27991 66.9573 7.22022 66.9573 7.18991C66.9573 7.01087 67.0769 6.92183 67.2658 6.8612L67.5942 6.74279V4.22586C67.5942 3.38088 67.1369 3.12227 66.6288 3.12227C66.0122 3.12227 65.6834 3.39035 65.4946 3.57981V6.74279L66.0519 6.87162C66.1511 6.89151 66.1908 6.92183 66.1908 7.0014C66.1908 7.09992 66.1216 7.24959 66.0919 7.27991H63.8319C63.8319 7.27991 63.8227 7.22022 63.8227 7.18991C63.8227 7.01087 63.9422 6.92183 64.1311 6.8612L64.4792 6.74279V0.705744L63.7726 0.606275C63.7726 0.606275 63.7627 0.537121 63.7627 0.497335C63.7627 0.327771 63.8923 0.208413 64.1311 0.189467L65.4946 0.0596895V3.07206Z" fill="#231F20"/>
<path d="M70.6103 3.57976C70.2622 3.57976 69.9937 3.34104 69.9937 2.9735C69.9937 2.59553 70.2622 2.35681 70.6103 2.35681C70.9595 2.35681 71.238 2.59553 71.238 2.9735C71.238 3.34104 70.9595 3.57976 70.6103 3.57976ZM70.6103 7.40869C70.2622 7.40869 69.9937 7.16997 69.9937 6.80243C69.9937 6.42446 70.2622 6.18574 70.6103 6.18574C70.9595 6.18574 71.238 6.42446 71.238 6.80243C71.238 7.16997 70.9595 7.40869 70.6103 7.40869Z" fill="#231F20"/>
<path d="M4.02179 112.46C4.02179 112.857 4.1711 112.977 4.34031 112.977C4.56916 112.977 4.68841 112.857 4.71799 112.807C4.76795 112.878 4.83762 113.017 4.83762 113.106C4.83762 113.236 4.57911 113.623 3.93183 113.623C3.47377 113.623 3.18492 113.425 3.09609 112.927H3.07571C2.9665 113.116 2.59802 113.643 1.77224 113.643C1.01604 113.643 0.478058 113.126 0.478058 112.34C0.478058 111.276 1.64265 110.879 2.75728 110.879H3.01646V110.431C3.01646 109.526 2.77757 109.168 2.16034 109.168C1.9315 109.168 1.73223 109.238 1.6526 109.267C1.56302 109.457 1.48339 109.805 1.43343 110.142C1.43343 110.142 1.2845 110.152 1.20497 110.152C0.866824 110.152 0.677986 109.993 0.677986 109.685C0.677986 109.068 1.49372 108.601 2.41914 108.601C3.51339 108.601 4.02179 109.198 4.02179 110.322V112.46ZM2.78686 111.375C1.98146 111.415 1.52339 111.704 1.52339 112.231C1.52339 112.648 1.76219 112.927 2.1703 112.927C2.57878 112.927 2.88687 112.659 3.01646 112.499V111.366L2.78686 111.375Z" fill="#231F20"/>
<path d="M9.70419 112.967L10.4311 113.066C10.4311 113.066 10.4411 113.106 10.4411 113.146C10.4411 113.324 10.3115 113.444 10.0726 113.464L8.75877 113.583V112.927H8.73952C8.58026 113.136 8.1422 113.643 7.26684 113.643C6.20112 113.643 5.70409 113.017 5.70409 111.843V109.307L4.99756 109.198C4.99756 109.198 4.98761 109.139 4.98761 109.099C4.98761 108.93 5.11682 108.81 5.35609 108.79L6.70914 108.661V111.794C6.70914 112.698 7.18683 112.907 7.62489 112.907C8.13225 112.907 8.47106 112.688 8.69952 112.43V109.307L7.99337 109.198C7.99337 109.198 7.98332 109.139 7.98332 109.099C7.98332 108.93 8.11187 108.81 8.35066 108.79L9.70419 108.661V112.967Z" fill="#231F20"/>
<path d="M13.8164 109.267H12.6018V112.987L13.2787 113.116C13.3776 113.136 13.4183 113.165 13.4183 113.245C13.4183 113.345 13.3479 113.494 13.3183 113.523H10.9502C10.9502 113.523 10.9402 113.464 10.9402 113.435C10.9402 113.255 11.0595 113.176 11.2483 113.106L11.5871 112.987V109.267H10.8503C10.8503 109.267 10.8398 109.208 10.8398 109.178C10.8398 108.989 10.9595 108.89 11.1483 108.839L11.5871 108.72V108.622C11.5871 107.02 12.5618 106.244 13.4183 106.244C13.9157 106.244 14.1144 106.463 14.1144 106.771C14.1144 107.02 13.9656 107.159 13.8164 107.238C13.7267 107.139 13.4672 106.951 13.1591 106.951C12.7313 106.951 12.5814 107.189 12.5814 107.776C12.5814 108.084 12.6018 108.72 12.6018 108.72H13.9256L13.8164 109.267Z" fill="#231F20"/>
<path d="M18.7821 109.288H17.9767C18.1657 109.536 18.2848 109.834 18.2848 110.192C18.2848 111.247 17.4091 111.843 16.3245 111.843C16.1549 111.843 16.006 111.823 15.8568 111.794C15.7171 111.873 15.5783 112.012 15.5783 112.241C15.5783 112.48 15.7371 112.589 16.0753 112.589H17.2298C18.1453 112.589 18.663 113.007 18.663 113.722C18.663 114.717 17.688 115.632 16.006 115.632C14.7818 115.632 14.1848 115.205 14.1848 114.478C14.1848 113.782 14.7322 113.454 15.0902 113.345V113.324C14.8311 113.186 14.6821 112.947 14.6821 112.629C14.6821 112.052 15.2099 111.783 15.3983 111.684V111.664C14.841 111.415 14.483 110.908 14.483 110.192C14.483 109.148 15.3587 108.601 16.3741 108.601C16.6425 108.601 16.9011 108.641 17.1503 108.72H18.8914L18.7821 109.288ZM15.916 113.484C15.7771 113.484 15.6579 113.474 15.5475 113.464C15.2895 113.613 15.1199 113.862 15.1199 114.199C15.1199 114.717 15.4383 115.045 16.1649 115.045C17.1307 115.045 17.7279 114.598 17.7279 114.071C17.7279 113.663 17.499 113.484 16.9906 113.484H15.916ZM15.478 110.202C15.478 110.988 15.876 111.296 16.3741 111.296C16.911 111.296 17.2991 110.988 17.2991 110.202C17.2991 109.497 16.911 109.139 16.3937 109.139C15.876 109.139 15.478 109.436 15.478 110.202Z" fill="#231F20"/>
<path d="M20.8929 109.516H20.9225C21.1318 109.178 21.5002 108.601 22.1464 108.601C22.6148 108.601 22.8333 108.82 22.8333 109.128C22.8333 109.347 22.7344 109.536 22.6544 109.635C22.5748 109.596 22.3259 109.486 21.9871 109.486C21.4402 109.486 21.1613 109.705 20.9521 109.993V112.987L21.6687 113.116C21.7686 113.136 21.8082 113.165 21.8082 113.245C21.8082 113.345 21.729 113.494 21.7094 113.523H19.3006C19.3006 113.523 19.2906 113.464 19.2906 113.435C19.2906 113.255 19.4099 113.176 19.5987 113.106L19.9478 112.987V109.307L19.2413 109.198C19.2413 109.198 19.2314 109.139 19.2314 109.099C19.2314 108.929 19.3598 108.81 19.5987 108.79L20.9521 108.661L20.8929 109.516Z" fill="#231F20"/>
<path d="M27.7713 112.967L28.4971 113.066C28.4971 113.066 28.5074 113.106 28.5074 113.146C28.5074 113.324 28.3775 113.444 28.1391 113.464L26.8252 113.583V112.927H26.8055C26.6467 113.136 26.2086 113.643 25.3328 113.643C24.2683 113.643 23.7702 113.017 23.7702 111.843V109.307L23.064 109.198C23.064 109.198 23.0536 109.139 23.0536 109.099C23.0536 108.93 23.1832 108.81 23.4221 108.79L24.7755 108.661V111.794C24.7755 112.698 25.2532 112.907 25.6909 112.907C26.1986 112.907 26.5363 112.688 26.7659 112.43V109.307L26.0586 109.198C26.0586 109.198 26.0494 109.139 26.0494 109.099C26.0494 108.93 26.179 108.81 26.4178 108.79L27.7713 108.661V112.967Z" fill="#231F20"/>
<path d="M33.7628 112.987L34.3497 113.116C34.4497 113.136 34.4898 113.165 34.4898 113.245C34.4898 113.345 34.4098 113.494 34.3905 113.523H32.1305C32.1305 113.523 32.1206 113.464 32.1206 113.435C32.1206 113.255 32.2409 113.165 32.4297 113.106L32.7574 112.987V110.471C32.7574 109.625 32.2797 109.367 31.7928 109.367C31.2251 109.367 30.857 109.635 30.6485 109.805V112.987L31.2152 113.116C31.3152 113.136 31.3551 113.165 31.3551 113.245C31.3551 113.345 31.2755 113.494 31.2552 113.523H28.9963C28.9963 113.523 28.9859 113.464 28.9859 113.435C28.9859 113.255 29.1055 113.176 29.2951 113.106L29.6432 112.987V109.307L28.9359 109.198C28.9359 109.198 28.9266 109.139 28.9266 109.099C28.9266 108.929 29.0562 108.81 29.2951 108.79L30.6485 108.661L30.5885 109.357H30.6178C30.8874 109.068 31.3348 108.601 32.2502 108.601C33.2259 108.601 33.7628 109.227 33.7628 110.351V112.987Z" fill="#231F20"/>
<path d="M39.2767 112.967L40.0036 113.066C40.0036 113.066 40.0135 113.106 40.0135 113.146C40.0135 113.324 39.8839 113.444 39.6452 113.464L38.3312 113.583V112.937H38.3021C38.0824 113.245 37.6651 113.643 36.8882 113.643C35.9135 113.643 34.9978 113.017 34.9978 111.287C34.9978 109.436 36.2921 108.601 37.5659 108.601C37.8536 108.601 38.1028 108.651 38.272 108.691V106.951L37.5659 106.851C37.5659 106.851 37.5559 106.781 37.5559 106.742C37.5559 106.572 37.6844 106.453 37.9232 106.434L39.2767 106.304V112.967ZM38.272 109.497C38.1232 109.357 37.8536 109.198 37.4363 109.198C36.6301 109.198 36.0328 109.775 36.0328 111.088C36.0328 112.37 36.5901 112.887 37.2566 112.887C37.8343 112.887 38.1424 112.619 38.272 112.47V109.497Z" fill="#231F20"/>
<path d="M43.7074 111.137C43.7167 112.37 44.3035 112.947 45.16 112.947C45.7966 112.947 46.155 112.698 46.4043 112.489C46.5031 112.569 46.5532 112.738 46.5532 112.828C46.5532 113.077 45.8959 113.643 44.7917 113.643C43.5678 113.643 42.652 112.947 42.652 111.216C42.652 109.486 43.6974 108.601 44.8313 108.601C45.9563 108.601 46.5235 109.288 46.5235 110.282C46.5235 110.54 46.4736 110.889 46.4043 111.137H43.7074ZM45.4485 110.611C45.4681 110.521 45.4978 110.351 45.4978 110.182C45.4978 109.636 45.2997 109.168 44.722 109.168C44.1351 109.168 43.787 109.636 43.7167 110.611H45.4485Z" fill="#231F20"/>
<path d="M48.9323 112.987L49.5193 113.116C49.6185 113.136 49.6582 113.165 49.6582 113.245C49.6582 113.345 49.5785 113.494 49.5593 113.523H47.2801C47.2801 113.523 47.2696 113.464 47.2696 113.435C47.2696 113.255 47.3889 113.176 47.5789 113.106L47.927 112.987V109.307L47.2197 109.198C47.2197 109.198 47.2104 109.139 47.2104 109.099C47.2104 108.929 47.34 108.81 47.5789 108.79L48.9323 108.661V112.987ZM48.4239 107.676C48.0566 107.676 47.777 107.428 47.777 107.039C47.777 106.662 48.0566 106.403 48.4239 106.403C48.7823 106.403 49.0816 106.662 49.0816 107.039C49.0816 107.428 48.7823 107.676 48.4239 107.676Z" fill="#231F20"/>
<path d="M54.9331 112.987L55.5201 113.116C55.62 113.136 55.6597 113.165 55.6597 113.245C55.6597 113.345 55.58 113.494 55.5608 113.523H53.3008C53.3008 113.523 53.2909 113.464 53.2909 113.435C53.2909 113.255 53.4112 113.165 53.6001 113.106L53.9278 112.987V110.471C53.9278 109.625 53.4501 109.367 52.9631 109.367C52.3959 109.367 52.0274 109.635 51.8189 109.805V112.987L52.3854 113.116C52.4855 113.136 52.5255 113.165 52.5255 113.245C52.5255 113.345 52.4458 113.494 52.4251 113.523H50.1666C50.1666 113.523 50.1563 113.464 50.1563 113.435C50.1563 113.255 50.2754 113.176 50.4654 113.106L50.8135 112.987V109.307L50.1062 109.198C50.1062 109.198 50.097 109.139 50.097 109.099C50.097 108.929 50.2266 108.81 50.4654 108.79L51.8189 108.661L51.7589 109.357H51.7881C52.0577 109.068 52.5051 108.601 53.4204 108.601C54.3962 108.601 54.9331 109.227 54.9331 110.351V112.987Z" fill="#231F20"/>
<path d="M57.2234 111.137C57.2339 112.37 57.8215 112.947 58.6769 112.947C59.3138 112.947 59.6723 112.698 59.9211 112.489C60.02 112.569 60.0704 112.738 60.0704 112.828C60.0704 113.077 59.4139 113.643 58.3085 113.643C57.0846 113.643 56.1688 112.947 56.1688 111.216C56.1688 109.486 57.2143 108.601 58.3484 108.601C59.4731 108.601 60.0404 109.288 60.0404 110.282C60.0404 110.54 59.9908 110.889 59.9211 111.137H57.2234ZM58.9657 110.611C58.985 110.521 59.0158 110.351 59.0158 110.182C59.0158 109.636 58.8158 109.168 58.2388 109.168C57.6523 109.168 57.3031 109.636 57.2339 110.611H58.9657Z" fill="#231F20"/>
<path d="M63.1557 109.337C63.0465 109.258 62.7973 109.139 62.4985 109.139C62.1708 109.139 61.832 109.277 61.832 109.695C61.832 110.133 62.2992 110.391 62.7769 110.67C63.3742 111.028 64.0112 111.415 64.0112 112.211C64.0112 113.027 63.3342 113.643 62.24 113.643C61.6826 113.643 61.185 113.474 60.9765 113.345C60.9357 113.096 60.9062 112.838 60.9062 112.579C60.9062 112.181 61.0154 112.022 61.3146 112.022C61.3646 112.022 61.4442 112.032 61.4442 112.032L61.6523 112.878C61.7523 112.947 62.0412 113.077 62.3299 113.077C62.8169 113.077 63.1261 112.887 63.1261 112.47C63.1261 112.043 62.6484 111.804 62.2003 111.525C61.5931 111.137 60.9858 110.749 60.9858 109.894C60.9858 109.118 61.6626 108.601 62.6181 108.601C63.1953 108.601 63.6038 108.8 63.7827 108.969C63.8019 109.108 63.8223 109.317 63.8223 109.516C63.8223 109.864 63.7526 110.093 63.3946 110.093C63.3446 110.093 63.275 110.083 63.275 110.083L63.1557 109.337Z" fill="#231F20"/>
<path d="M70.5311 109.974V109.993C71.4969 110.152 72.1337 110.699 72.1337 111.605C72.1337 112.719 71.218 113.523 69.4269 113.523H66.8988C66.8988 113.523 66.8884 113.464 66.8884 113.414C66.8884 113.255 66.968 113.116 67.2273 113.056L67.6457 112.957V107.209L67.0383 107.07C66.9384 107.05 66.8988 107.02 66.8988 106.96C66.8988 106.871 66.968 106.752 67.0088 106.662H69.3472C71.1184 106.662 71.9641 107.288 71.9641 108.392C71.9641 109.337 71.3876 109.784 70.5311 109.974ZM69.2577 107.269H68.7196V109.775H69.2472C70.3822 109.775 70.8599 109.218 70.8599 108.511C70.8599 107.696 70.3526 107.269 69.2577 107.269ZM69.3768 110.351H68.7196V112.917H69.3176C70.4815 112.917 70.9988 112.37 70.9988 111.594C70.9988 110.858 70.4514 110.351 69.3768 110.351Z" fill="#231F20"/>
<path d="M74.0943 111.137C74.1047 112.37 74.6925 112.947 75.5476 112.947C76.1846 112.947 76.543 112.698 76.7923 112.489C76.8909 112.569 76.9411 112.738 76.9411 112.828C76.9411 113.077 76.2851 113.643 75.1798 113.643C73.9559 113.643 73.0402 112.947 73.0402 111.216C73.0402 109.486 74.0848 108.601 75.2196 108.601C76.3439 108.601 76.9117 109.288 76.9117 110.282C76.9117 110.54 76.8615 110.889 76.7923 111.137H74.0943ZM75.8367 110.611C75.8557 110.521 75.8869 110.351 75.8869 110.182C75.8869 109.636 75.6869 109.168 75.1105 109.168C74.5237 109.168 74.1739 109.636 74.1047 110.611H75.8367Z" fill="#231F20"/>
<path d="M80.0278 109.337C79.9178 109.258 79.6694 109.139 79.3699 109.139C79.0419 109.139 78.7034 109.277 78.7034 109.695C78.7034 110.133 79.1717 110.391 79.6495 110.67C80.2467 111.028 80.8838 111.415 80.8838 112.211C80.8838 113.027 80.206 113.643 79.112 113.643C78.5546 113.643 78.0569 113.474 77.8474 113.345C77.8085 113.096 77.7782 112.838 77.7782 112.579C77.7782 112.181 77.8882 112.022 78.1868 112.022C78.2361 112.022 78.3157 112.032 78.3157 112.032L78.5252 112.878C78.6238 112.947 78.9129 113.077 79.2011 113.077C79.6893 113.077 79.9974 112.887 79.9974 112.47C79.9974 112.043 79.5196 111.804 79.0722 111.525C78.4655 111.137 77.8578 110.749 77.8578 109.894C77.8578 109.118 78.5347 108.601 79.4903 108.601C80.0676 108.601 80.4752 108.8 80.6544 108.969C80.6752 109.108 80.6942 109.317 80.6942 109.516C80.6942 109.864 80.625 110.093 80.2666 110.093C80.2164 110.093 80.1472 110.083 80.1472 110.083L80.0278 109.337Z" fill="#231F20"/>
<path d="M83.9685 109.198C83.302 109.198 82.7247 109.675 82.7247 110.978C82.7247 112.231 83.2129 112.957 84.1486 112.957C84.7648 112.957 85.1231 112.639 85.2824 112.48C85.3724 112.569 85.4416 112.728 85.4416 112.817C85.4416 113.066 84.8946 113.643 83.7997 113.643C82.5057 113.643 81.6696 112.828 81.6696 111.187C81.6696 109.506 82.7949 108.601 84.1382 108.601C85.2331 108.601 85.5108 109.139 85.5108 109.426C85.5108 109.695 85.3819 109.943 85.0037 110.023C84.8548 109.675 84.6264 109.198 83.9685 109.198Z" fill="#231F20"/>
<path d="M87.6628 109.317H87.6817C87.8808 109.079 88.3586 108.601 89.2146 108.601C90.21 108.601 90.7769 109.187 90.7769 110.351V112.987L91.3542 113.116C91.4547 113.136 91.4936 113.165 91.4936 113.245C91.4936 113.345 91.4139 113.494 91.394 113.523H89.135C89.135 113.523 89.1255 113.464 89.1255 113.435C89.1255 113.255 89.245 113.165 89.4336 113.106L89.7626 112.987V110.471C89.7626 109.625 89.3047 109.367 88.7966 109.367C88.1794 109.367 87.8514 109.635 87.6628 109.824V112.987L88.2202 113.116C88.3188 113.136 88.3586 113.165 88.3586 113.245C88.3586 113.345 88.2894 113.494 88.26 113.523H86C86 113.523 85.9905 113.464 85.9905 113.435C85.9905 113.255 86.11 113.165 86.2986 113.106L86.6465 112.987V106.951L85.9403 106.851C85.9403 106.851 85.9308 106.781 85.9308 106.742C85.9308 106.572 86.0597 106.453 86.2986 106.434L87.6628 106.304V109.317Z" fill="#231F20"/>
<path d="M93.5146 112.987L94.091 113.116C94.1906 113.136 94.2304 113.165 94.2304 113.245C94.2304 113.345 94.1612 113.494 94.1318 113.523H91.8614C91.8614 113.523 91.8528 113.464 91.8528 113.435C91.8528 113.255 91.9713 113.165 92.1609 113.106L92.5088 112.987V106.951L91.8026 106.851C91.8026 106.851 91.7922 106.781 91.7922 106.742C91.7922 106.572 91.922 106.453 92.1609 106.434L93.5146 106.304V112.987Z" fill="#231F20"/>
<path d="M99.2973 112.967L100.023 113.066C100.023 113.066 100.033 113.106 100.033 113.146C100.033 113.324 99.904 113.444 99.6651 113.464L98.3512 113.583V112.927H98.3323C98.1721 113.136 97.735 113.643 96.8591 113.643C95.7945 113.643 95.2959 113.017 95.2959 111.843V109.307L94.5896 109.198C94.5896 109.198 94.5802 109.139 94.5802 109.099C94.5802 108.93 94.7091 108.81 94.948 108.79L96.3017 108.661V111.794C96.3017 112.698 96.7795 112.907 97.2174 112.907C97.7246 112.907 98.0621 112.688 98.2924 112.43V109.307L97.5853 109.198C97.5853 109.198 97.5758 109.139 97.5758 109.099C97.5758 108.93 97.7047 108.81 97.9436 108.79L99.2973 108.661V112.967Z" fill="#231F20"/>
<path d="M102.881 109.337C102.771 109.258 102.522 109.139 102.224 109.139C101.895 109.139 101.557 109.277 101.557 109.695C101.557 110.133 102.025 110.391 102.502 110.67C103.1 111.028 103.737 111.415 103.737 112.211C103.737 113.027 103.06 113.643 101.966 113.643C101.408 113.643 100.91 113.474 100.701 113.345C100.662 113.096 100.632 112.838 100.632 112.579C100.632 112.181 100.742 112.022 101.04 112.022C101.09 112.022 101.17 112.032 101.17 112.032L101.378 112.878C101.478 112.947 101.766 113.077 102.054 113.077C102.542 113.077 102.85 112.887 102.85 112.47C102.85 112.043 102.373 111.804 101.925 111.525C101.318 111.137 100.712 110.749 100.712 109.894C100.712 109.118 101.388 108.601 102.343 108.601C102.92 108.601 103.328 108.8 103.508 108.969C103.528 109.108 103.548 109.317 103.548 109.516C103.548 109.864 103.478 110.093 103.121 110.093C103.069 110.093 103 110.083 103 110.083L102.881 109.337Z" fill="#231F20"/>
<path d="M106.802 109.337C106.693 109.258 106.444 109.139 106.146 109.139C105.817 109.139 105.479 109.277 105.479 109.695C105.479 110.133 105.946 110.391 106.424 110.67C107.021 111.028 107.659 111.415 107.659 112.211C107.659 113.027 106.982 113.643 105.887 113.643C105.329 113.643 104.832 113.474 104.622 113.345C104.583 113.096 104.553 112.838 104.553 112.579C104.553 112.181 104.663 112.022 104.961 112.022C105.011 112.022 105.09 112.032 105.09 112.032L105.3 112.878C105.399 112.947 105.689 113.077 105.976 113.077C106.464 113.077 106.772 112.887 106.772 112.47C106.772 112.043 106.294 111.804 105.847 111.525C105.24 111.137 104.633 110.749 104.633 109.894C104.633 109.118 105.309 108.601 106.265 108.601C106.842 108.601 107.25 108.8 107.429 108.969C107.45 109.108 107.469 109.317 107.469 109.516C107.469 109.864 107.4 110.093 107.041 110.093C106.992 110.093 106.922 110.083 106.922 110.083L106.802 109.337Z" fill="#231F20"/>
<path d="M109.499 111.137C109.509 112.37 110.098 112.947 110.953 112.947C111.59 112.947 111.948 112.698 112.197 112.489C112.296 112.569 112.346 112.738 112.346 112.828C112.346 113.077 111.689 113.643 110.584 113.643C109.36 113.643 108.445 112.947 108.445 111.216C108.445 109.486 109.49 108.601 110.625 108.601C111.749 108.601 112.317 109.288 112.317 110.282C112.317 110.54 112.267 110.889 112.197 111.137H109.499ZM111.242 110.611C111.261 110.521 111.291 110.351 111.291 110.182C111.291 109.636 111.092 109.168 110.515 109.168C109.928 109.168 109.579 109.636 109.509 110.611H111.242Z" fill="#231F20"/>
<path d="M115.433 109.337C115.322 109.258 115.075 109.139 114.775 109.139C114.447 109.139 114.109 109.277 114.109 109.695C114.109 110.133 114.576 110.391 115.054 110.67C115.651 111.028 116.288 111.415 116.288 112.211C116.288 113.027 115.611 113.643 114.517 113.643C113.96 113.643 113.462 113.474 113.253 113.345C113.214 113.096 113.182 112.838 113.182 112.579C113.182 112.181 113.293 112.022 113.591 112.022C113.641 112.022 113.721 112.032 113.721 112.032L113.93 112.878C114.029 112.947 114.318 113.077 114.606 113.077C115.094 113.077 115.402 112.887 115.402 112.47C115.402 112.043 114.925 111.804 114.477 111.525C113.87 111.137 113.263 110.749 113.263 109.894C113.263 109.118 113.939 108.601 114.894 108.601C115.473 108.601 115.879 108.8 116.059 108.969C116.079 109.108 116.099 109.317 116.099 109.516C116.099 109.864 116.03 110.093 115.671 110.093C115.622 110.093 115.552 110.083 115.552 110.083L115.433 109.337Z" fill="#231F20"/>
<path d="M4.81803 124.335L5.5438 124.435C5.5438 124.435 5.55413 124.473 5.55413 124.514C5.55413 124.693 5.42416 124.812 5.18575 124.832L3.87185 124.951V124.305H3.84227C3.62376 124.613 3.20533 125.011 2.4295 125.011C1.45384 125.011 0.537994 124.385 0.537994 122.654C0.537994 120.805 1.83151 119.969 3.10531 119.969C3.39416 119.969 3.64301 120.018 3.8126 120.059V118.318L3.10531 118.219C3.10531 118.219 3.09612 118.15 3.09612 118.109C3.09612 117.941 3.22571 117.821 3.4645 117.801L4.81803 117.672V124.335ZM3.8126 120.864C3.66263 120.725 3.39416 120.566 2.97648 120.566C2.17032 120.566 1.573 121.142 1.573 122.455C1.573 123.738 2.13032 124.256 2.79722 124.256C3.37454 124.256 3.68301 123.987 3.8126 123.837V120.864Z" fill="#231F20"/>
<path d="M7.17687 122.505C7.18682 123.738 7.77485 124.315 8.63031 124.315C9.26716 124.315 9.62569 124.066 9.87453 123.857C9.97378 123.937 10.0237 124.106 10.0237 124.196C10.0237 124.444 9.36717 125.011 8.26183 125.011C7.03799 125.011 6.12262 124.315 6.12262 122.584C6.12262 120.855 7.16758 119.969 8.30183 119.969C9.42642 119.969 9.99407 120.655 9.99407 121.651C9.99407 121.908 9.94373 122.256 9.87453 122.505H7.17687ZM8.91916 121.978C8.93878 121.889 8.96912 121.72 8.96912 121.55C8.96912 121.004 8.76909 120.537 8.19253 120.537C7.60526 120.537 7.2564 121.004 7.18682 121.978H8.91916Z" fill="#231F20"/>
<path d="M13.1091 120.705C12.9998 120.625 12.751 120.506 12.4518 120.506C12.1241 120.506 11.7853 120.645 11.7853 121.063C11.7853 121.501 12.2529 121.759 12.7307 122.038C13.3275 122.396 13.9645 122.784 13.9645 123.579C13.9645 124.394 13.2879 125.011 12.1937 125.011C11.6364 125.011 11.1384 124.842 10.9298 124.713C10.8891 124.465 10.8595 124.205 10.8595 123.947C10.8595 123.549 10.9688 123.39 11.2679 123.39C11.3175 123.39 11.3972 123.4 11.3972 123.4L11.6056 124.245C11.7056 124.315 11.9945 124.444 12.2833 124.444C12.7703 124.444 13.0794 124.256 13.0794 123.837C13.0794 123.41 12.6018 123.171 12.1537 122.893C11.5464 122.505 10.9391 122.117 10.9391 121.262C10.9391 120.487 11.616 119.969 12.5714 119.969C13.1491 119.969 13.5571 120.168 13.7356 120.337C13.7553 120.476 13.7756 120.685 13.7756 120.885C13.7756 121.232 13.7064 121.461 13.3479 121.461C13.298 121.461 13.2287 121.45 13.2287 121.45L13.1091 120.705Z" fill="#231F20"/>
<path d="M19.1018 124.892H16.8518C16.8518 124.892 16.8418 124.832 16.8418 124.782C16.8418 124.623 16.9214 124.484 17.1806 124.425L17.599 124.325V118.577L16.9918 118.438C16.8918 118.418 16.8518 118.388 16.8518 118.328C16.8518 118.238 16.9214 118.119 16.9621 118.029H19.1018C21.6095 118.029 23.1117 118.965 23.1117 121.362C23.1117 123.778 21.6187 124.892 19.1018 124.892ZM19.071 118.636H18.6729V124.285H19.071C20.9121 124.285 21.9675 123.321 21.9675 121.391C21.9675 119.532 20.9022 118.636 19.071 118.636Z" fill="#231F20"/>
<path d="M25.0533 122.505C25.0633 123.738 25.6513 124.315 26.5067 124.315C27.1437 124.315 27.5021 124.066 27.751 123.857C27.8502 123.937 27.8998 124.106 27.8998 124.196C27.8998 124.444 27.2436 125.011 26.1383 125.011C24.9144 125.011 23.9991 124.315 23.9991 122.584C23.9991 120.855 25.044 119.969 26.1779 119.969C27.3029 119.969 27.8706 120.655 27.8706 121.651C27.8706 121.908 27.8202 122.256 27.751 122.505H25.0533ZM26.7956 121.978C26.8152 121.889 26.8456 121.72 26.8456 121.55C26.8456 121.004 26.6456 120.537 26.0691 120.537C25.4817 120.537 25.1329 121.004 25.0633 121.978H26.7956Z" fill="#231F20"/>
<path d="M33.1463 124.335L33.872 124.435C33.872 124.435 33.8825 124.473 33.8825 124.514C33.8825 124.693 33.7528 124.812 33.514 124.832L32.2001 124.951V124.295H32.1809C32.0217 124.504 31.5836 125.011 30.7078 125.011C29.6432 125.011 29.1451 124.385 29.1451 123.211V120.675L28.439 120.566C28.439 120.566 28.4286 120.506 28.4286 120.466C28.4286 120.298 28.5581 120.178 28.797 120.158L30.1505 120.029V123.162C30.1505 124.066 30.6282 124.276 31.0663 124.276C31.5732 124.276 31.9113 124.056 32.1408 123.798V120.675L31.4337 120.566C31.4337 120.566 31.4244 120.506 31.4244 120.466C31.4244 120.298 31.554 120.178 31.7928 120.158L33.1463 120.029V124.335Z" fill="#231F20"/>
<path d="M37.2974 120.636H35.9335V123.539C35.9335 123.987 36.0724 124.355 36.5709 124.355C36.9586 124.355 37.277 124.186 37.3566 124.117C37.4066 124.196 37.4462 124.345 37.4462 124.444C37.4462 124.544 37.0975 125.011 36.192 125.011C35.2866 125.011 34.9286 124.484 34.9286 123.719V120.636H34.1824C34.1824 120.636 34.172 120.575 34.172 120.546C34.172 120.357 34.2913 120.248 34.4801 120.208L34.9682 120.089L35.1971 118.746H35.9335V120.089H37.4066L37.2974 120.636Z" fill="#231F20"/>
<path d="M40.2136 120.705C40.1043 120.625 39.8554 120.506 39.5562 120.506C39.2285 120.506 38.8897 120.645 38.8897 121.063C38.8897 121.501 39.3574 121.759 39.8351 122.038C40.432 122.396 41.0689 122.784 41.0689 123.579C41.0689 124.394 40.3924 125.011 39.2981 125.011C38.7409 125.011 38.2428 124.842 38.0343 124.713C37.9936 124.465 37.9639 124.205 37.9639 123.947C37.9639 123.549 38.0732 123.39 38.3724 123.39C38.422 123.39 38.5016 123.4 38.5016 123.4L38.7101 124.245C38.8101 124.315 39.0989 124.444 39.3878 124.444C39.8747 124.444 40.1839 124.256 40.1839 123.837C40.1839 123.41 39.7062 123.171 39.2582 122.893C38.6508 122.505 38.0436 122.117 38.0436 121.262C38.0436 120.487 38.7205 119.969 39.6759 119.969C40.2536 119.969 40.6616 120.168 40.8401 120.337C40.8597 120.476 40.8801 120.685 40.8801 120.885C40.8801 121.232 40.8108 121.461 40.4524 121.461C40.4024 121.461 40.3331 121.45 40.3331 121.45L40.2136 120.705Z" fill="#231F20"/>
<path d="M44.1547 120.566C43.4882 120.566 42.9112 121.043 42.9112 122.346C42.9112 123.598 43.3981 124.325 44.3342 124.325C44.9508 124.325 45.3089 124.007 45.4681 123.847C45.5582 123.937 45.6274 124.096 45.6274 124.186C45.6274 124.435 45.0805 125.011 43.9851 125.011C42.6916 125.011 41.8558 124.196 41.8558 122.555C41.8558 120.874 42.9804 119.969 44.3239 119.969C45.4182 119.969 45.6977 120.506 45.6977 120.795C45.6977 121.063 45.5681 121.311 45.1897 121.391C45.0405 121.043 44.812 120.566 44.1547 120.566Z" fill="#231F20"/>
<path d="M47.8473 120.685H47.8666C48.0659 120.447 48.5435 119.97 49.4 119.97C50.395 119.97 50.9616 120.556 50.9616 121.72V124.355L51.5392 124.484C51.6393 124.504 51.6781 124.534 51.6781 124.613C51.6781 124.713 51.5985 124.862 51.5789 124.892H49.32C49.32 124.892 49.3101 124.832 49.3101 124.802C49.3101 124.623 49.4296 124.534 49.6185 124.473L49.9469 124.355V121.839C49.9469 120.993 49.4896 120.735 48.9816 120.735C48.3647 120.735 48.0362 121.004 47.8473 121.192V124.355L48.4047 124.484C48.5039 124.504 48.5435 124.534 48.5435 124.613C48.5435 124.713 48.4742 124.862 48.4447 124.892H46.1847C46.1847 124.892 46.1754 124.832 46.1754 124.802C46.1754 124.623 46.2946 124.534 46.4835 124.473L46.8316 124.355V118.318L46.1254 118.219C46.1254 118.219 46.1155 118.15 46.1155 118.109C46.1155 117.941 46.2451 117.821 46.4835 117.801L47.8473 117.672V120.685Z" fill="#231F20"/>
<path d="M53.2427 122.505C53.252 123.738 53.8389 124.315 54.6954 124.315C55.3319 124.315 55.6904 124.066 55.9396 123.857C56.0385 123.937 56.0885 124.106 56.0885 124.196C56.0885 124.444 55.4312 125.011 54.327 125.011C53.103 125.011 52.1873 124.315 52.1873 122.584C52.1873 120.855 53.2327 119.969 54.3666 119.969C55.4916 119.969 56.0588 120.655 56.0588 121.651C56.0588 121.908 56.0089 122.256 55.9396 122.505H53.2427ZM54.9838 121.978C55.0034 121.889 55.0331 121.72 55.0331 121.55C55.0331 121.004 54.835 120.537 54.2573 120.537C53.6704 120.537 53.3223 121.004 53.252 121.978H54.9838Z" fill="#231F20"/>
<path d="M61.5831 124.355L62.1707 124.484C62.27 124.504 62.3096 124.534 62.3096 124.613C62.3096 124.713 62.23 124.862 62.2096 124.892H59.9508C59.9508 124.892 59.9415 124.832 59.9415 124.802C59.9415 124.623 60.06 124.534 60.2496 124.473L60.5784 124.355V121.839C60.5784 120.993 60.1007 120.735 59.613 120.735C59.0454 120.735 58.6769 121.004 58.4677 121.173V124.355L59.0354 124.484C59.1349 124.504 59.1749 124.534 59.1749 124.613C59.1749 124.713 59.0953 124.862 59.075 124.892H56.8161C56.8161 124.892 56.8061 124.832 56.8061 124.802C56.8061 124.623 56.9254 124.544 57.1142 124.473L57.4635 124.355V120.676L56.7568 120.566C56.7568 120.566 56.7469 120.506 56.7469 120.466C56.7469 120.298 56.8753 120.178 57.1142 120.158L58.4677 120.029L58.4084 120.725H58.4381C58.7066 120.436 59.1546 119.97 60.0704 119.97C61.0462 119.97 61.5831 120.596 61.5831 121.72V124.355Z" fill="#231F20"/>
<path d="M68.5504 121.341V121.362C69.5157 121.521 70.1526 122.068 70.1526 122.972C70.1526 124.086 69.2373 124.892 67.4457 124.892H64.9176C64.9176 124.892 64.9073 124.832 64.9073 124.782C64.9073 124.623 64.9869 124.484 65.2461 124.425L65.6645 124.325V118.577L65.0573 118.438C64.9572 118.418 64.9176 118.388 64.9176 118.328C64.9176 118.238 64.9869 118.119 65.0277 118.029H67.3661C69.1369 118.029 69.9834 118.657 69.9834 119.76C69.9834 120.705 69.4065 121.153 68.5504 121.341ZM67.2761 118.636H66.7384V121.142H67.2661C68.4011 121.142 68.8788 120.586 68.8788 119.88C68.8788 119.064 68.3715 118.636 67.2761 118.636ZM67.3957 121.72H66.7384V124.285H67.3365C68.5003 124.285 69.0176 123.738 69.0176 122.962C69.0176 122.227 68.4707 121.72 67.3957 121.72Z" fill="#231F20"/>
<path d="M75.4983 124.335L76.2244 124.435C76.2244 124.435 76.2349 124.473 76.2349 124.514C76.2349 124.693 76.105 124.812 75.8661 124.832L74.5522 124.951V124.295H74.5332C74.374 124.504 73.936 125.011 73.061 125.011C71.9949 125.011 71.4979 124.385 71.4979 123.211V120.675L70.7914 120.566C70.7914 120.566 70.7814 120.506 70.7814 120.466C70.7814 120.298 70.9106 120.178 71.1499 120.158L72.5033 120.029V123.162C72.5033 124.066 72.9814 124.276 73.4184 124.276C73.9256 124.276 74.265 124.056 74.4934 123.798V120.675L73.7872 120.566C73.7872 120.566 73.7768 120.506 73.7768 120.466C73.7768 120.298 73.9057 120.178 74.1446 120.158L75.4983 120.029V124.335Z" fill="#231F20"/>
<path d="M81.4895 124.355L82.0763 124.484C82.1768 124.504 82.2166 124.534 82.2166 124.613C82.2166 124.713 82.136 124.862 82.1171 124.892H79.8571C79.8571 124.892 79.8476 124.832 79.8476 124.802C79.8476 124.623 79.968 124.534 80.1567 124.473L80.4837 124.355V121.839C80.4837 120.993 80.0069 120.735 79.5196 120.735C78.9518 120.735 78.584 121.004 78.3754 121.173V124.355L78.9413 124.484C79.0418 124.504 79.0816 124.534 79.0816 124.613C79.0816 124.713 79.002 124.862 78.9821 124.892H76.7231C76.7231 124.892 76.7126 124.832 76.7126 124.802C76.7126 124.623 76.8321 124.544 77.0217 124.473L77.3696 124.355V120.676L76.6624 120.566C76.6624 120.566 76.6529 120.506 76.6529 120.466C76.6529 120.298 76.7828 120.178 77.0217 120.158L78.3754 120.029L78.3157 120.725H78.3441C78.6143 120.436 79.0617 119.97 79.9765 119.97C80.953 119.97 81.4895 120.596 81.4895 121.72V124.355Z" fill="#231F20"/>
<path d="M87.0049 124.335L87.731 124.435C87.731 124.435 87.7414 124.473 87.7414 124.514C87.7414 124.693 87.6116 124.812 87.3727 124.832L86.0588 124.951V124.305H86.0294C85.8113 124.613 85.3923 125.011 84.6169 125.011C83.6414 125.011 82.7257 124.385 82.7257 122.654C82.7257 120.805 84.0187 119.969 85.2928 119.969C85.581 119.969 85.8303 120.018 86 120.059V118.318L85.2928 118.219C85.2928 118.219 85.2833 118.15 85.2833 118.109C85.2833 117.941 85.4132 117.821 85.6521 117.801L87.0049 117.672V124.335ZM86 120.864C85.8502 120.725 85.581 120.566 85.1639 120.566C84.3571 120.566 83.7599 121.142 83.7599 122.455C83.7599 123.738 84.3183 124.256 84.9838 124.256C85.562 124.256 85.8701 123.987 86 123.837V120.864Z" fill="#231F20"/>
<path d="M89.3644 122.505C89.3729 123.738 89.9607 124.315 90.8167 124.315C91.4537 124.315 91.8121 124.066 92.0614 123.857C92.16 123.937 92.2102 124.106 92.2102 124.196C92.2102 124.444 91.5523 125.011 90.4479 125.011C89.2241 125.011 88.3083 124.315 88.3083 122.584C88.3083 120.855 89.354 119.969 90.4877 119.969C91.613 119.969 92.1799 120.655 92.1799 121.651C92.1799 121.908 92.1306 122.256 92.0614 122.505H89.3644ZM91.1058 121.978C91.1248 121.889 91.1542 121.72 91.1542 121.55C91.1542 121.004 90.956 120.537 90.3787 120.537C89.7919 120.537 89.444 121.004 89.3729 121.978H91.1058Z" fill="#231F20"/>
<path d="M95.2959 120.705C95.1869 120.625 94.9376 120.506 94.6389 120.506C94.3109 120.506 93.9725 120.645 93.9725 121.063C93.9725 121.501 94.4399 121.759 94.9176 122.038C95.5149 122.396 96.1519 122.784 96.1519 123.579C96.1519 124.394 95.4751 125.011 94.3801 125.011C93.8237 125.011 93.326 124.842 93.1174 124.713C93.0767 124.465 93.0463 124.205 93.0463 123.947C93.0463 123.549 93.1563 123.39 93.4549 123.39C93.5052 123.39 93.5848 123.4 93.5848 123.4L93.7933 124.245C93.8929 124.315 94.182 124.444 94.4702 124.444C94.9575 124.444 95.2665 124.256 95.2665 123.837C95.2665 123.41 94.7887 123.171 94.3413 122.893C93.7336 122.505 93.126 122.117 93.126 121.262C93.126 120.487 93.8028 119.969 94.7584 119.969C95.3357 119.969 95.7443 120.168 95.9234 120.337C95.9424 120.476 95.9633 120.685 95.9633 120.885C95.9633 121.232 95.8931 121.461 95.5348 121.461C95.4855 121.461 95.4153 121.45 95.4153 121.45L95.2959 120.705Z" fill="#231F20"/>
<path d="M99.7846 120.636H98.4214V123.539C98.4214 123.987 98.5607 124.355 99.0584 124.355C99.4471 124.355 99.7647 124.186 99.8443 124.117C99.8945 124.196 99.9344 124.345 99.9344 124.444C99.9344 124.544 99.5865 125.011 98.6802 125.011C97.7749 125.011 97.4165 124.484 97.4165 123.719V120.636H96.6705C96.6705 120.636 96.66 120.575 96.66 120.546C96.66 120.357 96.7795 120.248 96.9681 120.208L97.4563 120.089L97.6848 118.746H98.4214V120.089H99.8945L99.7846 120.636Z" fill="#231F20"/>
<path d="M103.905 123.828C103.905 124.226 104.055 124.345 104.224 124.345C104.452 124.345 104.573 124.226 104.602 124.176C104.652 124.245 104.722 124.385 104.722 124.473C104.722 124.603 104.463 124.991 103.816 124.991C103.358 124.991 103.069 124.792 102.98 124.295H102.959C102.85 124.484 102.483 125.011 101.656 125.011C100.9 125.011 100.362 124.494 100.362 123.709C100.362 122.644 101.527 122.246 102.641 122.246H102.901V121.799C102.901 120.893 102.662 120.537 102.044 120.537C101.815 120.537 101.616 120.606 101.537 120.636C101.447 120.824 101.368 121.173 101.317 121.511C101.317 121.511 101.169 121.521 101.089 121.521C100.751 121.521 100.562 121.362 100.562 121.052C100.562 120.436 101.378 119.969 102.303 119.969C103.398 119.969 103.905 120.566 103.905 121.689V123.828ZM102.671 122.744C101.865 122.784 101.408 123.072 101.408 123.598C101.408 124.016 101.646 124.295 102.054 124.295C102.463 124.295 102.771 124.027 102.901 123.868V122.734L102.671 122.744Z" fill="#231F20"/>
<path d="M109.56 120.655H108.753C108.943 120.904 109.062 121.202 109.062 121.56C109.062 122.614 108.187 123.211 107.102 123.211C106.932 123.211 106.784 123.191 106.634 123.162C106.494 123.242 106.355 123.38 106.355 123.609C106.355 123.847 106.514 123.957 106.853 123.957H108.007C108.923 123.957 109.44 124.375 109.44 125.091C109.44 126.085 108.465 127 106.784 127C105.56 127 104.962 126.573 104.962 125.847C104.962 125.151 105.509 124.822 105.868 124.712V124.693C105.609 124.553 105.459 124.315 105.459 123.996C105.459 123.42 105.987 123.152 106.176 123.052V123.032C105.618 122.784 105.26 122.277 105.26 121.56C105.26 120.516 106.136 119.969 107.151 119.969C107.421 119.969 107.679 120.009 107.928 120.089H109.67L109.56 120.655ZM106.693 124.852C106.554 124.852 106.435 124.842 106.326 124.832C106.067 124.982 105.897 125.231 105.897 125.568C105.897 126.085 106.216 126.414 106.943 126.414C107.908 126.414 108.505 125.966 108.505 125.438C108.505 125.03 108.276 124.852 107.768 124.852H106.693ZM106.255 121.571C106.255 122.356 106.654 122.664 107.151 122.664C107.689 122.664 108.078 122.356 108.078 121.571C108.078 120.864 107.689 120.506 107.171 120.506C106.654 120.506 106.255 120.805 106.255 121.571Z" fill="#231F20"/>
<path d="M111.212 122.505C111.222 123.738 111.81 124.315 112.666 124.315C113.303 124.315 113.66 124.066 113.909 123.857C114.009 123.937 114.058 124.106 114.058 124.196C114.058 124.444 113.402 125.011 112.297 125.011C111.073 125.011 110.157 124.315 110.157 122.584C110.157 120.855 111.203 119.969 112.337 119.969C113.462 119.969 114.029 120.655 114.029 121.651C114.029 121.908 113.98 122.256 113.909 122.505H111.212ZM112.954 121.978C112.974 121.889 113.004 121.72 113.004 121.55C113.004 121.004 112.804 120.537 112.228 120.537C111.641 120.537 111.291 121.004 111.222 121.978H112.954Z" fill="#231F20"/>
<path d="M117.144 120.705C117.035 120.625 116.787 120.506 116.487 120.506C116.159 120.506 115.821 120.645 115.821 121.063C115.821 121.501 116.288 121.759 116.766 122.038C117.363 122.396 118 122.784 118 123.579C118 124.394 117.323 125.011 116.229 125.011C115.671 125.011 115.173 124.842 114.965 124.713C114.925 124.465 114.894 124.205 114.894 123.947C114.894 123.549 115.004 123.39 115.303 123.39C115.353 123.39 115.433 123.4 115.433 123.4L115.64 124.245C115.741 124.315 116.03 124.444 116.318 124.444C116.806 124.444 117.115 124.256 117.115 123.837C117.115 123.41 116.637 123.171 116.189 122.893C115.582 122.505 114.974 122.117 114.974 121.262C114.974 120.487 115.651 119.969 116.606 119.969C117.184 119.969 117.592 120.168 117.772 120.337C117.79 120.476 117.81 120.685 117.81 120.885C117.81 121.232 117.741 121.461 117.383 121.461C117.334 121.461 117.263 121.45 117.263 121.45L117.144 120.705Z" fill="#231F20"/>
<path d="M29.7924 66.7138H31.2144V85.6595H27.8965V66.7138H29.7924Z" fill="#F2CF04"/>
<path d="M29.7924 47.673H31.2144V66.7137H27.8965V47.673H29.7924Z" fill="#ED1C24"/>
<path d="M19.2625 35.4445C20.2326 36.9791 20.9925 36.9526 22.1397 36.9526C21.1903 36.2261 20.5626 35.2949 20.2633 34.8203L18.4907 31.9851C18.3174 31.1098 17.8646 30.2913 17.1862 29.6832C17.4143 29.596 17.6039 29.5051 17.7183 29.4189C16.5603 29.4189 15.4135 28.8315 14.7821 28.8315C14.3763 28.8315 14.1152 29.074 14.1152 29.3942C14.1415 29.7514 14.5088 30.1151 15.1883 30.1151C15.3428 30.1151 15.5394 30.0943 15.7557 30.0583C16.1238 30.5708 16.4203 31.034 16.4203 31.6952C16.4203 32.9361 14.9354 33.9033 13.4365 33.9033C13.3516 33.9033 13.2713 33.9005 13.1865 33.8938C13.0506 33.5869 12.5992 33.0697 12.5992 32.4824C12.5992 31.4963 13.2424 30.6911 13.2424 29.7144C13.2424 29.1072 12.9462 28.7321 12.8325 28.5758C13.0165 28.4043 13.218 28.195 13.2646 28.051C13.158 28.0974 13.0313 28.1031 12.8458 28.1031C12.1274 28.1031 11.5419 27.9165 10.9706 27.9165C10.6454 27.9165 10.5574 28.0169 10.5574 28.1126C10.5574 28.1476 10.5629 28.1836 10.5721 28.2007C10.4507 28.1533 10.3367 28.123 10.2011 28.0974C10.033 28.0652 9.85121 28.0491 9.65782 28.0491C8.96428 28.0491 8.71771 28.3399 8.71771 28.589C8.71771 28.7993 8.88361 29.1849 9.07206 29.4776C9.34271 29.3421 9.66711 29.2493 9.81595 29.2493C10.1837 29.2493 10.5114 29.5998 10.6851 30.0157C10.4373 30.045 10.3899 30.0564 10.1397 30.0564C9.46424 30.0564 9.00466 29.8139 8.90949 29.8139C8.9002 29.8139 8.88247 29.8186 8.88247 29.8328C8.88247 29.9285 9.07387 30.1786 9.45164 30.3159C9.94895 30.4978 10.6943 30.5746 10.8184 30.5944C10.8184 30.6162 10.6922 30.8512 10.5514 30.8966C10.5214 30.9061 10.4981 30.907 10.4636 30.9004C9.94373 30.7972 9.79897 30.7536 9.13984 30.5035C9.11946 30.4959 9.10761 30.5082 9.10761 30.53C9.10761 30.7896 9.78267 31.3646 10.387 31.5853C9.8823 32.2295 9.25123 32.8888 8.95395 33.8938C8.86986 33.9005 8.78843 33.9033 8.70359 33.9033C7.20493 33.9033 5.71973 32.9361 5.71973 31.6952C5.71973 31.034 6.01701 30.5708 6.38511 30.0583C6.60097 30.0943 6.79767 30.1151 6.95172 30.1151C7.63123 30.1151 7.99886 29.7514 8.02597 29.3942C8.02597 29.074 7.7649 28.8315 7.35793 28.8315C6.72657 28.8315 5.58047 29.4189 4.42175 29.4189C4.53617 29.5051 4.72615 29.596 4.95386 29.6832C4.27548 30.2913 3.82263 31.1098 3.64934 31.9851L1.877 34.8203C1.57857 35.2949 0.949022 36.2261 0 36.9526C1.14715 36.9526 1.90781 36.9791 2.87835 35.4445L3.78708 33.9914C3.85448 34.1809 3.93743 34.3637 4.03441 34.5437L2.22699 37.4338C1.92629 37.9132 1.30309 38.8358 0.349899 39.5671C1.49714 39.5671 2.25733 39.5936 3.22749 38.0609L4.78388 35.5715C4.9002 35.6956 5.02277 35.8168 5.15198 35.9324L2.95608 39.4449C2.65434 39.9252 2.03446 40.845 1.07937 41.5763C2.22661 41.5763 2.9868 41.6047 3.95743 40.0701L6.09778 36.6457C6.23884 36.7347 6.38331 36.8209 6.53214 36.9034L3.91923 41.0809C3.61787 41.5612 2.99761 42.4791 2.04327 43.2123C3.19014 43.2123 3.9507 43.2388 4.92096 41.7061L7.61123 37.4026C7.77039 37.4642 7.93184 37.5219 8.09631 37.575L5.05614 42.4374C4.75914 42.911 4.12475 43.8451 3.18047 44.5688C4.32696 44.5688 5.08761 44.5944 6.05778 43.0617L9.29797 37.88C9.33086 37.8847 9.36347 37.8904 9.39571 37.8971C9.48387 38.1775 9.54568 38.4389 9.54568 38.6994C9.54568 40.3278 8.47626 41.7658 7.19279 42.876C7.2746 42.912 7.41794 42.9243 7.55009 42.9243C7.81486 42.9243 7.98635 42.911 8.10589 42.8893C7.8086 43.5647 7.17014 44.4371 6.84725 44.888C6.42692 44.8122 5.81595 44.7526 5.41562 44.7526C4.99689 44.7526 4.94949 44.9979 4.94949 45.2167C4.94949 45.5966 5.12724 45.8997 5.33456 46.0674C5.41192 45.8732 5.56862 45.6136 6.34255 45.6136C6.35734 45.6136 6.38398 45.6155 6.42028 45.6184C6.19372 45.8694 5.48567 46.4416 5.48567 46.902C5.48567 47.2079 5.82078 47.6645 6.26178 47.6645C6.23552 47.566 6.23922 47.476 6.23922 47.4078C6.23922 47.0346 6.5695 46.5979 6.84943 46.2938C6.841 46.3838 6.84507 46.3753 6.84507 46.4804C6.84507 47.3633 6.92499 47.7678 7.48534 47.7678C7.76044 47.7678 7.95004 47.6172 8.01516 47.5717C7.65124 47.2373 7.63228 46.9739 7.63228 46.4795C7.63341 46.3506 7.63379 46.2246 7.63559 46.0513C7.63711 45.9386 7.63531 45.788 7.61673 45.68C7.81742 45.6525 7.89856 45.6525 8.05299 45.6525C8.05299 45.6525 8.84872 45.589 9.04059 46.003C9.25683 45.805 9.57051 45.5256 9.57051 45.2177C9.57051 45.014 9.47382 44.7838 9.06391 44.7838C8.90873 44.7838 8.42033 44.8785 8.01147 44.8785C8.12115 44.6341 8.6103 43.9208 9.03358 43.4027C9.09756 43.6035 9.19758 43.8204 9.41978 43.9985C9.45012 43.6651 9.64597 42.6108 10.1674 41.995C10.2277 42.4109 10.3096 42.8381 10.3096 43.7399C10.3096 45.931 9.78267 47.5499 8.66282 47.8587C8.80872 48.1126 9.11652 48.3399 9.43647 48.3399C9.84562 48.3399 10.0689 47.8777 10.2963 47.441C10.4148 47.7621 10.7421 48.5521 11.0698 48.5521C11.3976 48.5521 11.7253 47.7621 11.8438 47.441C12.0712 47.8777 12.2941 48.3399 12.7036 48.3399C13.0235 48.3399 13.332 48.1126 13.4775 47.8587C12.3581 47.5499 11.8304 45.931 11.8304 43.7399C11.8304 42.8381 11.9119 42.4109 11.9723 41.995C12.494 42.6108 12.6903 43.6651 12.7203 43.9985C12.9429 43.8204 13.0432 43.6035 13.1069 43.4027C13.5301 43.9208 14.0189 44.6341 14.129 44.8785C13.7197 44.8785 13.2317 44.7838 13.0765 44.7838C12.667 44.7838 12.5699 45.014 12.5699 45.2177C12.5699 45.5256 12.884 45.805 13.0998 46.003C13.2913 45.589 14.0878 45.6525 14.0878 45.6525C14.2419 45.6525 14.3229 45.6525 14.5241 45.68C14.5051 45.788 14.5041 45.9386 14.5047 46.0513C14.5066 46.2246 14.5074 46.3506 14.5078 46.4795C14.5078 46.9739 14.4892 47.2373 14.1252 47.5717C14.1904 47.6172 14.3804 47.7678 14.6547 47.7678C15.2154 47.7678 15.2954 47.3633 15.2954 46.4804C15.2954 46.3753 15.2987 46.3838 15.2913 46.2938C15.5706 46.5979 15.9016 47.0346 15.9016 47.4078C15.9016 47.476 15.9053 47.566 15.8783 47.6645C16.32 47.6645 16.6548 47.2079 16.6548 46.902C16.6548 46.4416 15.9467 45.8694 15.7201 45.6184C15.7567 45.6155 15.7831 45.6136 15.7975 45.6136C16.5722 45.6136 16.7281 45.8732 16.8059 46.0674C17.0128 45.8997 17.1906 45.5966 17.1906 45.2167C17.1906 44.9979 17.1435 44.7526 16.7247 44.7526C16.3245 44.7526 15.7134 44.8122 15.2928 44.888C14.9703 44.4371 14.3322 43.5647 14.0342 42.8893C14.1541 42.911 14.326 42.9243 14.59 42.9243C14.7229 42.9243 14.8655 42.912 14.9476 42.876C13.6642 41.7658 12.5944 40.3278 12.5944 38.6994C12.5944 38.4389 12.6566 38.1775 12.7443 37.8971C12.7766 37.8904 12.8099 37.8847 12.8425 37.88L16.0823 43.0617C17.0524 44.5944 17.8135 44.5688 18.9596 44.5688C18.0153 43.8451 17.3813 42.911 17.085 42.4374L14.0437 37.575C14.2085 37.5219 14.37 37.4642 14.5292 37.4026L17.2195 41.7061C18.1896 43.2388 18.9499 43.2123 20.0974 43.2123C19.1424 42.4791 18.5226 41.5612 18.2212 41.0809L15.6083 36.9034C15.7567 36.8209 15.902 36.7347 16.0419 36.6457L18.1834 40.0701C19.1539 41.6047 19.9134 41.5763 21.0603 41.5763C20.106 40.845 19.4865 39.9252 19.1843 39.4449L16.9888 35.9324C17.118 35.8168 17.241 35.6956 17.3562 35.5715L18.9128 38.0609C19.8831 39.5936 20.6429 39.5671 21.7905 39.5671C20.8366 38.8358 20.2149 37.9132 19.9134 37.4338L18.106 34.5437C18.2034 34.3637 18.2859 34.1809 18.3537 33.9914L19.2625 35.4445ZM4.75241 32.1167C4.75241 31.0378 5.53791 30.1833 5.81481 29.9427C5.88155 29.9588 5.94781 29.9749 6.0137 29.9882C5.71973 30.3472 5.2009 30.9478 5.2009 31.7435C5.2009 33.3236 6.89058 34.6952 8.80322 34.6952C8.79099 34.8307 8.78435 34.9737 8.78435 35.1196C8.78435 35.3527 8.79687 35.5696 8.82028 35.7742C6.65728 35.7609 4.75241 34.0066 4.75241 32.1167ZM7.68337 45.0699L7.67114 45.1068H7.70897C8.31624 45.1068 8.61173 45.0633 8.80767 45.0349C8.91062 45.0216 8.9839 45.0102 9.06391 45.0102C9.22052 45.0102 9.34091 45.0254 9.34091 45.2177C9.34091 45.3484 9.18867 45.553 9.04164 45.6724C8.81725 45.4621 8.50773 45.4204 8.05299 45.4204C7.84007 45.4204 7.56156 45.4583 7.41196 45.4791L7.38864 45.482L7.36238 45.4858L7.37082 45.5568C7.38865 45.6828 7.41016 45.8391 7.41016 46.0503L7.40751 46.2417L7.40533 46.4795C7.40533 46.9948 7.47605 47.2884 7.65635 47.5111C7.60971 47.5291 7.53416 47.5423 7.48534 47.5423C7.16539 47.5423 7.0724 47.4031 7.0724 46.4804C7.0724 46.2957 7.06244 46.1214 7.05571 46.0058L7.0469 45.8344L7.00613 45.8656C6.53025 46.2284 6.03995 46.8764 6.01076 47.3614C5.86704 47.2686 5.71186 47.0611 5.71186 46.902C5.71186 46.6377 6.10963 46.2407 6.57025 45.7813L6.8354 45.5161L6.86877 45.482L6.78175 45.4611C6.68287 45.4346 6.49878 45.3891 6.34255 45.3891C5.82562 45.3891 5.50264 45.4858 5.30271 45.7036C5.23161 45.5994 5.17123 45.3588 5.17123 45.2167C5.17123 45.1249 5.18943 45.0604 5.22602 45.0235C5.27124 44.9799 5.3412 44.9799 5.40272 44.9799H5.41562C5.9844 44.9799 6.66505 45.0822 6.93096 45.1249L6.94651 45.1286L6.95646 45.1154C7.00244 45.0538 8.0874 43.6101 8.36961 42.8438C8.43398 42.8201 8.49067 42.8012 8.60357 42.8012C8.81725 42.8012 8.8765 42.9461 8.9384 43.1659C8.25955 43.9891 7.83742 44.6294 7.68337 45.0699ZM13.5365 42.8012C13.6501 42.8012 13.7057 42.8201 13.7712 42.8438C14.053 43.6101 15.138 45.0538 15.1836 45.1154L15.1935 45.1286L15.2099 45.1249C15.4758 45.0822 16.1556 44.9799 16.7247 44.9799H16.7373C16.7992 44.9799 16.8692 44.9799 16.9139 45.0235C16.9506 45.0604 16.9691 45.1249 16.9691 45.2167C16.9691 45.3588 16.9092 45.5994 16.8373 45.7036C16.6377 45.4858 16.3148 45.3891 15.7975 45.3891C15.6417 45.3891 15.4579 45.4346 15.3583 45.4611L15.3176 45.4706L15.2709 45.482L15.5702 45.7813C16.0304 46.2407 16.4289 46.6377 16.4289 46.902C16.4289 47.0611 16.2738 47.2686 16.1304 47.3614C16.1001 46.8764 15.6102 46.2284 15.1339 45.8656L15.0932 45.8353L15.0854 46.0058C15.0784 46.1214 15.0684 46.2957 15.0684 46.4804C15.0684 47.4031 14.9747 47.5423 14.6547 47.5423C14.6059 47.5423 14.5307 47.5291 14.4841 47.5111C14.664 47.2884 14.7355 46.9948 14.7355 46.4795L14.7325 46.2417L14.7303 46.0503C14.7303 45.8391 14.7522 45.6828 14.7691 45.5568L14.7784 45.4858L14.7281 45.4791C14.5785 45.4583 14.3004 45.4204 14.0878 45.4204C13.6323 45.4204 13.3232 45.4621 13.0991 45.6724C12.9514 45.553 12.7995 45.3484 12.7995 45.2177C12.7995 45.0254 12.9195 45.0102 13.0765 45.0102C13.1561 45.0102 13.2302 45.0216 13.3328 45.0349C13.5287 45.0633 13.8242 45.1068 14.4311 45.1068H14.4688L14.457 45.0699C14.3029 44.6294 13.8804 43.9891 13.2024 43.1659C13.2636 42.9461 13.3232 42.8012 13.5365 42.8012ZM11.024 30.2023C10.9566 29.9219 10.8128 29.6339 10.6295 29.417C10.4629 29.2199 10.1871 28.9869 9.81595 28.9869C9.64597 28.9869 9.36158 29.0655 9.18089 29.1422C9.11273 29.0191 8.98096 28.7226 8.98096 28.589C8.98096 28.4517 9.2135 28.3124 9.65782 28.3124C10.6362 28.3124 11.2209 28.7539 11.2209 29.4946C11.2209 29.7552 11.1176 29.992 11.024 30.2023ZM11.4631 29.2389C11.4279 29.0295 11.3484 28.8401 11.2272 28.6781C11.2332 28.4858 11.312 28.303 11.6201 28.4536C11.4535 28.6241 11.5823 28.9263 11.5823 28.9263C11.5823 28.9263 11.9234 28.7671 11.8531 28.5426C12.3589 28.6639 11.9953 29.3431 11.4631 29.2389ZM13.3668 35.7742C13.3924 35.5629 13.4072 35.3432 13.4072 35.1196C13.4072 34.9974 13.4083 34.8553 13.3935 34.6952C15.2825 34.6678 16.9395 33.3084 16.9395 31.7435C16.9395 30.9478 16.4203 30.3472 16.1267 29.9882C16.193 29.9749 16.2593 29.9588 16.3259 29.9427C16.6025 30.1833 17.3879 31.0378 17.3879 32.1167C17.3879 33.9933 15.5109 35.7354 13.3668 35.7742Z" fill="#231F20"/>
<path d="M31.2144 28.8231V47.7678H27.8965V28.8231H31.2144Z" fill="#231F20"/>
<path d="M42.3512 30.6627C42.3512 30.9336 42.3172 31.1704 42.2494 31.3731C42.182 31.5759 42.0899 31.7502 41.9732 31.897C41.8566 32.0438 41.7214 32.1622 41.567 32.2522C41.4129 32.3422 41.253 32.4104 41.0878 32.455V32.4777C41.2907 32.5156 41.4807 32.5866 41.6573 32.6918C41.8339 32.7969 41.9884 32.9286 42.1198 33.0868C42.2517 33.244 42.3568 33.4307 42.4357 33.6447C42.5146 33.8588 42.5542 34.0938 42.5542 34.3486C42.5542 34.6574 42.5016 34.9387 42.3961 35.1945C42.291 35.4503 42.1272 35.6719 41.9054 35.8595C41.6837 36.0471 41.4036 36.1939 41.0652 36.299C40.7268 36.4042 40.3243 36.4572 39.8581 36.4572H38.2675V28.6791H39.7677C40.2264 28.6791 40.6198 28.7255 40.9467 28.8202C41.2737 28.914 41.5425 29.0466 41.7533 29.22C41.964 29.3933 42.1161 29.6017 42.2102 29.8452C42.3042 30.0896 42.3512 30.3624 42.3512 30.6627ZM41.3585 30.6968C41.3585 30.3359 41.2304 30.0394 40.9749 29.8063C40.7194 29.5733 40.3169 29.4568 39.7677 29.4568H39.2489V32.1395H39.7565C40.2828 32.1395 40.6816 32.0116 40.9523 31.7568C41.223 31.501 41.3585 31.1477 41.3585 30.6968ZM41.5052 34.2813C41.5052 33.8607 41.3677 33.5282 41.0934 33.2838C40.8189 33.0394 40.4261 32.9172 39.9143 32.9172H39.2489V35.6454H39.8581C40.4372 35.6454 40.8564 35.5308 41.1159 35.3015C41.3756 35.0723 41.5052 34.7322 41.5052 34.2813ZM47.5519 36.4572H46.7168V35.8481H46.6942C46.6717 35.8936 46.6227 35.959 46.5476 36.0452C46.4724 36.1323 46.3765 36.2147 46.2602 36.2933C46.1435 36.3729 46.0025 36.4421 45.837 36.5018C45.6715 36.5624 45.4875 36.5927 45.2841 36.5927C45.0434 36.5927 44.8276 36.5567 44.6357 36.4856C44.4439 36.4137 44.2802 36.299 44.1446 36.1408C44.0095 35.9836 43.9062 35.779 43.8347 35.527C43.7633 35.275 43.7273 34.9653 43.7273 34.5968V31.0463H44.6413V34.5295C44.6413 34.9804 44.7146 35.3015 44.8612 35.4929C45.0079 35.6842 45.2352 35.7809 45.5437 35.7809C45.807 35.7809 46.0287 35.7146 46.2091 35.5829C46.3898 35.4522 46.5328 35.3224 46.6379 35.1945V31.0463H47.5519V36.4572ZM51.9062 36.4572V32.9741C51.9062 32.5156 51.8292 32.1869 51.6748 31.987C51.5208 31.7881 51.2857 31.6886 50.9698 31.6886C50.6991 31.6886 50.4735 31.7568 50.2929 31.8913C50.1125 32.0268 49.9696 32.1584 49.8644 32.2863V36.4572H48.9505V31.0463H49.7851V31.6554H49.8078C49.8303 31.61 49.8792 31.5437 49.9544 31.4575C50.0296 31.3713 50.1277 31.2879 50.2476 31.2093C50.368 31.1306 50.511 31.0615 50.6765 31.0009C50.842 30.9412 51.0301 30.9109 51.2404 30.9109C51.4811 30.9109 51.6993 30.9459 51.8947 31.0179C52.0903 31.089 52.2558 31.2036 52.3914 31.3618C52.5265 31.52 52.6321 31.7246 52.7073 31.9766C52.7824 32.2276 52.8198 32.5383 52.8198 32.9059V36.4572H51.9062ZM53.9366 33.8304C53.9366 33.2819 54.0081 32.8234 54.151 32.455C54.294 32.0865 54.478 31.79 54.7039 31.5645C54.9294 31.339 55.1849 31.1799 55.4708 31.0852C55.7567 30.9914 56.0425 30.945 56.3284 30.945C56.5014 30.945 56.6517 30.9582 56.7795 30.9838C56.9072 31.0103 57.0128 31.0425 57.0954 31.0804V28.4868L58.0092 28.3854V36.4572H57.1742V35.8822H57.1516C57.129 35.9267 57.088 35.9893 57.0276 36.0679C56.9676 36.1465 56.8846 36.2261 56.7795 36.3047C56.6743 36.3833 56.5425 36.4515 56.3848 36.5074C56.2266 36.5643 56.0425 36.5927 55.8319 36.5927C55.5763 36.5927 55.3338 36.5415 55.1042 36.4402C54.875 36.3388 54.6739 36.1768 54.5006 35.9552C54.3276 35.7335 54.1907 35.4484 54.0892 35.0988C53.9874 34.7493 53.9366 34.3268 53.9366 33.8304ZM56.08 35.7809C56.2229 35.7809 56.3506 35.7619 56.4636 35.724C56.5765 35.6861 56.6743 35.6397 56.7568 35.5829C56.8398 35.527 56.9095 35.4692 56.9658 35.4086C57.022 35.3489 57.0653 35.2959 57.0954 35.2513V31.914C57.0128 31.8619 56.9169 31.8165 56.8076 31.7786C56.6987 31.7416 56.5614 31.7227 56.3958 31.7227C56.1855 31.7227 55.9877 31.7587 55.8037 31.8297C55.6193 31.9008 55.4597 32.0192 55.3242 32.185C55.189 32.3498 55.0817 32.5639 55.0028 32.8272C54.9238 33.0906 54.8843 33.4136 54.8843 33.7963C54.8843 34.1724 54.916 34.4859 54.9801 34.7379C55.0442 34.9899 55.1324 35.1926 55.2453 35.3461C55.3583 35.5005 55.486 35.6113 55.6289 35.6795C55.7719 35.7468 55.9222 35.7809 56.08 35.7809ZM62.8825 32.8727C62.8825 33.1048 62.875 33.3066 62.8598 33.4752C62.8447 33.6447 62.8299 33.7935 62.8147 33.9204H60.0511C60.0811 34.5598 60.2181 35.0297 60.4629 35.33C60.7073 35.6302 61.0587 35.7809 61.5175 35.7809C61.6752 35.7809 61.8182 35.7619 61.9464 35.724C62.0741 35.6861 62.1848 35.6416 62.2788 35.5895C62.3729 35.5365 62.4518 35.4834 62.5158 35.4313C62.5799 35.3783 62.6269 35.3375 62.657 35.3072L62.9954 35.9495C62.9577 35.9874 62.9014 36.0414 62.8262 36.1134C62.751 36.1844 62.6496 36.2564 62.5214 36.3275C62.3936 36.3985 62.2355 36.461 62.0478 36.5131C61.8597 36.5662 61.6379 36.5927 61.3819 36.5927C61.0435 36.5927 60.7373 36.5358 60.4629 36.4231C60.1881 36.3104 59.9552 36.1361 59.7634 35.8993C59.5716 35.6625 59.423 35.3612 59.3175 34.9975C59.2124 34.6328 59.1598 34.1951 59.1598 33.6836C59.1598 33.2033 59.2142 32.7874 59.3235 32.4379C59.4323 32.0883 59.5808 31.8013 59.7689 31.5759C59.957 31.3504 60.1752 31.1827 60.4232 31.0748C60.6713 30.9649 60.9384 30.9109 61.2242 30.9109C61.743 30.9109 62.1492 31.0748 62.4425 31.4016C62.7358 31.7274 62.8825 32.2181 62.8825 32.8727ZM61.168 31.6554C60.8443 31.6554 60.5851 31.79 60.3896 32.0609C60.1936 32.3309 60.0811 32.7221 60.0511 33.2336H62.0252C62.0326 33.1957 62.0381 33.1408 62.0422 33.0697C62.0459 32.9987 62.0478 32.921 62.0478 32.8386C62.0478 32.4625 61.9726 32.1717 61.8219 31.9643C61.6715 31.7587 61.4534 31.6554 61.168 31.6554ZM66.4359 32.1395C66.3759 32.0722 66.2667 31.9804 66.1089 31.8629C65.9508 31.7464 65.7442 31.6886 65.4883 31.6886C65.2476 31.6886 65.0635 31.7445 64.9358 31.8582C64.8076 31.9709 64.7439 32.1054 64.7439 32.2636C64.7439 32.4663 64.8021 32.634 64.9187 32.7647C65.0354 32.8964 65.2139 33.0375 65.4545 33.1882L65.7931 33.3909C66.1615 33.6087 66.4511 33.8437 66.6618 34.0956C66.8722 34.3467 66.9777 34.6725 66.9777 35.0704C66.9777 35.4986 66.8288 35.8595 66.5318 36.1531C66.2348 36.4459 65.8082 36.5927 65.2517 36.5927C65.0332 36.5927 64.8418 36.57 64.6762 36.5245C64.5106 36.48 64.3659 36.4269 64.2418 36.3672C64.1178 36.3066 64.0145 36.2412 63.9315 36.1702C63.849 36.0982 63.7812 36.0328 63.7286 35.9722L64.1685 35.2513C64.2137 35.2959 64.2681 35.3489 64.3322 35.4086C64.3958 35.4692 64.4733 35.527 64.5633 35.5829C64.6536 35.6397 64.7551 35.6861 64.868 35.724C64.9806 35.7619 65.1124 35.7809 65.2628 35.7809C65.5334 35.7809 65.7405 35.7202 65.8834 35.5999C66.026 35.4796 66.0975 35.3337 66.0975 35.1604C66.0975 35.0335 66.0808 34.9217 66.0467 34.8279C66.013 34.7341 65.9623 34.6498 65.8945 34.575C65.8267 34.4992 65.7442 34.4281 65.6464 34.3599C65.5487 34.2927 65.4357 34.2178 65.308 34.1354L64.9695 33.9204C64.631 33.7025 64.3659 33.4733 64.1741 33.2336C63.9822 32.993 63.8863 32.6842 63.8863 32.3091C63.8863 32.1054 63.9259 31.9197 64.0048 31.7502C64.0841 31.5815 64.1948 31.4357 64.3377 31.3106C64.4807 31.1865 64.6481 31.089 64.8399 31.0179C65.0316 30.9459 65.2365 30.9109 65.4545 30.9109C65.6649 30.9109 65.8456 30.9317 65.9959 30.9724C66.1463 31.0141 66.2763 31.0662 66.3852 31.1306C66.4944 31.1951 66.5843 31.2585 66.6558 31.322C66.7273 31.3864 66.7858 31.4404 66.8306 31.4859L66.4359 32.1395ZM70.8922 36.4572V32.9741C70.8922 32.5307 70.8281 32.2115 70.7003 32.0154C70.5722 31.8203 70.3655 31.7227 70.0796 31.7227C69.9294 31.7227 69.7956 31.7416 69.6794 31.7786C69.5627 31.8165 69.4595 31.8629 69.369 31.9197C69.2787 31.9766 69.1998 32.0381 69.132 32.1054C69.0644 32.1736 69.008 32.2333 68.9628 32.2863V36.4572H68.0494V31.0463H68.884V31.6554H68.9065C68.9443 31.5948 69.0007 31.5219 69.0758 31.4357C69.151 31.3485 69.245 31.2661 69.3576 31.1865C69.4706 31.1079 69.602 31.0425 69.7527 30.9895C69.903 30.9374 70.0722 30.9109 70.2604 30.9109C70.877 30.9109 71.3131 31.1515 71.5687 31.6327C71.6212 31.5569 71.6927 31.4764 71.7831 31.3902C71.8734 31.3031 71.9786 31.2244 72.0989 31.1534C72.2193 31.0814 72.3548 31.0236 72.5051 30.9781C72.6555 30.9336 72.821 30.9109 73.0013 30.9109C74.1 30.9109 74.6489 31.5493 74.6489 32.8272V36.4572H73.735V32.9741C73.735 32.5307 73.6554 32.2115 73.4981 32.0154C73.3397 31.8203 73.1065 31.7227 72.7984 31.7227C72.543 31.7227 72.3304 31.7843 72.1612 31.9084C71.9919 32.0325 71.8582 32.1509 71.7605 32.2636C71.7757 32.346 71.7868 32.4351 71.7945 32.5288C71.8019 32.6226 71.8057 32.7221 71.8057 32.8272V36.4572H70.8922ZM76.9269 36.4572H76.013V31.0463H76.9269V36.4572ZM76.4757 29.7381C76.288 29.7381 76.1372 29.6785 76.0254 29.5581C75.9116 29.4378 75.8557 29.2806 75.8557 29.0845C75.8557 28.8969 75.9116 28.7425 76.0254 28.6222C76.1372 28.5019 76.288 28.4422 76.4757 28.4422C76.6567 28.4422 76.8037 28.5019 76.9155 28.6222C77.0293 28.7425 77.0852 28.8969 77.0852 29.0845C77.0852 29.2806 77.0293 29.4378 76.9155 29.5581C76.8037 29.6785 76.6567 29.7381 76.4757 29.7381ZM81.2819 36.4572V32.9741C81.2819 32.5156 81.2051 32.1869 81.0506 31.987C80.8961 31.7881 80.661 31.6886 80.3453 31.6886C80.0742 31.6886 79.8495 31.7568 79.6684 31.8913C79.4883 32.0268 79.3452 32.1584 79.24 32.2863V36.4572H78.3261V31.0463H79.1613V31.6554H79.184C79.2058 31.61 79.2551 31.5437 79.33 31.4575C79.4059 31.3713 79.5035 31.2879 79.6239 31.2093C79.7443 31.1306 79.8865 31.0615 80.0524 31.0009C80.2173 30.9412 80.406 30.9109 80.6164 30.9109C80.8563 30.9109 81.0743 30.9459 81.2705 31.0179C81.4658 31.089 81.6317 31.2036 81.7673 31.3618C81.9019 31.52 82.0071 31.7246 82.083 31.9766C82.1578 32.2276 82.1958 32.5383 82.1958 32.9059V36.4572H81.2819ZM84.4738 36.4572H83.5608V31.0463H84.4738V36.4572ZM84.0235 29.7381C83.8348 29.7381 83.685 29.6785 83.5713 29.5581C83.4585 29.4378 83.4025 29.2806 83.4025 29.0845C83.4025 28.8969 83.4585 28.7425 83.5713 28.6222C83.685 28.5019 83.8348 28.4422 84.0235 28.4422C84.2036 28.4422 84.3505 28.5019 84.4633 28.6222C84.5752 28.7425 84.6321 28.8969 84.6321 29.0845C84.6321 29.2806 84.5752 29.4378 84.4633 29.5581C84.3505 29.6785 84.2036 29.7381 84.0235 29.7381ZM88.2078 32.1395C88.1481 32.0722 88.0391 31.9804 87.8808 31.8629C87.7234 31.7464 87.5158 31.6886 87.2608 31.6886C87.02 31.6886 86.8352 31.7445 86.7081 31.8582C86.5802 31.9709 86.5157 32.1054 86.5157 32.2636C86.5157 32.4663 86.5745 32.634 86.6911 32.7647C86.8077 32.8964 86.9859 33.0375 87.2267 33.1882L87.5651 33.3909C87.9339 33.6087 88.223 33.8437 88.4335 34.0956C88.6449 34.3467 88.7501 34.6725 88.7501 35.0704C88.7501 35.4986 88.6013 35.8595 88.3045 36.1531C88.0069 36.4459 87.5803 36.5927 87.0238 36.5927C86.8058 36.5927 86.6133 36.57 86.4484 36.5245C86.2835 36.48 86.1384 36.4269 86.0142 36.3672C85.89 36.3066 85.7867 36.2412 85.7042 36.1702C85.6208 36.0982 85.5535 36.0328 85.5004 35.9722L85.9412 35.2513C85.9858 35.2959 86.0408 35.3489 86.1043 35.4086C86.1687 35.4692 86.2455 35.527 86.3356 35.5829C86.4256 35.6397 86.5271 35.6861 86.6399 35.724C86.7527 35.7619 86.8845 35.7809 87.0352 35.7809C87.3063 35.7809 87.513 35.7202 87.6552 35.5999C87.7983 35.4796 87.8694 35.3337 87.8694 35.1604C87.8694 35.0335 87.8524 34.9217 87.8192 34.8279C87.785 34.7341 87.7339 34.6498 87.6665 34.575C87.5992 34.4992 87.5158 34.4281 87.4182 34.3599C87.3205 34.2927 87.2077 34.2178 87.0798 34.1354L86.7413 33.9204C86.4038 33.7025 86.1384 33.4733 85.9469 33.2336C85.7545 32.993 85.6587 32.6842 85.6587 32.3091C85.6587 32.1054 85.6985 31.9197 85.7772 31.7502C85.8559 31.5815 85.9668 31.4357 86.11 31.3106C86.2531 31.1865 86.42 31.089 86.6124 31.0179C86.8039 30.9459 87.0087 30.9109 87.2267 30.9109C87.4371 30.9109 87.6173 30.9317 87.768 30.9724C87.9187 31.0141 88.0486 31.0662 88.1576 31.1306C88.2666 31.1951 88.3567 31.2585 88.4287 31.322C88.4998 31.3864 88.5577 31.4404 88.6032 31.4859L88.2078 32.1395ZM92.1344 31.79H90.9494V34.7891C90.9494 35.1718 90.9987 35.4332 91.0963 35.5725C91.194 35.7117 91.3589 35.7809 91.5921 35.7809C91.7277 35.7809 91.8443 35.7619 91.9419 35.724C92.0396 35.6861 92.1116 35.653 92.1562 35.6227L92.2804 36.3559C92.2434 36.3852 92.1524 36.4326 92.0102 36.4961C91.867 36.5605 91.6756 36.5927 91.4348 36.5927C90.9684 36.5927 90.6186 36.4629 90.3854 36.2034C90.1522 35.9438 90.0355 35.5137 90.0355 34.9132V31.79H89.3814V31.1818L90.0355 31.0463L90.137 29.5354H90.9494V31.0463H92.2472L92.1344 31.79ZM96.5671 32.8727C96.5671 33.1048 96.5595 33.3066 96.5453 33.4752C96.5302 33.6447 96.515 33.7935 96.4998 33.9204H93.7355C93.7659 34.5598 93.9033 35.0297 94.1479 35.33C94.3925 35.6302 94.7442 35.7809 95.202 35.7809C95.3604 35.7809 95.5035 35.7619 95.6315 35.724C95.7585 35.6861 95.8704 35.6416 95.9642 35.5895C96.0581 35.5365 96.1367 35.4834 96.2012 35.4313C96.2647 35.3783 96.3121 35.3375 96.3415 35.3072L96.6799 35.9495C96.643 35.9874 96.5861 36.0414 96.5112 36.1134C96.4354 36.1844 96.3339 36.2564 96.2069 36.3275C96.078 36.3985 95.9206 36.461 95.7329 36.5131C95.5452 36.5662 95.3224 36.5927 95.0674 36.5927C94.729 36.5927 94.4219 36.5358 94.1479 36.4231C93.873 36.3104 93.6398 36.1361 93.4483 35.8993C93.2568 35.6625 93.108 35.3612 93.0027 34.9975C92.8975 34.6328 92.8444 34.1951 92.8444 33.6836C92.8444 33.2033 92.8994 32.7874 93.0084 32.4379C93.1174 32.0883 93.2663 31.8013 93.454 31.5759C93.6417 31.3504 93.8597 31.1827 94.1081 31.0748C94.3564 30.9649 94.6238 30.9109 94.9091 30.9109C95.4286 30.9109 95.8343 31.0748 96.1273 31.4016C96.4211 31.7274 96.5671 32.2181 96.5671 32.8727ZM94.8522 31.6554C94.529 31.6554 94.2702 31.79 94.0739 32.0609C93.8787 32.3309 93.7659 32.7221 93.7355 33.2336H95.7102C95.7177 33.1957 95.7234 33.1408 95.7272 33.0697C95.731 32.9987 95.7329 32.921 95.7329 32.8386C95.7329 32.4625 95.6571 32.1717 95.5073 31.9643C95.3566 31.7587 95.1385 31.6554 94.8522 31.6554ZM100.167 31.8458C100.144 31.8316 100.095 31.8127 100.02 31.79C99.9448 31.7672 99.8424 31.7568 99.7144 31.7568C99.4291 31.7568 99.2054 31.8335 99.0442 31.987C98.8821 32.1414 98.7674 32.3091 98.6991 32.4891V36.4572H97.7862V31.0463H98.6205V31.7786H98.6432C98.6811 31.6734 98.7295 31.5702 98.7901 31.4688C98.8499 31.3675 98.9257 31.2775 99.0148 31.1989C99.1058 31.1193 99.2129 31.0577 99.3371 31.0122C99.4613 30.9668 99.6092 30.945 99.7827 30.945C99.9107 30.945 100.014 30.9563 100.093 30.9781C100.171 31.0009 100.234 31.0198 100.278 31.035L100.167 31.8458ZM101.982 36.4572H101.069V31.0463H101.982V36.4572ZM101.531 29.7381C101.343 29.7381 101.192 29.6785 101.08 29.5581C100.967 29.4378 100.911 29.2806 100.911 29.0845C100.911 28.8969 100.967 28.7425 101.08 28.6222C101.192 28.5019 101.343 28.4422 101.531 28.4422C101.712 28.4422 101.858 28.5019 101.971 28.6222C102.084 28.7425 102.14 28.8969 102.14 29.0845C102.14 29.2806 102.084 29.4378 101.971 29.5581C101.858 29.6785 101.712 29.7381 101.531 29.7381ZM107.171 36.4572H106.337V35.8481H106.314C106.291 35.8936 106.242 35.959 106.167 36.0452C106.092 36.1323 105.997 36.2147 105.88 36.2933C105.763 36.3729 105.622 36.4421 105.456 36.5018C105.291 36.5624 105.107 36.5927 104.904 36.5927C104.664 36.5927 104.448 36.5567 104.255 36.4856C104.064 36.4137 103.9 36.299 103.765 36.1408C103.63 35.9836 103.526 35.779 103.454 35.527C103.383 35.275 103.347 34.9653 103.347 34.5968V31.0463H104.261V34.5295C104.261 34.9804 104.334 35.3015 104.481 35.4929C104.628 35.6842 104.855 35.7809 105.163 35.7809C105.427 35.7809 105.649 35.7146 105.829 35.5829C106.01 35.4522 106.152 35.3224 106.257 35.1945V31.0463H107.171V36.4572ZM111.413 36.4572V32.9741C111.413 32.5307 111.349 32.2115 111.221 32.0154C111.094 31.8203 110.887 31.7227 110.601 31.7227C110.45 31.7227 110.317 31.7416 110.2 31.7786C110.084 31.8165 109.98 31.8629 109.89 31.9197C109.8 31.9766 109.721 32.0381 109.653 32.1054C109.586 32.1736 109.53 32.2333 109.484 32.2863V36.4572H108.57V31.0463H109.406V31.6554H109.427C109.465 31.5948 109.522 31.5219 109.597 31.4357C109.672 31.3485 109.766 31.2661 109.879 31.1865C109.991 31.1079 110.123 31.0425 110.274 30.9895C110.425 30.9374 110.593 30.9109 110.781 30.9109C111.398 30.9109 111.834 31.1515 112.09 31.6327C112.142 31.5569 112.214 31.4764 112.305 31.3902C112.395 31.3031 112.5 31.2244 112.62 31.1534C112.741 31.0814 112.876 31.0236 113.027 30.9781C113.177 30.9336 113.343 30.9109 113.523 30.9109C114.62 30.9109 115.17 31.5493 115.17 32.8272V36.4572H114.255V32.9741C114.255 32.5307 114.177 32.2115 114.018 32.0154C113.861 31.8203 113.628 31.7227 113.32 31.7227C113.064 31.7227 112.852 31.7843 112.683 31.9084C112.513 32.0325 112.379 32.1509 112.282 32.2636C112.297 32.346 112.308 32.4351 112.316 32.5288C112.323 32.6226 112.327 32.7221 112.327 32.8272V36.4572H111.413ZM40.3542 43.1574H39.2489V47.8247H38.3349V43.1574H37.681V42.5492L38.3349 42.4251V41.3424C38.3349 41.0497 38.3765 40.7977 38.4594 40.5874C38.542 40.3771 38.6508 40.2047 38.7864 40.0692C38.9219 39.9338 39.0797 39.8362 39.26 39.7756C39.4407 39.7159 39.6325 39.6856 39.8354 39.6856C40.031 39.6856 40.1965 39.7121 40.3321 39.7642C40.4671 39.8172 40.5576 39.858 40.6027 39.8883L40.4109 40.6442C40.3657 40.6139 40.3016 40.5817 40.2191 40.5476C40.1361 40.5135 40.0347 40.4974 39.9143 40.4974C39.6962 40.4974 39.531 40.5647 39.4181 40.7001C39.3052 40.8356 39.2489 41.0838 39.2489 41.4447V42.4138H40.4671L40.3542 43.1574ZM45.0475 47.8247H44.2124V47.2155H44.1899C44.1673 47.261 44.1184 47.3264 44.0432 47.4126C43.968 47.4997 43.8721 47.5821 43.7559 47.6608C43.6392 47.7403 43.4981 47.8095 43.3326 47.8692C43.1671 47.9298 42.9831 47.9601 42.7797 47.9601C42.539 47.9601 42.3232 47.9241 42.1313 47.8531C41.9395 47.7811 41.7758 47.6664 41.6403 47.5083C41.5052 47.351 41.4018 47.1464 41.3304 46.8944C41.2589 46.6424 41.223 46.3327 41.223 45.9642V42.4138H42.1369V45.8969C42.1369 46.3478 42.2102 46.669 42.3568 46.8603C42.5035 47.0517 42.7308 47.1483 43.0393 47.1483C43.3026 47.1483 43.5244 47.082 43.7048 46.9503C43.8855 46.8196 44.0284 46.6898 44.1335 46.5619V42.4138H45.0475V47.8247ZM42.8023 40.8583C42.8023 41.0307 42.7498 41.17 42.6445 41.2751C42.539 41.3803 42.4113 41.4324 42.2609 41.4324C42.1106 41.4324 41.9829 41.3803 41.8773 41.2751C41.7721 41.17 41.7195 41.0307 41.7195 40.8583C41.7195 40.685 41.7721 40.5457 41.8773 40.4406C41.9829 40.3354 42.1106 40.2833 42.2609 40.2833C42.4113 40.2833 42.539 40.3354 42.6445 40.4406C42.7498 40.5457 42.8023 40.685 42.8023 40.8583ZM44.5398 40.8583C44.5398 41.0307 44.4872 41.17 44.3816 41.2751C44.2765 41.3803 44.1487 41.4324 43.9981 41.4324C43.8477 41.4324 43.7199 41.3803 43.6148 41.2751C43.5092 41.17 43.4567 41.0307 43.4567 40.8583C43.4567 40.685 43.5092 40.5457 43.6148 40.4406C43.7199 40.3354 43.8477 40.2833 43.9981 40.2833C44.1487 40.2833 44.2765 40.3354 44.3816 40.4406C44.4872 40.5457 44.5398 40.685 44.5398 40.8583ZM48.8264 43.2133C48.8039 43.1991 48.7549 43.1801 48.6798 43.1574C48.6046 43.1346 48.5032 43.1242 48.375 43.1242C48.0896 43.1242 47.8655 43.2009 47.704 43.3544C47.5422 43.5088 47.4274 43.6765 47.36 43.8565V47.8247H46.4461V42.4138H47.2807V43.146H47.3034C47.3411 43.0409 47.39 42.9376 47.45 42.8362C47.5103 42.7349 47.5855 42.6449 47.6759 42.5663C47.7659 42.4867 47.8732 42.4251 47.9973 42.3797C48.1214 42.3342 48.2699 42.3124 48.4428 42.3124C48.5709 42.3124 48.6743 42.3238 48.7531 42.3455C48.832 42.3683 48.8942 42.3872 48.9394 42.4024L48.8264 43.2133ZM59.6559 40.0465L57.7607 47.8247H56.8809L55.6967 42.9319C55.6138 42.5937 55.5423 42.2783 55.4823 41.9856C55.4219 41.6919 55.3882 41.4589 55.3808 41.2865H55.3583C55.3583 41.4589 55.3279 41.6881 55.2678 41.9742C55.2076 42.2594 55.1365 42.571 55.0535 42.9092L53.8463 47.8247H52.9664L51.1164 40.0465H52.1655L53.1356 44.781C53.2108 45.1419 53.2767 45.482 53.333 45.8012C53.3897 46.1205 53.4216 46.3668 53.429 46.5392H53.4515C53.4589 46.3668 53.4985 46.1148 53.57 45.7842C53.6415 45.4536 53.7186 45.1116 53.8015 44.7583L54.952 40.0465H55.8881L57.0165 44.781C57.0991 45.1419 57.1742 45.482 57.242 45.8012C57.3097 46.1205 57.3475 46.3668 57.3549 46.5392H57.3775C57.3849 46.3668 57.4186 46.1129 57.479 45.7785C57.5389 45.4441 57.6067 45.0965 57.6819 44.7355L58.6636 40.0465H59.6559ZM61.4161 47.8247H60.5021V42.4138H61.4161V47.8247ZM60.9646 41.1056C60.7769 41.1056 60.6262 41.0459 60.5136 40.9256C60.4007 40.8053 60.3444 40.648 60.3444 40.4519C60.3444 40.2644 60.4007 40.11 60.5136 39.9897C60.6262 39.8693 60.7769 39.8097 60.9646 39.8097C61.1453 39.8097 61.292 39.8693 61.4046 39.9897C61.5175 40.11 61.5738 40.2644 61.5738 40.4519C61.5738 40.648 61.5175 40.8053 61.4046 40.9256C61.292 41.0459 61.1453 41.1056 60.9646 41.1056ZM65.195 43.2133C65.1724 43.1991 65.1235 43.1801 65.0483 43.1574C64.9732 43.1346 64.8717 43.1242 64.7439 43.1242C64.4581 43.1242 64.2344 43.2009 64.0726 43.3544C63.9108 43.5088 63.7963 43.6765 63.7286 43.8565V47.8247H62.8147V42.4138H63.6497V43.146H63.6723C63.7097 43.0409 63.7586 42.9376 63.819 42.8362C63.8789 42.7349 63.9541 42.6449 64.0444 42.5663C64.1349 42.4867 64.2418 42.4251 64.3659 42.3797C64.49 42.3342 64.6384 42.3124 64.8113 42.3124C64.9395 42.3124 65.0428 42.3238 65.1217 42.3455C65.201 42.3683 65.2628 42.3872 65.308 42.4024L65.195 43.2133ZM68.41 43.1574H67.2257V46.1565C67.2257 46.5392 67.2747 46.8006 67.3724 46.9399C67.4701 47.0791 67.6357 47.1483 67.8686 47.1483C68.0041 47.1483 68.1207 47.1293 68.2186 47.0915C68.3163 47.0536 68.3878 47.0204 68.4325 46.9901L68.5566 47.7233C68.5193 47.7527 68.4288 47.8 68.286 47.8635C68.1434 47.9279 67.9515 47.9601 67.7108 47.9601C67.2442 47.9601 66.8947 47.8303 66.6618 47.5708C66.4285 47.3112 66.3118 46.8812 66.3118 46.2806V43.1574H65.6575V42.5492L66.3118 42.4138L66.4133 40.9028H67.2257V42.4138H68.523L68.41 43.1574ZM71.7831 43.5069C71.7231 43.4397 71.6138 43.3478 71.4561 43.2303C71.298 43.1138 71.0913 43.056 70.8355 43.056C70.5948 43.056 70.4108 43.1119 70.2826 43.2256C70.1548 43.3383 70.0912 43.4728 70.0912 43.631C70.0912 43.8337 70.1493 44.0014 70.2659 44.1321C70.3826 44.2638 70.5611 44.405 70.8018 44.5556L71.1402 44.7583C71.5087 44.9762 71.7982 45.2111 72.0086 45.4631C72.2193 45.7141 72.3245 46.04 72.3245 46.4378C72.3245 46.866 72.176 47.2269 71.879 47.5206C71.582 47.8133 71.155 47.9601 70.5985 47.9601C70.3803 47.9601 70.1889 47.9374 70.0234 47.8919C69.8579 47.8474 69.7131 47.7943 69.5891 47.7347C69.465 47.674 69.3616 47.6087 69.2787 47.5376C69.1961 47.4656 69.1283 47.4003 69.0758 47.3396L69.5157 46.6188C69.5609 46.6633 69.6153 46.7163 69.6794 46.776C69.7431 46.8366 69.8201 46.8944 69.9104 46.9503C70.0008 47.0071 70.1023 47.0536 70.2152 47.0915C70.3278 47.1293 70.4596 47.1483 70.6099 47.1483C70.8807 47.1483 71.0876 47.0877 71.2302 46.9674C71.3732 46.8471 71.4446 46.7012 71.4446 46.5278C71.4446 46.4009 71.428 46.2891 71.3939 46.1953C71.3602 46.1015 71.3095 46.0172 71.2417 45.9424C71.1739 45.8666 71.0913 45.7956 70.9936 45.7274C70.8958 45.6601 70.7829 45.5853 70.6552 45.5029L70.3166 45.2878C69.9782 45.0699 69.7131 44.8407 69.5213 44.601C69.3294 44.3604 69.2336 44.0516 69.2336 43.6765C69.2336 43.4728 69.2732 43.2872 69.3521 43.1176C69.4313 42.949 69.542 42.8031 69.6849 42.678C69.8279 42.554 69.9953 42.4564 70.187 42.3853C70.3789 42.3133 70.5837 42.2783 70.8018 42.2783C71.0121 42.2783 71.1929 42.2991 71.3432 42.3399C71.4936 42.3816 71.6235 42.4336 71.7323 42.4981C71.8416 42.5625 71.9316 42.6259 72.0031 42.6894C72.0745 42.7538 72.1331 42.8078 72.1778 42.8533L71.7831 43.5069ZM76.4083 43.4624C76.3856 43.4397 76.3505 43.4056 76.3012 43.361C76.2519 43.3156 76.1903 43.2701 76.1145 43.2256C76.0396 43.1801 75.9495 43.1403 75.8443 43.1072C75.7391 43.0731 75.6187 43.056 75.4831 43.056C75.2878 43.056 75.1058 43.092 74.9361 43.1631C74.7674 43.2341 74.6205 43.3487 74.4963 43.5069C74.3721 43.6651 74.2744 43.8697 74.2033 44.1217C74.1313 44.3727 74.0953 44.6797 74.0953 45.0406C74.0953 45.4384 74.1275 45.7728 74.192 46.0438C74.2555 46.3137 74.3437 46.5297 74.4565 46.6917C74.5693 46.8527 74.7067 46.9693 74.8688 47.0412C75.03 47.1123 75.2092 47.1483 75.4044 47.1483C75.6822 47.1483 75.8945 47.099 76.0415 47.0015C76.1884 46.9039 76.2917 46.8253 76.3515 46.7646L76.724 47.3965C76.687 47.441 76.6321 47.4959 76.561 47.5594C76.4889 47.6238 76.397 47.6854 76.2842 47.7451C76.1714 47.8057 76.0339 47.8569 75.8727 47.8976C75.7106 47.9393 75.5248 47.9601 75.3144 47.9601C75.0129 47.9601 74.7314 47.9109 74.4678 47.8133C74.2052 47.7157 73.9749 47.5537 73.7796 47.3283C73.5843 47.1028 73.4298 46.8101 73.317 46.4492C73.2051 46.0883 73.1482 45.6412 73.1482 45.1078C73.1482 44.5887 73.2156 44.1492 73.3511 43.7892C73.4867 43.4283 73.663 43.1365 73.881 42.9149C74.1 42.6932 74.3418 42.5322 74.6091 42.4308C74.8755 42.3294 75.1447 42.2783 75.4158 42.2783C75.6187 42.2783 75.7969 42.2972 75.9514 42.3342C76.1059 42.3721 76.2368 42.4194 76.3467 42.4753C76.4548 42.5322 76.5458 42.5918 76.6169 42.6553C76.6889 42.7197 76.7468 42.7737 76.7923 42.8192L76.4083 43.4624ZM80.7065 47.8247V44.3415C80.7065 43.883 80.6297 43.5543 80.4752 43.3544C80.3207 43.1555 80.0865 43.056 79.7699 43.056C79.4997 43.056 79.2731 43.1242 79.093 43.2587C78.9129 43.3942 78.7698 43.5259 78.6645 43.6538V47.8247H77.7507V39.8542L78.6645 39.7528V42.966H78.6873C78.7167 42.9206 78.7641 42.8609 78.8285 42.786C78.8921 42.7103 78.9802 42.6354 79.093 42.5606C79.2058 42.4848 79.3433 42.4194 79.5054 42.3626C79.6666 42.3067 79.8562 42.2783 80.0742 42.2783C80.5482 42.2783 80.9245 42.4318 81.2032 42.7406C81.481 43.0484 81.6203 43.56 81.6203 44.2733V47.8247H80.7065ZM82.6698 46.4492C82.6698 46.1337 82.7295 45.8704 82.8499 45.6601C82.9703 45.4498 83.1314 45.2793 83.3343 45.1476C83.5381 45.016 83.777 44.9222 84.051 44.8653C84.3259 44.8085 84.6169 44.781 84.9259 44.781H85.2075V44.2629C85.2075 43.8044 85.1269 43.488 84.9648 43.3156C84.8037 43.1422 84.5752 43.056 84.2823 43.056C84.0121 43.056 83.7865 43.1138 83.6054 43.2303C83.4253 43.3478 83.2822 43.4501 83.1769 43.541L82.793 42.9319C82.8537 42.8722 82.9305 42.804 83.0252 42.7292C83.1181 42.6544 83.2329 42.5824 83.3684 42.5151C83.504 42.4479 83.6585 42.391 83.831 42.3455C84.0045 42.301 84.1998 42.2783 84.4178 42.2783C84.9743 42.2783 85.3952 42.4318 85.6815 42.7406C85.9668 43.0484 86.11 43.5448 86.11 44.2288V46.6974C86.11 46.9304 86.1175 47.1578 86.1327 47.3794C86.1479 47.6011 86.1631 47.7489 86.1773 47.8247H85.3089L85.2748 47.2269H85.253C85.2227 47.2942 85.1772 47.3719 85.1174 47.4581C85.0568 47.5443 84.9819 47.6238 84.8918 47.6949C84.8018 47.7659 84.6927 47.8284 84.5648 47.8805C84.4368 47.9336 84.2861 47.9601 84.1135 47.9601C83.9107 47.9601 83.7201 47.9222 83.5438 47.8474C83.3665 47.7716 83.2129 47.6664 83.0812 47.531C82.9494 47.3965 82.848 47.2364 82.7759 47.0517C82.7048 46.8679 82.6698 46.6671 82.6698 46.4492ZM84.305 47.1824C84.433 47.1824 84.5458 47.1634 84.6434 47.1256C84.7411 47.0877 84.8264 47.0431 84.8975 46.9901C84.9686 46.938 85.0293 46.8793 85.0776 46.8158C85.1269 46.7514 85.1696 46.6974 85.2075 46.6519V45.4574L84.9136 45.4688C84.4775 45.4839 84.1477 45.5588 83.9211 45.6942C83.6955 45.8287 83.5836 46.0475 83.5836 46.3478C83.5836 46.6254 83.6471 46.8347 83.7751 46.973C83.9031 47.1123 84.0794 47.1824 84.305 47.1824ZM89.7654 43.1574H88.6591V47.8247H87.7462V43.1574H87.0911V42.5492L87.7462 42.4251V41.3424C87.7462 41.0497 87.7869 40.7977 87.8694 40.5874C87.9528 40.3771 88.0619 40.2047 88.1965 40.0692C88.332 39.9338 88.4903 39.8362 88.6705 39.7756C88.8515 39.7159 89.043 39.6856 89.2459 39.6856C89.4421 39.6856 89.6071 39.7121 89.7426 39.7642C89.8772 39.8172 89.9682 39.858 90.0128 39.8883L89.8213 40.6442C89.7758 40.6139 89.7123 40.5817 89.6298 40.5476C89.5473 40.5135 89.4459 40.4974 89.3255 40.4974C89.1075 40.4974 88.9416 40.5647 88.8288 40.7001C88.716 40.8356 88.6591 41.0838 88.6591 41.4447V42.4138H89.8772L89.7654 43.1574ZM92.98 43.1574H91.795V46.1565C91.795 46.5392 91.8443 46.8006 91.9419 46.9399C92.0396 47.0791 92.2055 47.1483 92.4387 47.1483C92.5742 47.1483 92.6908 47.1293 92.7885 47.0915C92.8861 47.0536 92.9572 47.0204 93.0027 46.9901L93.1269 47.7233C93.089 47.7527 92.9989 47.8 92.8558 47.8635C92.7126 47.9279 92.5212 47.9601 92.2804 47.9601C91.814 47.9601 91.4651 47.8303 91.2319 47.5708C90.9987 47.3112 90.8821 46.8812 90.8821 46.2806V43.1574H90.228V42.5492L90.8821 42.4138L90.9835 40.9028H91.795V42.4138H93.0928L92.98 43.1574ZM41.8662 59.1918H41.0312V58.5831H41.0085C40.986 58.6282 40.9371 58.6941 40.862 58.7803C40.7868 58.8669 40.6909 58.9494 40.5745 59.0282C40.4579 59.1074 40.3169 59.177 40.1513 59.2369C39.9858 59.2972 39.8018 59.3272 39.5984 59.3272C39.3577 59.3272 39.1419 59.2914 38.9501 59.2203C38.7582 59.1489 38.5946 59.0342 38.4594 58.8762C38.3239 58.7185 38.2205 58.5135 38.149 58.2618C38.0776 58.0102 38.0417 57.7002 38.0417 57.332V53.7812H38.9556V57.2643C38.9556 57.715 39.029 58.0366 39.1755 58.2282C39.3222 58.4196 39.5496 58.5153 39.8581 58.5153C40.1213 58.5153 40.3431 58.4499 40.5234 58.3181C40.7041 58.1867 40.8471 58.0572 40.9523 57.9292V53.7812H41.8662V59.1918ZM46.2206 59.1918V55.7086C46.2206 55.2501 46.1435 54.9216 45.9891 54.7221C45.8351 54.5231 45.6 54.4235 45.2841 54.4235C45.0135 54.4235 44.7879 54.4913 44.6072 54.6263C44.4268 54.7617 44.2839 54.8931 44.1788 55.0212V59.1918H43.2648V53.7812H44.0999V54.3898H44.1221C44.1446 54.3447 44.1935 54.2789 44.2687 54.1923C44.3439 54.106 44.442 54.0231 44.5624 53.9443C44.6823 53.8655 44.8253 53.796 44.9908 53.736C45.1563 53.6757 45.3445 53.6457 45.5548 53.6457C45.7955 53.6457 46.0136 53.6816 46.2091 53.7527C46.4046 53.8241 46.5701 53.9388 46.7057 54.0968C46.8409 54.2544 46.9464 54.4594 47.0216 54.711C47.0967 54.9626 47.1342 55.2728 47.1342 55.6409V59.1918H46.2206ZM48.251 56.5653C48.251 56.0169 48.3225 55.5584 48.4654 55.1903C48.6083 54.8217 48.7928 54.5249 49.0183 54.2995C49.2438 54.0742 49.4997 53.9144 49.7851 53.8204C50.071 53.7264 50.3569 53.6793 50.6427 53.6793C50.8158 53.6793 50.966 53.6927 51.0938 53.7189C51.222 53.7453 51.3271 53.7771 51.4097 53.8148V51.222L52.3236 51.1206V59.1918H51.4885V58.6171H51.4664C51.4438 58.6619 51.4023 58.724 51.3419 58.8028C51.282 58.8816 51.1993 58.9608 51.0938 59.0397C50.9887 59.1185 50.8568 59.1862 50.6991 59.2425C50.5409 59.2991 50.3569 59.3272 50.1462 59.3272C49.8907 59.3272 49.6481 59.2765 49.4185 59.1747C49.1893 59.0734 48.9882 58.9121 48.8149 58.69C48.642 58.4683 48.5051 58.183 48.4035 57.8334C48.3021 57.4841 48.251 57.0615 48.251 56.5653ZM50.3943 58.5153C50.5372 58.5153 50.6654 58.4969 50.7779 58.4591C50.8909 58.4214 50.9887 58.3748 51.0712 58.3181C51.1542 58.2618 51.2238 58.2038 51.2801 58.1434C51.3364 58.0836 51.3797 58.0306 51.4097 57.9858V54.6489C51.3271 54.5963 51.2312 54.5512 51.122 54.5138C51.0131 54.4761 50.8757 54.4572 50.7101 54.4572C50.4999 54.4572 50.3024 54.4931 50.118 54.5645C49.934 54.6359 49.774 54.7543 49.6386 54.9193C49.5034 55.0847 49.3963 55.299 49.3171 55.5621C49.2382 55.8252 49.1986 56.1483 49.1986 56.5316C49.1986 56.9072 49.2308 57.221 49.2945 57.4726C49.3585 57.7246 49.4467 57.9273 49.5597 58.0813C49.6726 58.2356 49.8004 58.3462 49.9432 58.414C50.0862 58.4817 50.2365 58.5153 50.3943 58.5153ZM60.0623 52.1914H57.2871V54.8746H59.8367V55.6524H57.2871V58.3802H60.3444L60.2878 59.1918H56.3059V51.4136H60.1299L60.0623 52.1914ZM64.4166 59.1918V55.7086C64.4166 55.2501 64.3396 54.9216 64.1856 54.7221C64.0312 54.5231 63.7963 54.4235 63.4805 54.4235C63.2098 54.4235 62.9839 54.4913 62.8036 54.6263C62.6228 54.7617 62.4803 54.8931 62.3748 55.0212V59.1918H61.4612V53.7812H62.2959V54.3898H62.3184C62.3411 54.3447 62.3899 54.2789 62.4651 54.1923C62.5403 54.106 62.638 54.0231 62.7584 53.9443C62.8788 53.8655 63.0217 53.796 63.1872 53.736C63.3524 53.6757 63.5405 53.6457 63.7512 53.6457C63.9919 53.6457 64.21 53.6816 64.4055 53.7527C64.6011 53.8241 64.7666 53.9388 64.9017 54.0968C65.0372 54.2544 65.1424 54.4594 65.2175 54.711C65.2927 54.9626 65.3305 55.2728 65.3305 55.6409V59.1918H64.4166ZM70.1701 55.6073C70.1701 55.84 70.1626 56.0409 70.1474 56.21C70.1323 56.3791 70.1175 56.5279 70.1023 56.6555H67.3384C67.3687 57.2943 67.5057 57.7642 67.7501 58.0646C67.9945 58.3651 68.3463 58.5153 68.8051 58.5153C68.9628 58.5153 69.1058 58.4969 69.2336 58.4591C69.3616 58.4214 69.4724 58.3766 69.5664 58.3241C69.6605 58.2711 69.7394 58.2185 69.8034 58.1661C69.8671 58.1135 69.9141 58.0721 69.9446 58.0421L70.2826 58.6844C70.2453 58.7222 70.1889 58.7766 70.1138 58.848C70.0386 58.9194 69.9368 58.9909 69.809 59.0623C69.6812 59.1337 69.5231 59.1959 69.3354 59.2484C69.1473 59.3009 68.9255 59.3272 68.6695 59.3272C68.3311 59.3272 68.0249 59.271 67.7501 59.1581C67.4757 59.0452 67.2428 58.8706 67.0509 58.6337C66.8592 58.3969 66.7106 58.0964 66.6051 57.732C66.5 57.3675 66.4474 56.9298 66.4474 56.4187C66.4474 55.9377 66.5018 55.5225 66.6111 55.1732C66.7199 54.8236 66.8684 54.5364 67.0565 54.3107C67.2442 54.0854 67.4624 53.9181 67.7108 53.8093C67.9589 53.7001 68.226 53.6457 68.5118 53.6457C69.0306 53.6457 69.4368 53.8093 69.7301 54.136C70.0234 54.4628 70.1701 54.9534 70.1701 55.6073ZM68.4552 54.3898C68.1319 54.3898 67.8723 54.5249 67.6768 54.7954C67.4812 55.0659 67.3687 55.4566 67.3384 55.9681H69.3128C69.3202 55.9303 69.3257 55.8759 69.3294 55.8045C69.3331 55.7331 69.3354 55.6561 69.3354 55.5733C69.3354 55.1977 69.2598 54.9065 69.1095 54.6996C68.9591 54.4931 68.741 54.3898 68.4552 54.3898ZM73.7682 54.5812C73.7464 54.5664 73.6971 54.5475 73.6222 54.5249C73.5464 54.5023 73.445 54.4913 73.317 54.4913C73.0316 54.4913 72.8077 54.5682 72.6463 54.7221C72.4845 54.8764 72.3697 55.0437 72.3023 55.2239V59.1918H71.3883V53.7812H72.223V54.5138H72.2456C72.2834 54.4084 72.3322 54.3051 72.3922 54.2038C72.4526 54.1023 72.5278 54.012 72.6181 53.9332C72.7081 53.854 72.8155 53.7923 72.9397 53.7471C73.0639 53.702 73.2118 53.6793 73.3852 53.6793C73.5132 53.6793 73.6166 53.6909 73.6952 53.7135C73.7739 53.736 73.8365 53.7545 73.881 53.7697L73.7682 54.5812ZM78.4617 54.4913H77.7848C77.9573 54.7769 78.0446 55.1 78.0446 55.4607C78.0446 55.7464 77.9972 56.0036 77.9033 56.2327C77.8095 56.462 77.6777 56.6555 77.508 56.8132C77.3393 56.9712 77.1392 57.0915 76.9108 57.174C76.6814 57.2569 76.4349 57.298 76.1714 57.298C76.1192 57.298 76.0699 57.298 76.0254 57.298C75.9799 57.298 75.9306 57.2943 75.8784 57.2868C75.7884 57.3246 75.6936 57.3846 75.5959 57.4671C75.4983 57.55 75.4499 57.6587 75.4499 57.7942C75.4499 57.9066 75.4926 57.9988 75.5789 58.0702C75.6661 58.1416 75.8064 58.1775 76.0026 58.1775H76.6899C76.9459 58.1775 77.1828 58.2038 77.4009 58.2563C77.6189 58.3089 77.8095 58.3932 77.9706 58.5098C78.1327 58.6264 78.2588 58.7748 78.3489 58.9553C78.4389 59.1355 78.4844 59.3535 78.4844 59.6088C78.4844 59.9023 78.4219 60.1686 78.2977 60.4091C78.1735 60.6497 77.9991 60.8565 77.7734 61.0293C77.5478 61.2022 77.2729 61.3376 76.9496 61.4352C76.6264 61.533 76.2652 61.5818 75.8671 61.5818C75.2878 61.5818 74.848 61.4556 74.5475 61.204C74.246 60.9524 74.0953 60.5898 74.0953 60.1161C74.0953 59.9133 74.1313 59.7387 74.2033 59.5921C74.2744 59.4457 74.3588 59.3176 74.4565 59.2088C74.5541 59.0996 74.6536 59.0134 74.756 58.9494C74.8575 58.8857 74.938 58.835 74.9978 58.7973V58.7748C74.7655 58.6019 74.6489 58.3503 74.6489 58.0195C74.6489 57.8767 74.6764 57.7527 74.7333 57.6476C74.7892 57.5422 74.8537 57.456 74.9248 57.3883C74.9959 57.3205 75.0679 57.2661 75.139 57.2247C75.211 57.1836 75.2651 57.1555 75.303 57.1403V57.1177C75.0243 56.9901 74.8006 56.7888 74.6318 56.5146C74.4621 56.2404 74.3778 55.8889 74.3778 55.4607C74.3778 55.1599 74.4271 54.8949 74.5247 54.6659C74.6224 54.4369 74.7541 54.2471 74.9191 54.0968C75.085 53.9462 75.2784 53.8337 75.5002 53.7585C75.722 53.6834 75.9609 53.6457 76.2169 53.6457C76.4719 53.6457 76.7126 53.6909 76.9383 53.7812H78.5859L78.4617 54.4913ZM75.9457 59.0227C75.7884 59.0227 75.649 59.0116 75.5286 58.989C75.4604 59.0268 75.395 59.0715 75.3314 59.1241C75.267 59.177 75.2092 59.2406 75.1561 59.3157C75.1039 59.3908 75.0603 59.4793 75.0262 59.5806C74.9921 59.6825 74.976 59.8005 74.976 59.9359C74.976 60.5147 75.2954 60.804 75.9344 60.804C76.4832 60.804 76.8899 60.6967 77.1525 60.4828C77.416 60.2686 77.5478 60.0221 77.5478 59.7442C77.5478 59.4812 77.4653 59.2954 77.2994 59.1862C77.1336 59.0774 76.9117 59.0227 76.634 59.0227H75.9457ZM77.1525 55.4607C77.1525 55.07 77.0606 54.7917 76.8767 54.6263C76.6918 54.4612 76.4757 54.3783 76.2282 54.3783C75.9647 54.3783 75.7391 54.4612 75.5514 54.6263C75.3627 54.7917 75.2689 55.07 75.2689 55.4607C75.2689 55.8515 75.3627 56.1294 75.5514 56.2948C75.7391 56.4602 75.9571 56.5427 76.2055 56.5427C76.469 56.5427 76.6918 56.4602 76.8767 56.2948C77.0606 56.1294 77.1525 55.8515 77.1525 55.4607ZM80.4126 59.1918H79.4997V53.7812H80.4126V59.1918ZM79.9623 52.4735C79.7737 52.4735 79.6239 52.4131 79.5101 52.2929C79.3973 52.1726 79.3414 52.015 79.3414 51.8196C79.3414 51.6316 79.3973 51.4777 79.5101 51.3575C79.6239 51.2372 79.7737 51.1768 79.9623 51.1768C80.1424 51.1768 80.2894 51.2372 80.4022 51.3575C80.514 51.4777 80.5709 51.6316 80.5709 51.8196C80.5709 52.015 80.514 52.1726 80.4022 52.2929C80.2894 52.4131 80.1424 52.4735 79.9623 52.4735ZM85.2862 55.6073C85.2862 55.84 85.2786 56.0409 85.2644 56.21C85.2492 56.3791 85.234 56.5279 85.2189 56.6555H82.4546C82.4849 57.2943 82.6224 57.7642 82.8669 58.0646C83.1115 58.3651 83.4632 58.5153 83.9211 58.5153C84.0794 58.5153 84.2225 58.4969 84.3505 58.4591C84.4776 58.4214 84.5894 58.3766 84.6833 58.3241C84.7771 58.2711 84.8558 58.2185 84.9203 58.1661C84.9838 58.1135 85.0312 58.0721 85.0606 58.0421L85.399 58.6844C85.362 58.7222 85.3051 58.7766 85.2302 58.848C85.1544 58.9194 85.053 58.9909 84.9259 59.0623C84.797 59.1337 84.6396 59.1959 84.452 59.2484C84.2643 59.3009 84.0415 59.3272 83.7865 59.3272C83.448 59.3272 83.1409 59.271 82.8669 59.1581C82.592 59.0452 82.3588 58.8706 82.1673 58.6337C81.9758 58.3969 81.827 58.0964 81.7218 57.732C81.6166 57.3675 81.5635 56.9298 81.5635 56.4187C81.5635 55.9377 81.6184 55.5225 81.7275 55.1732C81.8365 54.8236 81.9853 54.5364 82.173 54.3107C82.3607 54.0854 82.5787 53.9181 82.8271 53.8093C83.0755 53.7001 83.3428 53.6457 83.6282 53.6457C84.1477 53.6457 84.5534 53.8093 84.8463 54.136C85.1402 54.4628 85.2862 54.9534 85.2862 55.6073ZM83.5713 54.3898C83.248 54.3898 82.9892 54.5249 82.793 54.7954C82.5977 55.0659 82.4849 55.4566 82.4546 55.9681H84.4292C84.4368 55.9303 84.4425 55.8759 84.4463 55.8045C84.4501 55.7331 84.452 55.6561 84.452 55.5733C84.452 55.1977 84.3761 54.9065 84.2263 54.6996C84.0756 54.4931 83.8576 54.3898 83.5713 54.3898Z" fill="#231F20"/>
</svg>
