<svg width="255" height="127" viewBox="0 0 255 127" fill="none" xmlns="http://www.w3.org/2000/svg">
<path d="M148.431 78.845H108.686C107.898 78.845 106.915 78.6475 106.915 77.0785V15.2027C106.915 13.6336 107.898 13.4377 108.686 13.4377H146.465C147.251 13.4377 148.235 13.6336 148.235 15.2027V23.146C148.235 24.7152 147.251 24.9102 146.465 24.9102H123.639C123.245 24.9102 122.656 25.107 122.656 26.0875V38.0502C122.656 38.9344 123.245 39.2279 123.639 39.2279H141.448C142.234 39.2279 143.217 39.4235 143.217 40.9926V48.9365C143.217 50.5048 142.234 50.7006 141.448 50.7006H123.639C123.245 50.7006 122.656 50.897 122.656 51.8772V66.1963C122.656 67.0752 123.245 67.3705 123.639 67.3705H148.431C149.219 67.3705 150.203 67.569 150.203 69.137V77.0785C150.203 78.6475 149.219 78.845 148.431 78.845Z" fill="#254AA5"/>
<path d="M177.662 79.8182C166.742 79.8182 161.234 77.1704 159.756 76.1901C158.773 75.6013 158.577 74.9153 158.577 73.7387V65.9912C158.577 65.2073 158.773 64.4228 159.955 64.4228C160.838 64.4228 161.331 64.8159 162.02 65.2073C163.692 66.1886 168.216 68.7379 175.99 68.7379C181.303 68.7379 186.319 67.8555 186.319 62.2659C186.319 58.4418 183.958 56.8727 181.006 55.108L169.89 48.2428C166.151 45.8903 159.756 41.7709 159.756 30.6894C159.756 16.1779 172.448 12.8437 183.564 12.8437C189.173 12.8437 195.174 13.9217 199.207 16.3729C200.189 16.9625 200.389 17.6486 200.389 18.825V26.7683C200.389 27.552 200.189 28.3366 199.01 28.3366C198.027 28.3366 197.535 27.8463 196.748 27.4545C192.123 25.0033 189.173 23.8259 183.368 23.8259C179.039 23.8259 174.515 24.9057 174.515 29.7089C174.515 33.3375 176.974 35.005 179.924 36.5742L188.68 41.3788C196.355 45.5957 201.272 49.6162 201.272 60.4033C201.272 74.5239 190.747 79.8182 177.662 79.8182Z" fill="#254AA5"/>
<path d="M252.368 25.1008H231.511C231.118 25.1008 230.529 25.2967 230.529 26.2772V40.2019C230.529 41.0853 231.118 41.3789 231.511 41.3789H248.532C249.32 41.3789 250.302 41.5752 250.302 43.1436V51.0875C250.302 52.6558 249.32 52.8523 248.532 52.8523H231.511C231.118 52.8523 230.529 53.0479 230.529 54.0292V77.2683C230.529 78.838 229.544 79.0337 228.758 79.0337H216.558C215.771 79.0337 214.787 78.838 214.787 77.2683V15.3933C214.787 13.8242 215.771 13.6274 216.558 13.6274H252.368C253.156 13.6274 254.138 13.8242 254.138 15.3933V23.3348C254.138 24.9058 253.156 25.1008 252.368 25.1008Z" fill="#254AA5"/>
<path d="M13.7445 103.494H6.25818C6.11023 103.494 5.92511 103.456 5.92511 103.161V91.508C5.92511 91.212 6.11023 91.176 6.25818 91.176H13.3747C13.5226 91.176 13.7077 91.212 13.7077 91.508V93.0029C13.7077 93.2982 13.5226 93.3356 13.3747 93.3356H9.07522C9.00054 93.3356 8.89013 93.3733 8.89013 93.5565V95.8095C8.89013 95.9758 9.00054 96.0303 9.07522 96.0303H12.4288C12.577 96.0303 12.7635 96.0698 12.7635 96.364V97.8614C12.7635 98.1568 12.577 98.1934 12.4288 98.1934H9.07522C9.00054 98.1934 8.89013 98.229 8.89013 98.4153V101.112C8.89013 101.278 9.00054 101.334 9.07522 101.334H13.7445C13.8935 101.334 14.0782 101.371 14.0782 101.665V103.161C14.0782 103.456 13.8935 103.494 13.7445 103.494Z" fill="#231F20"/>
<path d="M25.5488 103.494H23.454C23.2325 103.494 23.1957 103.384 23.1957 103.253C23.1957 103.18 23.1957 103.123 23.0098 103.123C22.7872 103.123 22.4909 103.218 22.3251 103.291C21.7862 103.514 21.0271 103.642 20.4533 103.642C19.3961 103.642 18.452 103.384 17.8578 102.738C17.2477 102.072 17.1734 101.261 17.1734 99.7457V94.444C17.1734 94.148 17.3575 94.1103 17.5065 94.1103H19.6188C19.7667 94.1103 19.9526 94.148 19.9526 94.444V99.595C19.9526 100.338 20.008 100.816 20.2495 101.13C20.5265 101.479 20.9718 101.63 21.5647 101.63C21.8798 101.63 22.2682 101.572 22.5481 101.443C22.918 101.278 23.1021 101.019 23.1021 100.556V94.444C23.1021 94.148 23.2878 94.1103 23.4358 94.1103H25.5488C25.6965 94.1103 25.8819 94.148 25.8819 94.444V103.161C25.8819 103.456 25.6965 103.494 25.5488 103.494Z" fill="#231F20"/>
<path d="M35.5718 96.3836C35.2937 96.3836 35.1469 96.2368 34.1635 96.2368C32.6829 96.2368 32.4964 97.0116 32.4964 97.6941V103.161C32.4964 103.456 32.3112 103.494 32.1633 103.494H30.0499C29.9015 103.494 29.7168 103.456 29.7168 103.161V94.4441C29.7168 94.1481 29.9015 94.1103 30.0499 94.1103H32.1072C32.3294 94.1103 32.3662 94.2222 32.3662 94.3529V94.4997C32.3662 94.5898 32.4602 94.665 32.57 94.665C33.1081 94.665 33.5155 93.9636 34.9046 93.9636C35.72 93.9636 35.8313 94.2599 35.8313 94.5713V96.1054C35.8313 96.2718 35.7569 96.3836 35.5718 96.3836Z" fill="#231F20"/>
<path d="M42.7609 95.8095C41.0938 95.8095 40.7782 97.2523 40.7782 98.877C40.7782 100.465 41.1124 101.795 42.7795 101.795C44.4473 101.795 44.7621 100.355 44.7621 98.7274C44.7621 97.1412 44.4298 95.8095 42.7609 95.8095ZM42.7609 103.662C39.5557 103.662 37.8693 101.758 37.8693 98.8392C37.8693 96.0132 39.4628 93.9458 42.7795 93.9458C45.9856 93.9458 47.671 95.8469 47.671 98.7641C47.671 101.591 46.0775 103.662 42.7609 103.662Z" fill="#231F20"/>
<path d="M55.1948 95.9219C54.8986 95.9219 54.6023 95.9569 54.3439 96.0698C53.9344 96.2557 53.6942 96.4212 53.6942 97.1055V100.704C53.6942 101.206 53.9344 101.386 54.3439 101.554C54.6023 101.665 54.8986 101.703 55.1948 101.703C56.0282 101.703 57.5113 101.407 57.5113 98.7274C57.5113 97.0115 56.8823 95.9219 55.1948 95.9219ZM55.9732 103.662C54.6567 103.662 54.0466 103.161 53.8608 103.161C53.7493 103.161 53.6942 103.253 53.6942 103.401V106.927C53.6942 107.224 53.5074 107.261 53.3602 107.261H51.2477C51.1009 107.261 50.9147 107.224 50.9147 106.927V94.4441C50.9147 94.148 51.1009 94.1103 51.2477 94.1103H53.3051C53.527 94.1103 53.5646 94.2221 53.5646 94.3528C53.5646 94.4252 53.5821 94.4807 53.7679 94.4807C54.1756 94.4807 54.7313 93.9458 56.1404 93.9458C58.8639 93.9458 60.4205 95.7752 60.4205 98.6924C60.4205 101.925 58.6419 103.662 55.9732 103.662Z" fill="#231F20"/>
<path d="M69.2591 92.9679C68.5351 92.9679 68.1098 92.6537 68.1098 91.8755C68.1098 91.1179 68.5544 90.8065 69.2959 90.8065C70.0192 90.8065 70.4448 91.1179 70.4448 91.8933C70.4448 92.6537 70.0006 92.9679 69.2591 92.9679ZM68.7413 98.9332C68.7413 98.8018 68.7034 98.7462 68.5912 98.7462C68.4614 98.7462 68.4614 98.764 68.2949 98.8196L67.2385 99.2089C66.6464 99.4315 65.9424 99.6884 65.9424 100.613C65.9424 101.443 66.3684 101.795 67.3325 101.795C67.6838 101.795 68.1845 101.665 68.3693 101.517C68.5544 101.371 68.7413 101.206 68.7413 100.723V98.9332ZM65.9606 92.9679C65.2377 92.9679 64.8117 92.6537 64.8117 91.8755C64.8117 91.1179 65.257 90.8065 65.9974 90.8065C66.7197 90.8065 67.1457 91.1179 67.1457 91.8933C67.1457 92.6537 66.7004 92.9679 65.9606 92.9679ZM71.1113 103.494H69.1294C68.9067 103.494 68.8699 103.384 68.8699 103.253C68.8699 103.18 68.8699 103.123 68.6841 103.123C68.2781 103.123 67.6095 103.642 66.2019 103.642C63.6818 103.642 63.1068 102.165 63.1068 100.889C63.1068 99.1355 64.0335 98.3776 66.0342 97.7684L68.1291 97.1411C68.4439 97.0465 68.7413 96.9937 68.7413 96.6225V96.5481C68.7413 96.0302 68.3317 95.7922 67.017 95.7922C65.4421 95.7922 64.4962 96.364 64.2928 96.4758C64.1817 96.5321 64.1263 96.5698 63.9966 96.5698C63.829 96.5698 63.7558 96.438 63.7558 96.2717V95.072C63.7558 94.8518 63.774 94.7026 63.9587 94.5898C64.682 94.1281 66.3498 93.9457 67.4616 93.9457C69.7779 93.9457 70.5009 94.6649 70.7238 94.8886C71.2242 95.3869 71.4457 96.0131 71.4457 97.2879V103.161C71.4457 103.456 71.2592 103.494 71.1113 103.494Z" fill="#231F20"/>
<path d="M77.6342 103.494H75.5208C75.3735 103.494 75.1877 103.456 75.1877 103.161V94.4441C75.1877 94.1481 75.3735 94.1103 75.5208 94.1103H77.6342C77.7821 94.1103 77.9679 94.1659 77.9679 94.4619V103.161C77.9679 103.456 77.7821 103.494 77.6342 103.494ZM76.5778 92.874C75.578 92.874 75.0205 92.4294 75.0205 91.6376C75.0205 90.8594 75.5955 90.4165 76.5778 90.4165C77.577 90.4165 78.1345 90.8594 78.1345 91.6558C78.1345 92.4294 77.5595 92.874 76.5778 92.874Z" fill="#231F20"/>
<path d="M84.2857 103.642C82.4882 103.642 81.6352 103.235 81.4511 103.09C81.2654 102.958 81.2471 102.846 81.2471 102.607V101.479C81.2471 101.334 81.2846 101.186 81.5072 101.186C81.6352 101.186 81.6731 101.224 81.7842 101.278C82.4329 101.63 83.2666 101.812 84.1746 101.812C84.7492 101.812 85.3228 101.703 85.3228 101.112C85.3228 100.593 84.8239 100.39 84.4897 100.206L83.2848 99.5049C82.1734 98.8573 81.4329 98.3034 81.4329 96.8997C81.4329 94.7956 83.0435 93.9457 84.9905 93.9457C86.1018 93.9457 87.1764 94.2032 87.5481 94.4807C87.7321 94.6086 87.7321 94.7198 87.7321 94.9423V96.1053C87.7321 96.2556 87.696 96.4006 87.4738 96.4006C87.343 96.4006 87.2875 96.364 87.1764 96.3084C86.6393 96.0131 86.1018 95.7751 85.2499 95.7751C84.6556 95.7751 84.0263 95.8656 84.0263 96.4758C84.0263 96.9363 84.4897 97.1411 84.8239 97.3239L85.9903 97.9903C87.0467 98.5816 87.9172 99.2463 87.9172 100.686C87.9172 102.367 86.6943 103.642 84.2857 103.642Z" fill="#231F20"/>
<path d="M98.4612 103.09C97.9981 103.438 96.5522 103.642 95.4958 103.642C91.1607 103.642 90.6033 100.556 90.6033 98.8947C90.6033 97.1411 91.2343 93.9457 95.7381 93.9457C96.7371 93.9457 98.1094 94.2032 98.481 94.4807C98.665 94.6086 98.665 94.7198 98.665 94.9423V96.2556C98.665 96.4006 98.6282 96.5481 98.4065 96.5481C98.2764 96.5481 98.2207 96.5125 98.1094 96.4569C97.4228 96.0875 96.9794 95.9218 96.09 95.9218C94.0131 95.9218 93.5131 97.3997 93.5131 98.8947C93.5131 100.39 94.145 101.665 95.9787 101.665C96.8681 101.665 97.4784 101.479 98.1274 101.13C98.2387 101.075 98.2764 101.037 98.4065 101.037C98.6093 101.037 98.665 101.186 98.665 101.334V102.607C98.665 102.846 98.6461 102.958 98.4612 103.09Z" fill="#231F20"/>
<path d="M110.413 103.494H108.299C108.151 103.494 107.967 103.456 107.967 103.161V98.0092C107.967 97.2702 107.893 96.8086 107.651 96.4947C107.374 96.1428 106.947 95.9758 106.354 95.9758C106.04 95.9758 105.65 96.0303 105.372 96.1617C105.002 96.3263 104.817 96.5859 104.817 97.0465V103.161C104.817 103.494 104.577 103.494 104.483 103.494H102.371C102.278 103.494 102.038 103.494 102.038 103.161V90.7325C102.038 90.3987 102.278 90.3987 102.371 90.3987H104.483C104.577 90.3987 104.817 90.3987 104.817 90.7325V94.335C104.817 94.4808 104.872 94.5713 104.983 94.5713C105.186 94.5713 106.021 93.9458 107.448 93.9458C108.504 93.9458 109.448 94.2221 110.041 94.868C110.653 95.5337 110.747 96.3462 110.747 97.8614V103.161C110.747 103.456 110.56 103.494 110.413 103.494Z" fill="#231F20"/>
<path d="M118.38 95.6456C117.286 95.6456 116.637 96.364 116.637 97.4543C116.637 97.5661 116.675 97.6378 116.859 97.6378H119.974C120.158 97.6378 120.196 97.6028 120.196 97.3998C120.196 95.9758 119.176 95.6456 118.38 95.6456ZM122.642 99.3386H116.971C116.806 99.3386 116.694 99.4127 116.694 99.5951C116.694 101.168 117.768 101.812 119.398 101.812C120.622 101.812 121.512 101.424 121.863 101.24C121.975 101.186 122.011 101.148 122.141 101.148C122.345 101.148 122.4 101.296 122.4 101.443V102.607C122.4 102.846 122.381 102.958 122.197 103.09C121.733 103.438 120.418 103.662 119.047 103.662C116.341 103.662 113.785 102.625 113.785 98.8948C113.785 95.3673 115.804 93.9262 118.454 93.9262C122.419 93.9262 122.976 96.6226 122.976 98.561V99.0066C122.976 99.3009 122.79 99.3386 122.642 99.3386Z" fill="#231F20"/>
<path d="M132.073 96.3836C131.797 96.3836 131.649 96.2368 130.667 96.2368C129.184 96.2368 128.998 97.0116 128.998 97.6941V103.161C128.998 103.456 128.812 103.494 128.665 103.494H126.55C126.402 103.494 126.219 103.456 126.219 103.161V94.4441C126.219 94.1481 126.402 94.1103 126.55 94.1103H128.608C128.83 94.1103 128.867 94.2222 128.867 94.3529V94.4997C128.867 94.5898 128.961 94.665 129.072 94.665C129.609 94.665 130.017 93.9636 131.406 93.9636C132.221 93.9636 132.332 94.2599 132.332 94.5713V96.1054C132.332 96.2718 132.258 96.3836 132.073 96.3836Z" fill="#231F20"/>
<path d="M144.08 103.642C142.024 103.642 140.985 103.142 140.707 102.958C140.522 102.846 140.486 102.718 140.486 102.498V101.037C140.486 100.889 140.522 100.741 140.745 100.741C140.912 100.741 141.005 100.816 141.134 100.889C141.45 101.075 142.301 101.554 143.766 101.554C144.766 101.554 145.712 101.386 145.712 100.338C145.712 99.6139 145.267 99.3186 144.71 98.9888L142.616 97.694C141.914 97.2522 140.707 96.4758 140.707 94.3902C140.707 91.6557 143.099 91.0284 145.193 91.0284C146.248 91.0284 147.38 91.2315 148.139 91.692C148.324 91.8039 148.362 91.9311 148.362 92.1529V93.6497C148.362 93.7982 148.324 93.9457 148.102 93.9457C147.917 93.9457 147.823 93.8527 147.676 93.7801C146.803 93.3159 146.248 93.0951 145.156 93.0951C144.34 93.0951 143.487 93.2981 143.487 94.2032C143.487 94.8886 143.951 95.2027 144.507 95.4963L146.155 96.4006C147.601 97.196 148.527 97.9526 148.527 99.9844C148.527 102.645 146.545 103.642 144.08 103.642Z" fill="#231F20"/>
<path d="M156.16 95.8095C154.493 95.8095 154.178 97.2523 154.178 98.877C154.178 100.465 154.512 101.795 156.179 101.795C157.848 101.795 158.162 100.355 158.162 98.7274C158.162 97.1412 157.83 95.8095 156.16 95.8095ZM156.16 103.662C152.954 103.662 151.268 101.758 151.268 98.8392C151.268 96.0132 152.862 93.9458 156.179 93.9458C159.386 93.9458 161.07 95.8469 161.07 98.7641C161.07 101.591 159.477 103.662 156.16 103.662Z" fill="#231F20"/>
<path d="M171.095 103.494H163.998C163.851 103.494 163.666 103.456 163.666 103.161V102.016C163.666 101.775 163.702 101.591 163.87 101.371L167.686 96.2913C167.742 96.2179 167.779 96.1805 167.779 96.0876C167.779 95.9758 167.706 95.9569 167.539 95.9569H164.184C164.036 95.9569 163.851 95.9219 163.851 95.6267V94.4441C163.851 94.1481 164.036 94.1103 164.184 94.1103H170.929C171.077 94.1103 171.261 94.1481 171.261 94.4441V95.4247C171.261 95.7 171.224 95.8468 171.059 96.0698L167.13 101.296C167.074 101.371 167.038 101.407 167.038 101.501C167.038 101.611 167.111 101.63 167.279 101.63H171.095C171.243 101.63 171.43 101.665 171.43 101.961V103.161C171.43 103.456 171.243 103.494 171.095 103.494Z" fill="#231F20"/>
<path d="M177.063 103.494H174.95C174.803 103.494 174.617 103.456 174.617 103.161V94.4441C174.617 94.1481 174.803 94.1103 174.95 94.1103H177.063C177.211 94.1103 177.396 94.1659 177.396 94.4619V103.161C177.396 103.456 177.211 103.494 177.063 103.494ZM176.006 92.874C175.004 92.874 174.448 92.4294 174.448 91.6376C174.448 90.8594 175.024 90.4165 176.006 90.4165C177.007 90.4165 177.564 90.8594 177.564 91.6558C177.564 92.4294 176.987 92.874 176.006 92.874Z" fill="#231F20"/>
<path d="M186.309 98.9332C186.309 98.8018 186.273 98.7462 186.159 98.7462C186.031 98.7462 186.031 98.764 185.862 98.8196L184.808 99.2089C184.215 99.4315 183.511 99.6884 183.511 100.613C183.511 101.443 183.937 101.795 184.901 101.795C185.253 101.795 185.752 101.665 185.938 101.517C186.124 101.371 186.309 101.206 186.309 100.723V98.9332ZM188.68 103.494H186.699C186.476 103.494 186.439 103.384 186.439 103.253C186.439 103.18 186.439 103.123 186.254 103.123C185.847 103.123 185.177 103.642 183.77 103.642C181.249 103.642 180.675 102.165 180.675 100.889C180.675 99.1355 181.602 98.3776 183.603 97.7684L185.698 97.1411C186.012 97.0465 186.309 96.9937 186.309 96.6225V96.5481C186.309 96.0302 185.9 95.7922 184.586 95.7922C183.011 95.7922 182.066 96.364 181.863 96.4758C181.75 96.5321 181.695 96.5698 181.566 96.5698C181.397 96.5698 181.324 96.438 181.324 96.2717V95.072C181.324 94.8518 181.342 94.7026 181.528 94.5898C182.25 94.1281 183.918 93.9457 185.029 93.9457C187.346 93.9457 188.069 94.6649 188.292 94.8886C188.792 95.3869 189.016 96.0131 189.016 97.2879V103.161C189.016 103.456 188.828 103.494 188.68 103.494Z" fill="#231F20"/>
<path d="M195.202 103.494H193.09C192.942 103.494 192.758 103.456 192.758 103.161V90.7325C192.758 90.4361 192.942 90.3987 193.09 90.3987H195.202C195.35 90.3987 195.537 90.4539 195.537 90.752V103.161C195.537 103.456 195.35 103.494 195.202 103.494Z" fill="#231F20"/>
<path d="M204.041 95.9569H202.688C202.614 95.9569 202.523 96.0132 202.523 96.1805V103.161C202.523 103.456 202.337 103.494 202.188 103.494H200.076C199.927 103.494 199.742 103.456 199.742 103.161V96.1805C199.742 96.0132 199.649 95.9569 199.576 95.9569H198.779C198.63 95.9569 198.446 95.9219 198.446 95.6267V94.4441C198.446 94.1481 198.63 94.1103 198.779 94.1103H199.576C199.649 94.1103 199.742 94.0569 199.742 93.8902V93.4278C199.742 92.5601 199.797 92.1898 199.927 91.8549C200.446 90.4917 201.724 90.3065 202.503 90.3065C203.485 90.3065 204.376 90.5267 204.376 90.9705V92.0992C204.376 92.3205 204.264 92.3935 204.133 92.3935C203.91 92.3935 203.763 92.2093 203.355 92.2093C202.931 92.2093 202.688 92.3383 202.578 92.7433C202.54 92.874 202.523 93.3911 202.523 93.6498V93.8902C202.523 94.0569 202.614 94.1103 202.688 94.1103H204.041C204.19 94.1103 204.376 94.1481 204.376 94.4441V95.6267C204.376 95.9219 204.19 95.9569 204.041 95.9569Z" fill="#231F20"/>
<path d="M211.397 95.8095C209.729 95.8095 209.415 97.2523 209.415 98.877C209.415 100.465 209.748 101.795 211.416 101.795C213.084 101.795 213.398 100.355 213.398 98.7274C213.398 97.1412 213.066 95.8095 211.397 95.8095ZM211.397 103.662C208.191 103.662 206.505 101.758 206.505 98.8392C206.505 96.0132 208.098 93.9458 211.416 93.9458C214.622 93.9458 216.307 95.8469 216.307 98.7641C216.307 101.591 214.712 103.662 211.397 103.662Z" fill="#231F20"/>
<path d="M227.924 103.494H225.813C225.665 103.494 225.479 103.456 225.479 103.161V98.0092C225.479 97.2702 225.406 96.8086 225.163 96.4947C224.887 96.1428 224.46 95.9758 223.867 95.9758C223.551 95.9758 223.164 96.0302 222.884 96.1617C222.517 96.3263 222.33 96.5859 222.33 97.0465V103.161C222.33 103.456 222.143 103.494 221.995 103.494H219.883C219.735 103.494 219.549 103.456 219.549 103.161V94.4441C219.549 94.1481 219.735 94.1103 219.883 94.1103H221.977C222.199 94.1103 222.236 94.2221 222.236 94.3528C222.236 94.4252 222.255 94.4808 222.44 94.4808C222.664 94.4808 222.942 94.3902 223.108 94.3145C223.647 94.0943 224.388 93.9458 224.961 93.9458C226.014 93.9458 226.962 94.2221 227.554 94.868C228.167 95.5337 228.26 96.3462 228.26 97.8614V103.161C228.26 103.456 228.072 103.494 227.924 103.494Z" fill="#231F20"/>
<path d="M238.134 96.8997C238.134 96.4006 237.894 96.2179 237.486 96.0498C237.228 95.9397 236.93 95.903 236.633 95.903C235.8 95.903 234.317 96.1994 234.317 98.8769C234.317 100.593 234.948 101.685 236.633 101.685C236.93 101.685 237.228 101.648 237.486 101.535C237.894 101.352 238.134 101.186 238.134 100.5V96.8997ZM240.579 103.494H238.524C238.301 103.494 238.265 103.384 238.265 103.253C238.265 103.18 238.265 103.123 238.08 103.123C237.672 103.123 237.096 103.642 235.69 103.642C232.965 103.642 231.407 101.831 231.407 98.9136C231.407 95.6832 233.188 93.9457 235.855 93.9457C237.171 93.9457 237.783 94.444 237.969 94.444C238.08 94.444 238.134 94.3528 238.134 94.2032V90.6573C238.134 90.3609 238.32 90.3253 238.467 90.3253H240.579C240.728 90.3253 240.915 90.3609 240.915 90.6573V103.161C240.915 103.456 240.728 103.494 240.579 103.494Z" fill="#231F20"/>
<path d="M247.234 103.642C245.434 103.642 244.582 103.235 244.398 103.09C244.214 102.958 244.193 102.846 244.193 102.607V101.479C244.193 101.334 244.231 101.186 244.451 101.186C244.582 101.186 244.619 101.224 244.731 101.278C245.38 101.63 246.212 101.812 247.121 101.812C247.697 101.812 248.269 101.703 248.269 101.112C248.269 100.593 247.77 100.39 247.437 100.206L246.232 99.5049C245.12 98.8573 244.379 98.3034 244.379 96.8997C244.379 94.7956 245.992 93.9457 247.936 93.9457C249.049 93.9457 250.124 94.2032 250.493 94.4807C250.679 94.6086 250.679 94.7198 250.679 94.9423V96.1053C250.679 96.2556 250.642 96.4006 250.42 96.4006C250.289 96.4006 250.234 96.364 250.124 96.3084C249.587 96.0131 249.049 95.7751 248.195 95.7751C247.603 95.7751 246.973 95.8656 246.973 96.4758C246.973 96.9363 247.437 97.1411 247.77 97.3239L248.936 97.9903C249.993 98.5816 250.865 99.2463 250.865 100.686C250.865 102.367 249.64 103.642 247.234 103.642Z" fill="#231F20"/>
<path d="M54.9431 119.297H53.5909C53.5173 119.297 53.425 119.354 53.425 119.519V126.5C53.425 126.797 53.2396 126.834 53.0906 126.834H50.9789C50.8299 126.834 50.6452 126.797 50.6452 126.5V119.519C50.6452 119.354 50.5529 119.297 50.4782 119.297H49.6816C49.5337 119.297 49.3486 119.26 49.3486 118.965V117.783C49.3486 117.487 49.5337 117.452 49.6816 117.452H50.4782C50.5529 117.452 50.6452 117.396 50.6452 117.231V116.767C50.6452 115.899 50.7002 115.53 50.8299 115.198C51.3487 113.831 52.6274 113.647 53.4057 113.647C54.3885 113.647 55.2783 113.869 55.2783 114.311V115.438C55.2783 115.658 55.1661 115.733 55.0371 115.733C54.8145 115.733 54.6661 115.55 54.2587 115.55C53.8317 115.55 53.5909 115.677 53.4811 116.084C53.4426 116.213 53.425 116.731 53.425 116.987V117.231C53.425 117.396 53.5173 117.452 53.5909 117.452H54.9431C55.0921 117.452 55.2783 117.487 55.2783 117.783V118.965C55.2783 119.26 55.0921 119.297 54.9431 119.297Z" fill="#231F20"/>
<path d="M63.8003 116.306C63.0791 116.306 62.652 115.991 62.652 115.217C62.652 114.46 63.0962 114.145 63.8381 114.145C64.5604 114.145 64.9871 114.46 64.9871 115.234C64.9871 115.991 64.5418 116.306 63.8003 116.306ZM60.5029 116.306C59.7807 116.306 59.3547 115.991 59.3547 115.217C59.3547 114.46 59.7992 114.145 60.5397 114.145C61.2619 114.145 61.6886 114.46 61.6886 115.234C61.6886 115.991 61.2444 116.306 60.5029 116.306ZM66.2836 126.833H64.1905C63.9685 126.833 63.931 126.723 63.931 126.593C63.931 126.518 63.931 126.465 63.7459 126.465C63.5233 126.465 63.2259 126.554 63.0605 126.63C62.523 126.851 61.7626 126.982 61.1883 126.982C60.1312 126.982 59.187 126.723 58.5938 126.075C57.9838 125.412 57.9091 124.6 57.9091 123.084V117.782C57.9091 117.486 58.0936 117.452 58.2426 117.452H60.3538C60.5029 117.452 60.6876 117.486 60.6876 117.782V122.936C60.6876 123.675 60.7448 124.155 60.985 124.47C61.2619 124.819 61.7072 124.967 62.3007 124.967C62.616 124.967 63.0044 124.912 63.282 124.782C63.652 124.616 63.8381 124.357 63.8381 123.896V117.782C63.8381 117.486 64.0228 117.452 64.1718 117.452H66.2836C66.4325 117.452 66.6173 117.486 66.6173 117.782V126.5C66.6173 126.797 66.4325 126.833 66.2836 126.833Z" fill="#231F20"/>
<path d="M76.3079 119.722C76.0303 119.722 75.8819 119.576 74.8996 119.576C73.4179 119.576 73.2332 120.351 73.2332 121.035V126.5C73.2332 126.797 73.0462 126.834 72.8983 126.834H70.786C70.6377 126.834 70.454 126.797 70.454 126.5V117.783C70.454 117.487 70.6377 117.452 70.786 117.452H72.8433C73.0649 117.452 73.1023 117.562 73.1023 117.692V117.838C73.1023 117.931 73.1957 118.006 73.3057 118.006C73.8439 118.006 74.2505 117.304 75.6411 117.304C76.4562 117.304 76.5673 117.599 76.5673 117.912V119.445C76.5673 119.612 76.4937 119.722 76.3079 119.722Z" fill="#231F20"/>
<path d="M91.7988 117.045C91.0566 116.731 90.4086 116.674 89.2233 116.674H88.4642C88.3896 116.674 88.2791 116.714 88.2791 116.898V124.451C88.2791 124.616 88.3896 124.671 88.4642 124.671H89.6317C91.2792 124.671 93.6522 124.211 93.6522 120.627C93.6522 118.837 93.0401 117.579 91.7988 117.045ZM93.9493 125.983C92.9656 126.518 91.7064 126.834 89.9086 126.834H85.6468C85.4989 126.834 85.313 126.797 85.313 126.5V114.848C85.313 114.552 85.4989 114.513 85.6468 114.513H90.1492C91.613 114.513 92.8543 114.716 93.7267 115.142C95.6143 116.047 96.7281 118.116 96.7281 120.61C96.7281 123.065 95.7085 125.024 93.9493 125.983Z" fill="#231F20"/>
<path d="M103.916 118.984C102.823 118.984 102.175 119.704 102.175 120.793C102.175 120.906 102.212 120.979 102.398 120.979H105.511C105.696 120.979 105.734 120.942 105.734 120.738C105.734 119.318 104.713 118.984 103.916 118.984ZM108.179 122.679H102.508C102.342 122.679 102.23 122.752 102.23 122.936C102.23 124.507 103.305 125.155 104.936 125.155C106.159 125.155 107.049 124.765 107.401 124.582C107.511 124.527 107.55 124.488 107.679 124.488C107.882 124.488 107.937 124.636 107.937 124.782V125.949C107.937 126.188 107.919 126.299 107.734 126.428C107.271 126.78 105.956 127 104.584 127C101.879 127 99.322 125.966 99.322 122.234C99.322 118.706 101.341 117.267 103.99 117.267C107.956 117.267 108.512 119.964 108.512 121.902V122.345C108.512 122.642 108.327 122.679 108.179 122.679Z" fill="#231F20"/>
<path d="M120.038 126.833H117.944C117.721 126.833 117.686 126.723 117.686 126.593C117.686 126.518 117.686 126.465 117.5 126.465C117.277 126.465 116.981 126.554 116.814 126.63C116.276 126.851 115.516 126.982 114.943 126.982C113.886 126.982 112.942 126.723 112.348 126.075C111.738 125.412 111.662 124.6 111.662 123.084V117.782C111.662 117.486 111.848 117.452 111.996 117.452H114.108C114.257 117.452 114.442 117.486 114.442 117.782V122.936C114.442 123.675 114.498 124.155 114.739 124.47C115.015 124.819 115.462 124.967 116.055 124.967C116.37 124.967 116.758 124.912 117.037 124.782C117.407 124.616 117.592 124.357 117.592 123.896V117.782C117.592 117.486 117.777 117.452 117.925 117.452H120.038C120.187 117.452 120.371 117.486 120.371 117.782V126.5C120.371 126.797 120.187 126.833 120.038 126.833Z" fill="#231F20"/>
<path d="M127.838 126.982C127.356 126.982 126.079 126.944 125.337 126.353C124.8 125.928 124.485 125.244 124.485 123.878V119.519C124.485 119.354 124.392 119.297 124.317 119.297H123.521C123.372 119.297 123.187 119.26 123.187 118.964V117.782C123.187 117.486 123.372 117.452 123.521 117.452H124.317C124.392 117.452 124.485 117.396 124.485 117.231V115.456C124.485 115.16 124.67 115.124 124.817 115.124H126.93C127.078 115.124 127.264 115.16 127.264 115.456V117.231C127.264 117.396 127.356 117.452 127.431 117.452H129.729C129.877 117.452 130.061 117.486 130.061 117.782V118.964C130.061 119.26 129.877 119.297 129.729 119.297H127.431C127.356 119.297 127.264 119.354 127.264 119.519V123.249C127.264 123.821 127.282 124.045 127.356 124.303C127.451 124.616 127.728 124.967 128.45 124.967C129.358 124.967 129.563 124.616 129.803 124.616C129.95 124.616 130.061 124.69 130.061 124.912V126.317C130.061 126.813 128.709 126.982 127.838 126.982Z" fill="#231F20"/>
<path d="M136.194 126.982C134.399 126.982 133.543 126.573 133.361 126.428C133.174 126.299 133.155 126.187 133.155 125.949V124.819C133.155 124.671 133.193 124.526 133.415 124.526C133.543 124.526 133.582 124.564 133.694 124.616C134.342 124.967 135.174 125.154 136.084 125.154C136.659 125.154 137.233 125.042 137.233 124.451C137.233 123.934 136.733 123.732 136.4 123.545L135.195 122.844C134.083 122.197 133.341 121.643 133.341 120.238C133.341 118.134 134.953 117.286 136.898 117.286C138.011 117.286 139.085 117.542 139.458 117.82C139.641 117.95 139.641 118.061 139.641 118.283V119.445C139.641 119.594 139.605 119.739 139.382 119.739C139.251 119.739 139.196 119.703 139.085 119.65C138.549 119.354 138.011 119.115 137.158 119.115C136.565 119.115 135.937 119.205 135.937 119.814C135.937 120.279 136.4 120.48 136.733 120.664L137.898 121.33C138.955 121.919 139.828 122.587 139.828 124.027C139.828 125.706 138.604 126.982 136.194 126.982Z" fill="#231F20"/>
<path d="M150.37 126.428C149.907 126.78 148.463 126.982 147.406 126.982C143.07 126.982 142.513 123.896 142.513 122.234C142.513 120.48 143.143 117.286 147.646 117.286C148.647 117.286 150.019 117.542 150.389 117.82C150.575 117.95 150.575 118.061 150.575 118.283V119.594C150.575 119.739 150.537 119.889 150.316 119.889C150.186 119.889 150.13 119.852 150.019 119.796C149.332 119.429 148.889 119.26 147.999 119.26C145.923 119.26 145.424 120.737 145.424 122.234C145.424 123.732 146.055 125.006 147.887 125.006C148.778 125.006 149.387 124.819 150.037 124.47C150.147 124.413 150.186 124.376 150.316 124.376C150.517 124.376 150.575 124.526 150.575 124.671V125.949C150.575 126.187 150.555 126.299 150.37 126.428Z" fill="#231F20"/>
<path d="M162.322 126.834H160.209C160.06 126.834 159.877 126.797 159.877 126.5V121.349C159.877 120.61 159.801 120.148 159.56 119.833C159.283 119.482 158.855 119.318 158.264 119.318C157.949 119.318 157.559 119.372 157.281 119.501C156.911 119.668 156.726 119.927 156.726 120.389V126.5C156.726 126.834 156.485 126.834 156.392 126.834H154.28C154.187 126.834 153.947 126.834 153.947 126.5V114.07C153.947 113.74 154.187 113.74 154.28 113.74H156.392C156.485 113.74 156.726 113.74 156.726 114.07V117.674C156.726 117.82 156.781 117.912 156.892 117.912C157.096 117.912 157.929 117.286 159.356 117.286C160.413 117.286 161.357 117.562 161.95 118.209C162.562 118.874 162.656 119.688 162.656 121.2V126.5C162.656 126.797 162.47 126.834 162.322 126.834Z" fill="#231F20"/>
<path d="M168.844 126.834H166.73C166.584 126.834 166.398 126.797 166.398 126.5V114.07C166.398 113.776 166.584 113.74 166.73 113.74H168.844C168.992 113.74 169.177 113.794 169.177 114.09V126.5C169.177 126.797 168.992 126.834 168.844 126.834Z" fill="#231F20"/>
<path d="M178.09 122.271C178.09 122.144 178.053 122.087 177.942 122.087C177.811 122.087 177.811 122.105 177.645 122.163L176.588 122.548C175.997 122.77 175.292 123.028 175.292 123.952C175.292 124.782 175.716 125.135 176.683 125.135C177.033 125.135 177.535 125.006 177.72 124.858C177.904 124.709 178.09 124.543 178.09 124.062V122.271ZM180.461 126.833H178.478C178.256 126.833 178.22 126.723 178.22 126.593C178.22 126.518 178.22 126.465 178.033 126.465C177.627 126.465 176.959 126.982 175.552 126.982C173.032 126.982 172.457 125.504 172.457 124.23C172.457 122.473 173.383 121.718 175.384 121.107L177.478 120.48C177.794 120.389 178.09 120.331 178.09 119.964V119.889C178.09 119.372 177.683 119.133 176.366 119.133C174.792 119.133 173.845 119.703 173.643 119.814C173.531 119.87 173.477 119.907 173.346 119.907C173.18 119.907 173.105 119.777 173.105 119.612V118.41C173.105 118.19 173.123 118.041 173.309 117.931C174.031 117.469 175.7 117.286 176.811 117.286C179.128 117.286 179.85 118.006 180.072 118.227C180.573 118.725 180.796 119.354 180.796 120.627V126.5C180.796 126.797 180.61 126.833 180.461 126.833Z" fill="#231F20"/>
<path d="M192.914 126.834H190.8C190.652 126.834 190.469 126.797 190.469 126.5V121.349C190.469 120.61 190.393 120.148 190.153 119.833C189.876 119.482 189.449 119.318 188.856 119.318C188.54 119.318 188.152 119.372 187.874 119.501C187.504 119.668 187.318 119.927 187.318 120.389V126.5C187.318 126.797 187.132 126.834 186.985 126.834H184.872C184.724 126.834 184.539 126.797 184.539 126.5V117.783C184.539 117.487 184.724 117.452 184.872 117.452H186.966C187.188 117.452 187.225 117.562 187.225 117.692C187.225 117.766 187.244 117.82 187.429 117.82C187.65 117.82 187.93 117.728 188.095 117.654C188.634 117.434 189.376 117.286 189.949 117.286C191.006 117.286 191.95 117.562 192.542 118.209C193.155 118.874 193.249 119.688 193.249 121.2V126.5C193.249 126.797 193.062 126.834 192.914 126.834Z" fill="#231F20"/>
<path d="M203.124 120.238C203.124 119.739 202.882 119.557 202.475 119.391C202.217 119.28 201.92 119.242 201.623 119.242C200.788 119.242 199.306 119.539 199.306 122.215C199.306 123.934 199.937 125.024 201.623 125.024C201.92 125.024 202.217 124.987 202.475 124.877C202.882 124.69 203.124 124.526 203.124 123.84V120.238ZM205.568 126.833H203.513C203.29 126.833 203.254 126.723 203.254 126.593C203.254 126.518 203.254 126.465 203.068 126.465C202.661 126.465 202.086 126.982 200.678 126.982C197.955 126.982 196.396 125.172 196.396 122.253C196.396 119.022 198.175 117.286 200.845 117.286C202.16 117.286 202.771 117.782 202.958 117.782C203.068 117.782 203.124 117.692 203.124 117.542V113.996C203.124 113.703 203.309 113.665 203.457 113.665H205.568C205.717 113.665 205.902 113.703 205.902 113.996V126.5C205.902 126.797 205.717 126.833 205.568 126.833Z" fill="#231F20"/>
<path d="M93.5966 78.8536L17.6187 55.1422L0 78.2484L93.5966 78.8536Z" fill="url(#paint0_linear)"/>
<path d="M95.9311 76.6915L48.0163 13.3437L20.3183 21.7325L95.9311 76.6915Z" fill="url(#paint1_linear)"/>
<path d="M97.0503 75.8634L70.9437 0.921127L42 0.430878L97.0503 75.8634Z" fill="#231F20"/>
<path d="M94.7005 77.7417L29.6653 32L5.85919 48.4204L94.7005 77.7417Z" fill="url(#paint2_linear)"/>
<defs>
<linearGradient id="paint0_linear" x1="48.4945" y1="61.8238" x2="46.6215" y2="80.4234" gradientUnits="userSpaceOnUse">
<stop stop-color="#162D66"/>
<stop offset="0.132479" stop-color="#162D66"/>
<stop offset="1" stop-color="#254AA5"/>
</linearGradient>
<linearGradient id="paint1_linear" x1="59.2679" y1="47.4217" x2="68.4608" y2="32.9283" gradientUnits="userSpaceOnUse">
<stop stop-color="#ED1C24"/>
<stop offset="0.149573" stop-color="#ED1C24"/>
<stop offset="0.84188" stop-color="#C4161D"/>
<stop offset="1" stop-color="#C4161D"/>
</linearGradient>
<linearGradient id="paint2_linear" x1="49.534" y1="64.7697" x2="56.4699" y2="48.9713" gradientUnits="userSpaceOnUse">
<stop stop-color="#F1CE04"/>
<stop offset="0.179487" stop-color="#F1CE04"/>
<stop offset="0.940171" stop-color="#D0B103"/>
<stop offset="1" stop-color="#D0B103"/>
</linearGradient>
</defs>
</svg>
