<svg width="114" height="127" viewBox="0 0 114 127" fill="none" xmlns="http://www.w3.org/2000/svg">
<g clip-path="url(#clip0)">
<path d="M0.340668 102.918V87.2643H10.2519V89.1127H2.44934V93.4024H9.71669V95.2535H2.44934V101.067H10.2519V102.918H0.340668Z" fill="#231F20"/>
<path d="M21.6694 102.918H19.6701V101.612C19.0515 102.146 18.467 102.549 17.9147 102.828C17.357 103.104 16.7411 103.243 16.0589 103.243C15.5415 103.243 15.0547 103.158 14.5975 102.988C14.1385 102.825 13.7413 102.555 13.3988 102.193C13.0581 101.828 12.7963 101.369 12.6054 100.817C12.4171 100.262 12.3256 99.5887 12.3256 98.7965V91.1733H14.3267V97.8611C14.3267 98.4824 14.3491 98.9996 14.394 99.4114C14.4433 99.8206 14.5437 100.18 14.7105 100.487C14.8709 100.79 15.096 101.009 15.373 101.15C15.6536 101.291 16.0553 101.36 16.5815 101.36C17.0728 101.36 17.5928 101.224 18.146 100.951C18.6992 100.678 19.2057 100.342 19.6701 99.9423V91.1733H21.6694V102.918Z" fill="#231F20"/>
<path d="M30.8636 93.2976H30.7559C30.6079 93.2527 30.4539 93.2286 30.2852 93.2197C30.1176 93.208 29.9159 93.2018 29.6846 93.2018C29.1422 93.2018 28.607 93.3173 28.0752 93.5499C27.5446 93.7837 27.038 94.1228 26.5645 94.5777V102.918H24.5627V91.1733H26.5645V92.9188C27.2953 92.2815 27.9317 91.8294 28.4743 91.5716C29.0194 91.3058 29.5455 91.1733 30.0538 91.1733C30.2611 91.1733 30.4169 91.1779 30.5184 91.1893C30.6214 91.2001 30.7353 91.2146 30.8636 91.2361V93.2976Z" fill="#231F20"/>
<path d="M40.0279 97.0501C40.0279 95.531 39.7465 94.4003 39.1878 93.6602C38.6248 92.9216 37.827 92.5519 36.7924 92.5519C35.7479 92.5519 34.9473 92.9216 34.3806 93.6602C33.8176 94.4003 33.5351 95.531 33.5351 97.0501C33.5351 98.5225 33.8176 99.6371 34.3806 100.401C34.9473 101.159 35.7479 101.538 36.7924 101.538C37.8206 101.538 38.6168 101.166 39.1789 100.42C39.7465 99.6738 40.0279 98.5495 40.0279 97.0501ZM42.0926 97.0501C42.0926 99.0282 41.6113 100.553 40.6448 101.629C39.6792 102.707 38.3944 103.243 36.7924 103.243C35.1399 103.243 33.8399 102.689 32.8925 101.578C31.9439 100.468 31.4704 98.9549 31.4704 97.0501C31.4704 95.0878 31.9572 93.5662 32.9317 92.4784C33.909 91.3926 35.1966 90.8493 36.7924 90.8493C38.3944 90.8493 39.6792 91.3883 40.6448 92.474C41.6113 93.557 42.0926 95.0835 42.0926 97.0501Z" fill="#231F20"/>
<path d="M52.0533 96.956C52.0533 95.6177 51.838 94.5776 51.406 93.8408C50.9702 93.1022 50.269 92.7317 49.2963 92.7317C48.7271 92.7317 48.1775 92.8543 47.6512 93.105C47.124 93.3539 46.623 93.6733 46.1451 94.0645V100.72C46.6723 100.971 47.1205 101.141 47.4944 101.235C47.8665 101.325 48.2922 101.374 48.7747 101.374C49.8093 101.374 50.6161 100.997 51.1898 100.247C51.7664 99.4937 52.0533 98.3997 52.0533 96.956ZM54.1171 96.733C54.1171 98.6926 53.6429 100.248 52.6971 101.409C51.7485 102.569 50.5516 103.149 49.1054 103.149C48.5164 103.149 47.9936 103.081 47.5392 102.947C47.0882 102.816 46.623 102.607 46.1451 102.328V107.247H44.1458V91.1732H46.1451V92.4067C46.6409 91.9636 47.1967 91.5939 47.8011 91.2939C48.4088 90.9986 49.0677 90.8492 49.7877 90.8492C51.1494 90.8492 52.2084 91.3817 52.9722 92.4471C53.737 93.5122 54.1171 94.9417 54.1171 96.733Z" fill="#231F20"/>
<path d="M63.6293 89.2094H61.4939V87.1587H63.6293V89.2094ZM62.8343 100.027V96.7662C62.3564 96.8093 61.7583 96.8675 61.0294 96.9408C60.3032 97.0141 59.717 97.1173 59.2676 97.2515C58.737 97.4108 58.2949 97.6615 57.9498 97.9926C57.603 98.3238 57.4281 98.7876 57.4281 99.3873C57.4281 100.058 57.6209 100.566 58.0046 100.908C58.3856 101.253 58.9449 101.423 59.6856 101.423C60.3149 101.423 60.8859 101.289 61.3952 101.015C61.908 100.75 62.3877 100.419 62.8343 100.027ZM59.2373 89.2094H57.0964V87.1587H59.2373V89.2094ZM62.8343 101.663C62.6683 101.784 62.4531 101.954 62.177 102.169C61.9064 102.377 61.6417 102.549 61.3863 102.674C61.0321 102.858 60.6897 102.997 60.3597 103.095C60.028 103.193 59.5681 103.243 58.9702 103.243C58.4797 103.243 58.0152 103.153 57.5759 102.97C57.1366 102.788 56.7494 102.533 56.4177 102.202C56.0967 101.88 55.8412 101.481 55.6484 101.009C55.4584 100.537 55.3643 100.04 55.3643 99.5072C55.3643 98.6971 55.538 98.0062 55.8832 97.4333C56.2311 96.862 56.7808 96.4101 57.5357 96.0725C58.2018 95.7725 58.9881 95.564 59.8963 95.4476C60.8035 95.3314 61.7852 95.2489 62.8343 95.1907V94.8103C62.8343 94.3476 62.7625 93.9753 62.619 93.6932C62.4783 93.4095 62.28 93.1856 62.0246 93.0352C61.7719 92.8751 61.4579 92.7667 61.0877 92.7158C60.7211 92.6638 60.339 92.6379 59.9491 92.6379C59.4875 92.6379 58.9449 92.705 58.3218 92.8384C57.6971 92.977 57.0693 93.1766 56.448 93.4335H56.3298V91.4284C56.6991 91.3211 57.2291 91.2075 57.9167 91.0821C58.6052 90.9568 59.2867 90.8915 59.9608 90.8915C60.7767 90.8915 61.4652 90.9568 62.0246 91.0821C62.586 91.2075 63.0897 91.4339 63.5352 91.7641C63.9711 92.0847 64.291 92.5036 64.5063 93.0128C64.717 93.5259 64.8228 94.1496 64.8228 94.8839V102.918H62.8343V101.663Z" fill="#231F20"/>
<path d="M69.6747 102.918H67.6754V91.1733H69.6747V102.918ZM69.8138 89.2094H67.5365V87.1587H69.8138V89.2094Z" fill="#231F20"/>
<path d="M75.8296 103.202C75.0343 103.202 74.2919 103.095 73.5999 102.886C72.9067 102.674 72.3348 102.45 71.8785 102.213V99.995H71.9862C72.1583 100.129 72.3582 100.275 72.5886 100.436C72.8172 100.597 73.1245 100.767 73.5092 100.939C73.8482 101.091 74.223 101.233 74.6309 101.351C75.0378 101.472 75.4619 101.53 75.9012 101.53C76.2223 101.53 76.5629 101.494 76.926 101.418C77.2845 101.347 77.5581 101.253 77.7346 101.141C77.9813 100.98 78.1606 100.808 78.2726 100.626C78.383 100.445 78.4357 100.168 78.4357 99.808C78.4357 99.3352 78.3068 98.9816 78.0486 98.7472C77.7913 98.5045 77.3295 98.3058 76.6678 98.142C76.4142 98.0803 76.0789 98.0104 75.6683 97.9254C75.2558 97.8404 74.8764 97.7465 74.5296 97.6525C73.6214 97.3883 72.9623 96.99 72.5508 96.4485C72.1386 95.9042 71.9341 95.2488 71.9341 94.4764C71.9341 93.4183 72.3403 92.5562 73.1461 91.8875C73.9558 91.2234 75.0288 90.8914 76.3719 90.8914C77.0309 90.8914 77.696 90.9746 78.3623 91.1313C79.0274 91.294 79.5888 91.4982 80.0433 91.7418V93.8569H79.9384C79.4247 93.4541 78.8581 93.1436 78.2278 92.9098C77.6001 92.6772 76.9682 92.5617 76.3288 92.5617C75.6683 92.5617 75.1124 92.6976 74.6568 92.9726C74.2023 93.2437 73.9781 93.6601 73.9781 94.2133C73.9781 94.7028 74.1099 95.0699 74.3816 95.3098C74.6506 95.5507 75.0837 95.7521 75.6788 95.9068C75.9774 95.9785 76.3091 96.0546 76.674 96.1307C77.0398 96.2021 77.4236 96.2917 77.8305 96.3903C78.7075 96.6096 79.3708 96.965 79.8147 97.4708C80.2567 97.9765 80.4798 98.664 80.4798 99.5323C80.4798 100.04 80.3768 100.512 80.175 100.966C79.9733 101.418 79.6756 101.806 79.2884 102.128C78.8624 102.479 78.383 102.749 77.8468 102.927C77.3088 103.108 76.6363 103.202 75.8296 103.202Z" fill="#231F20"/>
<path d="M87.066 103.178C86.2519 103.178 85.5032 103.055 84.8218 102.809C84.1406 102.558 83.5533 102.182 83.0646 101.676C82.576 101.173 82.195 100.537 81.9288 99.7667C81.6545 98.9995 81.5209 98.0982 81.5209 97.0633C81.5209 96.0278 81.6616 95.1416 81.9414 94.3913C82.2218 93.6422 82.5985 93.0127 83.0646 92.498C83.5326 91.9861 84.1181 91.594 84.8174 91.3165C85.5168 91.0417 86.2652 90.9003 87.066 90.9003C87.7194 90.9003 88.3497 90.9925 88.9576 91.1733C89.5629 91.355 90.1052 91.5681 90.5776 91.8025V94.0226H90.4628C90.3194 93.9035 90.1367 93.7673 89.9115 93.6152C89.69 93.4587 89.4194 93.3019 89.1011 93.1436C88.8232 93.0004 88.4949 92.8787 88.1211 92.7739C87.7447 92.6637 87.3832 92.6144 87.0345 92.6144C85.9981 92.6144 85.167 93.0038 84.5395 93.7765C83.9118 94.5524 83.5962 95.6455 83.5962 97.0633C83.5962 98.4491 83.9012 99.5305 84.5053 100.305C85.1133 101.079 85.9561 101.468 87.0345 101.468C87.6891 101.468 88.3095 101.333 88.8994 101.067C89.4883 100.802 90.0056 100.459 90.4628 100.04H90.5776V102.252C90.3804 102.345 90.1312 102.457 89.831 102.587C89.5376 102.714 89.2643 102.816 89.0249 102.874C88.6834 102.972 88.3811 103.046 88.1096 103.099C87.8388 103.153 87.4936 103.178 87.066 103.178Z" fill="#231F20"/>
<path d="M101.74 102.918H99.7402V96.2293C99.7402 95.6894 99.7161 95.1907 99.6597 94.7209C99.6076 94.2553 99.5073 93.8813 99.3592 93.6019C99.1935 93.3109 98.9665 93.0891 98.6778 92.9459C98.3838 92.8026 97.9893 92.7318 97.4882 92.7318C96.9879 92.7318 96.477 92.8606 95.948 93.1248C95.4162 93.387 94.9007 93.7316 94.3997 94.1496V102.918H92.3976V86.5587H94.3997V92.4784C94.995 91.9522 95.5821 91.5494 96.163 91.2673C96.7503 90.9925 97.3627 90.8493 98.0074 90.8493C99.1772 90.8493 100.093 91.2272 100.753 91.9907C101.412 92.7488 101.74 93.8526 101.74 95.2954V102.918Z" fill="#231F20"/>
<path d="M112.054 95.7395C112.041 95.2041 111.978 94.7449 111.862 94.3599C111.75 93.9733 111.586 93.6511 111.376 93.3826C111.14 93.0872 110.84 92.8633 110.475 92.7084C110.109 92.5562 109.656 92.4783 109.118 92.4783C108.586 92.4783 108.135 92.5562 107.76 92.7157C107.388 92.8722 107.05 93.1023 106.745 93.4023C106.446 93.7093 106.218 94.0513 106.061 94.4298C105.907 94.804 105.808 95.2399 105.765 95.7395H112.054ZM109.713 103.189C107.82 103.189 106.348 102.664 105.302 101.605C104.256 100.553 103.733 99.0533 103.733 97.1153C103.733 95.2014 104.239 93.678 105.252 92.5473C106.267 91.4132 107.597 90.8492 109.235 90.8492C109.972 90.8492 110.624 90.9567 111.194 91.1643C111.76 91.3747 112.258 91.7042 112.685 92.1518C113.108 92.5993 113.435 93.1525 113.662 93.7987C113.891 94.4477 114.003 95.2399 114.003 96.1772V97.2515H105.765C105.765 98.6166 106.11 99.6592 106.807 100.383C107.503 101.106 108.466 101.468 109.692 101.468C110.131 101.468 110.564 101.418 110.985 101.32C111.406 101.222 111.79 101.091 112.131 100.939C112.492 100.781 112.796 100.624 113.045 100.472C113.293 100.32 113.498 100.179 113.662 100.047H113.777V102.202C113.545 102.291 113.253 102.408 112.906 102.542C112.559 102.681 112.245 102.788 111.969 102.867C111.579 102.97 111.227 103.05 110.908 103.104C110.595 103.162 110.194 103.189 109.713 103.189Z" fill="#231F20"/>
<path d="M5.87415 127C4.94443 127 4.13305 126.877 3.43556 126.635C2.74162 126.396 2.14901 126.035 1.6586 125.559C1.10723 125.013 0.717231 124.359 0.488613 123.596C0.264476 122.838 0.147926 121.899 0.147926 120.788V111.019H2.25659V120.788C2.25659 121.508 2.30233 122.114 2.39645 122.609C2.4861 123.106 2.66721 123.547 2.93618 123.939C3.22307 124.359 3.60678 124.679 4.0927 124.896C4.57953 125.113 5.17305 125.226 5.87415 125.226C6.53401 125.226 7.11854 125.113 7.63226 124.896C8.1424 124.679 8.53955 124.359 8.82197 123.939C9.08465 123.542 9.26308 123.099 9.3617 122.616C9.45672 122.133 9.50515 121.541 9.50515 120.839V111.019H11.612V120.788C11.612 121.871 11.5 122.806 11.2767 123.583C11.0526 124.359 10.6626 125.019 10.0995 125.559C9.59479 126.04 9.00756 126.405 8.33783 126.642C7.66724 126.879 6.84509 127 5.87415 127Z" fill="#231F20"/>
<path d="M23.8167 126.673H21.8147V119.987C21.8147 119.447 21.7904 118.948 21.7366 118.478C21.6847 118.01 21.5825 117.639 21.4345 117.359C21.2705 117.066 21.0445 116.846 20.7523 116.701C20.4618 116.56 20.0619 116.486 19.5599 116.486C19.065 116.486 18.5539 116.618 18.0232 116.88C17.4933 117.144 16.9778 117.489 16.4758 117.907V126.673H14.472V114.932H16.4758V116.233C17.0702 115.708 17.6601 115.307 18.2402 115.025C18.8229 114.747 19.437 114.604 20.0798 114.604C21.2525 114.604 22.167 114.984 22.8286 115.748C23.4895 116.507 23.8167 117.607 23.8167 119.053V126.673Z" fill="#231F20"/>
<path d="M28.6687 126.673H26.6694V114.932H28.6687V126.673ZM28.8087 112.964H26.5315V110.916H28.8087V112.964Z" fill="#231F20"/>
<path d="M39.3251 120.807C39.3251 119.286 39.0444 118.158 38.4814 117.417C37.9237 116.676 37.1231 116.309 36.0876 116.309C35.0458 116.309 34.2409 116.676 33.6786 117.417C33.1156 118.158 32.8314 119.286 32.8314 120.807C32.8314 122.28 33.1156 123.394 33.6786 124.158C34.2409 124.916 35.0458 125.295 36.0876 125.295C37.1169 125.295 37.9147 124.921 38.477 124.176C39.0416 123.428 39.3251 122.307 39.3251 120.807ZM41.3916 120.807C41.3916 122.784 40.9065 124.31 39.9427 125.384C38.9746 126.463 37.6907 127 36.0876 127C34.4362 127 33.1335 126.445 32.1876 125.332C31.24 124.225 30.7676 122.712 30.7676 120.807C30.7676 118.845 31.2563 117.323 32.2308 116.233C33.2062 115.15 34.4917 114.604 36.0876 114.604C37.6907 114.604 38.9746 115.145 39.9427 116.227C40.9065 117.314 41.3916 118.839 41.3916 120.807Z" fill="#231F20"/>
<path d="M52.7856 126.673H50.7847V119.987C50.7847 119.447 50.7576 118.948 50.7067 118.478C50.6546 118.01 50.5515 117.639 50.4035 117.359C50.2378 117.066 50.0136 116.846 49.7223 116.701C49.4281 116.56 49.0347 116.486 48.5316 116.486C48.0322 116.486 47.5213 116.618 46.9922 116.88C46.4632 117.144 45.9461 117.489 45.443 117.907V126.673H43.4419V114.932H45.443V116.233C46.0374 115.708 46.6264 115.307 47.2091 115.025C47.7919 114.747 48.406 114.604 49.0498 114.604C50.2199 114.604 51.137 114.984 51.7978 115.748C52.4567 116.507 52.7856 117.607 52.7856 119.053V126.673Z" fill="#231F20"/>
<path d="M0 -0.00431824H113.854V75.7811H0V-0.00431824Z" fill="#254AA5"/>
<path d="M34.8396 20.2359L35.7809 22.9224L38.6455 22.9797L36.3655 24.6984L37.1931 27.4224L34.8396 25.7976L32.4908 27.4224L33.32 24.6984L31.0382 22.9797L33.9 22.9224L34.8396 20.2359Z" fill="#FFF200"/>
<path d="M34.8396 20.2359L35.7809 22.9224L38.6455 22.9797L36.3655 24.6984L37.1931 27.4224L34.8396 25.7976L32.4908 27.4224L33.32 24.6984L31.0382 22.9797L33.9 22.9224L34.8396 20.2359Z" fill="#FFF200"/>
<path d="M44.152 10.9891L45.0916 13.6746L47.9606 13.7335L45.6771 15.4515L46.5063 18.1735L44.152 16.5489L41.804 18.1735L42.6351 15.4515L40.3489 13.7335L43.2151 13.6746L44.152 10.9891Z" fill="#FFF200"/>
<path d="M44.152 10.9891L45.0916 13.6746L47.9606 13.7335L45.6771 15.4515L46.5063 18.1735L44.152 16.5489L41.804 18.1735L42.6351 15.4515L40.3489 13.7335L43.2151 13.6746L44.152 10.9891Z" fill="#FFF200"/>
<path d="M56.986 7.6268L57.9256 10.3132L60.79 10.3705L58.5056 12.0892L59.3376 14.8114L56.986 13.1867L54.6353 14.8114L55.4645 12.0892L53.1829 10.3705L56.0448 10.3132L56.986 7.6268Z" fill="#FFF200"/>
<path d="M56.986 7.6268L57.9256 10.3132L60.79 10.3705L58.5056 12.0892L59.3376 14.8114L56.986 13.1867L54.6353 14.8114L55.4645 12.0892L53.1829 10.3705L56.0448 10.3132L56.986 7.6268Z" fill="#FFF200"/>
<path d="M69.6945 10.9891L70.6369 13.6746L73.5003 13.7335L71.2196 15.4515L72.0507 18.1735L69.6945 16.5489L67.3484 18.1735L68.1749 15.4515L65.8942 13.7335L68.7558 13.6746L69.6945 10.9891Z" fill="#FFF200"/>
<path d="M69.6945 10.9891L70.6369 13.6746L73.5003 13.7335L71.2196 15.4515L72.0507 18.1735L69.6945 16.5489L67.3484 18.1735L68.1749 15.4515L65.8942 13.7335L68.7558 13.6746L69.6945 10.9891Z" fill="#FFF200"/>
<path d="M79.0095 20.2359L79.9535 22.9224L82.8135 22.9797L80.5319 24.6984L81.3639 27.4224L79.0095 25.7976L76.6616 27.4224L77.4881 24.6984L75.2092 22.9797L78.0683 22.9224L79.0095 20.2359Z" fill="#FFF200"/>
<path d="M79.0095 20.2359L79.9535 22.9224L82.8135 22.9797L80.5319 24.6984L81.3639 27.4224L79.0095 25.7976L76.6616 27.4224L77.4881 24.6984L75.2092 22.9797L78.0683 22.9224L79.0095 20.2359Z" fill="#FFF200"/>
<path d="M82.3995 33.3349L83.3363 36.022L86.2025 36.0802L83.9163 37.798L84.7474 40.5201L82.3995 38.8982L80.046 40.522L80.8743 37.8007L78.5909 36.0802L81.4536 36.022L82.3995 33.3349Z" fill="#FFF200"/>
<path d="M82.3995 33.3349L83.3363 36.022L86.2025 36.0802L83.9163 37.798L84.7474 40.5201L82.3995 38.8982L80.046 40.522L80.8743 37.8007L78.5909 36.0802L81.4536 36.022L82.3995 33.3349Z" fill="#FFF200"/>
<path d="M79.0095 45.8778L79.9535 48.5615L82.8135 48.6197L80.5319 50.3384L81.3639 53.0605L79.0095 51.4358L76.6616 53.0605L77.4881 50.3384L75.2092 48.6197L78.0683 48.5615L79.0095 45.8778Z" fill="#FFF200"/>
<path d="M79.0095 45.8778L79.9535 48.5615L82.8135 48.6197L80.5319 50.3384L81.3639 53.0605L79.0095 51.4358L76.6616 53.0605L77.4881 50.3384L75.2092 48.6197L78.0683 48.5615L79.0095 45.8778Z" fill="#FFF200"/>
<path d="M69.6945 55.4718L70.6369 58.1582L73.5003 58.2164L71.2196 59.9369L72.0507 62.6564L69.6945 61.0335L67.3484 62.6564L68.1749 59.9369L65.8942 58.2164L68.7558 58.1582L69.6945 55.4718Z" fill="#FFF200"/>
<path d="M69.6945 55.4718L70.6369 58.1582L73.5003 58.2164L71.2196 59.9369L72.0507 62.6564L69.6945 61.0335L67.3484 62.6564L68.1749 59.9369L65.8942 58.2164L68.7558 58.1582L69.6945 55.4718Z" fill="#FFF200"/>
<path d="M56.986 58.9074L57.9256 61.5911L60.79 61.6493L58.5056 63.368L59.3376 66.0892L56.986 64.4663L54.6353 66.0892L55.4645 63.368L53.1829 61.6493L56.0448 61.5911L56.986 58.9074Z" fill="#FFF200"/>
<path d="M56.986 58.9074L57.9256 61.5911L60.79 61.6493L58.5056 63.368L59.3376 66.0892L56.986 64.4663L54.6353 66.0892L55.4645 63.368L53.1829 61.6493L56.0448 61.5911L56.986 58.9074Z" fill="#FFF200"/>
<path d="M44.152 55.4718L45.0916 58.1582L47.9606 58.2164L45.6771 59.9369L46.5063 62.6564L44.152 61.0335L41.804 62.6564L42.6351 59.9369L40.3489 58.2164L43.2151 58.1582L44.152 55.4718Z" fill="#FFF200"/>
<path d="M44.152 55.4718L45.0916 58.1582L47.9606 58.2164L45.6771 59.9369L46.5063 62.6564L44.152 61.0335L41.804 62.6564L42.6351 59.9369L40.3489 58.2164L43.2151 58.1582L44.152 55.4718Z" fill="#FFF200"/>
<path d="M34.8396 45.8778L35.7809 48.5615L38.6455 48.6197L36.3655 50.3384L37.1931 53.0605L34.8396 51.4358L32.4908 53.0605L33.32 50.3384L31.0382 48.6197L33.9 48.5615L34.8396 45.8778Z" fill="#FFF200"/>
<path d="M34.8396 45.8778L35.7809 48.5615L38.6455 48.6197L36.3655 50.3384L37.1931 53.0605L34.8396 51.4358L32.4908 53.0605L33.32 50.3384L31.0382 48.6197L33.9 48.5615L34.8396 45.8778Z" fill="#FFF200"/>
<path d="M31.4553 33.3349L32.3965 36.022L35.2583 36.0802L32.9776 37.798L33.8041 40.5201L31.4553 38.8982L29.1018 40.522L29.9311 37.8007L27.6494 36.0802L30.5113 36.022L31.4553 33.3349Z" fill="#FFF200"/>
<path d="M31.4553 33.3349L32.3965 36.022L35.2583 36.0802L32.9776 37.798L33.8041 40.5201L31.4553 38.8982L29.1018 40.522L29.9311 37.8007L27.6494 36.0802L30.5113 36.022L31.4553 33.3349Z" fill="#FFF200"/>
</g>
<defs>
<clipPath id="clip0">
<rect width="114" height="127" fill="white"/>
</clipPath>
</defs>
</svg>
