<svg width="200" height="127" viewBox="0 0 200 127" fill="none" xmlns="http://www.w3.org/2000/svg">
<g clip-path="url(#clip0)">
<path d="M36.9438 96.7047H43.584V98.2015H38.6419V101.673H43.1423V103.17H38.6419V107.083H43.584V108.58H36.9438V96.7047Z" fill="#231F20"/>
<path d="M48.0832 104.037L45.2641 99.9032H47.2511L49.1361 102.999L51.0552 99.9032H52.8382L50.0532 104.037L53.1098 108.58H51.14L49.0003 105.177L46.8604 108.58H44.9583L48.0832 104.037Z" fill="#231F20"/>
<path d="M54.8411 99.9032H56.4375V108.58H54.8411V99.9032ZM56.5392 97.9637H54.7395V96.1603H56.5392V97.9637Z" fill="#231F20"/>
<path d="M58.7127 106.878C59.3412 107.287 60.2412 107.491 60.6996 107.491C61.4296 107.491 62.3297 107.185 62.3297 106.249C62.3297 104.666 58.5769 104.803 58.5769 102.37C58.5769 100.566 59.9188 99.6992 61.6339 99.6992C62.3811 99.6992 62.9923 99.8517 63.6208 100.039L63.4849 101.434C63.1282 101.213 62.1773 100.992 61.8034 100.992C60.9884 100.992 60.2749 101.332 60.2749 102.047C60.2749 103.816 64.0283 103.305 64.0283 106.079C64.0283 107.933 62.5506 108.784 61.0055 108.784C60.1899 108.784 59.3583 108.699 58.6277 108.307L58.7127 106.878Z" fill="#231F20"/>
<path d="M70.5653 101.196H68.2731V105.942C68.2731 106.946 68.8844 107.491 69.6144 107.491C70.107 107.491 70.4637 107.338 70.7012 107.185V108.546C70.345 108.648 69.8524 108.784 69.3427 108.784C67.6955 108.784 66.6767 108.001 66.6767 106.266V101.196H64.7235V99.9032H66.6767V97.8957L68.2731 97.3857V99.9032H70.5653V101.196Z" fill="#231F20"/>
<path d="M78.1725 103.408C78.1725 102.081 77.3917 100.992 76.0161 100.992C74.4534 100.992 73.8084 102.285 73.6897 103.408H78.1725ZM79.2084 108.222C78.5971 108.443 77.9008 108.784 76.4745 108.784C73.4009 108.784 71.9911 106.912 71.9911 104.088C71.9911 101.519 73.6041 99.6992 76.0498 99.6992C78.9368 99.6992 79.8711 101.808 79.8711 104.599H73.6897C73.6897 106.317 75.031 107.491 76.5424 107.491C77.5954 107.491 78.818 106.946 79.2084 106.623V108.222Z" fill="#231F20"/>
<path d="M82.0093 99.9032H83.5549V101.281H83.5886C84.0646 100.294 85.2192 99.6991 86.4252 99.6991C88.6667 99.6991 89.6689 101.094 89.6689 103.425V108.58H88.0725V104.088C88.0725 102.064 87.6307 101.077 86.2381 100.992C84.4213 100.992 83.6057 102.455 83.6057 104.564V108.58H82.0093V99.9032Z" fill="#231F20"/>
<path d="M91.7559 107.185L96.7489 101.196H91.9939V99.9032H98.5999V101.298L93.6074 107.287H98.7866V108.58H91.7559V107.185Z" fill="#231F20"/>
<path d="M106.938 104.344C106.938 102.54 106.105 100.992 104.407 100.992C102.794 100.992 101.995 102.744 101.995 104.224C101.995 105.858 102.913 107.287 104.407 107.287C105.902 107.287 106.938 105.96 106.938 104.344ZM108.534 108.206C108.534 110.843 107.175 112.356 104.067 112.356C103.151 112.356 102.352 112.237 100.959 111.761L101.13 110.281C102.352 110.843 103.083 111.063 104.254 111.063C105.935 111.063 106.938 109.924 106.938 108.086V107.235H106.903C106.224 108.138 105.103 108.58 103.999 108.58C101.52 108.58 100.297 106.555 100.297 104.309C100.297 102.081 101.554 99.6991 104.169 99.6991C105.697 99.6991 106.547 100.261 107.022 101.196H107.056V99.9032H108.534V108.206Z" fill="#231F20"/>
<path d="M111.249 99.9032H112.744V101.247H112.778C113.202 100.345 114.12 99.6991 115.036 99.6991C115.512 99.6991 115.75 99.75 116.089 99.818V101.247C115.801 101.128 115.478 101.094 115.206 101.094C113.78 101.094 112.846 102.455 112.846 104.632V108.58H111.249V99.9032Z" fill="#231F20"/>
<path d="M122.287 96.875H123.884V98.5761H122.287V96.875ZM119.502 96.875H121.099V98.5761H119.502V96.875ZM125.514 108.58H123.968V107.201H123.935C123.459 108.188 122.305 108.784 121.099 108.784C118.857 108.784 117.855 107.389 117.855 105.058V99.9032H119.451V104.395C119.451 106.419 119.893 107.406 121.285 107.491C123.102 107.491 123.918 106.028 123.918 103.918V99.9032H125.514V108.58Z" fill="#231F20"/>
<path d="M128.23 99.9032H129.775V101.281H129.809C130.285 100.294 131.439 99.6991 132.645 99.6991C134.887 99.6991 135.889 101.094 135.889 103.425V108.58H134.292V104.088C134.292 102.064 133.851 101.077 132.458 100.992C130.641 100.992 129.826 102.455 129.826 104.564V108.58H128.23V99.9032Z" fill="#231F20"/>
<path d="M142.12 107.491C143.92 107.491 144.667 105.705 144.667 104.258C144.667 102.642 143.835 100.992 142.103 100.992C140.371 100.992 139.691 102.625 139.726 104.207C139.691 105.568 140.405 107.491 142.12 107.491ZM144.735 107.355H144.701C144.276 108.001 143.292 108.784 141.746 108.784C139.131 108.784 138.027 106.453 138.027 104.088C138.027 101.757 139.25 99.6992 141.763 99.6992C143.275 99.6992 144.141 100.294 144.633 101.094H144.667V95.82H146.264V108.58H144.735V107.355Z" fill="#231F20"/>
<path d="M156.639 108.58H155.094V107.201H155.059C154.584 108.188 153.429 108.784 152.223 108.784C149.982 108.784 148.979 107.389 148.979 105.058V99.9032H150.576V104.395C150.576 106.419 151.018 107.406 152.41 107.491C154.228 107.491 155.042 106.028 155.042 103.918V99.9032H156.639V108.58Z" fill="#231F20"/>
<path d="M159.354 99.9032H160.9V101.281H160.934C161.409 100.294 162.564 99.6991 163.769 99.6991C166.011 99.6991 167.014 101.094 167.014 103.425V108.58H165.417V104.088C165.417 102.064 164.975 101.077 163.583 100.992C161.765 100.992 160.951 102.455 160.951 104.564V108.58H159.354V99.9032Z" fill="#231F20"/>
<path d="M175.792 104.344C175.792 102.54 174.96 100.992 173.261 100.992C171.649 100.992 170.85 102.744 170.85 104.224C170.85 105.858 171.767 107.287 173.261 107.287C174.756 107.287 175.792 105.96 175.792 104.344ZM177.389 108.206C177.389 110.843 176.03 112.356 172.922 112.356C172.005 112.356 171.207 112.237 169.814 111.761L169.984 110.281C171.207 110.843 171.937 111.063 173.109 111.063C174.79 111.063 175.792 109.924 175.792 108.086V107.235H175.758C175.079 108.138 173.958 108.58 172.854 108.58C170.375 108.58 169.152 106.555 169.152 104.309C169.152 102.081 170.409 99.6991 173.024 99.6991C174.552 99.6991 175.401 100.261 175.877 101.196H175.911V99.9032H177.389V108.206Z" fill="#231F20"/>
<path d="M185.708 103.408C185.708 102.081 184.927 100.992 183.552 100.992C181.989 100.992 181.344 102.285 181.225 103.408H185.708ZM186.744 108.222C186.133 108.443 185.436 108.784 184.01 108.784C180.936 108.784 179.527 106.912 179.527 104.088C179.527 101.519 181.14 99.6992 183.585 99.6992C186.473 99.6992 187.407 101.808 187.407 104.599H181.225C181.225 106.317 182.567 107.491 184.078 107.491C185.131 107.491 186.354 106.946 186.744 106.623V108.222Z" fill="#231F20"/>
<path d="M189.545 99.9032H191.09V101.281H191.125C191.6 100.294 192.755 99.6991 193.96 99.6991C196.202 99.6991 197.205 101.094 197.205 103.425V108.58H195.608V104.088C195.608 102.064 195.166 101.077 193.774 100.992C191.956 100.992 191.142 102.455 191.142 104.564V108.58H189.545V99.9032Z" fill="#231F20"/>
<path d="M41.8517 122.662C41.512 122.662 41.1726 122.628 40.8328 122.628C39.9669 122.628 37.827 122.764 37.827 124.295C37.827 125.214 38.7101 125.707 39.4404 125.707C41.0194 125.707 41.8517 124.72 41.8517 123.427V122.662ZM37.1136 118.732C37.912 118.256 38.8628 117.915 39.9669 117.915C42.4461 117.915 43.4483 119.14 43.4483 121.505V125.094C43.4483 126.081 43.482 126.541 43.5159 126.796H42.0216V125.673H41.9875C41.6142 126.201 40.765 127 39.3042 127C37.4363 127 36.1285 126.184 36.1285 124.295C36.1285 122.118 38.5062 121.437 40.1537 121.437C40.7819 121.437 41.2235 121.437 41.8517 121.471C41.8517 119.974 41.3083 119.208 39.712 119.208C38.8118 119.208 37.8439 119.549 37.1984 120.093L37.1136 118.732Z" fill="#231F20"/>
<path d="M53.8062 126.796H52.2607V125.418H52.2269C51.7512 126.405 50.5965 127 49.3907 127C47.149 127 46.1469 125.605 46.1469 123.274V118.12H47.7432V122.611C47.7432 124.636 48.1848 125.622 49.5776 125.707C51.3946 125.707 52.21 124.244 52.21 122.135V118.12H53.8062V126.796Z" fill="#231F20"/>
<path d="M55.8766 125.094C56.505 125.503 57.4051 125.707 57.8634 125.707C58.594 125.707 59.4941 125.401 59.4941 124.465C59.4941 122.882 55.7407 123.019 55.7407 120.586C55.7407 118.783 57.0826 117.915 58.7977 117.915C59.5449 117.915 60.1562 118.068 60.7846 118.256L60.6487 119.65C60.292 119.429 59.3411 119.208 58.9673 119.208C58.1522 119.208 57.4388 119.549 57.4388 120.263C57.4388 122.033 61.1921 121.522 61.1921 124.295C61.1921 126.149 59.7144 127 58.1693 127C57.3543 127 56.5221 126.915 55.7915 126.524L55.8766 125.094Z" fill="#231F20"/>
<path d="M71.3632 125.707C73.1634 125.707 73.9105 123.921 73.9105 122.475C73.9105 120.858 73.0784 119.208 71.3461 119.208C69.6144 119.208 68.9346 120.842 68.9688 122.423C68.9346 123.785 69.6481 125.707 71.3632 125.707ZM73.9785 125.571H73.9448C73.5201 126.217 72.535 127 70.9894 127C68.3741 127 67.2703 124.669 67.2703 122.304C67.2703 119.974 68.4934 117.915 71.0065 117.915C72.5179 117.915 73.3843 118.511 73.8768 119.311H73.9105V114.036H75.507V126.796H73.9785V125.571Z" fill="#231F20"/>
<path d="M83.8272 121.624C83.8272 120.297 83.0458 119.208 81.6703 119.208C80.1081 119.208 79.4626 120.501 79.3438 121.624H83.8272ZM84.8631 126.438C84.2518 126.66 83.555 127 82.1286 127C79.055 127 77.6453 125.129 77.6453 122.304C77.6453 119.735 79.2588 117.915 81.7045 117.915C84.5909 117.915 85.5252 120.025 85.5252 122.815H79.3438C79.3438 124.533 80.6852 125.707 82.1965 125.707C83.2496 125.707 84.4722 125.162 84.8631 124.84V126.438Z" fill="#231F20"/>
<path d="M87.6639 118.119H89.1582V119.464H89.1919C89.6166 118.562 90.5338 117.915 91.451 117.915C91.9264 117.915 92.1644 117.966 92.5035 118.034V119.464C92.2152 119.344 91.8922 119.311 91.621 119.311C90.1942 119.311 89.2598 120.671 89.2598 122.849V126.796H87.6639V118.119Z" fill="#231F20"/>
<path d="M97.665 114.921H99.5332L102.369 125.094H102.404L104.934 114.921H107.345L109.91 125.094H109.943L112.779 114.921H114.58L110.928 126.796H108.737L106.156 116.418H106.123L103.524 126.796H101.248L97.665 114.921Z" fill="#231F20"/>
<path d="M116.174 118.119H117.77V126.796H116.174V118.119ZM117.872 116.18H116.072V114.377H117.872V116.18Z" fill="#231F20"/>
<path d="M120.046 125.094C120.674 125.503 121.574 125.707 122.032 125.707C122.763 125.707 123.663 125.401 123.663 124.465C123.663 122.882 119.91 123.019 119.91 120.586C119.91 118.783 121.252 117.915 122.967 117.915C123.714 117.915 124.325 118.068 124.953 118.256L124.818 119.65C124.461 119.429 123.51 119.208 123.136 119.208C122.321 119.208 121.608 119.549 121.608 120.263C121.608 122.033 125.361 121.522 125.361 124.295C125.361 126.149 123.883 127 122.338 127C121.523 127 120.69 126.915 119.96 126.524L120.046 125.094Z" fill="#231F20"/>
<path d="M126.65 125.094C127.279 125.503 128.179 125.707 128.637 125.707C129.368 125.707 130.268 125.401 130.268 124.465C130.268 122.882 126.515 123.019 126.515 120.586C126.515 118.783 127.856 117.915 129.572 117.915C130.319 117.915 130.93 118.068 131.558 118.256L131.423 119.65C131.066 119.429 130.115 119.208 129.741 119.208C128.926 119.208 128.213 119.549 128.213 120.263C128.213 122.033 131.966 121.522 131.966 124.295C131.966 126.149 130.488 127 128.943 127C128.128 127 127.296 126.915 126.565 126.524L126.65 125.094Z" fill="#231F20"/>
<path d="M139.505 121.624C139.505 120.297 138.724 119.208 137.348 119.208C135.786 119.208 135.141 120.501 135.022 121.624H139.505ZM140.541 126.438C139.93 126.66 139.234 127 137.807 127C134.733 127 133.324 125.129 133.324 122.304C133.324 119.735 134.937 117.915 137.383 117.915C140.27 117.915 141.203 120.025 141.203 122.815H135.022C135.022 124.533 136.364 125.707 137.875 125.707C138.928 125.707 140.151 125.162 140.541 124.84V126.438Z" fill="#231F20"/>
<path d="M143.342 118.119H144.888V119.497H144.921C145.397 118.511 146.552 117.915 147.757 117.915C149.999 117.915 151.001 119.311 151.001 121.641V126.796H149.405V122.304C149.405 120.28 148.963 119.293 147.571 119.208C145.754 119.208 144.938 120.671 144.938 122.781V126.796H143.342V118.119Z" fill="#231F20"/>
<path d="M153.072 125.094C153.7 125.503 154.601 125.707 155.059 125.707C155.789 125.707 156.689 125.401 156.689 124.465C156.689 122.882 152.936 123.019 152.936 120.586C152.936 118.783 154.277 117.915 155.993 117.915C156.74 117.915 157.352 118.068 157.98 118.256L157.844 119.65C157.487 119.429 156.537 119.208 156.163 119.208C155.348 119.208 154.634 119.549 154.634 120.263C154.634 122.033 158.388 121.522 158.388 124.295C158.388 126.149 156.91 127 155.364 127C154.55 127 153.717 126.915 152.987 126.524L153.072 125.094Z" fill="#231F20"/>
<path d="M165.825 119.582C165.214 119.328 164.602 119.208 164.093 119.208C162.31 119.208 161.308 120.807 161.308 122.458C161.308 124.006 162.139 125.707 164.195 125.707C164.738 125.707 165.417 125.537 165.91 125.214L166.029 126.643C165.366 126.949 164.602 127 164.025 127C161.409 127 159.61 124.941 159.61 122.458C159.61 119.821 161.376 117.915 164.025 117.915C164.67 117.915 165.503 118.068 165.961 118.256L165.825 119.582Z" fill="#231F20"/>
<path d="M167.862 114.036H169.458V119.361H169.492C170.07 118.443 171.072 117.915 172.277 117.915C174.519 117.915 175.521 119.311 175.521 121.641V126.796H173.925V122.304C173.925 120.28 173.483 119.293 172.091 119.208C170.273 119.208 169.458 120.671 169.458 122.781V126.796H167.862V114.036Z" fill="#231F20"/>
<path d="M183.382 122.662C183.042 122.662 182.703 122.628 182.363 122.628C181.497 122.628 179.357 122.764 179.357 124.295C179.357 125.214 180.24 125.707 180.97 125.707C182.55 125.707 183.382 124.72 183.382 123.427V122.662ZM178.644 118.732C179.442 118.256 180.393 117.915 181.497 117.915C183.977 117.915 184.979 119.14 184.979 121.505V125.094C184.979 126.081 185.012 126.541 185.046 126.796H183.552V125.673H183.518C183.144 126.201 182.295 127 180.835 127C178.966 127 177.659 126.184 177.659 124.295C177.659 122.118 180.036 121.437 181.684 121.437C182.312 121.437 182.753 121.437 183.382 121.471C183.382 119.974 182.839 119.208 181.242 119.208C180.342 119.208 179.374 119.549 178.729 120.093L178.644 118.732Z" fill="#231F20"/>
<path d="M188.714 119.412H186.676V118.119H188.714V117.32C188.714 115.21 189.257 113.832 191.618 113.832C192.025 113.832 192.365 113.884 192.687 113.934L192.62 115.227C192.433 115.159 192.127 115.125 191.855 115.125C190.48 115.125 190.31 116.01 190.31 117.184V118.119H192.602V119.412H190.31V126.796H188.714V119.412Z" fill="#231F20"/>
<path d="M198.885 119.412H196.592V124.159C196.592 125.162 197.204 125.707 197.934 125.707C198.427 125.707 198.783 125.554 199.021 125.401V126.762C198.664 126.864 198.172 127 197.662 127C196.015 127 194.996 126.217 194.996 124.482V119.412H193.044V118.12H194.996V116.112L196.592 115.602V118.12H198.885V119.412Z" fill="#231F20"/>
<path d="M34.0035 47.4048C34.1852 46.0385 34.2761 44.9455 34.2761 43.8526C34.2761 38.3877 30.912 34.4712 24.457 34.4712C17.4561 34.4712 12.0921 40.5736 10.2739 47.4048H34.0035ZM35.0944 74.2733C30.6394 75.3663 26.0025 76.1859 21.3657 76.1859C10.0919 76.1859 0 71.6319 0 55.2378C0 42.3953 9.00102 27.549 25.3662 27.549C36.5491 27.549 42.8223 34.289 42.8223 45.3099C42.8223 48.4067 42.4586 51.048 42.0042 53.7799H9.36453C9.18275 54.7824 9.09188 55.6926 9.09188 56.6945C9.09188 66.4408 15.0923 69.2638 23.366 69.2638C27.6392 69.2638 32.276 68.1708 36.4582 66.4408L35.0944 74.2733Z" fill="#231F20"/>
<path d="M116.011 28.2225H122.739L112.747 74.7974H106.02L116.011 28.2225Z" fill="#231F20"/>
<path d="M116.011 28.2225H122.739L112.747 74.7974H106.02L116.011 28.2225Z" stroke="#231F20" stroke-width="1.33333"/>
<path d="M154.643 35.5626C152.445 34.228 149.714 33.2936 146.184 33.2936C141.787 33.2936 136.992 35.0284 136.992 40.5667C136.992 48.374 152.845 48.4404 152.845 60.6513C152.845 67.6576 147.982 75.5983 136.792 75.5983C131.397 75.5983 127.533 74.3972 123.804 72.9291L125.935 66.7902C128.666 68.525 132.462 69.7268 135.726 69.7268C142.786 69.7268 145.783 65.3227 145.783 61.4523C145.783 51.9771 129.932 53.645 129.932 40.7001C129.932 32.2263 137.658 27.4215 145.318 27.4215C149.181 27.4215 152.978 28.1555 156.508 29.624L154.643 35.5626Z" fill="#231F20"/>
<path d="M154.643 35.5626C152.445 34.228 149.714 33.2936 146.184 33.2936C141.787 33.2936 136.992 35.0284 136.992 40.5667C136.992 48.374 152.845 48.4404 152.845 60.6513C152.845 67.6576 147.982 75.5983 136.792 75.5983C131.397 75.5983 127.533 74.3972 123.804 72.9291L125.935 66.7902C128.666 68.525 132.462 69.7268 135.726 69.7268C142.786 69.7268 145.783 65.3227 145.783 61.4523C145.783 51.9771 129.932 53.645 129.932 40.7001C129.932 32.2263 137.658 27.4215 145.318 27.4215C149.181 27.4215 152.978 28.1555 156.508 29.624L154.643 35.5626Z" stroke="#231F20" stroke-width="1.33333"/>
<path d="M198.403 34.0946H183.949L175.223 74.7974H168.496L177.222 34.0946H162.768L164.033 28.2225H199.668L198.403 34.0946Z" fill="#231F20"/>
<path d="M198.403 34.0946H183.949L175.223 74.7974H168.496L177.222 34.0946H162.768L164.033 28.2225H199.668L198.403 34.0946Z" stroke="#231F20" stroke-width="1.33333"/>
<path d="M81.4066 51.579L97.2275 82.7669H81.4066L70.944 60.1428L47.4671 86.3459L36.6216 79.316L64.8198 49.9175L49.6362 19.2401H64.8198L75.0268 41.6087L98.1212 15.7892L108.711 22.5635L81.4066 51.579Z" fill="#ED1C24"/>
<path d="M88.3405 8.66878C88.3405 13.4549 84.4679 17.3365 79.6877 17.3365C74.908 17.3365 71.0338 13.4549 71.0338 8.66878C71.0338 3.88217 74.908 -3.8147e-05 79.6877 -3.8147e-05C84.4679 -3.8147e-05 88.3405 3.88217 88.3405 8.66878Z" fill="#BDBCBC"/>
</g>
<defs>
<clipPath id="clip0">
<rect width="200" height="127" fill="white"/>
</clipPath>
</defs>
</svg>
