<svg width="309" height="127" viewBox="0 0 309 127" fill="none" xmlns="http://www.w3.org/2000/svg">
<g clip-path="url(#clip0)">
<path d="M195.106 -0.00617218L189.586 16.5981L172.774 16.9596L186.181 27.58L181.308 44.4099L195.106 34.3663L208.919 44.4099L204.048 27.58L217.434 16.9596L200.624 16.5981L195.106 -0.00617218Z" fill="#FFF200"/>
<path d="M281.138 98.7688L264.33 99.1294L277.731 109.752L272.862 126.579L286.653 116.535L300.461 126.579L295.592 109.752L308.991 99.1294L292.187 98.7688L286.653 82.1624L281.138 98.7688Z" fill="#FFF200"/>
<path d="M250.925 33.3044L256.457 49.9105L273.262 50.272L259.862 60.8938L264.732 77.7196L250.925 67.6789L237.131 77.7196L242 60.8938L228.602 50.272L245.407 49.9105L250.925 33.3044Z" fill="#FFF200"/>
<path d="M19.6911 22.1501L6.64451 39.7947V39.8642H17.6395L16.7686 43.5667H0L0.417786 40.9723L13.6722 23.3966V23.3269H3.89664L4.453 19.6942H20.0735L19.6911 22.1501Z" fill="#254AA5"/>
<path d="M33.8808 43.5667H29.915L30.2614 41.3528H30.1934C29.3919 42.2864 28.0366 43.9822 24.871 43.9822C22.1569 43.9822 20.7304 42.2526 20.7304 39.0348C20.7304 38.1687 20.9036 36.7857 21.1481 35.5047L22.5394 26.7172H26.8885L25.4619 35.5047C25.2887 36.5438 25.1835 37.512 25.1835 38.1348C25.1835 39.6232 25.7744 40.3488 26.9925 40.3488C28.419 40.3488 29.6025 39.5177 30.2974 38.897L32.2111 26.7172H36.5588L33.8808 43.5667Z" fill="#254AA5"/>
<path d="M48.8682 30.7991C48.4164 30.4883 47.2343 29.7621 45.4952 29.7621C44.1741 29.7621 43.5457 30.2809 43.5457 31.0769C43.5457 31.872 44.0347 32.4261 45.2881 33.2909L46.1203 33.8786C47.9647 35.1588 49.184 36.6135 49.184 38.7585C49.184 41.6987 46.922 43.9822 42.8866 43.9822C40.0335 43.9822 38.4676 42.8403 37.7374 42.2864L39.198 38.8273C39.687 39.2766 41.0423 40.4185 42.8153 40.4185C44.1741 40.4185 44.9723 40.0029 44.9723 39.1381C44.9723 38.307 44.4525 37.7194 43.1313 36.6823L42.2957 36.0586C40.5566 34.6757 39.5104 33.4643 39.5104 31.3531C39.5104 28.2048 42.2244 26.3016 45.8418 26.3016C48.1753 26.3016 49.5306 27.1327 50.0535 27.4786L48.8682 30.7991Z" fill="#254AA5"/>
<path d="M58.9223 40.3488C60.556 40.3488 61.531 39.4489 62.0165 38.9996L63.4092 30.3148C63.0254 30.0729 62.4344 29.7621 61.4969 29.7621C58.8509 29.7621 56.5922 32.0105 56.5922 37.0959C56.5922 39.2766 57.4956 40.3488 58.9223 40.3488ZM65.634 43.5667H61.6362L61.9487 41.5601H61.8774C61.3576 42.2864 59.999 43.9822 57.2172 43.9822C54.398 43.9822 52.2071 41.9756 52.2071 37.0268C52.2071 30.1424 56.5922 26.3016 61.3204 26.3016C63.5485 26.3016 64.6251 27.2017 65.1483 27.6508L66.1571 26.7172H68.3139L65.634 43.5667Z" fill="#254AA5"/>
<path d="M94.8554 34.7432L93.4287 43.5667H89.0777L90.5042 34.7432C90.6435 33.9473 90.7828 32.8063 90.7828 32.1489C90.7828 30.6965 90.1917 29.9343 89.0097 29.9343C87.5118 29.9343 86.401 30.7653 85.7388 31.353C85.7047 32.426 85.4941 33.7399 85.355 34.7432L83.9284 43.5667H79.5807L81.0073 34.7432C81.1464 33.9136 81.2857 32.8752 81.2857 32.1489C81.2857 30.6965 80.6948 29.9343 79.5466 29.9343C78.1201 29.9343 77.006 30.7653 76.3471 31.3888L74.4313 43.5667H70.0836L72.7635 26.7171H76.7274L76.381 28.9311H76.449C77.3185 27.9285 78.9218 26.3015 81.6695 26.3015C83.5479 26.3015 84.8013 27.1326 85.3924 28.7587C86.2958 27.7562 88.1742 26.3015 90.9934 26.3015C93.7412 26.3015 95.2357 28.0663 95.2357 31.2842C95.2357 32.3563 94.9945 33.7062 94.8554 34.7432Z" fill="#254AA5"/>
<path d="M122.508 34.7432L121.081 43.5667H116.73L118.156 34.7432C118.296 33.9473 118.435 32.8063 118.435 32.1489C118.435 30.6965 117.844 29.9343 116.662 29.9343C115.164 29.9343 114.053 30.7653 113.391 31.353C113.357 32.426 113.146 33.7399 113.007 34.7432L111.58 43.5667H107.233L108.659 34.7432C108.799 33.9136 108.938 32.8752 108.938 32.1489C108.938 30.6965 108.347 29.9343 107.199 29.9343C105.772 29.9343 104.658 30.7653 103.999 31.3888L102.083 43.5667H97.7357L100.416 26.7171H104.379L104.033 28.9311H104.101C104.971 27.9285 106.574 26.3015 109.322 26.3015C111.2 26.3015 112.453 27.1326 113.044 28.7587C113.948 27.7562 115.826 26.3015 118.645 26.3015C121.393 26.3015 122.888 28.0663 122.888 31.2842C122.888 32.3563 122.647 33.7062 122.508 34.7432Z" fill="#254AA5"/>
<path d="M130.398 33.4989H130.989C134.226 33.4989 135.269 32.4619 135.269 30.9046C135.269 29.9702 134.678 29.5196 133.91 29.5196C132.415 29.5196 131.06 30.9046 130.398 33.4989ZM131.407 36.3357H130.051V36.8546C130.051 39.3455 131.128 40.4185 133.078 40.4185C135.163 40.4185 136.485 39.4152 136.94 38.9996L137.843 42.0783C137.252 42.6323 135.686 43.9822 132.348 43.9822C128.346 43.9822 125.805 41.8372 125.805 36.9234C125.805 29.9702 130.225 26.3016 134.779 26.3016C137.391 26.3016 139.13 27.7205 139.13 30.4532C139.13 34.4325 135.894 36.3357 131.407 36.3357Z" fill="#254AA5"/>
<path d="M156.487 34.7432L155.061 43.5667H150.71L152.136 34.7432C152.313 33.6367 152.415 32.7719 152.415 32.1489C152.415 30.6268 151.858 29.9343 150.571 29.9343C149.076 29.9343 147.86 30.799 147.164 31.3888L145.248 43.5667H140.9L143.58 26.7171H147.544L147.198 28.9311H147.266C148.067 28.0325 149.806 26.3015 152.765 26.3015C155.407 26.3015 156.868 27.9973 156.868 31.1807C156.868 31.9767 156.766 33.1522 156.487 34.7432Z" fill="#254AA5"/>
<path d="M161.667 43.9822C160.064 43.9822 159.055 42.9789 159.055 41.3528C159.055 39.726 160.064 38.7227 161.667 38.7227C163.23 38.7227 164.276 39.726 164.276 41.3528C164.276 42.9789 163.23 43.9822 161.667 43.9822Z" fill="#254AA5"/>
<path d="M19.6911 63.6591L6.64451 81.3037V81.3733H17.6395L16.7686 85.0757H0L0.417786 82.4814L13.6722 64.9056V64.8359H3.89664L4.453 61.2032H20.0735L19.6911 63.6591Z" fill="#254AA5"/>
<path d="M33.8808 85.0757H29.915L30.2614 82.8617H30.1934C29.3919 83.7953 28.0366 85.4911 24.871 85.4911C22.1569 85.4911 20.7304 83.7615 20.7304 80.5437C20.7304 79.6776 20.9036 78.2947 21.1481 77.0136L22.5394 68.2262H26.8885L25.4619 77.0136C25.2887 78.0527 25.1835 79.0209 25.1835 79.6437C25.1835 81.1321 25.7744 81.8577 26.9925 81.8577C28.419 81.8577 29.6025 81.0266 30.2974 80.4059L32.2111 68.2262H36.5588L33.8808 85.0757Z" fill="#254AA5"/>
<path d="M53.4265 68.2262C53.4978 68.5728 53.5997 69.2653 53.5997 69.886C53.5997 73.7268 51.7926 76.08 49.1127 77.2217L52.7302 85.0757H47.9647L45.2168 78.0864C44.9043 78.1224 44.5544 78.1224 44.208 78.1224H43.7562L42.6421 85.0757H38.3285L42.1905 60.6843L46.6095 60.3026L44.2793 74.7659H44.6598C47.7574 74.7659 49.2859 73.3809 49.2859 69.9915C49.2859 69.1956 49.2181 68.6753 49.1468 68.2262H53.4265Z" fill="#254AA5"/>
<path d="M69.2854 85.0757H65.3215L65.6681 82.8617H65.6001C64.7985 83.7953 63.4433 85.4911 60.2774 85.4911C57.5636 85.4911 56.137 83.7615 56.137 80.5437C56.137 79.6776 56.3102 78.2947 56.5548 77.0136L57.9474 68.2262H62.2951L60.8685 77.0136C60.6953 78.0527 60.5899 79.0209 60.5899 79.6437C60.5899 81.1321 61.1811 81.8577 62.4005 81.8577C63.8236 81.8577 65.0091 81.0266 65.7053 80.4059L67.6177 68.2262H71.9655L69.2854 85.0757Z" fill="#254AA5"/>
<path d="M89.3222 76.2523L87.8956 85.0757H83.5446L84.9712 76.2523C85.1477 75.1457 85.2496 74.2809 85.2496 73.658C85.2496 72.1358 84.6926 71.4433 83.4053 71.4433C81.9107 71.4433 80.6948 72.3081 79.9984 72.8978L78.0827 85.0757H73.735L76.4149 68.2262H80.3788L80.0323 70.4401H80.1003C80.9019 69.5415 82.641 67.8106 85.5995 67.8106C88.242 67.8106 89.7027 69.5064 89.7027 72.6898C89.7027 73.4857 89.6008 74.6613 89.3222 76.2523Z" fill="#254AA5"/>
<path d="M104.695 64.005C104.451 63.9022 103.894 63.6591 103.197 63.6591C101.703 63.6591 100.694 64.3514 100.344 66.5993L100.066 68.2261H103.962L103.337 71.6513H99.546L97.5285 84.3134C96.6216 90.058 93.9791 92.1674 89.0403 92.4113L88.5172 88.8813C91.5096 88.6035 92.6577 87.5314 93.2148 84.0723L95.195 71.6513H92.9362L93.456 68.6752L95.7521 68.2949L95.9966 66.7376C96.6929 62.3099 99.1283 60.0952 102.99 60.0952C104.417 60.0952 105.354 60.5459 105.633 60.6843L104.695 64.005Z" fill="#254AA5"/>
<path d="M115.442 71.6513H111.543L110.606 77.4987C110.432 78.6047 110.293 79.539 110.293 80.093C110.293 81.4085 110.884 81.8577 111.859 81.8577C112.762 81.8577 113.248 81.6166 113.527 81.478L113.839 84.66C113.353 84.9034 112.345 85.4222 110.432 85.4222C107.579 85.4222 105.874 84.0372 105.874 80.7504C105.874 79.9545 106.081 78.7431 106.258 77.4987L107.195 71.6513H104.933L105.456 68.6753L107.718 68.2619L108.972 63.6252H112.83L112.066 68.2261H116.033L115.442 71.6513Z" fill="#254AA5"/>
<path d="M118.883 85.4911C117.28 85.4911 116.271 84.4878 116.271 82.8617C116.271 81.2349 117.28 80.2316 118.883 80.2316C120.446 80.2316 121.492 81.2349 121.492 82.8617C121.492 84.4878 120.446 85.4911 118.883 85.4911Z" fill="#254AA5"/>
<path d="M20.5606 107.556C19.9342 107.106 18.5769 106.102 15.899 106.102C10.9243 106.102 7.0623 109.563 7.0623 116.896C7.0623 121.048 8.97528 123.194 12.5941 123.194C13.4636 123.194 14.2992 123.056 14.9255 122.917L15.829 117.486H11.8991L12.4548 113.853H20.7338L18.9948 124.681C18.2643 125.27 15.9683 127 11.6206 127C6.36666 127 2.26147 124.129 2.26147 117.209C2.26147 106.898 8.94064 102.297 16.1415 102.297C19.5177 102.297 21.2909 103.472 21.9872 103.923L20.5606 107.556Z" fill="#254AA5"/>
<path d="M28.0013 116.517H28.5922C31.8273 116.517 32.8721 115.48 32.8721 113.922C32.8721 112.988 32.2789 112.537 31.5148 112.537C30.0188 112.537 28.6616 113.922 28.0013 116.517ZM29.0101 119.354H27.6528V119.872C27.6528 122.363 28.7315 123.436 30.6791 123.436C32.7681 123.436 34.0895 122.433 34.5411 122.017L35.4447 125.096C34.8536 125.65 33.2878 127 29.9489 127C25.9476 127 23.4089 124.855 23.4089 119.941C23.4089 112.988 27.826 109.319 32.3843 109.319C34.9929 109.319 36.732 110.738 36.732 113.471C36.732 117.45 33.4984 119.354 29.0101 119.354Z" fill="#254AA5"/>
<path d="M49.0449 113.817C48.5931 113.506 47.411 112.78 45.6686 112.78C44.3473 112.78 43.7222 113.299 43.7222 114.095C43.7222 114.89 44.208 115.444 45.4613 116.309L46.297 116.896C48.1412 118.177 49.3574 119.631 49.3574 121.776C49.3574 124.716 47.0952 127 43.06 127C40.2067 127 38.6443 125.858 37.9106 125.304L39.3745 121.845C39.8603 122.294 41.2155 123.436 42.992 123.436C44.3473 123.436 45.1488 123.021 45.1488 122.156C45.1488 121.325 44.6257 120.737 43.3045 119.7L42.4689 119.077C40.7298 117.694 39.6871 116.482 39.6871 114.371C39.6871 111.223 42.4011 109.319 46.0184 109.319C48.3485 109.319 49.7071 110.15 50.2269 110.496L49.0449 113.817Z" fill="#254AA5"/>
<path d="M63.1681 113.16H59.2687L58.3312 119.007C58.158 120.113 58.0187 121.047 58.0187 121.601C58.0187 122.917 58.6098 123.366 59.5846 123.366C60.488 123.366 60.9737 123.125 61.2523 122.986L61.5649 126.168C61.0791 126.412 60.0703 126.931 58.158 126.931C55.3049 126.931 53.5997 125.546 53.5997 122.259C53.5997 121.463 53.8068 120.252 53.9835 119.007L54.921 113.16H52.6588L53.182 110.184L55.4442 109.77L56.6975 105.134H60.556L59.7919 109.734H63.7591L63.1681 113.16Z" fill="#254AA5"/>
<path d="M71.4423 123.367C73.0795 123.367 74.051 122.467 74.54 122.017L75.9292 113.333C75.5488 113.091 74.9579 112.78 74.0169 112.78C71.3743 112.78 69.1121 115.028 69.1121 120.114C69.1121 122.294 70.0158 123.367 71.4423 123.367ZM78.1575 126.585H74.1562L74.4687 124.578H74.4007C73.8778 125.304 72.5225 127 69.7372 127C66.9214 127 64.7305 124.993 64.7305 120.045C64.7305 113.16 69.1121 109.319 73.8437 109.319C76.0685 109.319 77.1486 110.219 77.6717 110.669L78.6806 109.735H80.8374L78.1575 126.585Z" fill="#254AA5"/>
<path d="M90.0152 126.203C89.5973 126.445 88.5884 126.895 87.0941 126.895C84.7265 126.895 83.198 125.96 83.198 123.02C83.198 122.294 83.4053 120.875 83.755 118.73L86.3636 102.192L90.7828 101.811L88.0688 118.73C87.7189 120.805 87.5798 121.878 87.5798 122.294C87.5798 123.263 87.9295 123.538 88.6599 123.538C89.2848 123.538 89.6686 123.366 89.9098 123.297L90.0152 126.203Z" fill="#254AA5"/>
<path d="M103.547 113.16H99.648L98.7106 119.007C98.5372 120.113 98.3981 121.047 98.3981 121.601C98.3981 122.917 98.989 123.366 99.964 123.366C100.867 123.366 101.353 123.125 101.632 122.986L101.944 126.168C101.458 126.412 100.45 126.931 98.5372 126.931C95.6841 126.931 93.9791 125.546 93.9791 122.259C93.9791 121.463 94.1862 120.252 94.3629 119.007L95.3003 113.16H93.0381L93.5612 110.184L95.8234 109.77L97.0767 105.134H100.935L100.171 109.734H104.138L103.547 113.16Z" fill="#254AA5"/>
<path d="M109.699 116.517H110.293C113.527 116.517 114.569 115.48 114.569 113.922C114.569 112.988 113.979 112.537 113.214 112.537C111.72 112.537 110.361 113.922 109.699 116.517ZM110.711 119.354H109.352V119.872C109.352 122.363 110.432 123.436 112.379 123.436C114.468 123.436 115.789 122.433 116.241 122.017L117.144 125.096C116.553 125.65 114.987 127 111.648 127C107.647 127 105.11 124.855 105.11 119.941C105.11 112.988 109.525 109.319 114.084 109.319C116.692 109.319 118.431 110.738 118.431 113.471C118.431 117.45 115.198 119.354 110.711 119.354Z" fill="#254AA5"/>
<path d="M135.788 117.761L134.362 126.584H130.014L131.441 117.761C131.614 116.654 131.719 115.79 131.719 115.167C131.719 113.645 131.162 112.952 129.875 112.952C128.38 112.952 127.161 113.817 126.464 114.407L124.552 126.584H120.204L122.881 109.735H126.848L126.499 111.949H126.57C127.368 111.05 129.11 109.319 132.065 109.319C134.712 109.319 136.172 111.015 136.172 114.199C136.172 114.995 136.067 116.17 135.788 117.761Z" fill="#254AA5"/>
<path d="M140.968 127C139.368 127 138.36 125.997 138.36 124.371C138.36 122.744 139.368 121.74 140.968 121.74C142.534 121.74 143.577 122.744 143.577 124.371C143.577 125.997 142.534 127 140.968 127Z" fill="#254AA5"/>
</g>
<defs>
<clipPath id="clip0">
<rect width="309" height="127" fill="white"/>
</clipPath>
</defs>
</svg>
